<?xml version="1.0" encoding="UTF-8" standalone="no"?>
<!-- Created with Inkscape (http://www.inkscape.org/) -->

<svg
   xmlns:dc="http://purl.org/dc/elements/1.1/"
   xmlns:cc="http://creativecommons.org/ns#"
   xmlns:rdf="http://www.w3.org/1999/02/22-rdf-syntax-ns#"
   xmlns:svg="http://www.w3.org/2000/svg"
   xmlns="http://www.w3.org/2000/svg"
   version="1.1"
   width="483.06525"
   height="508.56601"
   id="svg3184">
  <metadata
     id="metadata3327">
    <rdf:RDF>
      <cc:Work
         rdf:about="">
        <dc:format>image/svg+xml</dc:format>
        <dc:type
           rdf:resource="http://purl.org/dc/dcmitype/StillImage" />
        <dc:title></dc:title>
      </cc:Work>
    </rdf:RDF>
  </metadata>
  <defs
     id="defs3325" />
  <g
     transform="translate(-20.585999,-60.478952)"
     id="layer1">
    <path
       d="m 169.958,426.783 c 22.075,-63.764 50.296,-0.96 142,-2.41"
       id="path3189"
       style="fill:none;stroke:#ff0000;stroke-width:2px;stroke-miterlimit:14.33500004" />
    <line
       style="fill:none;stroke:#000000"
       id="line3191"
       y2="84.890999"
       x2="85.490997"
       y1="511.12399"
       x1="85.490997" />
    <line
       style="fill:none;stroke:#000000;stroke-width:0.5px"
       id="line3193"
       y2="511.12399"
       x2="82.758003"
       y1="511.12399"
       x1="85.490997" />
    <line
       style="fill:none;stroke:#000000;stroke-width:0.5px"
       id="line3195"
       y2="85.574997"
       x2="82.758003"
       y1="85.574997"
       x1="85.490997" />
    <line
       style="fill:none;stroke:#000000;stroke-width:0.5px"
       id="line3197"
       y2="284.164"
       x2="82.758003"
       y1="284.164"
       x1="85.490997" />
    <line
       style="fill:none;stroke:#000000;stroke-width:0.5px"
       id="line3199"
       y2="397.64401"
       x2="82.758003"
       y1="397.64401"
       x1="85.490997" />
    <line
       style="fill:none;stroke:#000000;stroke-width:0.5px"
       id="line3201"
       y2="142.315"
       x2="82.758003"
       y1="142.315"
       x1="85.490997" />
    <line
       style="fill:none;stroke:#000000;stroke-width:0.5px"
       id="line3203"
       y2="340.90399"
       x2="82.758003"
       y1="340.90399"
       x1="85.490997" />
    <line
       style="fill:none;stroke:#000000;stroke-width:0.5px"
       id="line3205"
       y2="199.054"
       x2="82.758003"
       y1="199.054"
       x1="85.490997" />
    <line
       style="fill:none;stroke:#000000;stroke-width:0.5px"
       id="line3207"
       y2="482.754"
       x2="82.758003"
       y1="482.754"
       x1="85.490997" />
    <line
       style="fill:none;stroke:#000000;stroke-width:0.5px"
       id="line3209"
       y2="454.384"
       x2="82.758003"
       y1="454.384"
       x1="85.490997" />
    <line
       style="fill:none;stroke:#000000;stroke-width:0.5px"
       id="line3211"
       y2="426.01401"
       x2="82.758003"
       y1="426.01401"
       x1="85.490997" />
    <line
       style="fill:none;stroke:#000000;stroke-width:0.5px"
       id="line3213"
       y2="369.27399"
       x2="82.758003"
       y1="369.27399"
       x1="85.490997" />
    <line
       style="fill:none;stroke:#000000;stroke-width:0.5px"
       id="line3215"
       y2="312.534"
       x2="82.758003"
       y1="312.534"
       x1="85.490997" />
    <line
       style="fill:none;stroke:#000000;stroke-width:0.5px"
       id="line3217"
       y2="227.424"
       x2="82.758003"
       y1="227.424"
       x1="85.490997" />
    <line
       style="fill:none;stroke:#000000;stroke-width:0.5px"
       id="line3219"
       y2="170.685"
       x2="82.758003"
       y1="170.685"
       x1="85.490997" />
    <line
       style="fill:none;stroke:#000000;stroke-width:0.5px"
       id="line3221"
       y2="113.945"
       x2="82.758003"
       y1="113.945"
       x1="85.490997" />
    <line
       style="fill:none;stroke:#000000;stroke-width:0.5px"
       id="line3223"
       y2="255.79401"
       x2="82.758003"
       y1="255.79401"
       x1="85.490997" />
    <line
       style="fill:none;stroke:#000000"
       id="line3225"
       y2="510.849"
       x2="79.758003"
       y1="510.849"
       x1="85.758003" />
    <line
       style="fill:none;stroke:#000000"
       id="line3227"
       y2="227.849"
       x2="78.758003"
       y1="227.849"
       x1="84.758003" />
    <line
       style="fill:none;stroke:#000000"
       id="line3229"
       y2="85.348999"
       x2="79.758003"
       y1="85.348999"
       x1="85.758003" />
    <line
       style="fill:none;stroke:#000000"
       id="line3231"
       y2="124.294"
       x2="458.854"
       y1="124.294"
       x1="356.02802" />
    <path
       d="m 457.844,128.2 c 0,0 -1.793,-3.884 0.043,-7.811 2.305,0.726 11.141,3.97 11.141,3.97 0,0 -11.184,3.841 -11.184,3.841"
       id="path3233"
       style="fill:#000000;fill-rule:evenodd;stroke:none" />
    <line
       style="fill:none;stroke:#000000"
       id="line3235"
       y2="127.294"
       x2="356.02802"
       y1="120.294"
       x1="356.02802" />
    <line
       style="fill:none;stroke:#000000"
       id="line3237"
       y2="127.294"
       x2="469.02802"
       y1="120.294"
       x1="469.02802" />
    <line
       style="fill:none;stroke:#ff1c1c;stroke-width:3px;stroke-miterlimit:14.33500004"
       id="line3239"
       stroke-miterlimit="14.335"
       y2="425.16599"
       x2="169.758"
       y1="425.16599"
       x1="90.758003" />
    <path
       d="m 169.98,425.773 c 22.074,-31.882 50.295,-0.48 142,-1.205"
       id="path3241"
       style="fill:none;stroke:#ff0000;stroke-width:2px;stroke-miterlimit:14.33500004" />
    <path
       d="m 168.758,424.166 c 6,-24 8,-40 29,-43 38.609,-5.515 28,-295.999999 58,-268 33.289,31.069 53.776,332.982 70.28,353.613 40,50 87,-42 143.721,-41.613"
       id="path3243"
       style="fill:none;stroke:#ff0000;stroke-width:3px;stroke-miterlimit:14.33500004" />
    <path
       d="m 169.758,425.166 3,0 m 5,0 3,0 m 5,0 3,0 m 5,0 3,0 m 5,0 3,0 m 5,0 3,0 m 5,0 3,0 m 5,0 3,0 m 5,0 3,0 m 5,0 3,0 m 5,0 3,0 m 5.001,0 3,0 m 5,0 3,0 m 5,0 3,0 m 5,0 3,0 m 5,0 3,0 m 5,0 3,0 m 5,0 3,0 m 5,0 3,0 m 5,0 3,0 m 5,0 3,0 m 5,0 3,0 m 5,0 3,0 m 5,0 3,0 m 5,0 3,0 m 5,0 3,0 m 5,0 3,0 m 5,0 3,0 m 5,0 3,0 m 5,0 3,0 m 5,0 3,0 m 5,0 3,0 m 5,0 3,0 m 5,0 3,0 m 5,0 3,0 m 5,0 3,0 m 5,0 3,0 m 5,0 3,0 m 5,0 3,0 m 5,0 0,0 0,0"
       id="path3245"
       style="fill:none;stroke:#000000" />
    <path
       d="m 85.758,228.166 3,0 m 5,0 3,0 m 5,0 3,0 m 5,0 3,0 m 5,0 3,0 m 5,0 3,0 m 5,0 3,0 m 5,0 3,0 m 5,0 3,0 m 5,0 3,0 m 5,0 3,0 m 5,0 3,0 m 5,0 3,0 m 5,0 3,0 m 5,0 3,0 m 5,0 3,0 m 5,0 3,0 m 5,0 3,0 m 5,0 3,0 m 5,0 3,0 m 5,0 3,0 m 5,0 3.001,0 m 5,0 3,0 m 5,0 3,0 m 5,0 3,0 m 5,0 3,0 m 5,0 3,0 m 5,0 3,0 m 5,0 3,0 m 5,0 3,0 m 5,0 3,0 m 5,0 3,0 m 5,0 3,0 m 5,0 3,0 m 5,0 3,0 m 5,0 3,0 m 5,0 3,0 m 5,0 3,0 m 5,0 3,0 m 5,0 3,0 m 5,0 3,0 m 5,0 3,0 m 5,0 3,0 m 5,0 3,0 m 5,0 3,0 m 5,0 3,0 m 5,0 3,0 m 5,0 3,0 m 5,0 3,0 m 5,0 3,0"
       id="path3247"
       style="fill:none;stroke:#000000" />
    <line
       style="fill:none;stroke:#000000"
       id="line3249"
       y2="383.16599"
       x2="219.53799"
       y1="383.16599"
       x1="84.758003" />
    <line
       style="fill:none;stroke:#000000"
       id="line3251"
       y2="466.77899"
       x2="169.758"
       y1="443.341"
       x1="169.758" />
    <path
       d="m 173.664,444.35 c 0,0 -3.884,1.793 -7.811,-0.043 0.726,-2.305 3.97,-11.141 3.97,-11.141 0,0 3.841,11.184 3.841,11.184"
       id="path3253"
       style="fill:#000000;fill-rule:evenodd;stroke:none" />
    <line
       style="fill:none;stroke:#000000"
       id="line3255"
       y2="369.27899"
       x2="78.538002"
       y1="369.27899"
       x1="84.538002" />
    <g
       id="text3259"
       style="font-size:18px;font-family:'Helvetica, sans-serif'">
      <path
         d="m 64.325999,80.478952 -6.588,0 -0.954,6.948 1.458,0 c 0.738,-0.882 1.350001,-1.188 2.34,-1.188 1.709999,0 2.79,1.170001 2.79,3.06 0,1.835998 -1.062001,2.952 -2.79,2.952 -1.385998,0 -2.232,-0.702002 -2.61,-2.142 l -1.584,0 c 0.216,1.043998 0.396001,1.548 0.774,2.016 0.72,0.971999 2.016002,1.53 3.456,1.53 2.573998,0 4.374,-1.872003 4.374,-4.572 0,-2.519998 -1.674002,-4.248 -4.122,-4.248 -0.899999,0 -1.62,0.234 -2.358,0.774 l 0.504,-3.564 5.31,0 0,-1.566"
         id="path4397"
         style="font-size:18px;font-family:'Helvetica, sans-serif'" />
      <path
         d="m 70.727531,80.478952 c -1.187999,0 -2.268001,0.522 -2.934,1.404 -0.828,1.115998 -1.242,2.826002 -1.242,5.184 0,4.301995 1.440002,6.588 4.176,6.588 2.699997,0 4.176,-2.286005 4.176,-6.48 0,-2.483998 -0.396001,-4.140002 -1.242,-5.292 -0.666,-0.9 -1.728002,-1.404 -2.934,-1.404 m 0,1.404 c 1.709998,0 2.556,1.728003 2.556,5.148 0,3.617996 -0.828002,5.31 -2.592,5.31 -1.673999,0 -2.52,-1.764004 -2.52,-5.256 0,-3.491997 0.846001,-5.202 2.556,-5.202"
         id="path4399"
         style="font-size:18px;font-family:'Helvetica, sans-serif'" />
    </g>
    <g
       id="text3263"
       style="font-size:18px;font-family:'Helvetica, sans-serif'">
      <path
         d="m 70.708003,221.47895 c -1.187999,0 -2.268,0.522 -2.934,1.404 -0.827999,1.116 -1.242,2.826 -1.242,5.184 0,4.302 1.440003,6.588 4.176,6.588 2.699998,0 4.176,-2.286 4.176,-6.48 0,-2.484 -0.396001,-4.14 -1.242,-5.292 -0.665999,-0.9 -1.728001,-1.404 -2.934,-1.404 m 0,1.404 c 1.709999,0 2.556,1.728 2.556,5.148 0,3.618 -0.828002,5.31 -2.592,5.31 -1.673998,0 -2.52,-1.764 -2.52,-5.256 0,-3.49199 0.846002,-5.202 2.556,-5.202"
         id="path4402"
         style="font-size:18px;font-family:'Helvetica, sans-serif'" />
    </g>
    <g
       id="text3267"
       style="font-size:18px;font-family:'Helvetica, sans-serif'">
      <path
         d="m 54.869999,369.62494 -4.284,0 0,1.296 4.284,0 0,-1.296"
         id="path4390"
         style="font-size:18px;font-family:'Helvetica, sans-serif'" />
      <path
         d="m 64.337718,362.47894 -6.588,0 -0.954,6.948 1.458,0 c 0.737999,-0.882 1.350001,-1.188 2.34,-1.188 1.709998,0 2.79,1.17 2.79,3.06 0,1.83599 -1.062002,2.952 -2.79,2.952 -1.385998,0 -2.232,-0.70201 -2.61,-2.142 l -1.584,0 c 0.216,1.044 0.396001,1.548 0.774,2.016 0.719999,0.972 2.016002,1.53 3.456,1.53 2.573998,0 4.374,-1.87201 4.374,-4.572 0,-2.52 -1.674002,-4.248 -4.122,-4.248 -0.899999,0 -1.620001,0.234 -2.358,0.774 l 0.504,-3.564 5.31,0 0,-1.566"
         id="path4392"
         style="font-size:18px;font-family:'Helvetica, sans-serif'" />
      <path
         d="m 70.739249,362.47894 c -1.187998,0 -2.268,0.522 -2.934,1.404 -0.827999,1.116 -1.242,2.826 -1.242,5.184 0,4.30199 1.440003,6.588 4.176,6.588 2.699998,0 4.176,-2.28601 4.176,-6.48 0,-2.484 -0.396,-4.14 -1.242,-5.292 -0.665999,-0.9 -1.728001,-1.404 -2.934,-1.404 m 0,1.404 c 1.709999,0 2.556,1.728 2.556,5.148 0,3.61799 -0.828001,5.31 -2.592,5.31 -1.673998,0 -2.52,-1.76401 -2.52,-5.256 0,-3.492 0.846002,-5.202 2.556,-5.202"
         id="path4394"
         style="font-size:18px;font-family:'Helvetica, sans-serif'" />
    </g>
    <g
       id="text3271"
       style="font-size:18px;font-family:'Helvetica, sans-serif'">
      <path
         d="m 44.869999,510.62497 -4.284,0 0,1.296 4.284,0 0,-1.296"
         id="path4381"
         style="font-size:18px;font-family:'Helvetica, sans-serif'" />
      <path
         d="m 50.431718,507.15097 0,9.09 1.584,0 0,-12.762 -1.044,0 c -0.557999,1.96199 -0.918002,2.232 -3.366,2.538 l 0,1.134 2.826,0"
         id="path4383"
         style="font-size:18px;font-family:'Helvetica, sans-serif'" />
      <path
         d="m 60.739249,503.47897 c -1.187998,0 -2.268,0.522 -2.934,1.404 -0.827999,1.116 -1.242,2.826 -1.242,5.184 0,4.30199 1.440003,6.588 4.176,6.588 2.699998,0 4.176,-2.28601 4.176,-6.48 0,-2.484 -0.396,-4.14 -1.242,-5.292 -0.665999,-0.9 -1.728001,-1.404 -2.934,-1.404 m 0,1.404 c 1.709999,0 2.556,1.728 2.556,5.148 0,3.61799 -0.828001,5.31 -2.592,5.31 -1.673998,0 -2.52,-1.76401 -2.52,-5.256 0,-3.492 0.846002,-5.202 2.556,-5.202"
         id="path4385"
         style="font-size:18px;font-family:'Helvetica, sans-serif'" />
      <path
         d="m 70.758781,503.47897 c -1.187999,0 -2.268001,0.522 -2.934,1.404 -0.828,1.116 -1.242,2.826 -1.242,5.184 0,4.30199 1.440002,6.588 4.176,6.588 2.699997,0 4.176,-2.28601 4.176,-6.48 0,-2.484 -0.396001,-4.14 -1.242,-5.292 -0.666,-0.9 -1.728002,-1.404 -2.934,-1.404 m 0,1.404 c 1.709998,0 2.556,1.728 2.556,5.148 0,3.61799 -0.828002,5.31 -2.592,5.31 -1.673999,0 -2.52,-1.76401 -2.52,-5.256 0,-3.492 0.846001,-5.202 2.556,-5.202"
         id="path4387"
         style="font-size:18px;font-family:'Helvetica, sans-serif'" />
    </g>
    <g
       id="text3275"
       style="font-size:18px;font-family:'Helvetica, sans-serif'">
      <path
         d="m 396.13602,144.72801 -6.714,0 c 0.16199,-1.044 0.738,-1.71 2.304,-2.628 l 1.8,-0.972 c 1.78199,-0.972 2.7,-2.28601 2.7,-3.852 0,-1.062 -0.43201,-2.052 -1.188,-2.736 -0.756,-0.684 -1.69201,-1.008 -2.898,-1.008 -1.62,0 -2.82601,0.576 -3.528,1.656 -0.45,0.684 -0.648,1.476 -0.684,2.772 l 1.584,0 c 0.054,-0.864 0.162,-1.386 0.378,-1.8 0.41399,-0.774 1.242,-1.242 2.196,-1.242 1.43999,0 2.52,1.026 2.52,2.394 0,1.008 -0.59401,1.872 -1.728,2.52 l -1.656,0.936 c -2.664,1.51199 -3.43801,2.718 -3.582,5.526 l 8.496,0 0,-1.566"
         id="path4486"
         style="font-size:18px;font-family:'Helvetica, sans-serif'" />
      <path
         d="m 403.29973,136.86201 0,9.432 1.512,0 0,-5.922 c 0,-1.368 0.99001,-2.466 2.214,-2.466 1.116,0 1.746,0.684 1.746,1.89 l 0,6.498 1.512,0 0,-5.922 c 0,-1.368 0.99001,-2.466 2.214,-2.466 1.098,0 1.746,0.702 1.746,1.89 l 0,6.498 1.512,0 0,-7.074 c 0,-1.692 -0.972,-2.628 -2.736,-2.628 -1.25999,0 -2.016,0.378 -2.898,1.44 -0.558,-1.008 -1.314,-1.44 -2.538,-1.44 -1.25999,0 -2.088,0.468 -2.898,1.602 l 0,-1.332 -1.386,0"
         id="path4488"
         style="font-size:18px;font-family:'Helvetica, sans-serif'" />
      <path
         d="m 424.93545,139.49001 c -0.018,-1.854 -1.242,-2.898 -3.42,-2.898 -2.196,0 -3.618,1.134 -3.618,2.88 0,1.47599 0.756,2.178 2.988,2.718 l 1.404,0.342 c 1.044,0.252 1.458,0.63 1.458,1.314 0,0.882 -0.882,1.476 -2.196,1.476 -0.81,0 -1.494,-0.234 -1.872,-0.63 -0.234,-0.27 -0.342,-0.54 -0.432,-1.206 l -1.584,0 c 0.072,2.17799 1.29601,3.222 3.762,3.222 2.376,0 3.888,-1.17001 3.888,-2.988 0,-1.404 -0.792,-2.178 -2.664,-2.628 l -1.44,-0.342 c -1.224,-0.288 -1.746,-0.684 -1.746,-1.35 0,-0.864 0.774,-1.422 1.998,-1.422 1.206,0 1.854,0.522 1.89,1.512 l 1.584,0"
         id="path4490"
         style="font-size:18px;font-family:'Helvetica, sans-serif'" />
    </g>
    <g
       id="text3279"
       style="font-size:18px;font-family:'Helvetica, sans-serif'">
      <path
         d="m 398.48602,106.172 -9.45,0 0,1.476 7.38,0 -7.884,10.17 0,1.476 9.99,0 0,-1.476 -7.884,0 7.848,-10.134 0,-1.512"
         id="path4493"
         style="font-size:18px;font-family:'Helvetica, sans-serif'" />
      <path
         d="m 408.26592,115.082 c 0,-1.44 -0.108,-2.304 -0.378,-3.006 -0.612,-1.548 -2.052,-2.484 -3.816,-2.484 -2.628,0 -4.32,2.016 -4.32,5.112 0,3.096 1.638,5.004 4.284,5.004 2.16,0 3.654,-1.224 4.032,-3.276 l -1.512,0 c -0.414,1.242 -1.26,1.89 -2.466,1.89 -0.954,0 -1.764,-0.432 -2.268,-1.224 -0.36,-0.54 -0.486,-1.08 -0.504,-2.016 l 6.948,0 m -6.912,-1.224 c 0.126,-1.746 1.188,-2.88 2.7,-2.88 1.476,0 2.61,1.224 2.61,2.772 0,0.036 0,0.072 -0.018,0.108 l -5.292,0"
         id="path4495"
         style="font-size:18px;font-family:'Helvetica, sans-serif'" />
      <path
         d="m 411.75145,109.862 -1.494,0 0,9.432 1.494,0 0,-9.432 m 0,-3.69 -1.512,0 0,1.89 1.512,0 0,-1.89"
         id="path4497"
         style="font-size:18px;font-family:'Helvetica, sans-serif'" />
      <path
         d="m 417.63127,109.862 -1.548,0 0,-2.592 -1.494,0 0,2.592 -1.278,0 0,1.224 1.278,0 0,7.128 c 0,0.954 0.648,1.494 1.818,1.494 0.35999,0 0.72,-0.036 1.224,-0.126 l 0,-1.26 c -0.198,0.054 -0.43201,0.072 -0.72,0.072 -0.648,0 -0.828,-0.18 -0.828,-0.846 l 0,-6.462 1.548,0 0,-1.224"
         id="path4499"
         style="font-size:18px;font-family:'Helvetica, sans-serif'" />
    </g>
    <g
       id="text3283"
       style="font-size:18px;font-family:'Helvetica, sans-serif'">
      <path
         d="m 103.07101,369.38594 c -0.018,-2.57399 -1.782,-4.068 -4.806,-4.068 -2.879997,0 -4.662,1.47601 -4.662,3.852 0,1.602 0.846002,2.61001 2.574,3.06 l 3.258,0.864 c 1.656,0.432 2.412,1.09801 2.412,2.124 0,0.702 -0.378,1.42201 -0.936,1.818 -0.522,0.36 -1.350001,0.558 -2.412,0.558 -1.421999,0 -2.394001,-0.342 -3.024,-1.098 -0.486,-0.57599 -0.702,-1.206 -0.684,-2.016 l -1.584,0 c 0.018,1.206 0.252,1.99801 0.774,2.718 0.899999,1.224 2.412002,1.872 4.41,1.872 1.565998,0 2.844,-0.36 3.69,-1.008 0.882,-0.70199 1.44,-1.872 1.44,-3.006 0,-1.61999 -1.008,-2.808 -2.79,-3.294 l -3.294,-0.882 c -1.583998,-0.43199 -2.16,-0.936 -2.16,-1.944 0,-1.33199 1.170002,-2.214 2.934,-2.214 2.088,0 3.258,0.95401 3.276,2.664 l 1.584,0"
         id="path4259"
         style="font-size:18px;font-family:'Helvetica, sans-serif'" />
      <path
         d="m 112.84445,372.39194 c -0.072,-0.91799 -0.27,-1.512 -0.63,-2.034 -0.648,-0.88199 -1.782,-1.404 -3.096,-1.404 -2.538,0 -4.194,2.01601 -4.194,5.148 0,3.042 1.62,4.968 4.176,4.968 2.25,0 3.672,-1.35 3.852,-3.654 l -1.512,0 c -0.252,1.512 -1.026,2.268 -2.304,2.268 -1.656,0 -2.646,-1.35 -2.646,-3.582 0,-2.35799 0.972,-3.762 2.61,-3.762 1.26,0 2.052,0.73801 2.232,2.052 l 1.512,0"
         id="path4261"
         style="font-size:18px;font-family:'Helvetica, sans-serif'" />
      <path
         d="m 114.62645,365.53394 0,13.122 1.494,0 0,-5.202 c 0,-1.92599 1.008,-3.186 2.556,-3.186 0.486,0 0.972,0.16201 1.332,0.432 0.432,0.306 0.612,0.75601 0.612,1.422 l 0,6.534 1.494,0 0,-7.128 c 0,-1.58399 -1.134,-2.574 -2.97,-2.574 -1.332,0 -2.142,0.41401 -3.024,1.566 l 0,-4.986 -1.494,0"
         id="path4263"
         style="font-size:18px;font-family:'Helvetica, sans-serif'" />
      <path
         d="m 133.35798,378.65594 2.772,-9.432 -1.692,0 -1.872,7.344 -1.854,-7.344 -1.836,0 -1.8,7.344 -1.926,-7.344 -1.656,0 2.736,9.432 1.692,0 1.818,-7.398 1.908,7.398 1.71,0"
         id="path4265"
         style="font-size:18px;font-family:'Helvetica, sans-serif'" />
      <path
         d="m 145.62779,374.44394 c 0,-1.43999 -0.108,-2.304 -0.378,-3.006 -0.612,-1.54799 -2.052,-2.484 -3.816,-2.484 -2.628,0 -4.32,2.01601 -4.32,5.112 0,3.096 1.638,5.004 4.284,5.004 2.16,0 3.654,-1.224 4.032,-3.276 l -1.512,0 c -0.414,1.242 -1.26,1.89 -2.466,1.89 -0.954,0 -1.764,-0.432 -2.268,-1.224 -0.36,-0.53999 -0.486,-1.08 -0.504,-2.016 l 6.948,0 m -6.912,-1.224 c 0.126,-1.74599 1.188,-2.88 2.7,-2.88 1.476,0 2.61,1.22401 2.61,2.772 0,0.036 0,0.072 -0.018,0.108 l -5.292,0"
         id="path4267"
         style="font-size:18px;font-family:'Helvetica, sans-serif'" />
      <path
         d="m 149.14932,365.53394 -1.512,0 0,13.122 1.512,0 0,-13.122"
         id="path4269"
         style="font-size:18px;font-family:'Helvetica, sans-serif'" />
      <path
         d="m 153.15713,365.53394 -1.512,0 0,13.122 1.512,0 0,-13.122"
         id="path4271"
         style="font-size:18px;font-family:'Helvetica, sans-serif'" />
      <path
         d="m 163.66295,374.44394 c 0,-1.43999 -0.108,-2.304 -0.378,-3.006 -0.612,-1.54799 -2.052,-2.484 -3.816,-2.484 -2.628,0 -4.32,2.01601 -4.32,5.112 0,3.096 1.638,5.004 4.284,5.004 2.16,0 3.654,-1.224 4.032,-3.276 l -1.512,0 c -0.414,1.242 -1.26,1.89 -2.466,1.89 -0.954,0 -1.764,-0.432 -2.268,-1.224 -0.36,-0.53999 -0.486,-1.08 -0.504,-2.016 l 6.948,0 m -6.912,-1.224 c 0.126,-1.74599 1.188,-2.88 2.7,-2.88 1.476,0 2.61,1.22401 2.61,2.772 0,0.036 0,0.072 -0.018,0.108 l -5.292,0"
         id="path4273"
         style="font-size:18px;font-family:'Helvetica, sans-serif'" />
      <path
         d="m 165.70848,369.22394 0,9.432 1.512,0 0,-5.202 c 0,-1.92599 1.008,-3.186 2.556,-3.186 1.188,0 1.944,0.72001 1.944,1.854 l 0,6.534 1.494,0 0,-7.128 c 0,-1.56599 -1.17,-2.574 -2.988,-2.574 -1.404,0 -2.304,0.54001 -3.132,1.854 l 0,-1.584 -1.386,0"
         id="path4275"
         style="font-size:18px;font-family:'Helvetica, sans-serif'" />
      <path
         d="m 179.58001,373.03994 -4.284,0 0,1.296 4.284,0 0,-1.296"
         id="path4277"
         style="font-size:18px;font-family:'Helvetica, sans-serif'" />
    </g>
    <g
       id="text3285"
       style="font-size:18px;font-family:'Helvetica, sans-serif'">
      <path
         d="m 100.22701,389.85194 c -0.018,-1.85399 -1.242002,-2.898 -3.42,-2.898 -2.195998,0 -3.618,1.13401 -3.618,2.88 0,1.476 0.756002,2.17801 2.988,2.718 l 1.404,0.342 c 1.043999,0.252 1.458,0.63001 1.458,1.314 0,0.882 -0.882001,1.476 -2.196,1.476 -0.809999,0 -1.494,-0.234 -1.872,-0.63 -0.234,-0.26999 -0.342,-0.54 -0.432,-1.206 l -1.584,0 c 0.072,2.178 1.296002,3.222 3.762,3.222 2.375998,0 3.888,-1.17 3.888,-2.988 0,-1.40399 -0.792002,-2.178 -2.664,-2.628 l -1.44,-0.342 c -1.223999,-0.28799 -1.746,-0.684 -1.746,-1.35 0,-0.86399 0.774001,-1.422 1.998,-1.422 1.205999,0 1.854,0.52201 1.89,1.512 l 1.584,0"
         id="path4280"
         style="font-size:18px;font-family:'Helvetica, sans-serif'" />
      <path
         d="m 102.31501,400.57994 1.512,0 0,-4.914 c 0.792,0.972 1.674,1.404 2.898,1.404 2.43,0 4.032,-1.962 4.032,-4.968 0,-3.16799 -1.548,-5.148 -4.05,-5.148 -1.278,0 -2.304,0.57601 -3.006,1.692 l 0,-1.422 -1.386,0 0,13.356 m 4.14,-12.222 c 1.656,0 2.736,1.45801 2.736,3.708 0,2.142 -1.098,3.6 -2.736,3.6 -1.584,0 -2.628,-1.44 -2.628,-3.654 0,-2.21399 1.044,-3.654 2.628,-3.654"
         id="path4282"
         style="font-size:18px;font-family:'Helvetica, sans-serif'" />
      <path
         d="m 120.99254,395.77394 c -0.162,0.036 -0.234,0.036 -0.324,0.036 -0.522,0 -0.81,-0.27 -0.81,-0.738 l 0,-5.544 c 0,-1.67399 -1.224,-2.574 -3.546,-2.574 -1.368,0 -2.502,0.39601 -3.132,1.098 -0.432,0.486 -0.612,1.02601 -0.648,1.962 l 1.512,0 c 0.126,-1.15199 0.81,-1.674 2.214,-1.674 1.35,0 2.106,0.50401 2.106,1.404 l 0,0.396 c 0,0.63 -0.378,0.9 -1.566,1.044 -2.124,0.27 -2.448,0.34201 -3.024,0.576 -1.098,0.45 -1.656,1.29601 -1.656,2.52 0,1.71 1.188,2.79 3.096,2.79 1.188,0 2.142,-0.414 3.204,-1.386 0.108,0.954 0.576,1.386 1.548,1.386 0.306,0 0.54,-0.036 1.026,-0.162 l 0,-1.134 m -2.628,-2.088 c 0,0.504 -0.144,0.81001 -0.594,1.224 -0.612,0.558 -1.35,0.846 -2.232,0.846 -1.17,0 -1.854,-0.558 -1.854,-1.512 0,-0.98999 0.666,-1.494 2.268,-1.728 1.584,-0.21599 1.908,-0.288 2.412,-0.522 l 0,1.692"
         id="path4284"
         style="font-size:18px;font-family:'Helvetica, sans-serif'" />
      <path
         d="m 122.64207,387.22394 0,9.432 1.512,0 0,-5.202 c 0,-1.92599 1.008,-3.186 2.556,-3.186 1.188,0 1.944,0.72001 1.944,1.854 l 0,6.534 1.494,0 0,-7.128 c 0,-1.56599 -1.17,-2.574 -2.988,-2.574 -1.404,0 -2.304,0.54001 -3.132,1.854 l 0,-1.584 -1.386,0"
         id="path4286"
         style="font-size:18px;font-family:'Helvetica, sans-serif'" />
      <path
         d="m 132.6616,387.22394 0,9.432 1.512,0 0,-5.202 c 0,-1.92599 1.00801,-3.186 2.556,-3.186 1.188,0 1.944,0.72001 1.944,1.854 l 0,6.534 1.494,0 0,-7.128 c 0,-1.56599 -1.17,-2.574 -2.988,-2.574 -1.40399,0 -2.304,0.54001 -3.132,1.854 l 0,-1.584 -1.386,0"
         id="path4288"
         style="font-size:18px;font-family:'Helvetica, sans-serif'" />
      <path
         d="m 150.09713,396.65594 0,-9.432 -1.494,0 0,5.346 c 0,1.926 -1.008,3.186 -2.574,3.186 -1.18799,0 -1.944,-0.72 -1.944,-1.854 l 0,-6.678 -1.494,0 0,7.272 c 0,1.566 1.17001,2.574 3.006,2.574 1.386,0 2.26801,-0.486 3.15,-1.728 l 0,1.314 1.35,0"
         id="path4290"
         style="font-size:18px;font-family:'Helvetica, sans-serif'" />
      <path
         d="m 152.70067,387.22394 0,9.432 1.512,0 0,-5.202 c 0,-1.92599 1.008,-3.186 2.556,-3.186 1.188,0 1.944,0.72001 1.944,1.854 l 0,6.534 1.494,0 0,-7.128 c 0,-1.56599 -1.17001,-2.574 -2.988,-2.574 -1.404,0 -2.304,0.54001 -3.132,1.854 l 0,-1.584 -1.386,0"
         id="path4292"
         style="font-size:18px;font-family:'Helvetica, sans-serif'" />
      <path
         d="m 168.8762,387.22394 0,1.368 c -0.756,-1.11599 -1.674,-1.638 -2.88,-1.638 -2.394,0 -4.014,2.08801 -4.014,5.148 0,1.548 0.414,2.80801 1.188,3.708 0.702,0.792 1.71,1.26 2.7,1.26 1.188,0 2.016,-0.504 2.862,-1.692 l 0,0.486 c 0,1.278 -0.162,2.05201 -0.54,2.574 -0.396,0.558 -1.17,0.882 -2.088,0.882 -0.684,0 -1.296,-0.18 -1.71,-0.504 -0.342,-0.26999 -0.486,-0.522 -0.576,-1.08 l -1.53,0 c 0.162,1.782 1.548,2.844 3.762,2.844 1.404,0 2.61,-0.45 3.222,-1.206 0.72,-0.86399 0.99,-2.052 0.99,-4.266 l 0,-7.884 -1.386,0 m -2.718,1.116 c 1.62,0 2.574,1.36801 2.574,3.726 0,2.25 -0.972,3.618 -2.556,3.618 -1.638,0 -2.628,-1.386 -2.628,-3.672 0,-2.26799 1.008,-3.672 2.61,-3.672"
         id="path4294"
         style="font-size:18px;font-family:'Helvetica, sans-serif'" />
    </g>
    <g
       transform="matrix(0,-1,1,0,0,6.1718765e-7)"
       id="text3289"
       style="font-size:18px;font-family:'Helvetica, sans-serif'">
      <path
         d="m -295.01294,49.987999 c -0.018,-2.573997 -1.782,-4.068 -4.806,-4.068 -2.87999,0 -4.662,1.476003 -4.662,3.852 0,1.601999 0.84601,2.610001 2.574,3.06 l 3.258,0.864 c 1.656,0.432 2.412,1.098001 2.412,2.124 0,0.702 -0.378,1.422001 -0.936,1.818 -0.522,0.36 -1.35,0.558 -2.412,0.558 -1.42199,0 -2.394,-0.342 -3.024,-1.098 -0.486,-0.575999 -0.702,-1.206 -0.684,-2.016 l -1.584,0 c 0.018,1.205999 0.252,1.998001 0.774,2.718 0.9,1.223999 2.41201,1.872 4.41,1.872 1.566,0 2.844,-0.36 3.69,-1.008 0.882,-0.701999 1.44,-1.872001 1.44,-3.006 0,-1.619998 -1.008,-2.808 -2.79,-3.294 l -3.294,-0.882 c -1.58399,-0.431999 -2.16,-0.936001 -2.16,-1.944 0,-1.331998 1.17001,-2.214 2.934,-2.214 2.088,0 3.258,0.954002 3.276,2.664 l 1.584,0"
         id="path4405"
         style="font-size:18px;font-family:'Helvetica, sans-serif'" />
      <path
         d="m -292.7455,63.181999 1.512,0 0,-4.914 c 0.792,0.971999 1.674,1.404 2.898,1.404 2.43,0 4.032,-1.962003 4.032,-4.968 0,-3.167996 -1.548,-5.148 -4.05,-5.148 -1.278,0 -2.304,0.576002 -3.006,1.692 l 0,-1.422 -1.386,0 0,13.356 m 4.14,-12.222 c 1.656,0 2.736,1.458003 2.736,3.708 0,2.141998 -1.098,3.6 -2.736,3.6 -1.584,0 -2.628,-1.440002 -2.628,-3.654 0,-2.213997 1.044,-3.654 2.628,-3.654"
         id="path4407"
         style="font-size:18px;font-family:'Helvetica, sans-serif'" />
      <path
         d="m -274.06797,58.375999 c -0.162,0.036 -0.234,0.036 -0.324,0.036 -0.522,0 -0.81,-0.27 -0.81,-0.738 l 0,-5.544 c 0,-1.673998 -1.224,-2.574 -3.546,-2.574 -1.368,0 -2.502,0.396001 -3.132,1.098 -0.432,0.486 -0.612,1.026001 -0.648,1.962 l 1.512,0 c 0.126,-1.151998 0.81,-1.674 2.214,-1.674 1.35,0 2.106,0.504001 2.106,1.404 l 0,0.396 c 0,0.63 -0.378,0.900001 -1.566,1.044 -2.124,0.27 -2.448,0.342001 -3.024,0.576 -1.098,0.45 -1.656,1.296002 -1.656,2.52 0,1.709999 1.188,2.79 3.096,2.79 1.188,0 2.142,-0.414001 3.204,-1.386 0.108,0.953999 0.576,1.386 1.548,1.386 0.306,0 0.54,-0.036 1.026,-0.162 l 0,-1.134 m -2.628,-2.088 c 0,0.504 -0.144,0.810001 -0.594,1.224 -0.612,0.558 -1.35,0.846 -2.232,0.846 -1.17,0 -1.854,-0.558001 -1.854,-1.512 0,-0.989999 0.666,-1.494 2.268,-1.728 1.584,-0.215999 1.908,-0.288 2.412,-0.522 l 0,1.692"
         id="path4409"
         style="font-size:18px;font-family:'Helvetica, sans-serif'" />
      <path
         d="m -272.41844,49.825999 0,9.432 1.512,0 0,-5.202 c 0,-1.925998 1.00801,-3.186 2.556,-3.186 1.188,0 1.944,0.720002 1.944,1.854 l 0,6.534 1.494,0 0,-7.128 c 0,-1.565998 -1.17,-2.574 -2.988,-2.574 -1.40399,0 -2.304,0.540002 -3.132,1.854 l 0,-1.584 -1.386,0"
         id="path4411"
         style="font-size:18px;font-family:'Helvetica, sans-serif'" />
      <path
         d="m -262.39891,49.825999 0,9.432 1.512,0 0,-5.202 c 0,-1.925998 1.00801,-3.186 2.556,-3.186 1.188,0 1.944,0.720002 1.944,1.854 l 0,6.534 1.494,0 0,-7.128 c 0,-1.565998 -1.17,-2.574 -2.988,-2.574 -1.40399,0 -2.304,0.540002 -3.132,1.854 l 0,-1.584 -1.386,0"
         id="path4413"
         style="font-size:18px;font-family:'Helvetica, sans-serif'" />
      <path
         d="m -244.96337,59.257999 0,-9.432 -1.494,0 0,5.346 c 0,1.925998 -1.00801,3.186 -2.574,3.186 -1.188,0 -1.944,-0.720001 -1.944,-1.854 l 0,-6.678 -1.494,0 0,7.272 c 0,1.565999 1.17,2.574 3.006,2.574 1.38599,0 2.268,-0.486001 3.15,-1.728 l 0,1.314 1.35,0"
         id="path4415"
         style="font-size:18px;font-family:'Helvetica, sans-serif'" />
      <path
         d="m -242.35984,49.825999 0,9.432 1.512,0 0,-5.202 c 0,-1.925998 1.008,-3.186 2.556,-3.186 1.188,0 1.944,0.720002 1.944,1.854 l 0,6.534 1.494,0 0,-7.128 c 0,-1.565998 -1.17,-2.574 -2.988,-2.574 -1.404,0 -2.304,0.540002 -3.132,1.854 l 0,-1.584 -1.386,0"
         id="path4417"
         style="font-size:18px;font-family:'Helvetica, sans-serif'" />
      <path
         d="m -226.18431,49.825999 0,1.368 c -0.756,-1.115998 -1.674,-1.638 -2.88,-1.638 -2.394,0 -4.014,2.088003 -4.014,5.148 0,1.547999 0.414,2.808001 1.188,3.708 0.702,0.792 1.71,1.26 2.7,1.26 1.188,0 2.016,-0.504001 2.862,-1.692 l 0,0.486 c 0,1.277999 -0.162,2.052001 -0.54,2.574 -0.396,0.558 -1.17,0.882 -2.088,0.882 -0.684,0 -1.296,-0.18 -1.71,-0.504 -0.342,-0.269999 -0.486,-0.522 -0.576,-1.08 l -1.53,0 c 0.162,1.781999 1.548,2.844 3.762,2.844 1.404,0 2.61,-0.45 3.222,-1.206 0.72,-0.863999 0.99,-2.052002 0.99,-4.266 l 0,-7.884 -1.386,0 m -2.718,1.116 c 1.62,0 2.574,1.368003 2.574,3.726 0,2.249998 -0.972,3.618 -2.556,3.618 -1.638,0 -2.628,-1.386002 -2.628,-3.672 0,-2.267997 1.008,-3.672 2.61,-3.672"
         id="path4419"
         style="font-size:18px;font-family:'Helvetica, sans-serif'" />
      <path
         d="m -214.46659,46.135999 -4.266,13.482 0.99,0 4.266,-13.482 -0.99,0"
         id="path4421"
         style="font-size:18px;font-family:'Helvetica, sans-serif'" />
      <path
         d="m -207.34422,49.825999 0,9.432 1.512,0 0,-5.922 c 0,-1.367998 0.99,-2.466 2.214,-2.466 1.116,0 1.746,0.684002 1.746,1.89 l 0,6.498 1.512,0 0,-5.922 c 0,-1.367998 0.99,-2.466 2.214,-2.466 1.098,0 1.746,0.702002 1.746,1.89 l 0,6.498 1.512,0 0,-7.074 c 0,-1.691998 -0.972,-2.628 -2.736,-2.628 -1.26,0 -2.016,0.378001 -2.898,1.44 -0.558,-1.007999 -1.314,-1.44 -2.538,-1.44 -1.26,0 -2.088,0.468002 -2.898,1.602 l 0,-1.332 -1.386,0"
         id="path4423"
         style="font-size:18px;font-family:'Helvetica, sans-serif'" />
      <path
         d="m -186.5365,59.257999 4.554,-13.122 -1.782,0 -3.636,11.106 -3.852,-11.106 -1.8,0 4.716,13.122 1.8,0"
         id="path4425"
         style="font-size:18px;font-family:'Helvetica, sans-serif'" />
    </g>
    <g
       id="text3293"
       style="font-size:18.00213242px;font-family:'Helvetica, sans-serif'">
      <path
         d="m 206.79427,345.98915 1.01189,-4.95636 c 0.66258,-3.24544 -1.36459,-5.73551 -5.36848,-6.55294 -3.98625,-0.81383 -6.82366,0.66473 -7.48984,3.92781 l -1.01188,4.95636 12.85831,2.62513 m -1.11144,-1.93564 -9.96564,-2.03457 0.61937,-3.03379 c 0.51855,-2.53991 2.50314,-3.53112 5.78386,-2.86134 3.24545,0.66259 4.70032,2.356 4.18178,4.89591 l -0.61937,3.03379"
         id="path4428" />
      <path
         d="m 206.4687,325.08494 c -1.41853,-0.24872 -2.2883,-0.29156 -3.02647,-0.14684 -1.63063,0.3355 -2.8014,1.59236 -3.10608,3.33006 -0.45392,2.58881 1.23977,4.6038 4.28961,5.13855 3.04984,0.53476 5.21232,-0.74927 5.66934,-3.35581 0.37309,-2.1278 -0.57461,-3.81094 -2.53073,-4.53773 l -0.26116,1.48946 c 1.15198,0.62235 1.64419,1.56766 1.43589,2.75568 -0.16478,0.93977 -0.73025,1.66308 -1.59749,2.02277 -0.59413,0.26136 -1.14785,0.29221 -2.073,0.14827 l 1.20009,-6.84441 m -2.39962,6.59753 c -1.6982,-0.42569 -2.63187,-1.66773 -2.37071,-3.15719 0.25494,-1.45399 1.65657,-2.35967 3.18148,-2.09229 0.0355,0.006 0.0709,0.0124 0.10328,0.0364 l -0.91405,5.2131"
         id="path4430" />
      <path
         d="m 214.7642,324.75443 0.23447,-1.49389 -4.85515,-0.76202 c 1.08317,-0.63178 1.64677,-1.43623 1.83658,-2.64557 0.37683,-2.40089 -1.31325,-4.28796 -4.28325,-4.7541 -3.13005,-0.49127 -5.32639,0.73115 -5.71438,3.20318 -0.19818,1.2627 0.21182,2.36573 1.20559,3.23238 l -1.40497,-0.22051 -0.21493,1.3694 13.19604,2.07113 m -11.43363,-5.98569 c 0.2568,-1.63617 1.86482,-2.47714 4.08787,-2.12823 2.11634,0.33216 3.38661,1.64311 3.13261,3.26149 -0.24564,1.56502 -1.83029,2.37322 -4.01777,2.02989 -2.18748,-0.34333 -3.44834,-1.59813 -3.20271,-3.16315"
         id="path4432" />
      <path
         d="m 203.36404,309.03937 c -0.37374,2.61979 1.27126,4.47288 4.40787,4.92036 3.13662,0.44747 5.23164,-0.85388 5.61046,-3.50931 0.37375,-2.61979 -1.26871,-4.4907 -4.33404,-4.92801 -3.22572,-0.46018 -5.30038,0.82589 -5.68429,3.51696 m 1.37481,0.17795 c 0.23899,-1.67523 1.75365,-2.47748 4.07046,-2.14696 2.19207,0.31272 3.4347,1.54469 3.20079,3.18429 -0.23645,1.65741 -1.75364,2.47748 -4.01699,2.15459 -2.24553,-0.32035 -3.49071,-1.5345 -3.25426,-3.19192"
         id="path4434" />
      <path
         d="m 201.03407,300.90511 -0.20144,1.4987 13.00659,1.74822 0.20144,-1.4987 -13.00659,-1.74822"
         id="path4436" />
      <path
         d="m 214.55945,291.75271 c 0.0152,0.16527 0.006,0.2367 -0.005,0.32599 -0.066,0.51786 -0.37035,0.76942 -0.83464,0.71021 l -5.50011,-0.70146 c -1.66074,-0.21181 -2.70849,0.88863 -3.00228,3.19224 -0.17309,1.35717 0.0763,2.5323 0.69302,3.24613 0.4275,0.49007 0.94045,0.73697 1.86448,0.89112 l 0.19131,-1.50003 c -1.12694,-0.27076 -1.55826,-1.0154 -1.38062,-2.40828 0.17081,-1.33931 0.76648,-2.02556 1.65935,-1.91168 l 0.39287,0.0501 c 0.62501,0.0797 0.84504,0.48888 0.83759,1.6857 -8.8e-4,2.14134 0.0296,2.47189 0.18882,3.07293 0.30751,1.14625 1.07622,1.80687 2.29052,1.96174 1.69646,0.21636 2.91823,-0.82559 3.15964,-2.71848 0.15031,-1.17859 -0.1397,-2.17742 -0.96964,-3.354 0.96011,0.0136 1.44791,-0.39607 1.57089,-1.36038 0.0387,-0.30357 0.0326,-0.54028 -0.0309,-1.03837 l -1.12502,-0.14348 m -2.40398,2.343 c 0.50001,0.0638 0.78537,0.24535 1.13915,0.74417 0.47615,0.67776 0.66849,1.44635 0.5569,2.32137 -0.14804,1.16073 -0.78816,1.76872 -1.73461,1.64801 -0.98216,-0.12526 -1.39791,-0.84976 -1.42736,-2.46868 -0.0139,-1.59879 -0.0443,-1.92933 -0.21268,-2.45895 l 1.6786,0.21408"
         id="path4438" />
      <path
         d="m 206.25632,289.14044 9.36507,1.13101 0.18131,-1.50127 -4.86126,-0.58709 c -1.34042,-0.16188 -2.17515,-0.60721 -2.60711,-1.3847 -0.28346,-0.50569 -0.33673,-0.96545 -0.22942,-2.00419 l -1.51914,-0.18347 c -0.066,0.2459 -0.0989,0.36884 -0.12268,0.56544 -0.11656,0.9651 0.36686,1.76693 1.65729,2.79316 l -1.69786,-0.20505 -0.1662,1.37616"
         id="path4440" />
      <path
         d="m 207.13453,281.77142 -0.17382,1.48403 9.36906,1.09741 0.17383,-1.48403 -9.36907,-1.09741 m -3.66538,-0.42934 -0.17592,1.50192 1.87739,0.2199 0.17592,-1.50191 -1.87739,-0.21991"
         id="path4442" />
      <path
         d="m 210.78269,272.98415 c -1.84451,-0.19038 -3.01953,0.90874 -3.26419,3.07321 -0.2467,2.18236 0.72052,3.72292 2.45567,3.91906 1.46684,0.16581 2.2494,-0.50664 3.03679,-2.66411 l 0.49759,-1.35686 c 0.36772,-1.00921 0.78988,-1.37818 1.46963,-1.30134 0.87652,0.0991 1.36775,1.04233 1.22014,2.34817 -0.091,0.80497 -0.40038,1.45844 -0.83638,1.7896 -0.29461,0.20222 -0.57507,0.27922 -1.24704,0.29384 l -0.17794,1.57417 c 2.17256,0.17311 3.34758,-0.92601 3.6246,-3.37669 0.26691,-2.36124 -0.72597,-3.99529 -2.53268,-4.19952 -1.39528,-0.15772 -2.25344,0.54242 -2.91094,2.35224 l -0.50164,1.39263 c -0.42372,1.18405 -0.8759,1.65832 -1.53776,1.58351 -0.85863,-0.0971 -1.32622,-0.92894 -1.18872,-2.14534 0.13548,-1.19851 0.72703,-1.78384 1.71493,-1.70841 l 0.17794,-1.57416"
         id="path4444" />
      <path
         d="m 217.82491,262.98898 c 0.0184,0.16495 0.0107,0.23654 0.001,0.32603 -0.0561,0.51904 -0.35547,0.77641 -0.82082,0.72614 l -5.51259,-0.59548 c -1.66451,-0.17981 -2.69088,0.94059 -2.94029,3.24943 -0.14694,1.36025 0.12502,2.53036 0.75537,3.23219 0.43684,0.48176 0.95445,0.71874 1.88128,0.85507 l 0.1624,-1.50343 c -1.13193,-0.24903 -1.57751,-0.98522 -1.4267,-2.38126 0.145,-1.34235 0.72735,-2.03994 1.62225,-1.94327 l 0.39375,0.0425 c 0.62643,0.0677 0.8543,0.47253 0.86988,1.66926 0.0403,2.14096 0.0771,2.47087 0.24793,3.06874 0.32951,1.14011 1.11079,1.78582 2.32785,1.91729 1.70031,0.18367 2.9018,-0.8816 3.10674,-2.77879 0.1276,-1.18126 -0.18159,-2.17433 -1.03401,-3.33471 0.96019,-0.005 1.44002,-0.42387 1.54442,-1.39036 0.0329,-0.30427 0.0222,-0.54081 -0.0509,-1.03759 l -1.12758,-0.1218 m -2.35844,2.38883 c 0.50115,0.0541 0.78995,0.23019 1.15326,0.72211 0.48911,0.66847 0.69621,1.43322 0.60147,2.31022 -0.12567,1.16337 -0.75398,1.78356 -1.70257,1.68109 -0.98439,-0.10633 -1.414,-0.8227 -1.4746,-2.44075 -0.0446,-1.59823 -0.0814,-1.92813 -0.25997,-2.4544 l 1.68241,0.18173"
         id="path4446" />
      <path
         d="m 209.83255,257.17742 -0.16132,1.53975 -2.57819,-0.27011 -0.15569,1.48604 2.57819,0.27011 -0.13318,1.2712 1.21748,0.12755 0.13318,-1.27119 7.09004,0.74281 c 0.94892,0.0994 1.55357,-0.48886 1.6755,-1.65263 0.0375,-0.35808 0.0392,-0.71992 0.002,-1.23061 l -1.25329,-0.13131 c 0.0331,0.20258 0.0266,0.43721 -0.003,0.72367 -0.0675,0.64455 -0.26533,0.80483 -0.92778,0.73543 l -6.42759,-0.67341 0.16132,-1.53975 -1.21748,-0.12755"
         id="path4448" />
      <path
         d="m 210.15062,254.09441 -0.15326,1.4863 9.38336,0.96759 0.15327,-1.4863 -9.38337,-0.96759 m -3.67097,-0.37854 -0.15511,1.5042 1.88026,0.19389 0.15511,-1.5042 -1.88026,-0.19389"
         id="path4450" />
      <path
         d="m 210.50752,247.92674 c -0.26584,2.63292 1.45388,4.4169 4.60622,4.73518 3.15235,0.31829 5.19215,-1.068 5.46161,-3.73675 0.26584,-2.63292 -1.45206,-4.43481 -4.53276,-4.74586 -3.2419,-0.32733 -5.26199,1.04286 -5.53507,3.74743 m 1.38096,0.12134 c 0.17,-1.68364 1.65043,-2.54741 3.97886,-2.31231 2.20306,0.22243 3.49524,1.40234 3.32886,3.05015 -0.16819,1.66573 -1.65042,2.54741 -3.92512,2.31774 -2.2568,-0.22786 -3.55078,-1.38985 -3.3826,-3.05558"
         id="path4452" />
      <path
         d="m 211.41014,241.63581 9.3876,0.92555 0.14837,-1.50488 -5.17751,-0.51047 c -1.91693,-0.18899 -3.07209,-1.31589 -2.92019,-2.8566 0.11658,-1.18241 0.90738,-1.8642 2.03604,-1.75292 l 6.50324,0.64117 0.14661,-1.48697 -7.09445,-0.69946 c -1.55863,-0.15367 -2.67669,0.91192 -2.85509,2.72136 -0.13777,1.39739 0.31137,2.34614 1.53793,3.29918 l -1.57654,-0.15543 -0.13601,1.37947"
         id="path4454" />
    </g>
    <g
       id="text3297"
       style="font-size:18.00213242px;font-family:'Helvetica, sans-serif'">
      <path
         d="m 303.59976,236.59279 0.60378,4.27811 c 0.2088,1.47952 -0.41114,2.23969 -2.01543,2.46611 l -1.16117,0.14569 c -0.80215,0.11321 -1.56634,0.36651 -2.0684,0.67371 l 0.28428,2.01428 0.40998,-0.0579 c 0.33976,-0.68427 0.78562,-0.87446 2.50966,-1.15414 2.13654,-0.31971 2.73046,-0.74896 3.13778,-2.24271 0.91931,1.36106 1.91143,1.821 3.39094,1.6122 2.24601,-0.31698 3.27723,-1.89878 2.91748,-4.44783 l -0.84528,-5.98936 -12.99478,1.83396 0.23396,1.65777 5.5972,-0.78993 m 1.46169,-0.20629 4.4742,-0.63145 0.56604,4.01073 c 0.13082,0.92693 0.0637,1.48182 -0.23496,1.94212 -0.31145,0.49847 -0.86698,0.81322 -1.6513,0.92391 -1.53299,0.21635 -2.33888,-0.46986 -2.58794,-2.23458 l -0.56604,-4.01073"
         id="path4457" />
      <path
         d="m 304.83015,255.48741 c 1.42569,-0.20373 2.26583,-0.43289 2.92265,-0.79952 1.44603,-0.82492 2.16901,-2.38303 1.91945,-4.1295 -0.3718,-2.60187 -2.60714,-3.99185 -5.67237,-3.55384 -3.06523,0.438 -4.72253,2.32966 -4.34819,4.94936 0.30559,2.13853 1.72879,3.44452 3.81387,3.52846 l -0.21391,-1.49698 c -1.28823,-0.23417 -2.04948,-0.98009 -2.22009,-2.1741 -0.13497,-0.94452 0.17814,-1.80759 0.89097,-2.41863 0.4837,-0.43281 1.00051,-0.63396 1.92466,-0.7842 l 0.98296,6.87895 m 0.23397,-7.01647 c 1.74647,-0.12227 3.01945,0.76875 3.23335,2.26572 0.20882,1.46133 -0.84258,2.75722 -2.3752,2.97623 -0.0356,0.005 -0.0713,0.0102 -0.10947,-0.003 l -0.74868,-5.2394"
         id="path4459" />
      <path
         d="m 297.02547,258.37989 0.21543,1.49675 4.86445,-0.70012 c -0.84936,0.9225 -1.15134,1.85716 -0.97695,3.06882 0.34622,2.40549 2.51669,3.71181 5.49238,3.28352 3.13606,-0.45136 4.87554,-2.26586 4.51907,-4.74263 -0.18209,-1.26512 -0.89846,-2.19871 -2.10323,-2.73463 l 1.40767,-0.2026 -0.19747,-1.37202 -13.22135,1.90291 m 12.68863,2.35692 c 0.23594,1.6393 -1.05349,2.91614 -3.2808,3.23671 -2.1204,0.30519 -3.72014,-0.57401 -3.95352,-2.1955 -0.22568,-1.56803 1.05106,-2.80667 3.24273,-3.12211 2.19168,-0.31544 3.76591,0.51287 3.99159,2.0809"
         id="path4461" />
      <path
         d="m 312.50505,270.24951 c -0.3783,-2.61913 -2.47816,-3.93465 -5.61399,-3.48171 -3.13583,0.45294 -4.78017,2.29107 -4.39672,4.94584 0.37831,2.61913 2.48074,3.95246 5.5453,3.50982 3.22491,-0.4658 4.85401,-2.28355 4.46541,-4.97395 m -1.36935,0.21598 c 0.24191,1.67481 -0.9859,2.87074 -3.30214,3.2053 -2.19152,0.31654 -3.73053,-0.51613 -3.96729,-2.15531 -0.23934,-1.657 0.9859,-2.87075 3.24869,-3.19758 2.24497,-0.32426 3.7814,0.49058 4.02074,2.14759"
         id="path4463" />
      <path
         d="m 317.01248,277.52655 -0.21624,-1.49664 -12.98868,1.87666 0.21624,1.49664 12.98868,-1.87666"
         id="path4465" />
      <path
         d="m 306.45285,290.06039 c -0.0588,-0.15522 -0.069,-0.22649 -0.0819,-0.31558 -0.0745,-0.51672 0.15165,-0.84035 0.61491,-0.90715 l 5.48789,-0.79136 c 1.65706,-0.23896 2.37323,-1.57904 2.04179,-3.87754 -0.19528,-1.35415 -0.74914,-2.42015 -1.53396,-2.94357 -0.54275,-0.35825 -1.10298,-0.45935 -2.03464,-0.36138 l 0.21583,1.4967 c 1.15832,-0.0397 1.77268,0.56285 1.97309,1.95264 0.1927,1.33634 -0.19829,2.15663 -1.08918,2.2851 l -0.39199,0.0565 c -0.62363,0.0899 -0.94485,-0.2457 -1.25697,-1.40112 -0.57045,-2.06397 -0.68797,-2.37441 -1.00183,-2.91118 -0.60217,-1.02265 -1.51926,-1.45425 -2.73087,-1.27953 -1.6927,0.24409 -2.59219,1.57423 -2.31984,3.46292 0.16958,1.17597 0.71557,2.06123 1.82932,2.97373 -0.92892,0.24309 -1.28975,0.76801 -1.151,1.73018 0.0437,0.3029 0.11271,0.52939 0.30681,0.99249 l 1.12252,-0.16187 m 1.69174,-2.89945 c -0.49889,0.0719 -0.82235,-0.0269 -1.2964,-0.41327 -0.63971,-0.52616 -1.03014,-1.21558 -1.15604,-2.08865 -0.167,-1.15816 0.28771,-1.91489 1.23206,-2.05107 0.97998,-0.14131 1.57394,0.44601 2.03425,1.99839 0.43992,1.53714 0.55744,1.84758 0.86101,2.31308 l -1.67488,0.24152"
         id="path4467" />
      <path
         d="m 315.149,290.46076 -9.33738,1.3405 0.21489,1.49683 4.84688,-0.69583 c 1.33646,-0.19187 2.25822,0.0213 2.87731,0.65994 0.40508,0.4147 0.57596,0.84484 0.74215,1.87581 l 1.51465,-0.21745 c -1.7e-4,-0.25459 -2.6e-4,-0.38188 -0.0284,-0.5779 -0.13814,-0.96225 -0.81325,-1.61098 -2.32596,-2.26678 l 1.69284,-0.24303 -0.19698,-1.37209"
         id="path4469" />
      <path
         d="m 316.20966,297.86141 -0.21147,-1.47914 -9.33817,1.33505 0.21147,1.47913 9.33817,-1.33504 m 3.65329,-0.5223 -0.21402,-1.49696 -1.8712,0.26752 0.21402,1.49696 1.8712,-0.26752"
         id="path4471" />
      <path
         d="m 314.90389,307.34391 c 1.83328,-0.27843 2.69499,-1.63717 2.38884,-3.79381 -0.30868,-2.17445 -1.63145,-3.42311 -3.36032,-3.17768 -1.46152,0.20747 -2.05037,1.05474 -2.27133,3.34075 l -0.14129,1.4383 c -0.10278,1.06918 -0.41888,1.53225 -1.09617,1.6284 -0.87335,0.12398 -1.5855,-0.66588 -1.7702,-1.96699 -0.11386,-0.80205 0.0217,-1.51224 0.36068,-1.94219 0.23446,-0.26966 0.48663,-0.41455 1.13345,-0.59728 l -0.22266,-1.56847 c -2.14651,0.37745 -3.00822,1.73619 -2.66159,4.178 0.33399,2.35269 1.70505,3.6854 3.50521,3.42986 1.39023,-0.19736 2.04531,-1.09039 2.22776,-3.00728 l 0.13623,-1.47395 c 0.11312,-1.25247 0.43186,-1.82502 1.09133,-1.91863 0.85553,-0.12145 1.51685,0.56652 1.6889,1.77852 0.16952,1.19416 -0.25627,1.90918 -1.2315,2.08399 l 0.22266,1.56846"
         id="path4473" />
      <path
         d="m 310.53451,318.82289 c -0.0581,-0.15546 -0.0681,-0.22677 -0.0806,-0.31591 -0.0724,-0.51701 0.15504,-0.83972 0.61857,-0.90466 l 5.49104,-0.76922 c 1.65801,-0.23226 2.37958,-1.56944 2.05741,-3.86926 -0.18981,-1.35493 -0.73936,-2.42315 -1.52207,-2.94973 -0.54129,-0.36045 -1.10111,-0.4638 -2.03317,-0.36959 l 0.20979,1.49755 c 1.15848,-0.035 1.7704,0.57001 1.9652,1.96059 0.18731,1.3371 -0.20699,2.15581 -1.09839,2.28069 l -0.39222,0.0549 c -0.62398,0.0874 -0.94384,-0.24952 -1.2513,-1.40619 -0.56212,-2.06624 -0.67839,-2.37716 -0.99007,-2.91519 -0.59805,-1.02508 -1.51339,-1.46037 -2.7257,-1.29054 -1.69366,0.23726 -2.59851,1.56376 -2.33378,3.45353 0.16483,1.17665 0.70724,2.0641 1.81731,2.98109 -0.9299,0.23933 -1.29284,0.7628 -1.15798,1.72552 0.0425,0.30307 0.11058,0.52985 0.30281,0.99372 l 1.12316,-0.15734 m 1.70343,-2.8926 c -0.49919,0.0699 -0.82224,-0.0302 -1.29473,-0.4185 -0.63758,-0.52873 -1.02522,-1.21972 -1.1476,-2.0933 -0.16233,-1.15882 0.29543,-1.91371 1.24032,-2.04607 0.98054,-0.13736 1.57213,0.45235 2.02617,2.00658 0.43372,1.53889 0.54998,1.84981 0.85168,2.31653 l -1.67584,0.23476"
         id="path4475" />
      <path
         d="m 319.68421,322.57221 -0.2121,-1.53358 2.56786,-0.35515 -0.20471,-1.48009 -2.56786,0.35515 -0.17511,-1.2661 -1.2126,0.16771 0.17511,1.2661 -7.06163,0.97667 c -0.94511,0.13071 -1.3913,0.84667 -1.23099,2.00577 0.0493,0.35665 0.13432,0.70837 0.29254,1.19534 l 1.24827,-0.17264 c -0.0806,-0.18876 -0.13052,-0.41811 -0.16998,-0.70343 -0.0888,-0.64197 0.0649,-0.84495 0.72467,-0.93621 l 6.40182,-0.88541 0.21211,1.53358 1.2126,-0.16771"
         id="path4477" />
      <path
         d="m 320.1112,325.68441 -0.20297,-1.48032 -9.34568,1.28137 0.20297,1.48033 9.34568,-1.28138 m 3.65623,-0.5013 -0.20541,-1.49816 -1.8727,0.25676 0.20541,1.49817 1.8727,-0.25677"
         id="path4479" />
      <path
         d="m 321.21788,331.81732 c -0.35419,-2.6225 -2.44186,-3.95727 -5.58172,-3.5332 -3.13987,0.42407 -4.80105,2.247 -4.44204,4.90518 0.3542,2.6225 2.44427,3.97512 5.51278,3.56069 3.22906,-0.43612 4.87481,-2.2388 4.51098,-4.93267 m -1.37128,0.20338 c 0.22649,1.67697 -1.01227,2.86155 -3.33149,3.17478 -2.19434,0.29637 -3.72562,-0.55042 -3.94729,-2.19171 -0.22409,-1.65913 1.01227,-2.86156 3.27796,-3.16756 2.24786,-0.3036 3.77674,0.52535 4.00082,2.18449"
         id="path4481" />
      <path
         d="m 321.80712,338.2249 -9.35216,1.23315 0.19768,1.4992 5.15797,-0.68012 c 1.90969,-0.2518 3.29082,0.58293 3.4932,2.11783 0.15532,1.17794 -0.45974,2.02168 -1.58414,2.16994 l -6.4787,0.85426 0.19533,1.48136 7.06766,-0.93193 c 1.55275,-0.20473 2.39925,-1.49662 2.16157,-3.29923 -0.18356,-1.39212 -0.83666,-2.2139 -2.24779,-2.8631 l 1.57059,-0.20709 -0.18121,-1.37427"
         id="path4483" />
    </g>
    <g
       id="text3301"
       style="font-size:18px;font-family:'Helvetica, sans-serif'">
      <path
         d="m 336.7995,438.8025 0,5.976 1.674,0 0,-13.122 -1.674,0 0,5.67 -6.75,0 0,-5.67 -1.674,0 0,13.122 1.692,0 0,-5.976 6.732,0"
         id="path4194"
         style="font-size:18px;font-family:'Helvetica, sans-serif'" />
      <path
         d="m 346.87331,435.3465 -2.61,7.344 -2.412,-7.344 -1.602,0 3.186,9.468 -0.576,1.494 c -0.234,0.666 -0.576,0.918 -1.206,0.918 -0.216,0 -0.468,-0.036 -0.792,-0.108 l 0,1.35 c 0.306,0.162 0.612,0.234 1.008,0.234 0.486,0 1.008,-0.162 1.404,-0.45 0.468,-0.342 0.738,-0.738 1.026,-1.494 l 4.194,-11.412 -1.62,0"
         id="path4196"
         style="font-size:18px;font-family:'Helvetica, sans-serif'" />
      <path
         d="m 349.86131,448.7025 1.512,0 0,-4.914 c 0.792,0.972 1.674,1.404 2.898,1.404 2.43,0 4.032,-1.962 4.032,-4.968 0,-3.16799 -1.548,-5.148 -4.05,-5.148 -1.278,0 -2.304,0.576 -3.006,1.692 l 0,-1.422 -1.386,0 0,13.356 m 4.14,-12.222 c 1.656,0 2.736,1.45801 2.736,3.708 0,2.142 -1.098,3.6 -2.736,3.6 -1.584,0 -2.628,-1.44 -2.628,-3.654 0,-2.21399 1.044,-3.654 2.628,-3.654"
         id="path4198"
         style="font-size:18px;font-family:'Helvetica, sans-serif'" />
      <path
         d="m 368.14284,440.5665 c 0,-1.44 -0.108,-2.304 -0.378,-3.006 -0.612,-1.548 -2.052,-2.484 -3.816,-2.484 -2.62799,0 -4.32,2.01601 -4.32,5.112 0,3.096 1.63801,5.004 4.284,5.004 2.16,0 3.654,-1.224 4.032,-3.276 l -1.512,0 c -0.414,1.242 -1.26,1.89 -2.466,1.89 -0.954,0 -1.764,-0.432 -2.268,-1.224 -0.36,-0.54 -0.486,-1.08 -0.504,-2.016 l 6.948,0 m -6.912,-1.224 c 0.126,-1.74599 1.18801,-2.88 2.7,-2.88 1.476,0 2.61,1.224 2.61,2.772 0,0.036 0,0.072 -0.018,0.108 l -5.292,0"
         id="path4200"
         style="font-size:18px;font-family:'Helvetica, sans-serif'" />
      <path
         d="m 370.17038,435.3465 0,9.432 1.512,0 0,-4.896 c 0,-1.35 0.342,-2.232 1.062,-2.754 0.46799,-0.342 0.918,-0.45 1.962,-0.468 l 0,-1.53 c -0.252,-0.036 -0.378,-0.054 -0.576,-0.054 -0.972,0 -1.71001,0.576 -2.574,1.98 l 0,-1.71 -1.386,0"
         id="path4202"
         style="font-size:18px;font-family:'Helvetica, sans-serif'" />
      <path
         d="m 375.91209,448.7025 1.512,0 0,-4.914 c 0.792,0.972 1.67401,1.404 2.898,1.404 2.43,0 4.032,-1.962 4.032,-4.968 0,-3.16799 -1.548,-5.148 -4.05,-5.148 -1.27799,0 -2.304,0.576 -3.006,1.692 l 0,-1.422 -1.386,0 0,13.356 m 4.14,-12.222 c 1.656,0 2.736,1.45801 2.736,3.708 0,2.142 -1.098,3.6 -2.736,3.6 -1.58399,0 -2.628,-1.44 -2.628,-3.654 0,-2.21399 1.04401,-3.654 2.628,-3.654"
         id="path4204"
         style="font-size:18px;font-family:'Helvetica, sans-serif'" />
      <path
         d="m 389.85563,435.0765 c -2.646,0 -4.248,1.89001 -4.248,5.058 0,3.168 1.584,5.058 4.266,5.058 2.64599,0 4.266,-1.89 4.266,-4.986 0,-3.25799 -1.56601,-5.13 -4.284,-5.13 m 0.018,1.386 c 1.69199,0 2.7,1.38601 2.7,3.726 0,2.214 -1.04401,3.618 -2.7,3.618 -1.674,0 -2.7,-1.386 -2.7,-3.672 0,-2.26799 1.026,-3.672 2.7,-3.672"
         id="path4206"
         style="font-size:18px;font-family:'Helvetica, sans-serif'" />
      <path
         d="m 397.71516,431.6565 -1.512,0 0,13.122 1.512,0 0,-13.122"
         id="path4208"
         style="font-size:18px;font-family:'Helvetica, sans-serif'" />
      <path
         d="m 408.61697,443.8965 c -0.162,0.036 -0.234,0.036 -0.324,0.036 -0.522,0 -0.81,-0.27 -0.81,-0.738 l 0,-5.544 c 0,-1.67399 -1.224,-2.574 -3.546,-2.574 -1.368,0 -2.502,0.396 -3.132,1.098 -0.432,0.486 -0.612,1.026 -0.648,1.962 l 1.512,0 c 0.126,-1.152 0.81,-1.674 2.214,-1.674 1.35,0 2.106,0.504 2.106,1.404 l 0,0.396 c 0,0.63 -0.378,0.9 -1.566,1.044 -2.124,0.27 -2.448,0.342 -3.024,0.576 -1.098,0.45 -1.656,1.296 -1.656,2.52 0,1.71 1.188,2.79 3.096,2.79 1.188,0 2.142,-0.414 3.204,-1.386 0.108,0.954 0.576,1.386 1.548,1.386 0.306,0 0.54,-0.036 1.026,-0.162 l 0,-1.134 m -2.628,-2.088 c 0,0.504 -0.144,0.81 -0.594,1.224 -0.612,0.558 -1.35,0.846 -2.232,0.846 -1.17,0 -1.854,-0.558 -1.854,-1.512 0,-0.99 0.666,-1.494 2.268,-1.728 1.584,-0.216 1.908,-0.288 2.412,-0.522 l 0,1.692"
         id="path4210"
         style="font-size:18px;font-family:'Helvetica, sans-serif'" />
      <path
         d="m 414.1185,439.1625 -4.284,0 0,1.296 4.284,0 0,-1.296"
         id="path4212"
         style="font-size:18px;font-family:'Helvetica, sans-serif'" />
    </g>
    <g
       id="text3303"
       style="font-size:18px;font-family:'Helvetica, sans-serif'">
      <path
         d="m 328.1235,453.3465 0,9.432 1.512,0 0,-4.896 c 0,-1.35 0.342,-2.232 1.062,-2.754 0.468,-0.342 0.918,-0.45 1.962,-0.468 l 0,-1.53 c -0.252,-0.036 -0.378,-0.054 -0.576,-0.054 -0.972,0 -1.71,0.576 -2.574,1.98 l 0,-1.71 -1.386,0"
         id="path4215"
         style="font-size:18px;font-family:'Helvetica, sans-serif'" />
      <path
         d="m 335.59322,453.3465 -1.494,0 0,9.432 1.494,0 0,-9.432 m 0,-3.69 -1.512,0 0,1.89 1.512,0 0,-1.89"
         id="path4217"
         style="font-size:18px;font-family:'Helvetica, sans-serif'" />
      <path
         d="m 344.78503,455.9745 c -0.018,-1.85399 -1.242,-2.898 -3.42,-2.898 -2.196,0 -3.618,1.13401 -3.618,2.88 0,1.476 0.756,2.178 2.988,2.718 l 1.404,0.342 c 1.044,0.252 1.458,0.63 1.458,1.314 0,0.882 -0.882,1.476 -2.196,1.476 -0.81,0 -1.494,-0.234 -1.872,-0.63 -0.234,-0.27 -0.342,-0.54 -0.432,-1.206 l -1.584,0 c 0.072,2.178 1.296,3.222 3.762,3.222 2.376,0 3.888,-1.17 3.888,-2.988 0,-1.404 -0.792,-2.178 -2.664,-2.628 l -1.44,-0.342 c -1.224,-0.288 -1.746,-0.684 -1.746,-1.35 0,-0.864 0.774,-1.422 1.998,-1.422 1.206,0 1.854,0.522 1.89,1.512 l 1.584,0"
         id="path4219"
         style="font-size:18px;font-family:'Helvetica, sans-serif'" />
      <path
         d="m 355.53103,461.8965 c -0.162,0.036 -0.234,0.036 -0.324,0.036 -0.522,0 -0.81,-0.27 -0.81,-0.738 l 0,-5.544 c 0,-1.67399 -1.224,-2.574 -3.546,-2.574 -1.368,0 -2.502,0.396 -3.132,1.098 -0.432,0.486 -0.612,1.026 -0.648,1.962 l 1.512,0 c 0.126,-1.152 0.81,-1.674 2.214,-1.674 1.35,0 2.106,0.504 2.106,1.404 l 0,0.396 c 0,0.63 -0.378,0.9 -1.566,1.044 -2.124,0.27 -2.448,0.342 -3.024,0.576 -1.098,0.45 -1.656,1.296 -1.656,2.52 0,1.71 1.188,2.79 3.096,2.79 1.188,0 2.142,-0.414 3.204,-1.386 0.108,0.954 0.576,1.386 1.548,1.386 0.306,0 0.54,-0.036 1.026,-0.162 l 0,-1.134 m -2.628,-2.088 c 0,0.504 -0.144,0.81 -0.594,1.224 -0.612,0.558 -1.35,0.846 -2.232,0.846 -1.17,0 -1.854,-0.558 -1.854,-1.512 0,-0.99 0.666,-1.494 2.268,-1.728 1.584,-0.216 1.908,-0.288 2.412,-0.522 l 0,1.692"
         id="path4221"
         style="font-size:18px;font-family:'Helvetica, sans-serif'" />
      <path
         d="m 360.49256,453.3465 -1.548,0 0,-2.592 -1.494,0 0,2.592 -1.278,0 0,1.224 1.278,0 0,7.128 c 0,0.954 0.648,1.494 1.818,1.494 0.36,0 0.72,-0.036 1.224,-0.126 l 0,-1.26 c -0.198,0.054 -0.432,0.072 -0.72,0.072 -0.648,0 -0.828,-0.18 -0.828,-0.846 l 0,-6.462 1.548,0 0,-1.224"
         id="path4223"
         style="font-size:18px;font-family:'Helvetica, sans-serif'" />
      <path
         d="m 363.61275,453.3465 -1.494,0 0,9.432 1.494,0 0,-9.432 m 0,-3.69 -1.512,0 0,1.89 1.512,0 0,-1.89"
         id="path4225"
         style="font-size:18px;font-family:'Helvetica, sans-serif'" />
      <path
         d="m 369.81656,453.0765 c -2.64599,0 -4.248,1.89001 -4.248,5.058 0,3.168 1.58401,5.058 4.266,5.058 2.646,0 4.266,-1.89 4.266,-4.986 0,-3.25799 -1.566,-5.13 -4.284,-5.13 m 0.018,1.386 c 1.692,0 2.7,1.38601 2.7,3.726 0,2.214 -1.044,3.618 -2.7,3.618 -1.674,0 -2.7,-1.386 -2.7,-3.672 0,-2.26799 1.026,-3.672 2.7,-3.672"
         id="path4227"
         style="font-size:18px;font-family:'Helvetica, sans-serif'" />
      <path
         d="m 376.20009,453.3465 0,9.432 1.512,0 0,-5.202 c 0,-1.92599 1.00801,-3.186 2.556,-3.186 1.188,0 1.944,0.72 1.944,1.854 l 0,6.534 1.494,0 0,-7.128 c 0,-1.566 -1.17,-2.574 -2.988,-2.574 -1.40399,0 -2.304,0.54 -3.132,1.854 l 0,-1.584 -1.386,0"
         id="path4229"
         style="font-size:18px;font-family:'Helvetica, sans-serif'" />
    </g>
    <g
       id="text3307"
       style="font-size:18px;font-family:'Helvetica, sans-serif'">
      <path
         d="m 377.107,411.55003 4.32,0 c 1.494,0 2.16,0.72 2.16,2.34 l -0.018,1.17 c 0,0.81 0.144,1.602 0.378,2.142 l 2.034,0 0,-0.414 c -0.63,-0.432 -0.756,-0.90001 -0.792,-2.646 -0.018,-2.16 -0.36,-2.808 -1.782,-3.42 1.476,-0.72 2.07,-1.63801 2.07,-3.132 0,-2.268 -1.422,-3.51 -3.996,-3.51 l -6.048,0 0,13.122 1.674,0 0,-5.652 m 0,-1.476 0,-4.518 4.05,0 c 0.936,0 1.476,0.144 1.89,0.504 0.45,0.378 0.684,0.972 0.684,1.764 0,1.54799 -0.792,2.25 -2.574,2.25 l -4.05,0"
         id="path4232"
         style="font-size:18px;font-family:'Helvetica, sans-serif'" />
      <path
         d="m 395.44282,417.20203 0,-9.432 -1.494,0 0,5.346 c 0,1.92599 -1.00801,3.186 -2.574,3.186 -1.188,0 -1.944,-0.72 -1.944,-1.854 l 0,-6.678 -1.494,0 0,7.272 c 0,1.56599 1.17,2.574 3.006,2.574 1.38599,0 2.268,-0.486 3.15,-1.728 l 0,1.314 1.35,0"
         id="path4234"
         style="font-size:18px;font-family:'Helvetica, sans-serif'" />
      <path
         d="m 398.04635,404.08003 0,13.122 1.494,0 0,-5.202 c 0,-1.926 1.008,-3.186 2.556,-3.186 0.486,0 0.972,0.162 1.332,0.432 0.432,0.306 0.612,0.756 0.612,1.422 l 0,6.534 1.494,0 0,-7.128 c 0,-1.584 -1.13401,-2.574 -2.97,-2.574 -1.332,0 -2.142,0.414 -3.024,1.566 l 0,-4.986 -1.494,0"
         id="path4236"
         style="font-size:18px;font-family:'Helvetica, sans-serif'" />
      <path
         d="m 416.03988,412.99003 c 0,-1.44 -0.108,-2.304 -0.378,-3.006 -0.612,-1.548 -2.052,-2.484 -3.816,-2.484 -2.628,0 -4.32,2.016 -4.32,5.112 0,3.09599 1.638,5.004 4.284,5.004 2.16,0 3.654,-1.22401 4.032,-3.276 l -1.512,0 c -0.414,1.242 -1.26,1.89 -2.466,1.89 -0.954,0 -1.764,-0.432 -2.268,-1.224 -0.36,-0.54 -0.486,-1.08 -0.504,-2.016 l 6.948,0 m -6.912,-1.224 c 0.126,-1.746 1.188,-2.88 2.7,-2.88 1.476,0 2.61,1.224 2.61,2.772 0,0.036 0,0.072 -0.018,0.108 l -5.292,0"
         id="path4238"
         style="font-size:18px;font-family:'Helvetica, sans-serif'" />
      <path
         d="m 417.79741,421.12603 1.512,0 0,-4.914 c 0.792,0.972 1.674,1.404 2.898,1.404 2.43,0 4.032,-1.96201 4.032,-4.968 0,-3.168 -1.548,-5.148 -4.05,-5.148 -1.278,0 -2.304,0.576 -3.006,1.692 l 0,-1.422 -1.386,0 0,13.356 m 4.14,-12.222 c 1.656,0 2.736,1.458 2.736,3.708 0,2.14199 -1.098,3.6 -2.736,3.6 -1.584,0 -2.628,-1.44001 -2.628,-3.654 0,-2.214 1.044,-3.654 2.628,-3.654"
         id="path4240"
         style="font-size:18px;font-family:'Helvetica, sans-serif'" />
      <path
         d="m 431.74094,407.50003 c -2.646,0 -4.248,1.89 -4.248,5.058 0,3.16799 1.584,5.058 4.266,5.058 2.646,0 4.266,-1.89001 4.266,-4.986 0,-3.258 -1.566,-5.13 -4.284,-5.13 m 0.018,1.386 c 1.692,0 2.7,1.386 2.7,3.726 0,2.21399 -1.044,3.618 -2.7,3.618 -1.674,0 -2.7,-1.38601 -2.7,-3.672 0,-2.268 1.026,-3.672 2.7,-3.672"
         id="path4242"
         style="font-size:18px;font-family:'Helvetica, sans-serif'" />
      <path
         d="m 441.43647,407.77003 -1.548,0 0,-2.592 -1.494,0 0,2.592 -1.278,0 0,1.224 1.278,0 0,7.128 c 0,0.954 0.648,1.494 1.818,1.494 0.36,0 0.72,-0.036 1.224,-0.126 l 0,-1.26 c -0.198,0.054 -0.432,0.072 -0.72,0.072 -0.648,0 -0.828,-0.18 -0.828,-0.846 l 0,-6.462 1.548,0 0,-1.224"
         id="path4244"
         style="font-size:18px;font-family:'Helvetica, sans-serif'" />
      <path
         d="m 451.09066,412.99003 c 0,-1.44 -0.108,-2.304 -0.378,-3.006 -0.612,-1.548 -2.052,-2.484 -3.816,-2.484 -2.628,0 -4.32,2.016 -4.32,5.112 0,3.09599 1.638,5.004 4.284,5.004 2.16,0 3.654,-1.22401 4.032,-3.276 l -1.512,0 c -0.414,1.242 -1.26,1.89 -2.466,1.89 -0.954,0 -1.764,-0.432 -2.268,-1.224 -0.36,-0.54 -0.486,-1.08 -0.504,-2.016 l 6.948,0 m -6.912,-1.224 c 0.126,-1.746 1.188,-2.88 2.7,-2.88 1.476,0 2.61,1.224 2.61,2.772 0,0.036 0,0.072 -0.018,0.108 l -5.292,0"
         id="path4246"
         style="font-size:18px;font-family:'Helvetica, sans-serif'" />
      <path
         d="m 453.13619,407.77003 0,9.432 1.512,0 0,-5.202 c 0,-1.926 1.008,-3.186 2.556,-3.186 1.188,0 1.944,0.72 1.944,1.854 l 0,6.534 1.494,0 0,-7.128 c 0,-1.566 -1.17,-2.574 -2.988,-2.574 -1.404,0 -2.304,0.54 -3.132,1.854 l 0,-1.584 -1.386,0"
         id="path4248"
         style="font-size:18px;font-family:'Helvetica, sans-serif'" />
      <path
         d="m 466.46772,407.77003 -1.548,0 0,-2.592 -1.494,0 0,2.592 -1.278,0 0,1.224 1.278,0 0,7.128 c 0,0.954 0.648,1.494 1.818,1.494 0.36,0 0.72,-0.036 1.224,-0.126 l 0,-1.26 c -0.198,0.054 -0.432,0.072 -0.72,0.072 -0.648,0 -0.828,-0.18 -0.828,-0.846 l 0,-6.462 1.548,0 0,-1.224"
         id="path4250"
         style="font-size:18px;font-family:'Helvetica, sans-serif'" />
      <path
         d="m 469.58791,407.77003 -1.494,0 0,9.432 1.494,0 0,-9.432 m 0,-3.69 -1.512,0 0,1.89 1.512,0 0,-1.89"
         id="path4252"
         style="font-size:18px;font-family:'Helvetica, sans-serif'" />
      <path
         d="m 480.52572,416.32003 c -0.162,0.036 -0.234,0.036 -0.324,0.036 -0.522,0 -0.81,-0.27 -0.81,-0.738 l 0,-5.544 c 0,-1.674 -1.224,-2.574 -3.546,-2.574 -1.368,0 -2.502,0.396 -3.132,1.098 -0.432,0.486 -0.612,1.026 -0.648,1.962 l 1.512,0 c 0.126,-1.152 0.81,-1.674 2.214,-1.674 1.35,0 2.106,0.504 2.106,1.404 l 0,0.396 c 0,0.63 -0.378,0.9 -1.566,1.044 -2.124,0.27 -2.448,0.342 -3.024,0.576 -1.098,0.45 -1.656,1.296 -1.656,2.52 0,1.70999 1.188,2.79 3.096,2.79 1.188,0 2.142,-0.414 3.204,-1.386 0.108,0.954 0.576,1.386 1.548,1.386 0.306,0 0.54,-0.036 1.026,-0.162 l 0,-1.134 m -2.628,-2.088 c 0,0.504 -0.144,0.81 -0.594,1.224 -0.612,0.558 -1.35,0.846 -2.232,0.846 -1.17,0 -1.854,-0.558 -1.854,-1.512 0,-0.99 0.666,-1.494 2.268,-1.728 1.584,-0.216 1.908,-0.288 2.412,-0.522 l 0,1.692"
         id="path4254"
         style="font-size:18px;font-family:'Helvetica, sans-serif'" />
      <path
         d="m 483.65125,404.08003 -1.512,0 0,13.122 1.512,0 0,-13.122"
         id="path4256"
         style="font-size:18px;font-family:'Helvetica, sans-serif'" />
    </g>
    <g
       id="text3311"
       style="font-size:18px;font-family:'Helvetica, sans-serif'">
      <path
         d="m 157.106,481.51399 4.32,0 c 1.49399,0 2.16,0.72 2.16,2.34 l -0.018,1.17 c 0,0.80999 0.144,1.602 0.378,2.142 l 2.034,0 0,-0.414 c -0.63,-0.432 -0.756,-0.90001 -0.792,-2.646 -0.018,-2.16 -0.36001,-2.80801 -1.782,-3.42 1.47599,-0.72 2.07,-1.63801 2.07,-3.132 0,-2.268 -1.42201,-3.51 -3.996,-3.51 l -6.048,0 0,13.122 1.674,0 0,-5.652 m 0,-1.476 0,-4.518 4.05,0 c 0.93599,0 1.476,0.144 1.89,0.504 0.45,0.37799 0.684,0.972 0.684,1.764 0,1.54799 -0.79201,2.25 -2.574,2.25 l -4.05,0"
         id="path4339"
         style="font-size:18px;font-family:'Helvetica, sans-serif'" />
      <path
         d="m 175.99981,482.95399 c 0,-1.44 -0.108,-2.30401 -0.378,-3.006 -0.612,-1.548 -2.052,-2.484 -3.816,-2.484 -2.628,0 -4.32,2.016 -4.32,5.112 0,3.09599 1.638,5.004 4.284,5.004 2.16,0 3.654,-1.22401 4.032,-3.276 l -1.512,0 c -0.414,1.24199 -1.26,1.89 -2.466,1.89 -0.954,0 -1.764,-0.43201 -2.268,-1.224 -0.36,-0.54 -0.486,-1.08001 -0.504,-2.016 l 6.948,0 m -6.912,-1.224 c 0.126,-1.746 1.188,-2.88 2.7,-2.88 1.476,0 2.61,1.224 2.61,2.772 0,0.036 0,0.072 -0.018,0.108 l -5.292,0"
         id="path4341"
         style="font-size:18px;font-family:'Helvetica, sans-serif'" />
      <path
         d="m 179.48534,477.73399 -1.494,0 0,9.432 1.494,0 0,-9.432 m 0,-3.69 -1.512,0 0,1.89 1.512,0 0,-1.89"
         id="path4343"
         style="font-size:18px;font-family:'Helvetica, sans-serif'" />
      <path
         d="m 188.76715,477.73399 -7.038,0 0,1.314 5.256,0 -5.634,6.768 0,1.35 7.668,0 0,-1.314 -5.85,0 5.598,-6.786 0,-1.332"
         id="path4345"
         style="font-size:18px;font-family:'Helvetica, sans-serif'" />
    </g>
    <g
       id="text3315"
       style="font-size:18px;font-family:'Helvetica, sans-serif'">
      <path
         d="m 213.823,541.17897 1.35,3.942 1.872,0 -4.608,-13.122 -2.16,0 -4.68,13.122 1.782,0 1.386,-3.942 5.058,0 m -0.468,-1.404 -4.176,0 2.16,-5.976 2.016,5.976"
         id="path4348"
         style="font-size:18px;font-family:'Helvetica, sans-serif'" />
      <path
         d="m 219.85244,531.99897 -1.494,0 0,13.122 1.494,0 0,-3.672 1.458,-1.44 3.186,5.112 1.854,0 -3.852,-6.174 3.276,-3.258 -1.926,0 -3.996,3.996 0,-7.686"
         id="path4350"
         style="font-size:18px;font-family:'Helvetica, sans-serif'" />
      <path
         d="m 230.88644,535.68897 -1.548,0 0,-2.592 -1.494,0 0,2.592 -1.278,0 0,1.224 1.278,0 0,7.128 c 0,0.954 0.648,1.494 1.818,1.494 0.36,0 0.72,-0.036 1.224,-0.126 l 0,-1.26 c -0.198,0.054 -0.432,0.072 -0.72,0.072 -0.648,0 -0.828,-0.18 -0.828,-0.846 l 0,-6.462 1.548,0 0,-1.224"
         id="path4352"
         style="font-size:18px;font-family:'Helvetica, sans-serif'" />
      <path
         d="m 234.00663,535.68897 -1.494,0 0,9.432 1.494,0 0,-9.432 m 0,-3.69 -1.512,0 0,1.89 1.512,0 0,-1.89"
         id="path4354"
         style="font-size:18px;font-family:'Helvetica, sans-serif'" />
      <path
         d="m 240.21044,535.41897 c -2.646,0 -4.248,1.89 -4.248,5.058 0,3.168 1.584,5.058 4.266,5.058 2.646,0 4.266,-1.89 4.266,-4.986 0,-3.258 -1.566,-5.13 -4.284,-5.13 m 0.018,1.386 c 1.692,0 2.7,1.386 2.7,3.726 0,2.214 -1.044,3.618 -2.7,3.618 -1.674,0 -2.7,-1.386 -2.7,-3.672 0,-2.268 1.026,-3.672 2.7,-3.672"
         id="path4356"
         style="font-size:18px;font-family:'Helvetica, sans-serif'" />
      <path
         d="m 246.59397,535.68897 0,9.432 1.512,0 0,-5.202 c 0,-1.926 1.008,-3.186 2.556,-3.186 1.188,0 1.944,0.72 1.944,1.854 l 0,6.534 1.494,0 0,-7.128 c 0,-1.566 -1.17,-2.574 -2.988,-2.574 -1.404,0 -2.304,0.54 -3.132,1.854 l 0,-1.584 -1.386,0"
         id="path4358"
         style="font-size:18px;font-family:'Helvetica, sans-serif'" />
      <path
         d="m 263.2375,538.31697 c -0.018,-1.854 -1.242,-2.898 -3.42,-2.898 -2.196,0 -3.618,1.134 -3.618,2.88 0,1.476 0.756,2.178 2.988,2.718 l 1.404,0.342 c 1.044,0.252 1.458,0.63 1.458,1.314 0,0.882 -0.882,1.476 -2.196,1.476 -0.81,0 -1.494,-0.234 -1.872,-0.63 -0.234,-0.27 -0.342,-0.54 -0.432,-1.206 l -1.584,0 c 0.072,2.178 1.296,3.222 3.762,3.222 2.376,0 3.888,-1.17 3.888,-2.988 0,-1.404 -0.792,-2.178 -2.664,-2.628 l -1.44,-0.342 c -1.224,-0.288 -1.746,-0.684 -1.746,-1.35 0,-0.864 0.774,-1.422 1.998,-1.422 1.206,0 1.854,0.522 1.89,1.512 l 1.584,0"
         id="path4360"
         style="font-size:18px;font-family:'Helvetica, sans-serif'" />
      <path
         d="m 265.3255,549.04497 1.512,0 0,-4.914 c 0.792,0.972 1.674,1.404 2.898,1.404 2.43,0 4.032,-1.962 4.032,-4.968 0,-3.168 -1.548,-5.148 -4.05,-5.148 -1.278,0 -2.304,0.576 -3.006,1.692 l 0,-1.422 -1.386,0 0,13.356 m 4.14,-12.222 c 1.656,0 2.736,1.458 2.736,3.708 0,2.142 -1.098,3.6 -2.736,3.6 -1.584,0 -2.628,-1.44 -2.628,-3.654 0,-2.214 1.044,-3.654 2.628,-3.654"
         id="path4362"
         style="font-size:18px;font-family:'Helvetica, sans-serif'" />
      <path
         d="m 279.26903,535.41897 c -2.646,0 -4.248,1.89 -4.248,5.058 0,3.168 1.584,5.058 4.266,5.058 2.646,0 4.266,-1.89 4.266,-4.986 0,-3.258 -1.566,-5.13 -4.284,-5.13 m 0.018,1.386 c 1.692,0 2.7,1.386 2.7,3.726 0,2.214 -1.044,3.618 -2.7,3.618 -1.674,0 -2.7,-1.386 -2.7,-3.672 0,-2.268 1.026,-3.672 2.7,-3.672"
         id="path4364"
         style="font-size:18px;font-family:'Helvetica, sans-serif'" />
      <path
         d="m 288.96456,535.68897 -1.548,0 0,-2.592 -1.494,0 0,2.592 -1.278,0 0,1.224 1.278,0 0,7.128 c 0,0.954 0.648,1.494 1.818,1.494 0.36,0 0.72,-0.036 1.224,-0.126 l 0,-1.26 c -0.198,0.054 -0.432,0.072 -0.72,0.072 -0.648,0 -0.828,-0.18 -0.828,-0.846 l 0,-6.462 1.548,0 0,-1.224"
         id="path4366"
         style="font-size:18px;font-family:'Helvetica, sans-serif'" />
      <path
         d="m 298.61875,540.90897 c 0,-1.44 -0.108,-2.304 -0.378,-3.006 -0.612,-1.548 -2.052,-2.484 -3.816,-2.484 -2.628,0 -4.32,2.016 -4.32,5.112 0,3.096 1.638,5.004 4.284,5.004 2.16,0 3.654,-1.224 4.032,-3.276 l -1.512,0 c -0.414,1.242 -1.26,1.89 -2.466,1.89 -0.954,0 -1.764,-0.432 -2.268,-1.224 -0.36,-0.54 -0.486,-1.08 -0.504,-2.016 l 6.948,0 m -6.912,-1.224 c 0.126,-1.746 1.188,-2.88 2.7,-2.88 1.476,0 2.61,1.224 2.61,2.772 0,0.036 0,0.072 -0.018,0.108 l -5.292,0"
         id="path4368"
         style="font-size:18px;font-family:'Helvetica, sans-serif'" />
      <path
         d="m 300.66428,535.68897 0,9.432 1.512,0 0,-5.202 c 0,-1.926 1.008,-3.186 2.556,-3.186 1.188,0 1.944,0.72 1.944,1.854 l 0,6.534 1.494,0 0,-7.128 c 0,-1.566 -1.17,-2.574 -2.988,-2.574 -1.404,0 -2.304,0.54 -3.132,1.854 l 0,-1.584 -1.386,0"
         id="path4370"
         style="font-size:18px;font-family:'Helvetica, sans-serif'" />
      <path
         d="m 313.99581,535.68897 -1.548,0 0,-2.592 -1.494,0 0,2.592 -1.278,0 0,1.224 1.278,0 0,7.128 c 0,0.954 0.648,1.494 1.818,1.494 0.36,0 0.72,-0.036 1.224,-0.126 l 0,-1.26 c -0.198,0.054 -0.432,0.072 -0.72,0.072 -0.648,0 -0.828,-0.18 -0.828,-0.846 l 0,-6.462 1.548,0 0,-1.224"
         id="path4372"
         style="font-size:18px;font-family:'Helvetica, sans-serif'" />
      <path
         d="m 317.116,535.68897 -1.494,0 0,9.432 1.494,0 0,-9.432 m 0,-3.69 -1.512,0 0,1.89 1.512,0 0,-1.89"
         id="path4374"
         style="font-size:18px;font-family:'Helvetica, sans-serif'" />
      <path
         d="m 328.05381,544.23897 c -0.162,0.036 -0.234,0.036 -0.324,0.036 -0.522,0 -0.81,-0.27 -0.81,-0.738 l 0,-5.544 c 0,-1.674 -1.224,-2.574 -3.546,-2.574 -1.368,0 -2.502,0.396 -3.132,1.098 -0.432,0.486 -0.612,1.026 -0.648,1.962 l 1.512,0 c 0.126,-1.152 0.81,-1.674 2.214,-1.674 1.35,0 2.106,0.504 2.106,1.404 l 0,0.396 c 0,0.63 -0.378,0.9 -1.566,1.044 -2.124,0.27 -2.448,0.342 -3.024,0.576 -1.098,0.45 -1.656,1.296 -1.656,2.52 0,1.71 1.188,2.79 3.096,2.79 1.188,0 2.142,-0.414 3.204,-1.386 0.108,0.954 0.576,1.386 1.548,1.386 0.306,0 0.54,-0.036 1.026,-0.162 l 0,-1.134 m -2.628,-2.088 c 0,0.504 -0.144,0.81 -0.594,1.224 -0.612,0.558 -1.35,0.846 -2.232,0.846 -1.17,0 -1.854,-0.558 -1.854,-1.512 0,-0.99 0.666,-1.494 2.268,-1.728 1.584,-0.216 1.908,-0.288 2.412,-0.522 l 0,1.692"
         id="path4376"
         style="font-size:18px;font-family:'Helvetica, sans-serif'" />
      <path
         d="m 331.17934,531.99897 -1.512,0 0,13.122 1.512,0 0,-13.122"
         id="path4378"
         style="font-size:18px;font-family:'Helvetica, sans-serif'" />
    </g>
    <g
       id="text3319"
       style="font-size:14px;font-family:'Helvetica, sans-serif'">
      <path
         d="m 182.28599,439.77899 0,-7.336 -1.162,0 0,4.158 c 0,1.498 -0.784,2.478 -2.002,2.478 -0.92399,0 -1.512,-0.56 -1.512,-1.442 l 0,-5.194 -1.162,0 0,5.656 c 0,1.218 0.91001,2.002 2.338,2.002 1.078,0 1.76401,-0.378 2.45,-1.344 l 0,1.022 1.05,0"
         id="path4297"
         style="font-size:14px;font-family:'Helvetica, sans-serif'" />
      <path
         d="m 184.31096,432.44299 0,7.336 1.176,0 0,-4.046 c 0,-1.498 0.784,-2.478 1.988,-2.478 0.924,0 1.512,0.56 1.512,1.442 l 0,5.082 1.162,0 0,-5.544 c 0,-1.218 -0.91,-2.002 -2.324,-2.002 -1.092,0 -1.792,0.42 -2.436,1.442 l 0,-1.232 -1.078,0"
         id="path4299"
         style="font-size:14px;font-family:'Helvetica, sans-serif'" />
      <path
         d="m 194.67993,432.44299 -1.204,0 0,-2.016 -1.162,0 0,2.016 -0.994,0 0,0.952 0.994,0 0,5.544 c 0,0.742 0.504,1.162 1.414,1.162 0.28,0 0.56,-0.028 0.952,-0.098 l 0,-0.98 c -0.154,0.042 -0.336,0.056 -0.56,0.056 -0.504,0 -0.644,-0.14 -0.644,-0.658 l 0,-5.026 1.204,0 0,-0.952"
         id="path4301"
         style="font-size:14px;font-family:'Helvetica, sans-serif'" />
      <path
         d="m 202.18874,436.50299 c 0,-1.12 -0.084,-1.792 -0.294,-2.338 -0.476,-1.204 -1.596,-1.932 -2.968,-1.932 -2.04399,0 -3.36,1.568 -3.36,3.976 0,2.408 1.27401,3.892 3.332,3.892 1.68,0 2.842,-0.952 3.136,-2.548 l -1.176,0 c -0.322,0.966 -0.98,1.47 -1.918,1.47 -0.74199,0 -1.372,-0.336 -1.764,-0.952 -0.28,-0.42 -0.378,-0.84 -0.392,-1.568 l 5.404,0 m -5.376,-0.952 c 0.098,-1.358 0.92401,-2.24 2.1,-2.24 1.148,0 2.03,0.952 2.03,2.156 0,0.028 0,0.056 -0.014,0.084 l -4.116,0"
         id="path4303"
         style="font-size:14px;font-family:'Helvetica, sans-serif'" />
      <path
         d="m 203.76571,432.44299 0,7.336 1.176,0 0,-3.808 c 0,-1.05 0.266,-1.736 0.826,-2.142 0.364,-0.266 0.714,-0.35 1.526,-0.364 l 0,-1.19 c -0.196,-0.028 -0.294,-0.042 -0.448,-0.042 -0.756,0 -1.33,0.448 -2.002,1.54 l 0,-1.33 -1.078,0"
         id="path4305"
         style="font-size:14px;font-family:'Helvetica, sans-serif'" />
      <path
         d="m 213.60749,434.48699 c -0.014,-1.442 -0.966,-2.254 -2.66,-2.254 -1.70799,0 -2.814,0.882 -2.814,2.24 0,1.148 0.58801,1.694 2.324,2.114 l 1.092,0.266 c 0.812,0.196 1.134,0.49 1.134,1.022 0,0.686 -0.686,1.148 -1.708,1.148 -0.62999,0 -1.162,-0.182 -1.456,-0.49 -0.182,-0.21 -0.266,-0.42 -0.336,-0.938 l -1.232,0 c 0.056,1.694 1.00801,2.506 2.926,2.506 1.848,0 3.024,-0.91 3.024,-2.324 0,-1.092 -0.616,-1.694 -2.072,-2.044 l -1.12,-0.266 c -0.95199,-0.224 -1.358,-0.532 -1.358,-1.05 0,-0.672 0.60201,-1.106 1.554,-1.106 0.938,0 1.442,0.406 1.47,1.176 l 1.232,0"
         id="path4307"
         style="font-size:14px;font-family:'Helvetica, sans-serif'" />
      <path
         d="m 221.06949,434.90699 c -0.056,-0.714 -0.21,-1.176 -0.49,-1.582 -0.504,-0.686 -1.386,-1.092 -2.408,-1.092 -1.97399,0 -3.262,1.568 -3.262,4.004 0,2.366 1.26001,3.864 3.248,3.864 1.75,0 2.856,-1.05 2.996,-2.842 l -1.176,0 c -0.196,1.176 -0.798,1.764 -1.792,1.764 -1.28799,0 -2.058,-1.05 -2.058,-2.786 0,-1.834 0.75601,-2.926 2.03,-2.926 0.98,0 1.596,0.574 1.736,1.596 l 1.176,0"
         id="path4309"
         style="font-size:14px;font-family:'Helvetica, sans-serif'" />
      <path
         d="m 222.45549,429.57299 0,10.206 1.162,0 0,-4.046 c 0,-1.498 0.78401,-2.478 1.988,-2.478 0.378,0 0.756,0.126 1.036,0.336 0.336,0.238 0.476,0.588 0.476,1.106 l 0,5.082 1.162,0 0,-5.544 c 0,-1.232 -0.882,-2.002 -2.31,-2.002 -1.03599,0 -1.666,0.322 -2.352,1.218 l 0,-3.878 -1.162,0"
         id="path4311"
         style="font-size:14px;font-family:'Helvetica, sans-serif'" />
      <path
         d="m 237.02446,439.77899 2.156,-7.336 -1.316,0 -1.456,5.712 -1.442,-5.712 -1.428,0 -1.4,5.712 -1.498,-5.712 -1.288,0 2.128,7.336 1.316,0 1.414,-5.754 1.484,5.754 1.33,0"
         id="path4313"
         style="font-size:14px;font-family:'Helvetica, sans-serif'" />
      <path
         d="m 246.56765,436.50299 c 0,-1.12 -0.084,-1.792 -0.294,-2.338 -0.476,-1.204 -1.596,-1.932 -2.968,-1.932 -2.044,0 -3.36,1.568 -3.36,3.976 0,2.408 1.274,3.892 3.332,3.892 1.68,0 2.842,-0.952 3.136,-2.548 l -1.176,0 c -0.322,0.966 -0.98,1.47 -1.918,1.47 -0.742,0 -1.372,-0.336 -1.764,-0.952 -0.28,-0.42 -0.378,-0.84 -0.392,-1.568 l 5.404,0 m -5.376,-0.952 c 0.098,-1.358 0.924,-2.24 2.1,-2.24 1.148,0 2.03,0.952 2.03,2.156 0,0.028 0,0.056 -0.014,0.084 l -4.116,0"
         id="path4315"
         style="font-size:14px;font-family:'Helvetica, sans-serif'" />
      <path
         d="m 249.30662,429.57299 -1.176,0 0,10.206 1.176,0 0,-10.206"
         id="path4317"
         style="font-size:14px;font-family:'Helvetica, sans-serif'" />
      <path
         d="m 252.42381,429.57299 -1.176,0 0,10.206 1.176,0 0,-10.206"
         id="path4319"
         style="font-size:14px;font-family:'Helvetica, sans-serif'" />
      <path
         d="m 255.51299,432.44299 -1.162,0 0,7.336 1.162,0 0,-7.336 m 0,-2.87 -1.176,0 0,1.47 1.176,0 0,-1.47"
         id="path4321"
         style="font-size:14px;font-family:'Helvetica, sans-serif'" />
      <path
         d="m 262.29818,432.44299 0,1.064 c -0.588,-0.868 -1.302,-1.274 -2.24,-1.274 -1.862,0 -3.122,1.624 -3.122,4.004 0,1.204 0.322,2.184 0.924,2.884 0.546,0.616 1.33,0.98 2.1,0.98 0.924,0 1.568,-0.392 2.226,-1.316 l 0,0.378 c 0,0.994 -0.126,1.596 -0.42,2.002 -0.308,0.434 -0.91,0.686 -1.624,0.686 -0.532,0 -1.008,-0.14 -1.33,-0.392 -0.266,-0.21 -0.378,-0.406 -0.448,-0.84 l -1.19,0 c 0.126,1.386 1.204,2.212 2.926,2.212 1.092,0 2.03,-0.35 2.506,-0.938 0.56,-0.672 0.77,-1.596 0.77,-3.318 l 0,-6.132 -1.078,0 m -2.114,0.868 c 1.26,0 2.002,1.064 2.002,2.898 0,1.75 -0.756,2.814 -1.988,2.814 -1.274,0 -2.044,-1.078 -2.044,-2.856 0,-1.764 0.784,-2.856 2.03,-2.856"
         id="path4323"
         style="font-size:14px;font-family:'Helvetica, sans-serif'" />
      <path
         d="m 271.50515,436.50299 c 0,-1.12 -0.084,-1.792 -0.294,-2.338 -0.476,-1.204 -1.596,-1.932 -2.968,-1.932 -2.044,0 -3.36,1.568 -3.36,3.976 0,2.408 1.274,3.892 3.332,3.892 1.68,0 2.842,-0.952 3.136,-2.548 l -1.176,0 c -0.322,0.966 -0.98,1.47 -1.918,1.47 -0.742,0 -1.372,-0.336 -1.764,-0.952 -0.28,-0.42 -0.378,-0.84 -0.392,-1.568 l 5.404,0 m -5.376,-0.952 c 0.098,-1.358 0.924,-2.24 2.1,-2.24 1.148,0 2.03,0.952 2.03,2.156 0,0.028 0,0.056 -0.014,0.084 l -4.116,0"
         id="path4325"
         style="font-size:14px;font-family:'Helvetica, sans-serif'" />
    </g>
    <g
       id="text3321"
       style="font-size:14px;font-family:'Helvetica, sans-serif'">
      <path
         d="m 178.14199,449.38299 3.36,0 c 1.162,0 1.68,0.56 1.68,1.82 l -0.014,0.91 c 0,0.63 0.112,1.246 0.294,1.666 l 1.582,0 0,-0.322 c -0.49,-0.336 -0.588,-0.7 -0.616,-2.058 -0.014,-1.68 -0.28,-2.184 -1.386,-2.66 1.148,-0.56 1.61,-1.274 1.61,-2.436 0,-1.764 -1.106,-2.73 -3.108,-2.73 l -4.704,0 0,10.206 1.302,0 0,-4.396 m 0,-1.148 0,-3.514 3.15,0 c 0.728,0 1.148,0.112 1.47,0.392 0.35,0.294 0.532,0.756 0.532,1.372 0,1.204 -0.616,1.75 -2.002,1.75 l -3.15,0"
         id="path4328"
         style="font-size:14px;font-family:'Helvetica, sans-serif'" />
      <path
         d="m 192.83718,450.50299 c 0,-1.12 -0.084,-1.792 -0.294,-2.338 -0.476,-1.204 -1.596,-1.932 -2.968,-1.932 -2.044,0 -3.36,1.568 -3.36,3.976 0,2.408 1.274,3.892 3.332,3.892 1.68,0 2.842,-0.952 3.136,-2.548 l -1.176,0 c -0.322,0.966 -0.98,1.47 -1.918,1.47 -0.742,0 -1.372,-0.336 -1.764,-0.952 -0.28,-0.42 -0.378,-0.84 -0.392,-1.568 l 5.404,0 m -5.376,-0.952 c 0.098,-1.358 0.924,-2.24 2.1,-2.24 1.148,0 2.03,0.952 2.03,2.156 0,0.028 0,0.056 -0.014,0.084 l -4.116,0"
         id="path4330"
         style="font-size:14px;font-family:'Helvetica, sans-serif'" />
      <path
         d="m 195.54815,446.44299 -1.162,0 0,7.336 1.162,0 0,-7.336 m 0,-2.87 -1.176,0 0,1.47 1.176,0 0,-1.47"
         id="path4332"
         style="font-size:14px;font-family:'Helvetica, sans-serif'" />
      <path
         d="m 202.76734,446.44299 -5.474,0 0,1.022 4.088,0 -4.382,5.264 0,1.05 5.964,0 0,-1.022 -4.55,0 4.354,-5.278 0,-1.036"
         id="path4334"
         style="font-size:14px;font-family:'Helvetica, sans-serif'" />
      <path
         d="m 210.74734,450.50299 c 0,-1.12 -0.084,-1.792 -0.294,-2.338 -0.476,-1.204 -1.596,-1.932 -2.968,-1.932 -2.044,0 -3.36,1.568 -3.36,3.976 0,2.408 1.274,3.892 3.332,3.892 1.68,0 2.842,-0.952 3.136,-2.548 l -1.176,0 c -0.322,0.966 -0.98,1.47 -1.918,1.47 -0.742,0 -1.372,-0.336 -1.764,-0.952 -0.28,-0.42 -0.378,-0.84 -0.392,-1.568 l 5.404,0 m -5.376,-0.952 c 0.098,-1.358 0.924,-2.24 2.1,-2.24 1.148,0 2.03,0.952 2.03,2.156 0,0.028 0,0.056 -0.014,0.084 l -4.116,0"
         id="path4336"
         style="font-size:14px;font-family:'Helvetica, sans-serif'" />
    </g>
    <path
       d="m 294.25992,234.51851 c 6.07628,43.42227 11.85663,80.6644 17.40834,124.60709"
       id="path4167"
       style="color:#000000;fill:none;stroke:none;stroke-width:1px;marker:none;visibility:visible;display:inline;overflow:visible;enable-background:accumulate" />
    <path
       d="m 210.14151,348.30541 c 6.52707,-29.04585 10.97036,-69.7825 15.30558,-114.17137"
       id="path4172"
       style="color:#000000;fill:none;stroke:none;stroke-width:1px;marker:none;visibility:visible;display:inline;overflow:visible;enable-background:accumulate" />
  </g>
</svg>
