<svg height="311.76pt" version="1.1" viewBox="0 0 491.76 311.76" width="491.76pt" xmlns="http://www.w3.org/2000/svg" xmlns:xlink="http://www.w3.org/1999/xlink" style="width: 100%; height: 100%;">
 <defs>
  <style type="text/css">
*{stroke-linecap:butt;stroke-linejoin:round;}
  </style>
 </defs>
 <g id="figure_1">
  <g id="patch_1">
   <path d="M 0 311.76 
L 491.76 311.76 
L 491.76 0 
L 0 0 
z
" style="fill:none;"></path>
  </g>
  <g id="axes_1">
   <g id="patch_2">
    <path d="M 36.989063 283.239375 
L 488.16 283.239375 
L 488.16 17.806312 
L 36.989063 17.806312 
z
" style="fill:#ffffff;"></path>
   </g>
   <g id="matplotlib.axis_1">
    <g id="xtick_1">
     <g id="line2d_1">
      <path clip-path="url(#p4a9d539388)" d="M 57.299895 283.239375 
L 57.299895 17.806312 
" style="fill:none;stroke:#808080;stroke-dasharray:0.5,0.825;stroke-dashoffset:0;stroke-width:0.5;"></path>
     </g>
     <g id="line2d_2"></g>
     <g id="text_1">
      <!-- 0.00 -->
      <defs>
       <path d="M 31.78125 66.40625 
Q 24.171875 66.40625 20.328125 58.90625 
Q 16.5 51.421875 16.5 36.375 
Q 16.5 21.390625 20.328125 13.890625 
Q 24.171875 6.390625 31.78125 6.390625 
Q 39.453125 6.390625 43.28125 13.890625 
Q 47.125 21.390625 47.125 36.375 
Q 47.125 51.421875 43.28125 58.90625 
Q 39.453125 66.40625 31.78125 66.40625 
z
M 31.78125 74.21875 
Q 44.046875 74.21875 50.515625 64.515625 
Q 56.984375 54.828125 56.984375 36.375 
Q 56.984375 17.96875 50.515625 8.265625 
Q 44.046875 -1.421875 31.78125 -1.421875 
Q 19.53125 -1.421875 13.0625 8.265625 
Q 6.59375 17.96875 6.59375 36.375 
Q 6.59375 54.828125 13.0625 64.515625 
Q 19.53125 74.21875 31.78125 74.21875 
z
" id="DejaVuSans-48"></path>
       <path d="M 10.6875 12.40625 
L 21 12.40625 
L 21 0 
L 10.6875 0 
z
" id="DejaVuSans-46"></path>
      </defs>
      <g transform="translate(47.280364 293.577969)scale(0.09 -0.09)">
       <use xlink:href="#DejaVuSans-48"></use>
       <use x="63.623047" xlink:href="#DejaVuSans-46"></use>
       <use x="95.410156" xlink:href="#DejaVuSans-48"></use>
       <use x="159.033203" xlink:href="#DejaVuSans-48"></use>
      </g>
     </g>
    </g>
    <g id="xtick_2">
     <g id="line2d_3">
      <path clip-path="url(#p4a9d539388)" d="M 139.357234 283.239375 
L 139.357234 17.806312 
" style="fill:none;stroke:#808080;stroke-dasharray:0.5,0.825;stroke-dashoffset:0;stroke-width:0.5;"></path>
     </g>
     <g id="line2d_4"></g>
     <g id="text_2">
      <!-- 0.01 -->
      <defs>
       <path d="M 12.40625 8.296875 
L 28.515625 8.296875 
L 28.515625 63.921875 
L 10.984375 60.40625 
L 10.984375 69.390625 
L 28.421875 72.90625 
L 38.28125 72.90625 
L 38.28125 8.296875 
L 54.390625 8.296875 
L 54.390625 0 
L 12.40625 0 
z
" id="DejaVuSans-49"></path>
      </defs>
      <g transform="translate(129.337703 293.577969)scale(0.09 -0.09)">
       <use xlink:href="#DejaVuSans-48"></use>
       <use x="63.623047" xlink:href="#DejaVuSans-46"></use>
       <use x="95.410156" xlink:href="#DejaVuSans-48"></use>
       <use x="159.033203" xlink:href="#DejaVuSans-49"></use>
      </g>
     </g>
    </g>
    <g id="xtick_3">
     <g id="line2d_5">
      <path clip-path="url(#p4a9d539388)" d="M 221.414574 283.239375 
L 221.414574 17.806312 
" style="fill:none;stroke:#808080;stroke-dasharray:0.5,0.825;stroke-dashoffset:0;stroke-width:0.5;"></path>
     </g>
     <g id="line2d_6"></g>
     <g id="text_3">
      <!-- 0.02 -->
      <defs>
       <path d="M 19.1875 8.296875 
L 53.609375 8.296875 
L 53.609375 0 
L 7.328125 0 
L 7.328125 8.296875 
Q 12.9375 14.109375 22.625 23.890625 
Q 32.328125 33.6875 34.8125 36.53125 
Q 39.546875 41.84375 41.421875 45.53125 
Q 43.3125 49.21875 43.3125 52.78125 
Q 43.3125 58.59375 39.234375 62.25 
Q 35.15625 65.921875 28.609375 65.921875 
Q 23.96875 65.921875 18.8125 64.3125 
Q 13.671875 62.703125 7.8125 59.421875 
L 7.8125 69.390625 
Q 13.765625 71.78125 18.9375 73 
Q 24.125 74.21875 28.421875 74.21875 
Q 39.75 74.21875 46.484375 68.546875 
Q 53.21875 62.890625 53.21875 53.421875 
Q 53.21875 48.921875 51.53125 44.890625 
Q 49.859375 40.875 45.40625 35.40625 
Q 44.1875 33.984375 37.640625 27.21875 
Q 31.109375 20.453125 19.1875 8.296875 
z
" id="DejaVuSans-50"></path>
      </defs>
      <g transform="translate(211.395043 293.577969)scale(0.09 -0.09)">
       <use xlink:href="#DejaVuSans-48"></use>
       <use x="63.623047" xlink:href="#DejaVuSans-46"></use>
       <use x="95.410156" xlink:href="#DejaVuSans-48"></use>
       <use x="159.033203" xlink:href="#DejaVuSans-50"></use>
      </g>
     </g>
    </g>
    <g id="xtick_4">
     <g id="line2d_7">
      <path clip-path="url(#p4a9d539388)" d="M 303.471914 283.239375 
L 303.471914 17.806312 
" style="fill:none;stroke:#808080;stroke-dasharray:0.5,0.825;stroke-dashoffset:0;stroke-width:0.5;"></path>
     </g>
     <g id="line2d_8"></g>
     <g id="text_4">
      <!-- 0.03 -->
      <defs>
       <path d="M 40.578125 39.3125 
Q 47.65625 37.796875 51.625 33 
Q 55.609375 28.21875 55.609375 21.1875 
Q 55.609375 10.40625 48.1875 4.484375 
Q 40.765625 -1.421875 27.09375 -1.421875 
Q 22.515625 -1.421875 17.65625 -0.515625 
Q 12.796875 0.390625 7.625 2.203125 
L 7.625 11.71875 
Q 11.71875 9.328125 16.59375 8.109375 
Q 21.484375 6.890625 26.8125 6.890625 
Q 36.078125 6.890625 40.9375 10.546875 
Q 45.796875 14.203125 45.796875 21.1875 
Q 45.796875 27.640625 41.28125 31.265625 
Q 36.765625 34.90625 28.71875 34.90625 
L 20.21875 34.90625 
L 20.21875 43.015625 
L 29.109375 43.015625 
Q 36.375 43.015625 40.234375 45.921875 
Q 44.09375 48.828125 44.09375 54.296875 
Q 44.09375 59.90625 40.109375 62.90625 
Q 36.140625 65.921875 28.71875 65.921875 
Q 24.65625 65.921875 20.015625 65.03125 
Q 15.375 64.15625 9.8125 62.3125 
L 9.8125 71.09375 
Q 15.4375 72.65625 20.34375 73.4375 
Q 25.25 74.21875 29.59375 74.21875 
Q 40.828125 74.21875 47.359375 69.109375 
Q 53.90625 64.015625 53.90625 55.328125 
Q 53.90625 49.265625 50.4375 45.09375 
Q 46.96875 40.921875 40.578125 39.3125 
z
" id="DejaVuSans-51"></path>
      </defs>
      <g transform="translate(293.452382 293.577969)scale(0.09 -0.09)">
       <use xlink:href="#DejaVuSans-48"></use>
       <use x="63.623047" xlink:href="#DejaVuSans-46"></use>
       <use x="95.410156" xlink:href="#DejaVuSans-48"></use>
       <use x="159.033203" xlink:href="#DejaVuSans-51"></use>
      </g>
     </g>
    </g>
    <g id="xtick_5">
     <g id="line2d_9">
      <path clip-path="url(#p4a9d539388)" d="M 385.529253 283.239375 
L 385.529253 17.806312 
" style="fill:none;stroke:#808080;stroke-dasharray:0.5,0.825;stroke-dashoffset:0;stroke-width:0.5;"></path>
     </g>
     <g id="line2d_10"></g>
     <g id="text_5">
      <!-- 0.04 -->
      <defs>
       <path d="M 37.796875 64.3125 
L 12.890625 25.390625 
L 37.796875 25.390625 
z
M 35.203125 72.90625 
L 47.609375 72.90625 
L 47.609375 25.390625 
L 58.015625 25.390625 
L 58.015625 17.1875 
L 47.609375 17.1875 
L 47.609375 0 
L 37.796875 0 
L 37.796875 17.1875 
L 4.890625 17.1875 
L 4.890625 26.703125 
z
" id="DejaVuSans-52"></path>
      </defs>
      <g transform="translate(375.509722 293.577969)scale(0.09 -0.09)">
       <use xlink:href="#DejaVuSans-48"></use>
       <use x="63.623047" xlink:href="#DejaVuSans-46"></use>
       <use x="95.410156" xlink:href="#DejaVuSans-48"></use>
       <use x="159.033203" xlink:href="#DejaVuSans-52"></use>
      </g>
     </g>
    </g>
    <g id="xtick_6">
     <g id="line2d_11">
      <path clip-path="url(#p4a9d539388)" d="M 467.586593 283.239375 
L 467.586593 17.806312 
" style="fill:none;stroke:#808080;stroke-dasharray:0.5,0.825;stroke-dashoffset:0;stroke-width:0.5;"></path>
     </g>
     <g id="line2d_12"></g>
     <g id="text_6">
      <!-- 0.05 -->
      <defs>
       <path d="M 10.796875 72.90625 
L 49.515625 72.90625 
L 49.515625 64.59375 
L 19.828125 64.59375 
L 19.828125 46.734375 
Q 21.96875 47.46875 24.109375 47.828125 
Q 26.265625 48.1875 28.421875 48.1875 
Q 40.625 48.1875 47.75 41.5 
Q 54.890625 34.8125 54.890625 23.390625 
Q 54.890625 11.625 47.5625 5.09375 
Q 40.234375 -1.421875 26.90625 -1.421875 
Q 22.3125 -1.421875 17.546875 -0.640625 
Q 12.796875 0.140625 7.71875 1.703125 
L 7.71875 11.625 
Q 12.109375 9.234375 16.796875 8.0625 
Q 21.484375 6.890625 26.703125 6.890625 
Q 35.15625 6.890625 40.078125 11.328125 
Q 45.015625 15.765625 45.015625 23.390625 
Q 45.015625 31 40.078125 35.4375 
Q 35.15625 39.890625 26.703125 39.890625 
Q 22.75 39.890625 18.8125 39.015625 
Q 14.890625 38.140625 10.796875 36.28125 
z
" id="DejaVuSans-53"></path>
      </defs>
      <g transform="translate(457.567062 293.577969)scale(0.09 -0.09)">
       <use xlink:href="#DejaVuSans-48"></use>
       <use x="63.623047" xlink:href="#DejaVuSans-46"></use>
       <use x="95.410156" xlink:href="#DejaVuSans-48"></use>
       <use x="159.033203" xlink:href="#DejaVuSans-53"></use>
      </g>
     </g>
    </g>
    <g id="text_7">
     <!-- Wall clock time [ms] -->
     <defs>
      <path d="M 3.328125 72.90625 
L 13.28125 72.90625 
L 28.609375 11.28125 
L 43.890625 72.90625 
L 54.984375 72.90625 
L 70.3125 11.28125 
L 85.59375 72.90625 
L 95.609375 72.90625 
L 77.296875 0 
L 64.890625 0 
L 49.515625 63.28125 
L 33.984375 0 
L 21.578125 0 
z
" id="DejaVuSans-87"></path>
      <path d="M 34.28125 27.484375 
Q 23.390625 27.484375 19.1875 25 
Q 14.984375 22.515625 14.984375 16.5 
Q 14.984375 11.71875 18.140625 8.90625 
Q 21.296875 6.109375 26.703125 6.109375 
Q 34.1875 6.109375 38.703125 11.40625 
Q 43.21875 16.703125 43.21875 25.484375 
L 43.21875 27.484375 
z
M 52.203125 31.203125 
L 52.203125 0 
L 43.21875 0 
L 43.21875 8.296875 
Q 40.140625 3.328125 35.546875 0.953125 
Q 30.953125 -1.421875 24.3125 -1.421875 
Q 15.921875 -1.421875 10.953125 3.296875 
Q 6 8.015625 6 15.921875 
Q 6 25.140625 12.171875 29.828125 
Q 18.359375 34.515625 30.609375 34.515625 
L 43.21875 34.515625 
L 43.21875 35.40625 
Q 43.21875 41.609375 39.140625 45 
Q 35.0625 48.390625 27.6875 48.390625 
Q 23 48.390625 18.546875 47.265625 
Q 14.109375 46.140625 10.015625 43.890625 
L 10.015625 52.203125 
Q 14.9375 54.109375 19.578125 55.046875 
Q 24.21875 56 28.609375 56 
Q 40.484375 56 46.34375 49.84375 
Q 52.203125 43.703125 52.203125 31.203125 
z
" id="DejaVuSans-97"></path>
      <path d="M 9.421875 75.984375 
L 18.40625 75.984375 
L 18.40625 0 
L 9.421875 0 
z
" id="DejaVuSans-108"></path>
      <path id="DejaVuSans-32"></path>
      <path d="M 48.78125 52.59375 
L 48.78125 44.1875 
Q 44.96875 46.296875 41.140625 47.34375 
Q 37.3125 48.390625 33.40625 48.390625 
Q 24.65625 48.390625 19.8125 42.84375 
Q 14.984375 37.3125 14.984375 27.296875 
Q 14.984375 17.28125 19.8125 11.734375 
Q 24.65625 6.203125 33.40625 6.203125 
Q 37.3125 6.203125 41.140625 7.25 
Q 44.96875 8.296875 48.78125 10.40625 
L 48.78125 2.09375 
Q 45.015625 0.34375 40.984375 -0.53125 
Q 36.96875 -1.421875 32.421875 -1.421875 
Q 20.0625 -1.421875 12.78125 6.34375 
Q 5.515625 14.109375 5.515625 27.296875 
Q 5.515625 40.671875 12.859375 48.328125 
Q 20.21875 56 33.015625 56 
Q 37.15625 56 41.109375 55.140625 
Q 45.0625 54.296875 48.78125 52.59375 
z
" id="DejaVuSans-99"></path>
      <path d="M 30.609375 48.390625 
Q 23.390625 48.390625 19.1875 42.75 
Q 14.984375 37.109375 14.984375 27.296875 
Q 14.984375 17.484375 19.15625 11.84375 
Q 23.34375 6.203125 30.609375 6.203125 
Q 37.796875 6.203125 41.984375 11.859375 
Q 46.1875 17.53125 46.1875 27.296875 
Q 46.1875 37.015625 41.984375 42.703125 
Q 37.796875 48.390625 30.609375 48.390625 
z
M 30.609375 56 
Q 42.328125 56 49.015625 48.375 
Q 55.71875 40.765625 55.71875 27.296875 
Q 55.71875 13.875 49.015625 6.21875 
Q 42.328125 -1.421875 30.609375 -1.421875 
Q 18.84375 -1.421875 12.171875 6.21875 
Q 5.515625 13.875 5.515625 27.296875 
Q 5.515625 40.765625 12.171875 48.375 
Q 18.84375 56 30.609375 56 
z
" id="DejaVuSans-111"></path>
      <path d="M 9.078125 75.984375 
L 18.109375 75.984375 
L 18.109375 31.109375 
L 44.921875 54.6875 
L 56.390625 54.6875 
L 27.390625 29.109375 
L 57.625 0 
L 45.90625 0 
L 18.109375 26.703125 
L 18.109375 0 
L 9.078125 0 
z
" id="DejaVuSans-107"></path>
      <path d="M 18.3125 70.21875 
L 18.3125 54.6875 
L 36.8125 54.6875 
L 36.8125 47.703125 
L 18.3125 47.703125 
L 18.3125 18.015625 
Q 18.3125 11.328125 20.140625 9.421875 
Q 21.96875 7.515625 27.59375 7.515625 
L 36.8125 7.515625 
L 36.8125 0 
L 27.59375 0 
Q 17.1875 0 13.234375 3.875 
Q 9.28125 7.765625 9.28125 18.015625 
L 9.28125 47.703125 
L 2.6875 47.703125 
L 2.6875 54.6875 
L 9.28125 54.6875 
L 9.28125 70.21875 
z
" id="DejaVuSans-116"></path>
      <path d="M 9.421875 54.6875 
L 18.40625 54.6875 
L 18.40625 0 
L 9.421875 0 
z
M 9.421875 75.984375 
L 18.40625 75.984375 
L 18.40625 64.59375 
L 9.421875 64.59375 
z
" id="DejaVuSans-105"></path>
      <path d="M 52 44.1875 
Q 55.375 50.25 60.0625 53.125 
Q 64.75 56 71.09375 56 
Q 79.640625 56 84.28125 50.015625 
Q 88.921875 44.046875 88.921875 33.015625 
L 88.921875 0 
L 79.890625 0 
L 79.890625 32.71875 
Q 79.890625 40.578125 77.09375 44.375 
Q 74.3125 48.1875 68.609375 48.1875 
Q 61.625 48.1875 57.5625 43.546875 
Q 53.515625 38.921875 53.515625 30.90625 
L 53.515625 0 
L 44.484375 0 
L 44.484375 32.71875 
Q 44.484375 40.625 41.703125 44.40625 
Q 38.921875 48.1875 33.109375 48.1875 
Q 26.21875 48.1875 22.15625 43.53125 
Q 18.109375 38.875 18.109375 30.90625 
L 18.109375 0 
L 9.078125 0 
L 9.078125 54.6875 
L 18.109375 54.6875 
L 18.109375 46.1875 
Q 21.1875 51.21875 25.484375 53.609375 
Q 29.78125 56 35.6875 56 
Q 41.65625 56 45.828125 52.96875 
Q 50 49.953125 52 44.1875 
z
" id="DejaVuSans-109"></path>
      <path d="M 56.203125 29.59375 
L 56.203125 25.203125 
L 14.890625 25.203125 
Q 15.484375 15.921875 20.484375 11.0625 
Q 25.484375 6.203125 34.421875 6.203125 
Q 39.59375 6.203125 44.453125 7.46875 
Q 49.3125 8.734375 54.109375 11.28125 
L 54.109375 2.78125 
Q 49.265625 0.734375 44.1875 -0.34375 
Q 39.109375 -1.421875 33.890625 -1.421875 
Q 20.796875 -1.421875 13.15625 6.1875 
Q 5.515625 13.8125 5.515625 26.8125 
Q 5.515625 40.234375 12.765625 48.109375 
Q 20.015625 56 32.328125 56 
Q 43.359375 56 49.78125 48.890625 
Q 56.203125 41.796875 56.203125 29.59375 
z
M 47.21875 32.234375 
Q 47.125 39.59375 43.09375 43.984375 
Q 39.0625 48.390625 32.421875 48.390625 
Q 24.90625 48.390625 20.390625 44.140625 
Q 15.875 39.890625 15.1875 32.171875 
z
" id="DejaVuSans-101"></path>
      <path d="M 8.59375 75.984375 
L 29.296875 75.984375 
L 29.296875 69 
L 17.578125 69 
L 17.578125 -6.203125 
L 29.296875 -6.203125 
L 29.296875 -13.1875 
L 8.59375 -13.1875 
z
" id="DejaVuSans-91"></path>
      <path d="M 44.28125 53.078125 
L 44.28125 44.578125 
Q 40.484375 46.53125 36.375 47.5 
Q 32.28125 48.484375 27.875 48.484375 
Q 21.1875 48.484375 17.84375 46.4375 
Q 14.5 44.390625 14.5 40.28125 
Q 14.5 37.15625 16.890625 35.375 
Q 19.28125 33.59375 26.515625 31.984375 
L 29.59375 31.296875 
Q 39.15625 29.25 43.1875 25.515625 
Q 47.21875 21.78125 47.21875 15.09375 
Q 47.21875 7.46875 41.1875 3.015625 
Q 35.15625 -1.421875 24.609375 -1.421875 
Q 20.21875 -1.421875 15.453125 -0.5625 
Q 10.6875 0.296875 5.421875 2 
L 5.421875 11.28125 
Q 10.40625 8.6875 15.234375 7.390625 
Q 20.0625 6.109375 24.8125 6.109375 
Q 31.15625 6.109375 34.5625 8.28125 
Q 37.984375 10.453125 37.984375 14.40625 
Q 37.984375 18.0625 35.515625 20.015625 
Q 33.0625 21.96875 24.703125 23.78125 
L 21.578125 24.515625 
Q 13.234375 26.265625 9.515625 29.90625 
Q 5.8125 33.546875 5.8125 39.890625 
Q 5.8125 47.609375 11.28125 51.796875 
Q 16.75 56 26.8125 56 
Q 31.78125 56 36.171875 55.265625 
Q 40.578125 54.546875 44.28125 53.078125 
z
" id="DejaVuSans-115"></path>
      <path d="M 30.421875 75.984375 
L 30.421875 -13.1875 
L 9.71875 -13.1875 
L 9.71875 -6.203125 
L 21.390625 -6.203125 
L 21.390625 69 
L 9.71875 69 
L 9.71875 75.984375 
z
" id="DejaVuSans-93"></path>
     </defs>
     <g transform="translate(216.617578 306.288281)scale(0.09 -0.09)">
      <use xlink:href="#DejaVuSans-87"></use>
      <use x="98.783203" xlink:href="#DejaVuSans-97"></use>
      <use x="160.0625" xlink:href="#DejaVuSans-108"></use>
      <use x="187.845703" xlink:href="#DejaVuSans-108"></use>
      <use x="215.628906" xlink:href="#DejaVuSans-32"></use>
      <use x="247.416016" xlink:href="#DejaVuSans-99"></use>
      <use x="302.396484" xlink:href="#DejaVuSans-108"></use>
      <use x="330.179688" xlink:href="#DejaVuSans-111"></use>
      <use x="391.361328" xlink:href="#DejaVuSans-99"></use>
      <use x="446.341797" xlink:href="#DejaVuSans-107"></use>
      <use x="504.251953" xlink:href="#DejaVuSans-32"></use>
      <use x="536.039062" xlink:href="#DejaVuSans-116"></use>
      <use x="575.248047" xlink:href="#DejaVuSans-105"></use>
      <use x="603.03125" xlink:href="#DejaVuSans-109"></use>
      <use x="700.443359" xlink:href="#DejaVuSans-101"></use>
      <use x="761.966797" xlink:href="#DejaVuSans-32"></use>
      <use x="793.753906" xlink:href="#DejaVuSans-91"></use>
      <use x="832.767578" xlink:href="#DejaVuSans-109"></use>
      <use x="930.179688" xlink:href="#DejaVuSans-115"></use>
      <use x="982.279297" xlink:href="#DejaVuSans-93"></use>
     </g>
    </g>
   </g>
   <g id="matplotlib.axis_2">
    <g id="ytick_1">
     <g id="line2d_13">
      <path clip-path="url(#p4a9d539388)" d="M 36.989063 277.524309 
L 488.16 277.524309 
" style="fill:none;stroke:#808080;stroke-dasharray:0.5,0.825;stroke-dashoffset:0;stroke-width:0.5;"></path>
     </g>
     <g id="line2d_14"></g>
     <g id="text_8">
      <!-- 600 -->
      <defs>
       <path d="M 33.015625 40.375 
Q 26.375 40.375 22.484375 35.828125 
Q 18.609375 31.296875 18.609375 23.390625 
Q 18.609375 15.53125 22.484375 10.953125 
Q 26.375 6.390625 33.015625 6.390625 
Q 39.65625 6.390625 43.53125 10.953125 
Q 47.40625 15.53125 47.40625 23.390625 
Q 47.40625 31.296875 43.53125 35.828125 
Q 39.65625 40.375 33.015625 40.375 
z
M 52.59375 71.296875 
L 52.59375 62.3125 
Q 48.875 64.0625 45.09375 64.984375 
Q 41.3125 65.921875 37.59375 65.921875 
Q 27.828125 65.921875 22.671875 59.328125 
Q 17.53125 52.734375 16.796875 39.40625 
Q 19.671875 43.65625 24.015625 45.921875 
Q 28.375 48.1875 33.59375 48.1875 
Q 44.578125 48.1875 50.953125 41.515625 
Q 57.328125 34.859375 57.328125 23.390625 
Q 57.328125 12.15625 50.6875 5.359375 
Q 44.046875 -1.421875 33.015625 -1.421875 
Q 20.359375 -1.421875 13.671875 8.265625 
Q 6.984375 17.96875 6.984375 36.375 
Q 6.984375 53.65625 15.1875 63.9375 
Q 23.390625 74.21875 37.203125 74.21875 
Q 40.921875 74.21875 44.703125 73.484375 
Q 48.484375 72.75 52.59375 71.296875 
z
" id="DejaVuSans-54"></path>
      </defs>
      <g transform="translate(16.310313 280.943606)scale(0.09 -0.09)">
       <use xlink:href="#DejaVuSans-54"></use>
       <use x="63.623047" xlink:href="#DejaVuSans-48"></use>
       <use x="127.246094" xlink:href="#DejaVuSans-48"></use>
      </g>
     </g>
    </g>
    <g id="ytick_2">
     <g id="line2d_15">
      <path clip-path="url(#p4a9d539388)" d="M 36.989063 245.773943 
L 488.16 245.773943 
" style="fill:none;stroke:#808080;stroke-dasharray:0.5,0.825;stroke-dashoffset:0;stroke-width:0.5;"></path>
     </g>
     <g id="line2d_16"></g>
     <g id="text_9">
      <!-- 610 -->
      <g transform="translate(16.310313 249.19324)scale(0.09 -0.09)">
       <use xlink:href="#DejaVuSans-54"></use>
       <use x="63.623047" xlink:href="#DejaVuSans-49"></use>
       <use x="127.246094" xlink:href="#DejaVuSans-48"></use>
      </g>
     </g>
    </g>
    <g id="ytick_3">
     <g id="line2d_17">
      <path clip-path="url(#p4a9d539388)" d="M 36.989063 214.023576 
L 488.16 214.023576 
" style="fill:none;stroke:#808080;stroke-dasharray:0.5,0.825;stroke-dashoffset:0;stroke-width:0.5;"></path>
     </g>
     <g id="line2d_18"></g>
     <g id="text_10">
      <!-- 620 -->
      <g transform="translate(16.310313 217.442873)scale(0.09 -0.09)">
       <use xlink:href="#DejaVuSans-54"></use>
       <use x="63.623047" xlink:href="#DejaVuSans-50"></use>
       <use x="127.246094" xlink:href="#DejaVuSans-48"></use>
      </g>
     </g>
    </g>
    <g id="ytick_4">
     <g id="line2d_19">
      <path clip-path="url(#p4a9d539388)" d="M 36.989063 182.27321 
L 488.16 182.27321 
" style="fill:none;stroke:#808080;stroke-dasharray:0.5,0.825;stroke-dashoffset:0;stroke-width:0.5;"></path>
     </g>
     <g id="line2d_20"></g>
     <g id="text_11">
      <!-- 630 -->
      <g transform="translate(16.310313 185.692507)scale(0.09 -0.09)">
       <use xlink:href="#DejaVuSans-54"></use>
       <use x="63.623047" xlink:href="#DejaVuSans-51"></use>
       <use x="127.246094" xlink:href="#DejaVuSans-48"></use>
      </g>
     </g>
    </g>
    <g id="ytick_5">
     <g id="line2d_21">
      <path clip-path="url(#p4a9d539388)" d="M 36.989063 150.522844 
L 488.16 150.522844 
" style="fill:none;stroke:#808080;stroke-dasharray:0.5,0.825;stroke-dashoffset:0;stroke-width:0.5;"></path>
     </g>
     <g id="line2d_22"></g>
     <g id="text_12">
      <!-- 640 -->
      <g transform="translate(16.310313 153.942141)scale(0.09 -0.09)">
       <use xlink:href="#DejaVuSans-54"></use>
       <use x="63.623047" xlink:href="#DejaVuSans-52"></use>
       <use x="127.246094" xlink:href="#DejaVuSans-48"></use>
      </g>
     </g>
    </g>
    <g id="ytick_6">
     <g id="line2d_23">
      <path clip-path="url(#p4a9d539388)" d="M 36.989063 118.772477 
L 488.16 118.772477 
" style="fill:none;stroke:#808080;stroke-dasharray:0.5,0.825;stroke-dashoffset:0;stroke-width:0.5;"></path>
     </g>
     <g id="line2d_24"></g>
     <g id="text_13">
      <!-- 650 -->
      <g transform="translate(16.310313 122.191774)scale(0.09 -0.09)">
       <use xlink:href="#DejaVuSans-54"></use>
       <use x="63.623047" xlink:href="#DejaVuSans-53"></use>
       <use x="127.246094" xlink:href="#DejaVuSans-48"></use>
      </g>
     </g>
    </g>
    <g id="ytick_7">
     <g id="line2d_25">
      <path clip-path="url(#p4a9d539388)" d="M 36.989063 87.022111 
L 488.16 87.022111 
" style="fill:none;stroke:#808080;stroke-dasharray:0.5,0.825;stroke-dashoffset:0;stroke-width:0.5;"></path>
     </g>
     <g id="line2d_26"></g>
     <g id="text_14">
      <!-- 660 -->
      <g transform="translate(16.310313 90.441408)scale(0.09 -0.09)">
       <use xlink:href="#DejaVuSans-54"></use>
       <use x="63.623047" xlink:href="#DejaVuSans-54"></use>
       <use x="127.246094" xlink:href="#DejaVuSans-48"></use>
      </g>
     </g>
    </g>
    <g id="ytick_8">
     <g id="line2d_27">
      <path clip-path="url(#p4a9d539388)" d="M 36.989063 55.271745 
L 488.16 55.271745 
" style="fill:none;stroke:#808080;stroke-dasharray:0.5,0.825;stroke-dashoffset:0;stroke-width:0.5;"></path>
     </g>
     <g id="line2d_28"></g>
     <g id="text_15">
      <!-- 670 -->
      <defs>
       <path d="M 8.203125 72.90625 
L 55.078125 72.90625 
L 55.078125 68.703125 
L 28.609375 0 
L 18.3125 0 
L 43.21875 64.59375 
L 8.203125 64.59375 
z
" id="DejaVuSans-55"></path>
      </defs>
      <g transform="translate(16.310313 58.691042)scale(0.09 -0.09)">
       <use xlink:href="#DejaVuSans-54"></use>
       <use x="63.623047" xlink:href="#DejaVuSans-55"></use>
       <use x="127.246094" xlink:href="#DejaVuSans-48"></use>
      </g>
     </g>
    </g>
    <g id="ytick_9">
     <g id="line2d_29">
      <path clip-path="url(#p4a9d539388)" d="M 36.989063 23.521378 
L 488.16 23.521378 
" style="fill:none;stroke:#808080;stroke-dasharray:0.5,0.825;stroke-dashoffset:0;stroke-width:0.5;"></path>
     </g>
     <g id="line2d_30"></g>
     <g id="text_16">
      <!-- 680 -->
      <defs>
       <path d="M 31.78125 34.625 
Q 24.75 34.625 20.71875 30.859375 
Q 16.703125 27.09375 16.703125 20.515625 
Q 16.703125 13.921875 20.71875 10.15625 
Q 24.75 6.390625 31.78125 6.390625 
Q 38.8125 6.390625 42.859375 10.171875 
Q 46.921875 13.96875 46.921875 20.515625 
Q 46.921875 27.09375 42.890625 30.859375 
Q 38.875 34.625 31.78125 34.625 
z
M 21.921875 38.8125 
Q 15.578125 40.375 12.03125 44.71875 
Q 8.5 49.078125 8.5 55.328125 
Q 8.5 64.0625 14.71875 69.140625 
Q 20.953125 74.21875 31.78125 74.21875 
Q 42.671875 74.21875 48.875 69.140625 
Q 55.078125 64.0625 55.078125 55.328125 
Q 55.078125 49.078125 51.53125 44.71875 
Q 48 40.375 41.703125 38.8125 
Q 48.828125 37.15625 52.796875 32.3125 
Q 56.78125 27.484375 56.78125 20.515625 
Q 56.78125 9.90625 50.3125 4.234375 
Q 43.84375 -1.421875 31.78125 -1.421875 
Q 19.734375 -1.421875 13.25 4.234375 
Q 6.78125 9.90625 6.78125 20.515625 
Q 6.78125 27.484375 10.78125 32.3125 
Q 14.796875 37.15625 21.921875 38.8125 
z
M 18.3125 54.390625 
Q 18.3125 48.734375 21.84375 45.5625 
Q 25.390625 42.390625 31.78125 42.390625 
Q 38.140625 42.390625 41.71875 45.5625 
Q 45.3125 48.734375 45.3125 54.390625 
Q 45.3125 60.0625 41.71875 63.234375 
Q 38.140625 66.40625 31.78125 66.40625 
Q 25.390625 66.40625 21.84375 63.234375 
Q 18.3125 60.0625 18.3125 54.390625 
z
" id="DejaVuSans-56"></path>
      </defs>
      <g transform="translate(16.310313 26.940675)scale(0.09 -0.09)">
       <use xlink:href="#DejaVuSans-54"></use>
       <use x="63.623047" xlink:href="#DejaVuSans-56"></use>
       <use x="127.246094" xlink:href="#DejaVuSans-48"></use>
      </g>
     </g>
    </g>
    <g id="text_17">
     <!-- ADC readout [a.u.] -->
     <defs>
      <path d="M 34.1875 63.1875 
L 20.796875 26.90625 
L 47.609375 26.90625 
z
M 28.609375 72.90625 
L 39.796875 72.90625 
L 67.578125 0 
L 57.328125 0 
L 50.6875 18.703125 
L 17.828125 18.703125 
L 11.1875 0 
L 0.78125 0 
z
" id="DejaVuSans-65"></path>
      <path d="M 19.671875 64.796875 
L 19.671875 8.109375 
L 31.59375 8.109375 
Q 46.6875 8.109375 53.6875 14.9375 
Q 60.6875 21.78125 60.6875 36.53125 
Q 60.6875 51.171875 53.6875 57.984375 
Q 46.6875 64.796875 31.59375 64.796875 
z
M 9.8125 72.90625 
L 30.078125 72.90625 
Q 51.265625 72.90625 61.171875 64.09375 
Q 71.09375 55.28125 71.09375 36.53125 
Q 71.09375 17.671875 61.125 8.828125 
Q 51.171875 0 30.078125 0 
L 9.8125 0 
z
" id="DejaVuSans-68"></path>
      <path d="M 64.40625 67.28125 
L 64.40625 56.890625 
Q 59.421875 61.53125 53.78125 63.8125 
Q 48.140625 66.109375 41.796875 66.109375 
Q 29.296875 66.109375 22.65625 58.46875 
Q 16.015625 50.828125 16.015625 36.375 
Q 16.015625 21.96875 22.65625 14.328125 
Q 29.296875 6.6875 41.796875 6.6875 
Q 48.140625 6.6875 53.78125 8.984375 
Q 59.421875 11.28125 64.40625 15.921875 
L 64.40625 5.609375 
Q 59.234375 2.09375 53.4375 0.328125 
Q 47.65625 -1.421875 41.21875 -1.421875 
Q 24.65625 -1.421875 15.125 8.703125 
Q 5.609375 18.84375 5.609375 36.375 
Q 5.609375 53.953125 15.125 64.078125 
Q 24.65625 74.21875 41.21875 74.21875 
Q 47.75 74.21875 53.53125 72.484375 
Q 59.328125 70.75 64.40625 67.28125 
z
" id="DejaVuSans-67"></path>
      <path d="M 41.109375 46.296875 
Q 39.59375 47.171875 37.8125 47.578125 
Q 36.03125 48 33.890625 48 
Q 26.265625 48 22.1875 43.046875 
Q 18.109375 38.09375 18.109375 28.8125 
L 18.109375 0 
L 9.078125 0 
L 9.078125 54.6875 
L 18.109375 54.6875 
L 18.109375 46.1875 
Q 20.953125 51.171875 25.484375 53.578125 
Q 30.03125 56 36.53125 56 
Q 37.453125 56 38.578125 55.875 
Q 39.703125 55.765625 41.0625 55.515625 
z
" id="DejaVuSans-114"></path>
      <path d="M 45.40625 46.390625 
L 45.40625 75.984375 
L 54.390625 75.984375 
L 54.390625 0 
L 45.40625 0 
L 45.40625 8.203125 
Q 42.578125 3.328125 38.25 0.953125 
Q 33.9375 -1.421875 27.875 -1.421875 
Q 17.96875 -1.421875 11.734375 6.484375 
Q 5.515625 14.40625 5.515625 27.296875 
Q 5.515625 40.1875 11.734375 48.09375 
Q 17.96875 56 27.875 56 
Q 33.9375 56 38.25 53.625 
Q 42.578125 51.265625 45.40625 46.390625 
z
M 14.796875 27.296875 
Q 14.796875 17.390625 18.875 11.75 
Q 22.953125 6.109375 30.078125 6.109375 
Q 37.203125 6.109375 41.296875 11.75 
Q 45.40625 17.390625 45.40625 27.296875 
Q 45.40625 37.203125 41.296875 42.84375 
Q 37.203125 48.484375 30.078125 48.484375 
Q 22.953125 48.484375 18.875 42.84375 
Q 14.796875 37.203125 14.796875 27.296875 
z
" id="DejaVuSans-100"></path>
      <path d="M 8.5 21.578125 
L 8.5 54.6875 
L 17.484375 54.6875 
L 17.484375 21.921875 
Q 17.484375 14.15625 20.5 10.265625 
Q 23.53125 6.390625 29.59375 6.390625 
Q 36.859375 6.390625 41.078125 11.03125 
Q 45.3125 15.671875 45.3125 23.6875 
L 45.3125 54.6875 
L 54.296875 54.6875 
L 54.296875 0 
L 45.3125 0 
L 45.3125 8.40625 
Q 42.046875 3.421875 37.71875 1 
Q 33.40625 -1.421875 27.6875 -1.421875 
Q 18.265625 -1.421875 13.375 4.4375 
Q 8.5 10.296875 8.5 21.578125 
z
M 31.109375 56 
z
" id="DejaVuSans-117"></path>
     </defs>
     <g transform="translate(10.438594 192.651281)rotate(-90)scale(0.09 -0.09)">
      <use xlink:href="#DejaVuSans-65"></use>
      <use x="68.408203" xlink:href="#DejaVuSans-68"></use>
      <use x="145.410156" xlink:href="#DejaVuSans-67"></use>
      <use x="215.234375" xlink:href="#DejaVuSans-32"></use>
      <use x="247.021484" xlink:href="#DejaVuSans-114"></use>
      <use x="288.103516" xlink:href="#DejaVuSans-101"></use>
      <use x="349.626953" xlink:href="#DejaVuSans-97"></use>
      <use x="410.90625" xlink:href="#DejaVuSans-100"></use>
      <use x="474.382812" xlink:href="#DejaVuSans-111"></use>
      <use x="535.564453" xlink:href="#DejaVuSans-117"></use>
      <use x="598.943359" xlink:href="#DejaVuSans-116"></use>
      <use x="638.152344" xlink:href="#DejaVuSans-32"></use>
      <use x="669.939453" xlink:href="#DejaVuSans-91"></use>
      <use x="708.953125" xlink:href="#DejaVuSans-97"></use>
      <use x="770.232422" xlink:href="#DejaVuSans-46"></use>
      <use x="802.019531" xlink:href="#DejaVuSans-117"></use>
      <use x="865.398438" xlink:href="#DejaVuSans-46"></use>
      <use x="897.185547" xlink:href="#DejaVuSans-93"></use>
     </g>
    </g>
   </g>
   <g id="line2d_31">
    <path clip-path="url(#p4a9d539388)" d="M 57.496832 264.824163 
L 57.825062 261.649126 
L 58.087645 261.649126 
L 58.350229 267.999199 
L 59.466209 267.999199 
L 59.728792 261.649126 
L 60.057021 264.824163 
L 60.319605 271.174236 
L 60.582188 264.824163 
L 60.844772 267.999199 
L 61.173001 258.474089 
L 61.435585 267.999199 
L 61.698168 258.474089 
L 61.960752 267.999199 
L 62.288981 258.474089 
L 62.551564 267.999199 
L 62.814148 267.999199 
L 63.404961 261.649126 
L 63.667544 267.999199 
L 64.520941 267.999199 
L 64.783524 261.649126 
L 65.046108 267.999199 
L 65.308691 267.999199 
L 65.636921 264.824163 
L 65.899504 271.174236 
L 66.162087 264.824163 
L 66.424671 267.999199 
L 67.015484 267.999199 
L 67.278067 271.174236 
L 67.54065 261.649126 
L 67.86888 267.999199 
L 68.131464 261.649126 
L 68.394047 267.999199 
L 68.65663 267.999199 
L 68.98486 271.174236 
L 69.247444 261.649126 
L 69.510027 261.649126 
L 69.772611 255.299053 
L 70.626007 255.299053 
L 70.888591 252.124016 
L 71.21682 252.124016 
L 71.479403 245.773943 
L 71.741987 248.948979 
L 72.332799 242.598906 
L 73.12055 242.598906 
L 73.44878 239.423869 
L 73.711363 242.598906 
L 73.973947 239.423869 
L 74.236529 242.598906 
L 74.564759 239.423869 
L 74.827342 239.423869 
L 75.089926 242.598906 
L 75.680739 242.598906 
L 75.943323 236.248833 
L 76.205906 245.773943 
L 76.46849 233.073796 
L 76.796718 242.598906 
L 77.059302 242.598906 
L 77.321885 248.948979 
L 77.584469 248.948979 
L 77.912699 245.773943 
L 78.175282 252.124016 
L 78.437866 245.773943 
L 79.291261 255.299053 
L 79.553845 255.299053 
L 80.144658 261.649126 
L 80.407242 248.948979 
L 80.669825 261.649126 
L 80.932409 261.649126 
L 81.260639 255.299053 
L 81.523221 264.824163 
L 81.785804 255.299053 
L 82.048388 261.649126 
L 82.376618 264.824163 
L 82.901785 258.474089 
L 83.164368 258.474089 
L 83.492598 261.649126 
L 83.755182 261.649126 
L 84.017765 264.824163 
L 84.280347 258.474089 
L 84.608577 258.474089 
L 84.871161 261.649126 
L 85.133744 267.999199 
L 85.396328 258.474089 
L 85.724558 261.649126 
L 85.987141 258.474089 
L 86.249725 248.948979 
L 86.512308 258.474089 
L 86.840537 255.299053 
L 87.10312 255.299053 
L 87.365704 245.773943 
L 87.628287 252.124016 
L 87.956517 242.598906 
L 88.219101 248.948979 
L 88.481684 245.773943 
L 88.744268 245.773943 
L 89.072496 242.598906 
L 89.33508 245.773943 
L 89.597665 242.598906 
L 89.860247 242.598906 
L 90.188475 233.073796 
L 90.45106 239.423869 
L 90.713642 242.598906 
L 90.976227 239.423869 
L 91.304455 242.598906 
L 91.567041 229.89876 
L 91.829623 245.773943 
L 92.092208 242.598906 
L 92.420436 233.073796 
L 92.683018 242.598906 
L 92.945603 233.073796 
L 93.208185 242.598906 
L 93.536417 236.248833 
L 94.061584 236.248833 
L 94.324166 226.723723 
L 94.652397 229.89876 
L 94.914979 226.723723 
L 95.177565 217.198613 
L 95.440146 226.723723 
L 95.768374 220.37365 
L 96.03096 220.37365 
L 96.293541 226.723723 
L 96.556127 217.198613 
L 97.14694 217.198613 
L 97.409522 204.498467 
L 97.672108 223.548686 
L 98.262917 214.023576 
L 98.525503 220.37365 
L 98.788084 217.198613 
L 99.116316 210.84854 
L 99.641483 217.198613 
L 100.232293 210.84854 
L 100.494879 210.84854 
L 100.75746 217.198613 
L 101.020046 207.673503 
L 101.348274 210.84854 
L 101.610859 217.198613 
L 101.873441 207.673503 
L 102.136026 204.498467 
L 102.464255 210.84854 
L 102.726836 204.498467 
L 102.989422 204.498467 
L 103.252003 198.148393 
L 103.580235 198.148393 
L 103.842817 204.498467 
L 104.105402 191.79832 
L 104.367984 198.148393 
L 104.696216 198.148393 
L 104.958798 191.79832 
L 106.33736 191.79832 
L 106.599945 188.623283 
L 106.928173 191.79832 
L 107.190759 188.623283 
L 107.453341 194.973357 
L 108.044154 182.27321 
L 108.306736 191.79832 
L 108.569321 179.098173 
L 109.160135 191.79832 
L 109.685302 185.448247 
L 109.947884 185.448247 
L 110.276112 191.79832 
L 110.538697 182.27321 
L 110.801279 198.148393 
L 111.392092 191.79832 
L 111.654678 198.148393 
L 111.917259 198.148393 
L 112.179845 201.32343 
L 112.508073 198.148393 
L 112.770655 201.32343 
L 113.295822 201.32343 
L 113.624054 204.498467 
L 113.886635 210.84854 
L 114.411802 204.498467 
L 115.002616 204.498467 
L 115.265198 207.673503 
L 115.527783 204.498467 
L 115.856011 207.673503 
L 116.118597 207.673503 
L 116.381178 210.84854 
L 116.643764 207.673503 
L 116.971992 210.84854 
L 117.497159 210.84854 
L 117.759744 207.673503 
L 118.087972 210.84854 
L 118.61314 204.498467 
L 118.875721 204.498467 
L 119.466535 198.148393 
L 119.72912 194.973357 
L 119.991702 194.973357 
L 120.31993 198.148393 
L 120.582515 191.79832 
L 121.107683 191.79832 
L 121.435911 198.148393 
L 121.698496 191.79832 
L 121.961082 191.79832 
L 122.223659 194.973357 
L 122.551891 194.973357 
L 122.814477 191.79832 
L 123.33964 191.79832 
L 123.667872 185.448247 
L 123.930458 191.79832 
L 124.193035 185.448247 
L 124.455621 188.623283 
L 124.783853 185.448247 
L 125.571602 185.448247 
L 125.899833 188.623283 
L 126.162411 182.27321 
L 126.424997 182.27321 
L 126.687582 191.79832 
L 127.015814 175.923137 
L 127.540977 182.27321 
L 127.803563 179.098173 
L 128.394373 166.398027 
L 128.656958 172.7481 
L 129.247768 166.398027 
L 129.510353 172.7481 
L 129.772939 169.573064 
L 130.035524 169.573064 
L 130.363748 166.398027 
L 131.479729 166.398027 
L 131.742315 169.573064 
L 132.0049 166.398027 
L 132.267478 160.047954 
L 132.59571 166.398027 
L 132.858295 166.398027 
L 133.120873 163.22299 
L 133.383459 166.398027 
L 133.71169 166.398027 
L 134.236854 160.047954 
L 134.499439 166.398027 
L 134.827671 156.872917 
L 135.090249 160.047954 
L 135.352834 150.522844 
L 135.61542 150.522844 
L 135.943652 147.347807 
L 136.20623 153.69788 
L 136.468815 144.17277 
L 136.731401 147.347807 
L 137.059632 147.347807 
L 137.32221 140.997734 
L 137.584796 147.347807 
L 137.847381 144.17277 
L 138.175606 137.822697 
L 138.438191 144.17277 
L 138.700776 144.17277 
L 138.963362 140.997734 
L 139.291586 144.17277 
L 139.554172 134.647661 
L 139.816757 140.997734 
L 140.079343 140.997734 
L 140.407567 137.822697 
L 140.670152 140.997734 
L 140.932738 137.822697 
L 141.523548 137.822697 
L 141.786133 140.997734 
L 142.048719 131.472624 
L 142.311296 137.822697 
L 142.902114 131.472624 
L 143.164692 134.647661 
L 143.427277 134.647661 
L 143.755509 128.297587 
L 144.018094 128.297587 
L 144.280672 121.947514 
L 144.543258 125.122551 
L 144.87149 121.947514 
L 145.134067 121.947514 
L 145.396653 112.422404 
L 145.659238 118.772477 
L 145.98747 115.597441 
L 146.250048 115.597441 
L 146.512634 118.772477 
L 146.775219 109.247368 
L 147.103451 115.597441 
L 147.8912 115.597441 
L 148.219424 118.772477 
L 148.482009 106.072331 
L 148.744595 115.597441 
L 149.00718 112.422404 
L 149.335405 106.072331 
L 149.59799 115.597441 
L 149.860576 115.597441 
L 150.123161 102.897294 
L 150.451385 115.597441 
L 150.713971 115.597441 
L 150.976556 106.072331 
L 151.239134 118.772477 
L 151.567366 106.072331 
L 151.829951 106.072331 
L 152.092537 115.597441 
L 152.355115 106.072331 
L 152.945932 115.597441 
L 153.20851 106.072331 
L 153.471095 112.422404 
L 153.799327 109.247368 
L 154.061913 109.247368 
L 154.324491 106.072331 
L 154.587076 115.597441 
L 154.915308 109.247368 
L 155.177886 112.422404 
L 155.440471 109.247368 
L 155.703057 109.247368 
L 156.031289 106.072331 
L 156.293867 112.422404 
L 156.556452 115.597441 
L 156.819037 109.247368 
L 157.147269 112.422404 
L 157.409847 112.422404 
L 157.672433 115.597441 
L 157.935018 106.072331 
L 158.263242 109.247368 
L 158.525828 115.597441 
L 158.788413 106.072331 
L 159.050999 109.247368 
L 159.379223 115.597441 
L 159.641809 109.247368 
L 159.904394 115.597441 
L 160.16698 102.897294 
L 160.495204 106.072331 
L 160.757789 115.597441 
L 161.020375 102.897294 
L 161.282953 115.597441 
L 161.611184 106.072331 
L 161.87377 112.422404 
L 162.136355 106.072331 
L 162.398933 115.597441 
L 162.727165 106.072331 
L 162.989751 115.597441 
L 163.252328 112.422404 
L 163.514914 102.897294 
L 163.843146 115.597441 
L 164.105731 102.897294 
L 164.368309 112.422404 
L 164.630895 109.247368 
L 164.959126 115.597441 
L 165.221704 115.597441 
L 165.48429 109.247368 
L 165.746875 118.772477 
L 166.075107 109.247368 
L 166.337685 106.072331 
L 166.60027 115.597441 
L 166.862856 109.247368 
L 167.191088 115.597441 
L 167.716251 115.597441 
L 168.307061 109.247368 
L 168.569646 109.247368 
L 168.832232 102.897294 
L 169.094817 115.597441 
L 169.423041 102.897294 
L 169.685627 115.597441 
L 169.948212 106.072331 
L 170.21079 112.422404 
L 170.539022 115.597441 
L 170.801608 106.072331 
L 171.064193 115.597441 
L 171.326771 102.897294 
L 171.655003 109.247368 
L 171.917588 109.247368 
L 172.180174 106.072331 
L 172.442752 112.422404 
L 172.770983 109.247368 
L 173.296147 109.247368 
L 173.558732 115.597441 
L 174.14955 115.597441 
L 174.412127 109.247368 
L 175.002945 115.597441 
L 175.528108 115.597441 
L 175.790694 109.247368 
L 176.118926 115.597441 
L 176.381503 109.247368 
L 176.644089 109.247368 
L 176.906674 115.597441 
L 177.234899 109.247368 
L 177.497484 109.247368 
L 177.76007 115.597441 
L 178.022655 109.247368 
L 178.613465 115.597441 
L 178.87605 106.072331 
L 179.138636 115.597441 
L 179.46686 106.072331 
L 179.729445 112.422404 
L 179.992031 112.422404 
L 180.254609 106.072331 
L 180.582841 109.247368 
L 180.845426 106.072331 
L 181.108012 115.597441 
L 181.370589 109.247368 
L 181.698821 106.072331 
L 181.961407 112.422404 
L 182.223992 112.422404 
L 182.48657 106.072331 
L 182.814802 115.597441 
L 183.077387 106.072331 
L 183.339965 106.072331 
L 183.602551 109.247368 
L 184.193368 102.897294 
L 184.455946 102.897294 
L 184.718531 109.247368 
L 185.046763 99.722258 
L 185.571927 93.372184 
L 186.162744 93.372184 
L 186.425329 96.547221 
L 186.687915 90.197148 
L 186.950485 96.547221 
L 187.278717 87.022111 
L 187.803888 93.372184 
L 188.066473 90.197148 
L 188.394705 83.847074 
L 188.657291 90.197148 
L 188.919861 83.847074 
L 189.182446 90.197148 
L 189.510678 87.022111 
L 190.035849 87.022111 
L 190.298435 80.672038 
L 190.626667 90.197148 
L 190.889237 83.847074 
L 191.151822 83.847074 
L 191.414408 93.372184 
L 191.74264 83.847074 
L 192.005225 90.197148 
L 192.858613 90.197148 
L 193.121198 96.547221 
L 193.383784 93.372184 
L 193.646369 93.372184 
L 193.974601 96.547221 
L 194.762357 96.547221 
L 195.090574 102.897294 
L 195.35316 96.547221 
L 195.615745 102.897294 
L 196.206562 102.897294 
L 196.731733 109.247368 
L 197.585121 109.247368 
L 197.847706 102.897294 
L 198.110292 102.897294 
L 198.438524 112.422404 
L 198.701109 109.247368 
L 198.963679 109.247368 
L 199.226265 102.897294 
L 199.554497 115.597441 
L 199.817082 102.897294 
L 200.079668 109.247368 
L 200.342253 109.247368 
L 200.933055 102.897294 
L 201.195641 102.897294 
L 201.458226 96.547221 
L 201.786458 99.722258 
L 202.049044 93.372184 
L 202.311629 96.547221 
L 202.574215 90.197148 
L 202.902431 96.547221 
L 203.427602 90.197148 
L 203.690188 96.547221 
L 204.018419 90.197148 
L 204.806176 90.197148 
L 205.134392 87.022111 
L 205.396978 90.197148 
L 205.659563 83.847074 
L 205.922149 90.197148 
L 206.512966 90.197148 
L 207.038122 83.847074 
L 207.366354 90.197148 
L 207.628939 90.197148 
L 207.891525 87.022111 
L 208.15411 87.022111 
L 208.482342 83.847074 
L 209.007498 83.847074 
L 209.270083 77.497001 
L 210.123486 77.497001 
L 210.386072 71.146928 
L 210.714303 74.321965 
L 210.976874 71.146928 
L 211.239459 64.796855 
L 211.502045 67.971891 
L 211.830277 64.796855 
L 212.092862 74.321965 
L 212.618033 58.446781 
L 212.94625 64.796855 
L 213.208835 55.271745 
L 213.471421 64.796855 
L 213.734006 64.796855 
L 214.062238 58.446781 
L 214.324823 67.971891 
L 214.587409 64.796855 
L 214.849994 64.796855 
L 215.178211 67.971891 
L 215.440796 55.271745 
L 215.703382 64.796855 
L 215.965967 64.796855 
L 216.294199 58.446781 
L 216.556785 64.796855 
L 217.08194 58.446781 
L 217.410172 58.446781 
L 217.935343 52.096708 
L 218.197929 55.271745 
L 218.526161 45.746635 
L 219.051316 52.096708 
L 219.313902 42.571598 
L 219.642134 42.571598 
L 219.904719 45.746635 
L 220.167305 39.396562 
L 220.42989 39.396562 
L 220.758122 45.746635 
L 221.020692 39.396562 
L 221.283278 42.571598 
L 221.545863 42.571598 
L 221.874095 36.221525 
L 222.13668 39.396562 
L 222.990068 39.396562 
L 223.252653 42.571598 
L 223.515239 39.396562 
L 224.368642 39.396562 
L 224.631227 42.571598 
L 224.893813 39.396562 
L 225.222029 39.396562 
L 225.484615 45.746635 
L 225.7472 33.046488 
L 226.009786 42.571598 
L 226.338018 45.746635 
L 226.600603 33.046488 
L 226.863189 39.396562 
L 227.716576 39.396562 
L 227.979162 42.571598 
L 228.241747 42.571598 
L 228.569979 39.396562 
L 228.832564 39.396562 
L 229.095135 45.746635 
L 229.35772 45.746635 
L 229.685952 39.396562 
L 229.948538 42.571598 
L 230.211123 39.396562 
L 230.473708 33.046488 
L 230.80194 42.571598 
L 231.064511 39.396562 
L 232.443084 39.396562 
L 232.70567 33.046488 
L 233.033886 45.746635 
L 233.296472 33.046488 
L 233.559057 39.396562 
L 233.821643 42.571598 
L 234.149875 33.046488 
L 234.41246 39.396562 
L 234.675046 42.571598 
L 234.937631 39.396562 
L 235.265848 39.396562 
L 235.528433 45.746635 
L 235.791019 33.046488 
L 236.053604 39.396562 
L 236.644422 39.396562 
L 236.907007 45.746635 
L 237.169577 39.396562 
L 238.02298 39.396562 
L 238.285566 36.221525 
L 238.613797 39.396562 
L 238.876383 39.396562 
L 239.401539 33.046488 
L 239.72977 39.396562 
L 239.992356 39.396562 
L 240.254941 33.046488 
L 240.517527 39.396562 
L 240.845759 29.871452 
L 241.370914 45.746635 
L 241.6335 33.046488 
L 241.961732 39.396562 
L 242.224317 36.221525 
L 242.486903 36.221525 
L 242.749488 33.046488 
L 243.077705 39.396562 
L 243.34029 39.396562 
L 243.602876 33.046488 
L 243.865461 33.046488 
L 244.193693 39.396562 
L 244.456279 33.046488 
L 244.718864 39.396562 
L 244.981434 33.046488 
L 245.309666 39.396562 
L 245.572252 36.221525 
L 245.834837 39.396562 
L 246.097423 33.046488 
L 246.425655 33.046488 
L 246.68824 39.396562 
L 246.950825 36.221525 
L 247.213396 39.396562 
L 248.329384 39.396562 
L 248.657616 42.571598 
L 248.920201 39.396562 
L 249.182772 39.396562 
L 249.445357 33.046488 
L 249.773589 36.221525 
L 250.036174 45.746635 
L 250.29876 36.221525 
L 250.561345 39.396562 
L 251.677318 39.396562 
L 252.00555 42.571598 
L 252.268136 39.396562 
L 252.530721 39.396562 
L 252.793307 33.046488 
L 253.121523 39.396562 
L 253.384109 33.046488 
L 253.646694 39.396562 
L 255.025253 39.396562 
L 255.353485 36.221525 
L 255.61607 42.571598 
L 255.878656 36.221525 
L 256.141241 39.396562 
L 256.469473 39.396562 
L 256.732058 36.221525 
L 256.994644 39.396562 
L 257.257214 29.871452 
L 257.585446 39.396562 
L 257.848031 36.221525 
L 258.110617 39.396562 
L 259.489175 39.396562 
L 259.817407 36.221525 
L 260.079993 39.396562 
L 260.933396 39.396562 
L 261.195966 42.571598 
L 261.721137 36.221525 
L 262.049369 39.396562 
L 263.165342 39.396562 
L 263.427927 42.571598 
L 263.690513 39.396562 
L 264.28133 39.396562 
L 264.543916 45.746635 
L 264.806501 39.396562 
L 265.069071 36.221525 
L 265.397303 42.571598 
L 265.922474 36.221525 
L 266.18506 42.571598 
L 266.513291 33.046488 
L 266.775877 42.571598 
L 267.301033 36.221525 
L 267.629264 39.396562 
L 268.417021 39.396562 
L 268.745253 42.571598 
L 269.007838 42.571598 
L 269.270408 36.221525 
L 269.532994 39.396562 
L 269.861226 39.396562 
L 270.123811 36.221525 
L 270.386397 36.221525 
L 270.648982 45.746635 
L 270.977214 39.396562 
L 271.239784 29.871452 
L 271.50237 42.571598 
L 271.764955 39.396562 
L 272.093187 39.396562 
L 272.355773 45.746635 
L 272.880944 39.396562 
L 273.20916 45.746635 
L 273.471746 39.396562 
L 273.734331 36.221525 
L 273.996917 42.571598 
L 274.325148 33.046488 
L 274.587734 42.571598 
L 275.11289 36.221525 
L 275.441121 42.571598 
L 275.703707 42.571598 
L 275.966292 39.396562 
L 277.082281 39.396562 
L 277.344851 45.746635 
L 277.673083 39.396562 
L 278.460839 39.396562 
L 278.789071 42.571598 
L 279.051657 39.396562 
L 279.314227 45.746635 
L 279.576812 36.221525 
L 279.905044 48.921672 
L 280.16763 36.221525 
L 280.430215 39.396562 
L 281.021032 39.396562 
L 281.283603 42.571598 
L 281.546188 39.396562 
L 281.808774 42.571598 
L 282.137006 36.221525 
L 282.399591 39.396562 
L 282.662176 48.921672 
L 282.924762 39.396562 
L 283.252979 39.396562 
L 283.515564 45.746635 
L 283.77815 39.396562 
L 284.040735 45.746635 
L 284.368967 39.396562 
L 284.631552 39.396562 
L 284.894138 45.746635 
L 285.156708 36.221525 
L 285.48494 48.921672 
L 285.747525 42.571598 
L 286.010111 39.396562 
L 286.272696 45.746635 
L 286.600928 42.571598 
L 286.863514 42.571598 
L 287.126099 39.396562 
L 287.388669 45.746635 
L 287.716901 42.571598 
L 287.979487 42.571598 
L 288.242072 45.746635 
L 288.504658 39.396562 
L 288.83289 45.746635 
L 289.095475 39.396562 
L 289.358045 39.396562 
L 289.620631 42.571598 
L 289.948863 39.396562 
L 290.211448 42.571598 
L 290.474034 36.221525 
L 290.736619 39.396562 
L 291.064851 39.396562 
L 291.590007 45.746635 
L 291.852592 39.396562 
L 292.180824 42.571598 
L 292.443409 39.396562 
L 292.705995 45.746635 
L 293.296797 45.746635 
L 293.559382 39.396562 
L 293.821968 45.746635 
L 294.084553 42.571598 
L 294.412785 33.046488 
L 294.675371 42.571598 
L 294.937956 36.221525 
L 295.528758 42.571598 
L 295.791344 39.396562 
L 296.053929 39.396562 
L 296.316515 33.046488 
L 296.644747 42.571598 
L 297.432488 42.571598 
L 297.76072 39.396562 
L 298.023305 42.571598 
L 298.548476 42.571598 
L 298.876708 39.396562 
L 299.139293 42.571598 
L 299.664449 42.571598 
L 299.992681 39.396562 
L 300.517852 39.396562 
L 300.780437 42.571598 
L 301.108669 39.396562 
L 301.37124 39.396562 
L 301.633825 42.571598 
L 301.896411 39.396562 
L 302.224642 42.571598 
L 302.487228 39.396562 
L 302.749813 45.746635 
L 303.012399 39.396562 
L 303.340615 45.746635 
L 303.603201 39.396562 
L 303.865786 42.571598 
L 304.128372 39.396562 
L 304.456604 39.396562 
L 304.719189 42.571598 
L 304.981775 39.396562 
L 306.097748 39.396562 
L 306.360333 45.746635 
L 306.951151 39.396562 
L 307.213721 45.746635 
L 307.476306 39.396562 
L 307.804538 45.746635 
L 308.067124 45.746635 
L 308.329709 36.221525 
L 308.592295 42.571598 
L 308.920526 42.571598 
L 309.183112 39.396562 
L 309.445682 45.746635 
L 310.036499 39.396562 
L 310.299085 42.571598 
L 310.56167 39.396562 
L 310.824256 39.396562 
L 311.152488 52.096708 
L 311.415058 39.396562 
L 311.940229 45.746635 
L 312.268461 39.396562 
L 312.531046 45.746635 
L 313.056217 39.396562 
L 313.647019 39.396562 
L 313.90962 36.221525 
L 314.172206 42.571598 
L 314.500422 39.396562 
L 315.616395 39.396562 
L 315.878981 42.571598 
L 316.404152 42.571598 
L 316.732368 45.746635 
L 316.994954 39.396562 
L 317.257539 45.746635 
L 317.520125 45.746635 
L 317.848372 39.396562 
L 318.110957 45.746635 
L 318.373512 39.396562 
L 318.964345 39.396562 
L 319.22693 45.746635 
L 319.489516 39.396562 
L 319.752101 42.571598 
L 320.080318 39.396562 
L 320.342903 45.746635 
L 320.868074 39.396562 
L 321.196291 45.746635 
L 321.721462 39.396562 
L 321.984047 48.921672 
L 322.574849 39.396562 
L 322.837435 45.746635 
L 323.10002 39.396562 
L 323.428268 45.746635 
L 323.690853 45.746635 
L 323.953439 39.396562 
L 324.216024 45.746635 
L 325.069412 45.746635 
L 325.331997 42.571598 
L 325.922799 42.571598 
L 326.185385 45.746635 
L 326.44797 39.396562 
L 326.776187 45.746635 
L 327.038772 45.746635 
L 327.301358 42.571598 
L 327.563943 45.746635 
L 327.89219 42.571598 
L 328.154776 45.746635 
L 328.417331 42.571598 
L 328.679916 45.746635 
L 329.008163 39.396562 
L 329.270749 48.921672 
L 329.533334 45.746635 
L 329.79592 52.096708 
L 330.124136 39.396562 
L 330.386722 45.746635 
L 330.649307 39.396562 
L 331.240109 52.096708 
L 331.502695 42.571598 
L 331.76528 52.096708 
L 332.027866 45.746635 
L 332.618668 45.746635 
L 332.881253 48.921672 
L 333.143839 42.571598 
L 333.472086 52.096708 
L 333.734671 42.571598 
L 333.997257 48.921672 
L 334.259842 42.571598 
L 334.588059 45.746635 
L 334.850644 39.396562 
L 335.11323 52.096708 
L 335.375815 39.396562 
L 335.704032 42.571598 
L 335.966618 48.921672 
L 336.229203 45.746635 
L 336.491788 52.096708 
L 337.082591 42.571598 
L 337.345176 48.921672 
L 337.936009 42.571598 
L 338.198594 55.271745 
L 338.461149 42.571598 
L 338.723735 52.096708 
L 339.051982 42.571598 
L 339.314567 42.571598 
L 339.577153 52.096708 
L 339.839738 45.746635 
L 340.167955 48.921672 
L 340.693126 42.571598 
L 340.955711 45.746635 
L 341.283928 52.096708 
L 341.809099 39.396562 
L 342.071684 52.096708 
L 342.399901 45.746635 
L 342.925072 45.746635 
L 343.187657 42.571598 
L 343.515904 48.921672 
L 343.77849 45.746635 
L 344.041075 48.921672 
L 344.303661 48.921672 
L 344.631877 42.571598 
L 344.894463 45.746635 
L 345.157048 45.746635 
L 345.419634 42.571598 
L 345.74785 52.096708 
L 346.010436 42.571598 
L 346.273021 55.271745 
L 346.535607 45.746635 
L 347.126409 52.096708 
L 347.388994 48.921672 
L 347.65158 42.571598 
L 348.242413 52.096708 
L 348.767553 52.096708 
L 349.0958 45.746635 
L 349.358386 45.746635 
L 349.620971 42.571598 
L 349.883557 52.096708 
L 350.211773 42.571598 
L 350.474359 42.571598 
L 350.736944 48.921672 
L 350.99953 42.571598 
L 351.327746 52.096708 
L 351.590332 39.396562 
L 351.852917 45.746635 
L 352.115503 45.746635 
L 352.443719 42.571598 
L 352.706305 42.571598 
L 352.96889 45.746635 
L 353.231476 45.746635 
L 353.559723 52.096708 
L 353.822308 42.571598 
L 354.084894 45.746635 
L 354.347479 39.396562 
L 354.675696 52.096708 
L 354.938281 42.571598 
L 355.200867 42.571598 
L 355.463452 48.921672 
L 356.054254 39.396562 
L 356.31684 52.096708 
L 356.907642 39.396562 
L 357.170227 55.271745 
L 357.432813 42.571598 
L 357.695398 48.921672 
L 358.023646 45.746635 
L 358.286231 39.396562 
L 358.548786 52.096708 
L 358.811371 45.746635 
L 359.139619 52.096708 
L 359.402204 45.746635 
L 359.66479 42.571598 
L 360.255592 42.571598 
L 360.518177 52.096708 
L 360.780763 45.746635 
L 361.043348 52.096708 
L 361.371565 45.746635 
L 361.63415 52.096708 
L 361.896736 42.571598 
L 362.159321 48.921672 
L 362.487538 52.096708 
L 362.750123 45.746635 
L 363.012709 58.446781 
L 363.275294 45.746635 
L 363.603541 52.096708 
L 363.866127 45.746635 
L 364.128712 45.746635 
L 364.391298 48.921672 
L 364.719514 55.271745 
L 364.9821 45.746635 
L 365.244685 52.096708 
L 365.507271 52.096708 
L 365.835487 45.746635 
L 366.098073 55.271745 
L 366.360658 45.746635 
L 366.623244 52.096708 
L 366.95146 52.096708 
L 367.476631 45.746635 
L 367.739217 52.096708 
L 368.067464 45.746635 
L 368.592604 52.096708 
L 368.85519 39.396562 
L 369.183437 55.271745 
L 369.446022 45.746635 
L 369.708608 52.096708 
L 369.971193 45.746635 
L 370.29941 48.921672 
L 370.561996 42.571598 
L 370.824581 45.746635 
L 371.415383 45.746635 
L 371.677969 48.921672 
L 372.20314 42.571598 
L 372.531356 52.096708 
L 372.793942 45.746635 
L 373.056527 45.746635 
L 373.319113 52.096708 
L 373.64736 42.571598 
L 373.909945 55.271745 
L 374.172531 48.921672 
L 374.435116 52.096708 
L 374.763333 45.746635 
L 375.025918 45.746635 
L 375.288504 48.921672 
L 375.551089 42.571598 
L 375.879306 52.096708 
L 376.141891 42.571598 
L 376.404477 52.096708 
L 376.667062 45.746635 
L 376.995279 45.746635 
L 377.257864 52.096708 
L 377.52045 45.746635 
L 377.783035 52.096708 
L 378.111282 45.746635 
L 378.373868 52.096708 
L 378.636423 45.746635 
L 378.899008 48.921672 
L 379.227255 48.921672 
L 379.489841 45.746635 
L 379.752426 48.921672 
L 380.015012 42.571598 
L 380.343228 52.096708 
L 380.605814 42.571598 
L 380.868399 42.571598 
L 381.130985 52.096708 
L 381.459201 42.571598 
L 381.721787 48.921672 
L 381.984372 52.096708 
L 382.246958 45.746635 
L 382.575175 52.096708 
L 382.83776 45.746635 
L 383.100345 55.271745 
L 383.362931 45.746635 
L 383.691178 52.096708 
L 383.953764 45.746635 
L 384.216349 45.746635 
L 384.478935 52.096708 
L 384.807151 45.746635 
L 385.069737 58.446781 
L 385.332322 55.271745 
L 385.594908 45.746635 
L 385.923124 45.746635 
L 386.18571 52.096708 
L 386.448295 42.571598 
L 386.710881 52.096708 
L 387.039097 52.096708 
L 387.301683 48.921672 
L 387.564268 52.096708 
L 387.826854 42.571598 
L 388.155101 52.096708 
L 388.942827 52.096708 
L 389.271074 45.746635 
L 389.533659 52.096708 
L 390.387047 52.096708 
L 390.649632 45.746635 
L 390.912218 55.271745 
L 391.174803 52.096708 
L 392.290776 52.096708 
L 392.618993 45.746635 
L 392.881578 45.746635 
L 393.144164 52.096708 
L 393.406749 45.746635 
L 393.734997 52.096708 
L 393.997582 45.746635 
L 394.260168 52.096708 
L 394.522722 39.396562 
L 394.85097 55.271745 
L 395.113555 52.096708 
L 395.376141 42.571598 
L 395.638726 58.446781 
L 395.966943 45.746635 
L 396.492114 52.096708 
L 396.754699 42.571598 
L 397.082916 42.571598 
L 397.608087 48.921672 
L 397.870672 48.921672 
L 398.198919 52.096708 
L 398.461505 45.746635 
L 398.986645 52.096708 
L 399.314892 45.746635 
L 399.577478 52.096708 
L 399.840063 52.096708 
L 400.102649 55.271745 
L 400.430865 45.746635 
L 401.218622 45.746635 
L 401.546838 52.096708 
L 401.809424 42.571598 
L 402.072009 52.096708 
L 402.334595 45.746635 
L 402.662811 45.746635 
L 402.925397 55.271745 
L 403.187982 42.571598 
L 403.450568 58.446781 
L 403.778815 39.396562 
L 404.0414 42.571598 
L 404.303986 58.446781 
L 404.566541 45.746635 
L 404.894788 45.746635 
L 405.419959 52.096708 
L 405.682544 45.746635 
L 406.010761 45.746635 
L 406.273347 52.096708 
L 406.535932 45.746635 
L 406.798517 64.796855 
L 407.126734 42.571598 
L 407.38932 48.921672 
L 407.651905 48.921672 
L 407.914491 45.746635 
L 408.242738 52.096708 
L 408.505323 48.921672 
L 408.767878 52.096708 
L 409.358711 45.746635 
L 409.621296 52.096708 
L 409.883882 45.746635 
L 410.146467 52.096708 
L 410.999855 52.096708 
L 411.26244 45.746635 
L 411.590657 52.096708 
L 412.115828 52.096708 
L 412.70663 45.746635 
L 412.969215 45.746635 
L 413.231801 52.096708 
L 413.494386 45.746635 
L 413.822633 48.921672 
L 414.085219 45.746635 
L 414.347804 39.396562 
L 414.610359 52.096708 
L 414.938606 39.396562 
L 415.201192 52.096708 
L 415.463777 52.096708 
L 415.726363 39.396562 
L 416.054579 52.096708 
L 416.317165 45.746635 
L 416.57975 52.096708 
L 416.842336 45.746635 
L 417.170552 52.096708 
L 417.695723 52.096708 
L 417.958309 48.921672 
L 418.286556 48.921672 
L 418.549142 45.746635 
L 418.811696 45.746635 
L 419.402529 52.096708 
L 419.665115 48.921672 
L 419.9277 52.096708 
L 420.190286 48.921672 
L 420.518502 52.096708 
L 421.043673 45.746635 
L 421.306259 52.096708 
L 421.634475 48.921672 
L 421.897061 55.271745 
L 422.750448 45.746635 
L 423.013034 52.096708 
L 423.275619 45.746635 
L 423.538205 48.921672 
L 423.866452 45.746635 
L 424.129037 45.746635 
L 424.391623 52.096708 
L 424.654178 45.746635 
L 424.982425 52.096708 
L 425.24501 45.746635 
L 425.507596 55.271745 
L 425.770181 48.921672 
L 426.098398 52.096708 
L 426.360983 45.746635 
L 426.623569 45.746635 
L 426.886154 42.571598 
L 427.214371 45.746635 
L 427.476956 52.096708 
L 427.739542 45.746635 
L 428.002127 45.746635 
L 428.330375 58.446781 
L 428.59296 42.571598 
L 428.855515 52.096708 
L 429.1181 48.921672 
L 429.446348 42.571598 
L 429.708933 48.921672 
L 429.971519 52.096708 
L 430.234104 45.746635 
L 430.562321 45.746635 
L 430.824906 52.096708 
L 431.087492 55.271745 
L 431.350077 45.746635 
L 431.678294 52.096708 
L 432.203465 52.096708 
L 432.46605 48.921672 
L 433.056852 55.271745 
L 433.319438 45.746635 
L 433.582023 55.271745 
L 433.91027 48.921672 
L 434.172856 52.096708 
L 434.435441 52.096708 
L 434.697996 55.271745 
L 435.288829 48.921672 
L 435.551414 52.096708 
L 435.814 45.746635 
L 436.142216 52.096708 
L 436.404802 52.096708 
L 436.667387 42.571598 
L 436.929973 52.096708 
L 437.258189 52.096708 
L 437.520775 45.746635 
L 437.78336 45.746635 
L 438.045946 52.096708 
L 438.374193 42.571598 
L 438.636778 45.746635 
L 438.899333 45.746635 
L 439.161919 52.096708 
L 439.490166 52.096708 
L 439.752751 42.571598 
L 440.015337 52.096708 
L 440.277922 52.096708 
L 440.606139 48.921672 
L 440.868724 52.096708 
L 441.13131 52.096708 
L 441.393895 42.571598 
L 441.722112 52.096708 
L 442.247283 52.096708 
L 442.509869 39.396562 
L 442.838085 52.096708 
L 443.100671 48.921672 
L 443.363256 52.096708 
L 443.625842 45.746635 
L 444.216674 55.271745 
L 444.47926 45.746635 
L 444.741815 45.746635 
L 445.070062 42.571598 
L 445.332647 48.921672 
L 445.595233 48.921672 
L 445.857818 45.746635 
L 446.186035 45.746635 
L 446.44862 42.571598 
L 446.711206 52.096708 
L 446.973791 52.096708 
L 447.302008 42.571598 
L 447.827179 48.921672 
L 448.089764 42.571598 
L 448.418011 55.271745 
L 448.680597 48.921672 
L 448.943152 48.921672 
L 449.205737 52.096708 
L 449.533984 52.096708 
L 449.79657 48.921672 
L 450.059155 52.096708 
L 450.321741 45.746635 
L 450.912543 55.271745 
L 451.175128 52.096708 
L 451.437714 45.746635 
L 451.76593 52.096708 
L 452.028516 42.571598 
L 452.291101 58.446781 
L 452.553687 45.746635 
L 452.881904 58.446781 
L 453.144489 42.571598 
L 453.407074 45.746635 
L 453.66966 58.446781 
L 453.997907 48.921672 
L 454.523078 55.271745 
L 454.785633 45.746635 
L 455.11388 52.096708 
L 455.376466 52.096708 
L 455.639051 45.746635 
L 455.901637 52.096708 
L 456.229853 52.096708 
L 456.492439 55.271745 
L 456.755024 55.271745 
L 457.01761 45.746635 
L 457.345826 55.271745 
L 457.608412 48.921672 
L 457.870997 55.271745 
L 458.133583 45.746635 
L 458.46183 55.271745 
L 458.724415 45.746635 
L 458.98697 45.746635 
L 459.249556 55.271745 
L 459.577803 52.096708 
L 460.365559 52.096708 
L 460.693776 55.271745 
L 460.956361 48.921672 
L 461.218947 48.921672 
L 461.481532 52.096708 
L 461.809749 52.096708 
L 462.072334 48.921672 
L 462.33492 55.271745 
L 462.597505 52.096708 
L 462.925722 58.446781 
L 463.450893 52.096708 
L 463.713478 55.271745 
L 464.041726 45.746635 
L 464.304311 58.446781 
L 464.566897 45.746635 
L 464.829451 55.271745 
L 465.420284 55.271745 
L 465.68287 45.746635 
L 465.945455 58.446781 
L 466.273672 48.921672 
L 466.536257 55.271745 
L 466.798843 58.446781 
L 467.061428 45.746635 
L 467.389645 52.096708 
L 467.65223 52.096708 
L 467.65223 52.096708 
" style="fill:none;stroke:#1f77b4;stroke-linecap:square;stroke-opacity:0.5;stroke-width:1.5;"></path>
   </g>
   <g id="patch_3">
    <path d="M 36.989063 283.239375 
L 36.989063 17.806312 
" style="fill:none;stroke:#808080;stroke-linecap:square;stroke-linejoin:miter;stroke-width:0.5;"></path>
   </g>
   <g id="patch_4">
    <path d="M 488.16 283.239375 
L 488.16 17.806312 
" style="fill:none;stroke:#808080;stroke-linecap:square;stroke-linejoin:miter;stroke-width:0.5;"></path>
   </g>
   <g id="patch_5">
    <path d="M 36.989062 283.239375 
L 488.16 283.239375 
" style="fill:none;stroke:#808080;stroke-linecap:square;stroke-linejoin:miter;stroke-width:0.5;"></path>
   </g>
   <g id="patch_6">
    <path d="M 36.989062 17.806312 
L 488.16 17.806312 
" style="fill:none;stroke:#808080;stroke-linecap:square;stroke-linejoin:miter;stroke-width:0.5;"></path>
   </g>
   <g id="text_18">
    <!-- An integrator neuron -->
    <defs>
     <path d="M 54.890625 33.015625 
L 54.890625 0 
L 45.90625 0 
L 45.90625 32.71875 
Q 45.90625 40.484375 42.875 44.328125 
Q 39.84375 48.1875 33.796875 48.1875 
Q 26.515625 48.1875 22.3125 43.546875 
Q 18.109375 38.921875 18.109375 30.90625 
L 18.109375 0 
L 9.078125 0 
L 9.078125 54.6875 
L 18.109375 54.6875 
L 18.109375 46.1875 
Q 21.34375 51.125 25.703125 53.5625 
Q 30.078125 56 35.796875 56 
Q 45.21875 56 50.046875 50.171875 
Q 54.890625 44.34375 54.890625 33.015625 
z
" id="DejaVuSans-110"></path>
     <path d="M 45.40625 27.984375 
Q 45.40625 37.75 41.375 43.109375 
Q 37.359375 48.484375 30.078125 48.484375 
Q 22.859375 48.484375 18.828125 43.109375 
Q 14.796875 37.75 14.796875 27.984375 
Q 14.796875 18.265625 18.828125 12.890625 
Q 22.859375 7.515625 30.078125 7.515625 
Q 37.359375 7.515625 41.375 12.890625 
Q 45.40625 18.265625 45.40625 27.984375 
z
M 54.390625 6.78125 
Q 54.390625 -7.171875 48.1875 -13.984375 
Q 42 -20.796875 29.203125 -20.796875 
Q 24.46875 -20.796875 20.265625 -20.09375 
Q 16.0625 -19.390625 12.109375 -17.921875 
L 12.109375 -9.1875 
Q 16.0625 -11.328125 19.921875 -12.34375 
Q 23.78125 -13.375 27.78125 -13.375 
Q 36.625 -13.375 41.015625 -8.765625 
Q 45.40625 -4.15625 45.40625 5.171875 
L 45.40625 9.625 
Q 42.625 4.78125 38.28125 2.390625 
Q 33.9375 0 27.875 0 
Q 17.828125 0 11.671875 7.65625 
Q 5.515625 15.328125 5.515625 27.984375 
Q 5.515625 40.671875 11.671875 48.328125 
Q 17.828125 56 27.875 56 
Q 33.9375 56 38.28125 53.609375 
Q 42.625 51.21875 45.40625 46.390625 
L 45.40625 54.6875 
L 54.390625 54.6875 
z
" id="DejaVuSans-103"></path>
    </defs>
    <g transform="translate(205.953844 11.806312)scale(0.108 -0.108)">
     <use xlink:href="#DejaVuSans-65"></use>
     <use x="68.408203" xlink:href="#DejaVuSans-110"></use>
     <use x="131.787109" xlink:href="#DejaVuSans-32"></use>
     <use x="163.574219" xlink:href="#DejaVuSans-105"></use>
     <use x="191.357422" xlink:href="#DejaVuSans-110"></use>
     <use x="254.736328" xlink:href="#DejaVuSans-116"></use>
     <use x="293.945312" xlink:href="#DejaVuSans-101"></use>
     <use x="355.46875" xlink:href="#DejaVuSans-103"></use>
     <use x="418.945312" xlink:href="#DejaVuSans-114"></use>
     <use x="460.058594" xlink:href="#DejaVuSans-97"></use>
     <use x="521.337891" xlink:href="#DejaVuSans-116"></use>
     <use x="560.546875" xlink:href="#DejaVuSans-111"></use>
     <use x="621.728516" xlink:href="#DejaVuSans-114"></use>
     <use x="662.841797" xlink:href="#DejaVuSans-32"></use>
     <use x="694.628906" xlink:href="#DejaVuSans-110"></use>
     <use x="758.007812" xlink:href="#DejaVuSans-101"></use>
     <use x="819.53125" xlink:href="#DejaVuSans-117"></use>
     <use x="882.910156" xlink:href="#DejaVuSans-114"></use>
     <use x="923.992188" xlink:href="#DejaVuSans-111"></use>
     <use x="985.173828" xlink:href="#DejaVuSans-110"></use>
    </g>
   </g>
  </g>
 </g>
 <defs>
  <clipPath id="p4a9d539388">
   <rect height="265.433063" width="451.170938" x="36.989063" y="17.806312"></rect>
  </clipPath>
 </defs>
</svg>
