<svg height="275.440763pt" version="1.1" viewBox="0 0 491.76 275.440763" width="491.76pt" xmlns="http://www.w3.org/2000/svg" xmlns:xlink="http://www.w3.org/1999/xlink" style="width: 100%; height: 100%;">
 <defs>
  <style type="text/css">
*{stroke-linecap:butt;stroke-linejoin:round;}
  </style>
 </defs>
 <g id="figure_1">
  <g id="patch_1">
   <path d="M 0 275.440763 
L 491.76 275.440763 
L 491.76 0 
L 0 0 
z
" style="fill:none;"></path>
  </g>
  <g id="axes_1">
   <g id="patch_2">
    <path d="M 36.989063 246.920138 
L 479.570625 246.920138 
L 479.570625 3.6 
L 36.989063 3.6 
z
" style="fill:#ffffff;"></path>
   </g>
   <g id="matplotlib.axis_1">
    <g id="xtick_1">
     <g id="line2d_1">
      <path clip-path="url(#pc485500548)" d="M 36.989063 246.920138 
L 36.989063 3.6 
" style="fill:none;stroke:#808080;stroke-dasharray:0.5,0.825;stroke-dashoffset:0;stroke-width:0.5;"></path>
     </g>
     <g id="line2d_2"></g>
     <g id="text_1">
      <!-- 0 -->
      <defs>
       <path d="M 31.78125 66.40625 
Q 24.171875 66.40625 20.328125 58.90625 
Q 16.5 51.421875 16.5 36.375 
Q 16.5 21.390625 20.328125 13.890625 
Q 24.171875 6.390625 31.78125 6.390625 
Q 39.453125 6.390625 43.28125 13.890625 
Q 47.125 21.390625 47.125 36.375 
Q 47.125 51.421875 43.28125 58.90625 
Q 39.453125 66.40625 31.78125 66.40625 
z
M 31.78125 74.21875 
Q 44.046875 74.21875 50.515625 64.515625 
Q 56.984375 54.828125 56.984375 36.375 
Q 56.984375 17.96875 50.515625 8.265625 
Q 44.046875 -1.421875 31.78125 -1.421875 
Q 19.53125 -1.421875 13.0625 8.265625 
Q 6.59375 17.96875 6.59375 36.375 
Q 6.59375 54.828125 13.0625 64.515625 
Q 19.53125 74.21875 31.78125 74.21875 
z
" id="DejaVuSans-48"></path>
      </defs>
      <g transform="translate(34.125938 257.258732)scale(0.09 -0.09)">
       <use xlink:href="#DejaVuSans-48"></use>
      </g>
     </g>
    </g>
    <g id="xtick_2">
     <g id="line2d_3">
      <path clip-path="url(#pc485500548)" d="M 92.311758 246.920138 
L 92.311758 3.6 
" style="fill:none;stroke:#808080;stroke-dasharray:0.5,0.825;stroke-dashoffset:0;stroke-width:0.5;"></path>
     </g>
     <g id="line2d_4"></g>
     <g id="text_2">
      <!-- 25 -->
      <defs>
       <path d="M 19.1875 8.296875 
L 53.609375 8.296875 
L 53.609375 0 
L 7.328125 0 
L 7.328125 8.296875 
Q 12.9375 14.109375 22.625 23.890625 
Q 32.328125 33.6875 34.8125 36.53125 
Q 39.546875 41.84375 41.421875 45.53125 
Q 43.3125 49.21875 43.3125 52.78125 
Q 43.3125 58.59375 39.234375 62.25 
Q 35.15625 65.921875 28.609375 65.921875 
Q 23.96875 65.921875 18.8125 64.3125 
Q 13.671875 62.703125 7.8125 59.421875 
L 7.8125 69.390625 
Q 13.765625 71.78125 18.9375 73 
Q 24.125 74.21875 28.421875 74.21875 
Q 39.75 74.21875 46.484375 68.546875 
Q 53.21875 62.890625 53.21875 53.421875 
Q 53.21875 48.921875 51.53125 44.890625 
Q 49.859375 40.875 45.40625 35.40625 
Q 44.1875 33.984375 37.640625 27.21875 
Q 31.109375 20.453125 19.1875 8.296875 
z
" id="DejaVuSans-50"></path>
       <path d="M 10.796875 72.90625 
L 49.515625 72.90625 
L 49.515625 64.59375 
L 19.828125 64.59375 
L 19.828125 46.734375 
Q 21.96875 47.46875 24.109375 47.828125 
Q 26.265625 48.1875 28.421875 48.1875 
Q 40.625 48.1875 47.75 41.5 
Q 54.890625 34.8125 54.890625 23.390625 
Q 54.890625 11.625 47.5625 5.09375 
Q 40.234375 -1.421875 26.90625 -1.421875 
Q 22.3125 -1.421875 17.546875 -0.640625 
Q 12.796875 0.140625 7.71875 1.703125 
L 7.71875 11.625 
Q 12.109375 9.234375 16.796875 8.0625 
Q 21.484375 6.890625 26.703125 6.890625 
Q 35.15625 6.890625 40.078125 11.328125 
Q 45.015625 15.765625 45.015625 23.390625 
Q 45.015625 31 40.078125 35.4375 
Q 35.15625 39.890625 26.703125 39.890625 
Q 22.75 39.890625 18.8125 39.015625 
Q 14.890625 38.140625 10.796875 36.28125 
z
" id="DejaVuSans-53"></path>
      </defs>
      <g transform="translate(86.585508 257.258732)scale(0.09 -0.09)">
       <use xlink:href="#DejaVuSans-50"></use>
       <use x="63.623047" xlink:href="#DejaVuSans-53"></use>
      </g>
     </g>
    </g>
    <g id="xtick_3">
     <g id="line2d_5">
      <path clip-path="url(#pc485500548)" d="M 147.634453 246.920138 
L 147.634453 3.6 
" style="fill:none;stroke:#808080;stroke-dasharray:0.5,0.825;stroke-dashoffset:0;stroke-width:0.5;"></path>
     </g>
     <g id="line2d_6"></g>
     <g id="text_3">
      <!-- 50 -->
      <g transform="translate(141.908203 257.258732)scale(0.09 -0.09)">
       <use xlink:href="#DejaVuSans-53"></use>
       <use x="63.623047" xlink:href="#DejaVuSans-48"></use>
      </g>
     </g>
    </g>
    <g id="xtick_4">
     <g id="line2d_7">
      <path clip-path="url(#pc485500548)" d="M 202.957148 246.920138 
L 202.957148 3.6 
" style="fill:none;stroke:#808080;stroke-dasharray:0.5,0.825;stroke-dashoffset:0;stroke-width:0.5;"></path>
     </g>
     <g id="line2d_8"></g>
     <g id="text_4">
      <!-- 75 -->
      <defs>
       <path d="M 8.203125 72.90625 
L 55.078125 72.90625 
L 55.078125 68.703125 
L 28.609375 0 
L 18.3125 0 
L 43.21875 64.59375 
L 8.203125 64.59375 
z
" id="DejaVuSans-55"></path>
      </defs>
      <g transform="translate(197.230898 257.258732)scale(0.09 -0.09)">
       <use xlink:href="#DejaVuSans-55"></use>
       <use x="63.623047" xlink:href="#DejaVuSans-53"></use>
      </g>
     </g>
    </g>
    <g id="xtick_5">
     <g id="line2d_9">
      <path clip-path="url(#pc485500548)" d="M 258.279844 246.920138 
L 258.279844 3.6 
" style="fill:none;stroke:#808080;stroke-dasharray:0.5,0.825;stroke-dashoffset:0;stroke-width:0.5;"></path>
     </g>
     <g id="line2d_10"></g>
     <g id="text_5">
      <!-- 100 -->
      <defs>
       <path d="M 12.40625 8.296875 
L 28.515625 8.296875 
L 28.515625 63.921875 
L 10.984375 60.40625 
L 10.984375 69.390625 
L 28.421875 72.90625 
L 38.28125 72.90625 
L 38.28125 8.296875 
L 54.390625 8.296875 
L 54.390625 0 
L 12.40625 0 
z
" id="DejaVuSans-49"></path>
      </defs>
      <g transform="translate(249.690469 257.258732)scale(0.09 -0.09)">
       <use xlink:href="#DejaVuSans-49"></use>
       <use x="63.623047" xlink:href="#DejaVuSans-48"></use>
       <use x="127.246094" xlink:href="#DejaVuSans-48"></use>
      </g>
     </g>
    </g>
    <g id="xtick_6">
     <g id="line2d_11">
      <path clip-path="url(#pc485500548)" d="M 313.602539 246.920138 
L 313.602539 3.6 
" style="fill:none;stroke:#808080;stroke-dasharray:0.5,0.825;stroke-dashoffset:0;stroke-width:0.5;"></path>
     </g>
     <g id="line2d_12"></g>
     <g id="text_6">
      <!-- 125 -->
      <g transform="translate(305.013164 257.258732)scale(0.09 -0.09)">
       <use xlink:href="#DejaVuSans-49"></use>
       <use x="63.623047" xlink:href="#DejaVuSans-50"></use>
       <use x="127.246094" xlink:href="#DejaVuSans-53"></use>
      </g>
     </g>
    </g>
    <g id="xtick_7">
     <g id="line2d_13">
      <path clip-path="url(#pc485500548)" d="M 368.925234 246.920138 
L 368.925234 3.6 
" style="fill:none;stroke:#808080;stroke-dasharray:0.5,0.825;stroke-dashoffset:0;stroke-width:0.5;"></path>
     </g>
     <g id="line2d_14"></g>
     <g id="text_7">
      <!-- 150 -->
      <g transform="translate(360.335859 257.258732)scale(0.09 -0.09)">
       <use xlink:href="#DejaVuSans-49"></use>
       <use x="63.623047" xlink:href="#DejaVuSans-53"></use>
       <use x="127.246094" xlink:href="#DejaVuSans-48"></use>
      </g>
     </g>
    </g>
    <g id="xtick_8">
     <g id="line2d_15">
      <path clip-path="url(#pc485500548)" d="M 424.24793 246.920138 
L 424.24793 3.6 
" style="fill:none;stroke:#808080;stroke-dasharray:0.5,0.825;stroke-dashoffset:0;stroke-width:0.5;"></path>
     </g>
     <g id="line2d_16"></g>
     <g id="text_8">
      <!-- 175 -->
      <g transform="translate(415.658555 257.258732)scale(0.09 -0.09)">
       <use xlink:href="#DejaVuSans-49"></use>
       <use x="63.623047" xlink:href="#DejaVuSans-55"></use>
       <use x="127.246094" xlink:href="#DejaVuSans-53"></use>
      </g>
     </g>
    </g>
    <g id="xtick_9">
     <g id="line2d_17">
      <path clip-path="url(#pc485500548)" d="M 479.570625 246.920138 
L 479.570625 3.6 
" style="fill:none;stroke:#808080;stroke-dasharray:0.5,0.825;stroke-dashoffset:0;stroke-width:0.5;"></path>
     </g>
     <g id="line2d_18"></g>
     <g id="text_9">
      <!-- 200 -->
      <g transform="translate(470.98125 257.258732)scale(0.09 -0.09)">
       <use xlink:href="#DejaVuSans-50"></use>
       <use x="63.623047" xlink:href="#DejaVuSans-48"></use>
       <use x="127.246094" xlink:href="#DejaVuSans-48"></use>
      </g>
     </g>
    </g>
    <g id="text_10">
     <!-- time / μs -->
     <defs>
      <path d="M 18.3125 70.21875 
L 18.3125 54.6875 
L 36.8125 54.6875 
L 36.8125 47.703125 
L 18.3125 47.703125 
L 18.3125 18.015625 
Q 18.3125 11.328125 20.140625 9.421875 
Q 21.96875 7.515625 27.59375 7.515625 
L 36.8125 7.515625 
L 36.8125 0 
L 27.59375 0 
Q 17.1875 0 13.234375 3.875 
Q 9.28125 7.765625 9.28125 18.015625 
L 9.28125 47.703125 
L 2.6875 47.703125 
L 2.6875 54.6875 
L 9.28125 54.6875 
L 9.28125 70.21875 
z
" id="DejaVuSans-116"></path>
      <path d="M 9.421875 54.6875 
L 18.40625 54.6875 
L 18.40625 0 
L 9.421875 0 
z
M 9.421875 75.984375 
L 18.40625 75.984375 
L 18.40625 64.59375 
L 9.421875 64.59375 
z
" id="DejaVuSans-105"></path>
      <path d="M 52 44.1875 
Q 55.375 50.25 60.0625 53.125 
Q 64.75 56 71.09375 56 
Q 79.640625 56 84.28125 50.015625 
Q 88.921875 44.046875 88.921875 33.015625 
L 88.921875 0 
L 79.890625 0 
L 79.890625 32.71875 
Q 79.890625 40.578125 77.09375 44.375 
Q 74.3125 48.1875 68.609375 48.1875 
Q 61.625 48.1875 57.5625 43.546875 
Q 53.515625 38.921875 53.515625 30.90625 
L 53.515625 0 
L 44.484375 0 
L 44.484375 32.71875 
Q 44.484375 40.625 41.703125 44.40625 
Q 38.921875 48.1875 33.109375 48.1875 
Q 26.21875 48.1875 22.15625 43.53125 
Q 18.109375 38.875 18.109375 30.90625 
L 18.109375 0 
L 9.078125 0 
L 9.078125 54.6875 
L 18.109375 54.6875 
L 18.109375 46.1875 
Q 21.1875 51.21875 25.484375 53.609375 
Q 29.78125 56 35.6875 56 
Q 41.65625 56 45.828125 52.96875 
Q 50 49.953125 52 44.1875 
z
" id="DejaVuSans-109"></path>
      <path d="M 56.203125 29.59375 
L 56.203125 25.203125 
L 14.890625 25.203125 
Q 15.484375 15.921875 20.484375 11.0625 
Q 25.484375 6.203125 34.421875 6.203125 
Q 39.59375 6.203125 44.453125 7.46875 
Q 49.3125 8.734375 54.109375 11.28125 
L 54.109375 2.78125 
Q 49.265625 0.734375 44.1875 -0.34375 
Q 39.109375 -1.421875 33.890625 -1.421875 
Q 20.796875 -1.421875 13.15625 6.1875 
Q 5.515625 13.8125 5.515625 26.8125 
Q 5.515625 40.234375 12.765625 48.109375 
Q 20.015625 56 32.328125 56 
Q 43.359375 56 49.78125 48.890625 
Q 56.203125 41.796875 56.203125 29.59375 
z
M 47.21875 32.234375 
Q 47.125 39.59375 43.09375 43.984375 
Q 39.0625 48.390625 32.421875 48.390625 
Q 24.90625 48.390625 20.390625 44.140625 
Q 15.875 39.890625 15.1875 32.171875 
z
" id="DejaVuSans-101"></path>
      <path id="DejaVuSans-32"></path>
      <path d="M 25.390625 72.90625 
L 33.6875 72.90625 
L 8.296875 -9.28125 
L 0 -9.28125 
z
" id="DejaVuSans-47"></path>
      <path d="M 8.5 -20.796875 
L 8.5 54.6875 
L 17.484375 54.6875 
L 17.484375 20.703125 
Q 17.484375 13.625 20.84375 10 
Q 24.21875 6.390625 30.8125 6.390625 
Q 38.03125 6.390625 41.671875 10.484375 
Q 45.3125 14.59375 45.3125 22.796875 
L 45.3125 54.6875 
L 54.296875 54.6875 
L 54.296875 12.59375 
Q 54.296875 9.671875 55.140625 8.28125 
Q 56 6.890625 57.8125 6.890625 
Q 58.25 6.890625 59.03125 7.15625 
Q 59.8125 7.421875 61.1875 8.015625 
L 61.1875 0.78125 
Q 59.1875 -0.34375 57.390625 -0.875 
Q 55.609375 -1.421875 53.90625 -1.421875 
Q 50.53125 -1.421875 48.53125 0.484375 
Q 46.53125 2.390625 45.796875 6.296875 
Q 43.359375 2.4375 39.8125 0.5 
Q 36.28125 -1.421875 31.5 -1.421875 
Q 26.515625 -1.421875 23.015625 0.484375 
Q 19.53125 2.390625 17.484375 6.203125 
L 17.484375 -20.796875 
z
" id="DejaVuSans-956"></path>
      <path d="M 44.28125 53.078125 
L 44.28125 44.578125 
Q 40.484375 46.53125 36.375 47.5 
Q 32.28125 48.484375 27.875 48.484375 
Q 21.1875 48.484375 17.84375 46.4375 
Q 14.5 44.390625 14.5 40.28125 
Q 14.5 37.15625 16.890625 35.375 
Q 19.28125 33.59375 26.515625 31.984375 
L 29.59375 31.296875 
Q 39.15625 29.25 43.1875 25.515625 
Q 47.21875 21.78125 47.21875 15.09375 
Q 47.21875 7.46875 41.1875 3.015625 
Q 35.15625 -1.421875 24.609375 -1.421875 
Q 20.21875 -1.421875 15.453125 -0.5625 
Q 10.6875 0.296875 5.421875 2 
L 5.421875 11.28125 
Q 10.40625 8.6875 15.234375 7.390625 
Q 20.0625 6.109375 24.8125 6.109375 
Q 31.15625 6.109375 34.5625 8.28125 
Q 37.984375 10.453125 37.984375 14.40625 
Q 37.984375 18.0625 35.515625 20.015625 
Q 33.0625 21.96875 24.703125 23.78125 
L 21.578125 24.515625 
Q 13.234375 26.265625 9.515625 29.90625 
Q 5.8125 33.546875 5.8125 39.890625 
Q 5.8125 47.609375 11.28125 51.796875 
Q 16.75 56 26.8125 56 
Q 31.78125 56 36.171875 55.265625 
Q 40.578125 54.546875 44.28125 53.078125 
z
" id="DejaVuSans-115"></path>
     </defs>
     <g transform="translate(238.529766 269.969044)scale(0.09 -0.09)">
      <use xlink:href="#DejaVuSans-116"></use>
      <use x="39.208984" xlink:href="#DejaVuSans-105"></use>
      <use x="66.992188" xlink:href="#DejaVuSans-109"></use>
      <use x="164.404297" xlink:href="#DejaVuSans-101"></use>
      <use x="225.927734" xlink:href="#DejaVuSans-32"></use>
      <use x="257.714844" xlink:href="#DejaVuSans-47"></use>
      <use x="291.40625" xlink:href="#DejaVuSans-32"></use>
      <use x="323.193359" xlink:href="#DejaVuSans-956"></use>
      <use x="386.816406" xlink:href="#DejaVuSans-115"></use>
     </g>
    </g>
   </g>
   <g id="matplotlib.axis_2">
    <g id="ytick_1">
     <g id="line2d_19">
      <path clip-path="url(#pc485500548)" d="M 36.989063 233.035657 
L 479.570625 233.035657 
" style="fill:none;stroke:#808080;stroke-dasharray:0.5,0.825;stroke-dashoffset:0;stroke-width:0.5;"></path>
     </g>
     <g id="line2d_20"></g>
     <g id="text_11">
      <!-- 300 -->
      <defs>
       <path d="M 40.578125 39.3125 
Q 47.65625 37.796875 51.625 33 
Q 55.609375 28.21875 55.609375 21.1875 
Q 55.609375 10.40625 48.1875 4.484375 
Q 40.765625 -1.421875 27.09375 -1.421875 
Q 22.515625 -1.421875 17.65625 -0.515625 
Q 12.796875 0.390625 7.625 2.203125 
L 7.625 11.71875 
Q 11.71875 9.328125 16.59375 8.109375 
Q 21.484375 6.890625 26.8125 6.890625 
Q 36.078125 6.890625 40.9375 10.546875 
Q 45.796875 14.203125 45.796875 21.1875 
Q 45.796875 27.640625 41.28125 31.265625 
Q 36.765625 34.90625 28.71875 34.90625 
L 20.21875 34.90625 
L 20.21875 43.015625 
L 29.109375 43.015625 
Q 36.375 43.015625 40.234375 45.921875 
Q 44.09375 48.828125 44.09375 54.296875 
Q 44.09375 59.90625 40.109375 62.90625 
Q 36.140625 65.921875 28.71875 65.921875 
Q 24.65625 65.921875 20.015625 65.03125 
Q 15.375 64.15625 9.8125 62.3125 
L 9.8125 71.09375 
Q 15.4375 72.65625 20.34375 73.4375 
Q 25.25 74.21875 29.59375 74.21875 
Q 40.828125 74.21875 47.359375 69.109375 
Q 53.90625 64.015625 53.90625 55.328125 
Q 53.90625 49.265625 50.4375 45.09375 
Q 46.96875 40.921875 40.578125 39.3125 
z
" id="DejaVuSans-51"></path>
      </defs>
      <g transform="translate(16.310313 236.454954)scale(0.09 -0.09)">
       <use xlink:href="#DejaVuSans-51"></use>
       <use x="63.623047" xlink:href="#DejaVuSans-48"></use>
       <use x="127.246094" xlink:href="#DejaVuSans-48"></use>
      </g>
     </g>
    </g>
    <g id="ytick_2">
     <g id="line2d_21">
      <path clip-path="url(#pc485500548)" d="M 36.989063 204.789829 
L 479.570625 204.789829 
" style="fill:none;stroke:#808080;stroke-dasharray:0.5,0.825;stroke-dashoffset:0;stroke-width:0.5;"></path>
     </g>
     <g id="line2d_22"></g>
     <g id="text_12">
      <!-- 320 -->
      <g transform="translate(16.310313 208.209126)scale(0.09 -0.09)">
       <use xlink:href="#DejaVuSans-51"></use>
       <use x="63.623047" xlink:href="#DejaVuSans-50"></use>
       <use x="127.246094" xlink:href="#DejaVuSans-48"></use>
      </g>
     </g>
    </g>
    <g id="ytick_3">
     <g id="line2d_23">
      <path clip-path="url(#pc485500548)" d="M 36.989063 176.544002 
L 479.570625 176.544002 
" style="fill:none;stroke:#808080;stroke-dasharray:0.5,0.825;stroke-dashoffset:0;stroke-width:0.5;"></path>
     </g>
     <g id="line2d_24"></g>
     <g id="text_13">
      <!-- 340 -->
      <defs>
       <path d="M 37.796875 64.3125 
L 12.890625 25.390625 
L 37.796875 25.390625 
z
M 35.203125 72.90625 
L 47.609375 72.90625 
L 47.609375 25.390625 
L 58.015625 25.390625 
L 58.015625 17.1875 
L 47.609375 17.1875 
L 47.609375 0 
L 37.796875 0 
L 37.796875 17.1875 
L 4.890625 17.1875 
L 4.890625 26.703125 
z
" id="DejaVuSans-52"></path>
      </defs>
      <g transform="translate(16.310313 179.963298)scale(0.09 -0.09)">
       <use xlink:href="#DejaVuSans-51"></use>
       <use x="63.623047" xlink:href="#DejaVuSans-52"></use>
       <use x="127.246094" xlink:href="#DejaVuSans-48"></use>
      </g>
     </g>
    </g>
    <g id="ytick_4">
     <g id="line2d_25">
      <path clip-path="url(#pc485500548)" d="M 36.989063 148.298174 
L 479.570625 148.298174 
" style="fill:none;stroke:#808080;stroke-dasharray:0.5,0.825;stroke-dashoffset:0;stroke-width:0.5;"></path>
     </g>
     <g id="line2d_26"></g>
     <g id="text_14">
      <!-- 360 -->
      <defs>
       <path d="M 33.015625 40.375 
Q 26.375 40.375 22.484375 35.828125 
Q 18.609375 31.296875 18.609375 23.390625 
Q 18.609375 15.53125 22.484375 10.953125 
Q 26.375 6.390625 33.015625 6.390625 
Q 39.65625 6.390625 43.53125 10.953125 
Q 47.40625 15.53125 47.40625 23.390625 
Q 47.40625 31.296875 43.53125 35.828125 
Q 39.65625 40.375 33.015625 40.375 
z
M 52.59375 71.296875 
L 52.59375 62.3125 
Q 48.875 64.0625 45.09375 64.984375 
Q 41.3125 65.921875 37.59375 65.921875 
Q 27.828125 65.921875 22.671875 59.328125 
Q 17.53125 52.734375 16.796875 39.40625 
Q 19.671875 43.65625 24.015625 45.921875 
Q 28.375 48.1875 33.59375 48.1875 
Q 44.578125 48.1875 50.953125 41.515625 
Q 57.328125 34.859375 57.328125 23.390625 
Q 57.328125 12.15625 50.6875 5.359375 
Q 44.046875 -1.421875 33.015625 -1.421875 
Q 20.359375 -1.421875 13.671875 8.265625 
Q 6.984375 17.96875 6.984375 36.375 
Q 6.984375 53.65625 15.1875 63.9375 
Q 23.390625 74.21875 37.203125 74.21875 
Q 40.921875 74.21875 44.703125 73.484375 
Q 48.484375 72.75 52.59375 71.296875 
z
" id="DejaVuSans-54"></path>
      </defs>
      <g transform="translate(16.310313 151.717471)scale(0.09 -0.09)">
       <use xlink:href="#DejaVuSans-51"></use>
       <use x="63.623047" xlink:href="#DejaVuSans-54"></use>
       <use x="127.246094" xlink:href="#DejaVuSans-48"></use>
      </g>
     </g>
    </g>
    <g id="ytick_5">
     <g id="line2d_27">
      <path clip-path="url(#pc485500548)" d="M 36.989063 120.052346 
L 479.570625 120.052346 
" style="fill:none;stroke:#808080;stroke-dasharray:0.5,0.825;stroke-dashoffset:0;stroke-width:0.5;"></path>
     </g>
     <g id="line2d_28"></g>
     <g id="text_15">
      <!-- 380 -->
      <defs>
       <path d="M 31.78125 34.625 
Q 24.75 34.625 20.71875 30.859375 
Q 16.703125 27.09375 16.703125 20.515625 
Q 16.703125 13.921875 20.71875 10.15625 
Q 24.75 6.390625 31.78125 6.390625 
Q 38.8125 6.390625 42.859375 10.171875 
Q 46.921875 13.96875 46.921875 20.515625 
Q 46.921875 27.09375 42.890625 30.859375 
Q 38.875 34.625 31.78125 34.625 
z
M 21.921875 38.8125 
Q 15.578125 40.375 12.03125 44.71875 
Q 8.5 49.078125 8.5 55.328125 
Q 8.5 64.0625 14.71875 69.140625 
Q 20.953125 74.21875 31.78125 74.21875 
Q 42.671875 74.21875 48.875 69.140625 
Q 55.078125 64.0625 55.078125 55.328125 
Q 55.078125 49.078125 51.53125 44.71875 
Q 48 40.375 41.703125 38.8125 
Q 48.828125 37.15625 52.796875 32.3125 
Q 56.78125 27.484375 56.78125 20.515625 
Q 56.78125 9.90625 50.3125 4.234375 
Q 43.84375 -1.421875 31.78125 -1.421875 
Q 19.734375 -1.421875 13.25 4.234375 
Q 6.78125 9.90625 6.78125 20.515625 
Q 6.78125 27.484375 10.78125 32.3125 
Q 14.796875 37.15625 21.921875 38.8125 
z
M 18.3125 54.390625 
Q 18.3125 48.734375 21.84375 45.5625 
Q 25.390625 42.390625 31.78125 42.390625 
Q 38.140625 42.390625 41.71875 45.5625 
Q 45.3125 48.734375 45.3125 54.390625 
Q 45.3125 60.0625 41.71875 63.234375 
Q 38.140625 66.40625 31.78125 66.40625 
Q 25.390625 66.40625 21.84375 63.234375 
Q 18.3125 60.0625 18.3125 54.390625 
z
" id="DejaVuSans-56"></path>
      </defs>
      <g transform="translate(16.310313 123.471643)scale(0.09 -0.09)">
       <use xlink:href="#DejaVuSans-51"></use>
       <use x="63.623047" xlink:href="#DejaVuSans-56"></use>
       <use x="127.246094" xlink:href="#DejaVuSans-48"></use>
      </g>
     </g>
    </g>
    <g id="ytick_6">
     <g id="line2d_29">
      <path clip-path="url(#pc485500548)" d="M 36.989063 91.806518 
L 479.570625 91.806518 
" style="fill:none;stroke:#808080;stroke-dasharray:0.5,0.825;stroke-dashoffset:0;stroke-width:0.5;"></path>
     </g>
     <g id="line2d_30"></g>
     <g id="text_16">
      <!-- 400 -->
      <g transform="translate(16.310313 95.225815)scale(0.09 -0.09)">
       <use xlink:href="#DejaVuSans-52"></use>
       <use x="63.623047" xlink:href="#DejaVuSans-48"></use>
       <use x="127.246094" xlink:href="#DejaVuSans-48"></use>
      </g>
     </g>
    </g>
    <g id="ytick_7">
     <g id="line2d_31">
      <path clip-path="url(#pc485500548)" d="M 36.989063 63.560691 
L 479.570625 63.560691 
" style="fill:none;stroke:#808080;stroke-dasharray:0.5,0.825;stroke-dashoffset:0;stroke-width:0.5;"></path>
     </g>
     <g id="line2d_32"></g>
     <g id="text_17">
      <!-- 420 -->
      <g transform="translate(16.310313 66.979988)scale(0.09 -0.09)">
       <use xlink:href="#DejaVuSans-52"></use>
       <use x="63.623047" xlink:href="#DejaVuSans-50"></use>
       <use x="127.246094" xlink:href="#DejaVuSans-48"></use>
      </g>
     </g>
    </g>
    <g id="ytick_8">
     <g id="line2d_33">
      <path clip-path="url(#pc485500548)" d="M 36.989063 35.314863 
L 479.570625 35.314863 
" style="fill:none;stroke:#808080;stroke-dasharray:0.5,0.825;stroke-dashoffset:0;stroke-width:0.5;"></path>
     </g>
     <g id="line2d_34"></g>
     <g id="text_18">
      <!-- 440 -->
      <g transform="translate(16.310313 38.73416)scale(0.09 -0.09)">
       <use xlink:href="#DejaVuSans-52"></use>
       <use x="63.623047" xlink:href="#DejaVuSans-52"></use>
       <use x="127.246094" xlink:href="#DejaVuSans-48"></use>
      </g>
     </g>
    </g>
    <g id="ytick_9">
     <g id="line2d_35">
      <path clip-path="url(#pc485500548)" d="M 36.989063 7.069035 
L 479.570625 7.069035 
" style="fill:none;stroke:#808080;stroke-dasharray:0.5,0.825;stroke-dashoffset:0;stroke-width:0.5;"></path>
     </g>
     <g id="line2d_36"></g>
     <g id="text_19">
      <!-- 460 -->
      <g transform="translate(16.310313 10.488332)scale(0.09 -0.09)">
       <use xlink:href="#DejaVuSans-52"></use>
       <use x="63.623047" xlink:href="#DejaVuSans-54"></use>
       <use x="127.246094" xlink:href="#DejaVuSans-48"></use>
      </g>
     </g>
    </g>
    <g id="text_20">
     <!-- membrane potential / LSB -->
     <defs>
      <path d="M 48.6875 27.296875 
Q 48.6875 37.203125 44.609375 42.84375 
Q 40.53125 48.484375 33.40625 48.484375 
Q 26.265625 48.484375 22.1875 42.84375 
Q 18.109375 37.203125 18.109375 27.296875 
Q 18.109375 17.390625 22.1875 11.75 
Q 26.265625 6.109375 33.40625 6.109375 
Q 40.53125 6.109375 44.609375 11.75 
Q 48.6875 17.390625 48.6875 27.296875 
z
M 18.109375 46.390625 
Q 20.953125 51.265625 25.265625 53.625 
Q 29.59375 56 35.59375 56 
Q 45.5625 56 51.78125 48.09375 
Q 58.015625 40.1875 58.015625 27.296875 
Q 58.015625 14.40625 51.78125 6.484375 
Q 45.5625 -1.421875 35.59375 -1.421875 
Q 29.59375 -1.421875 25.265625 0.953125 
Q 20.953125 3.328125 18.109375 8.203125 
L 18.109375 0 
L 9.078125 0 
L 9.078125 75.984375 
L 18.109375 75.984375 
z
" id="DejaVuSans-98"></path>
      <path d="M 41.109375 46.296875 
Q 39.59375 47.171875 37.8125 47.578125 
Q 36.03125 48 33.890625 48 
Q 26.265625 48 22.1875 43.046875 
Q 18.109375 38.09375 18.109375 28.8125 
L 18.109375 0 
L 9.078125 0 
L 9.078125 54.6875 
L 18.109375 54.6875 
L 18.109375 46.1875 
Q 20.953125 51.171875 25.484375 53.578125 
Q 30.03125 56 36.53125 56 
Q 37.453125 56 38.578125 55.875 
Q 39.703125 55.765625 41.0625 55.515625 
z
" id="DejaVuSans-114"></path>
      <path d="M 34.28125 27.484375 
Q 23.390625 27.484375 19.1875 25 
Q 14.984375 22.515625 14.984375 16.5 
Q 14.984375 11.71875 18.140625 8.90625 
Q 21.296875 6.109375 26.703125 6.109375 
Q 34.1875 6.109375 38.703125 11.40625 
Q 43.21875 16.703125 43.21875 25.484375 
L 43.21875 27.484375 
z
M 52.203125 31.203125 
L 52.203125 0 
L 43.21875 0 
L 43.21875 8.296875 
Q 40.140625 3.328125 35.546875 0.953125 
Q 30.953125 -1.421875 24.3125 -1.421875 
Q 15.921875 -1.421875 10.953125 3.296875 
Q 6 8.015625 6 15.921875 
Q 6 25.140625 12.171875 29.828125 
Q 18.359375 34.515625 30.609375 34.515625 
L 43.21875 34.515625 
L 43.21875 35.40625 
Q 43.21875 41.609375 39.140625 45 
Q 35.0625 48.390625 27.6875 48.390625 
Q 23 48.390625 18.546875 47.265625 
Q 14.109375 46.140625 10.015625 43.890625 
L 10.015625 52.203125 
Q 14.9375 54.109375 19.578125 55.046875 
Q 24.21875 56 28.609375 56 
Q 40.484375 56 46.34375 49.84375 
Q 52.203125 43.703125 52.203125 31.203125 
z
" id="DejaVuSans-97"></path>
      <path d="M 54.890625 33.015625 
L 54.890625 0 
L 45.90625 0 
L 45.90625 32.71875 
Q 45.90625 40.484375 42.875 44.328125 
Q 39.84375 48.1875 33.796875 48.1875 
Q 26.515625 48.1875 22.3125 43.546875 
Q 18.109375 38.921875 18.109375 30.90625 
L 18.109375 0 
L 9.078125 0 
L 9.078125 54.6875 
L 18.109375 54.6875 
L 18.109375 46.1875 
Q 21.34375 51.125 25.703125 53.5625 
Q 30.078125 56 35.796875 56 
Q 45.21875 56 50.046875 50.171875 
Q 54.890625 44.34375 54.890625 33.015625 
z
" id="DejaVuSans-110"></path>
      <path d="M 18.109375 8.203125 
L 18.109375 -20.796875 
L 9.078125 -20.796875 
L 9.078125 54.6875 
L 18.109375 54.6875 
L 18.109375 46.390625 
Q 20.953125 51.265625 25.265625 53.625 
Q 29.59375 56 35.59375 56 
Q 45.5625 56 51.78125 48.09375 
Q 58.015625 40.1875 58.015625 27.296875 
Q 58.015625 14.40625 51.78125 6.484375 
Q 45.5625 -1.421875 35.59375 -1.421875 
Q 29.59375 -1.421875 25.265625 0.953125 
Q 20.953125 3.328125 18.109375 8.203125 
z
M 48.6875 27.296875 
Q 48.6875 37.203125 44.609375 42.84375 
Q 40.53125 48.484375 33.40625 48.484375 
Q 26.265625 48.484375 22.1875 42.84375 
Q 18.109375 37.203125 18.109375 27.296875 
Q 18.109375 17.390625 22.1875 11.75 
Q 26.265625 6.109375 33.40625 6.109375 
Q 40.53125 6.109375 44.609375 11.75 
Q 48.6875 17.390625 48.6875 27.296875 
z
" id="DejaVuSans-112"></path>
      <path d="M 30.609375 48.390625 
Q 23.390625 48.390625 19.1875 42.75 
Q 14.984375 37.109375 14.984375 27.296875 
Q 14.984375 17.484375 19.15625 11.84375 
Q 23.34375 6.203125 30.609375 6.203125 
Q 37.796875 6.203125 41.984375 11.859375 
Q 46.1875 17.53125 46.1875 27.296875 
Q 46.1875 37.015625 41.984375 42.703125 
Q 37.796875 48.390625 30.609375 48.390625 
z
M 30.609375 56 
Q 42.328125 56 49.015625 48.375 
Q 55.71875 40.765625 55.71875 27.296875 
Q 55.71875 13.875 49.015625 6.21875 
Q 42.328125 -1.421875 30.609375 -1.421875 
Q 18.84375 -1.421875 12.171875 6.21875 
Q 5.515625 13.875 5.515625 27.296875 
Q 5.515625 40.765625 12.171875 48.375 
Q 18.84375 56 30.609375 56 
z
" id="DejaVuSans-111"></path>
      <path d="M 9.421875 75.984375 
L 18.40625 75.984375 
L 18.40625 0 
L 9.421875 0 
z
" id="DejaVuSans-108"></path>
      <path d="M 9.8125 72.90625 
L 19.671875 72.90625 
L 19.671875 8.296875 
L 55.171875 8.296875 
L 55.171875 0 
L 9.8125 0 
z
" id="DejaVuSans-76"></path>
      <path d="M 53.515625 70.515625 
L 53.515625 60.890625 
Q 47.90625 63.578125 42.921875 64.890625 
Q 37.9375 66.21875 33.296875 66.21875 
Q 25.25 66.21875 20.875 63.09375 
Q 16.5 59.96875 16.5 54.203125 
Q 16.5 49.359375 19.40625 46.890625 
Q 22.3125 44.4375 30.421875 42.921875 
L 36.375 41.703125 
Q 47.40625 39.59375 52.65625 34.296875 
Q 57.90625 29 57.90625 20.125 
Q 57.90625 9.515625 50.796875 4.046875 
Q 43.703125 -1.421875 29.984375 -1.421875 
Q 24.8125 -1.421875 18.96875 -0.25 
Q 13.140625 0.921875 6.890625 3.21875 
L 6.890625 13.375 
Q 12.890625 10.015625 18.65625 8.296875 
Q 24.421875 6.59375 29.984375 6.59375 
Q 38.421875 6.59375 43.015625 9.90625 
Q 47.609375 13.234375 47.609375 19.390625 
Q 47.609375 24.75 44.3125 27.78125 
Q 41.015625 30.8125 33.5 32.328125 
L 27.484375 33.5 
Q 16.453125 35.6875 11.515625 40.375 
Q 6.59375 45.0625 6.59375 53.421875 
Q 6.59375 63.09375 13.40625 68.65625 
Q 20.21875 74.21875 32.171875 74.21875 
Q 37.3125 74.21875 42.625 73.28125 
Q 47.953125 72.359375 53.515625 70.515625 
z
" id="DejaVuSans-83"></path>
      <path d="M 19.671875 34.8125 
L 19.671875 8.109375 
L 35.5 8.109375 
Q 43.453125 8.109375 47.28125 11.40625 
Q 51.125 14.703125 51.125 21.484375 
Q 51.125 28.328125 47.28125 31.5625 
Q 43.453125 34.8125 35.5 34.8125 
z
M 19.671875 64.796875 
L 19.671875 42.828125 
L 34.28125 42.828125 
Q 41.5 42.828125 45.03125 45.53125 
Q 48.578125 48.25 48.578125 53.8125 
Q 48.578125 59.328125 45.03125 62.0625 
Q 41.5 64.796875 34.28125 64.796875 
z
M 9.8125 72.90625 
L 35.015625 72.90625 
Q 46.296875 72.90625 52.390625 68.21875 
Q 58.5 63.53125 58.5 54.890625 
Q 58.5 48.1875 55.375 44.234375 
Q 52.25 40.28125 46.1875 39.3125 
Q 53.46875 37.75 57.5 32.78125 
Q 61.53125 27.828125 61.53125 20.40625 
Q 61.53125 10.640625 54.890625 5.3125 
Q 48.25 0 35.984375 0 
L 9.8125 0 
z
" id="DejaVuSans-66"></path>
     </defs>
     <g transform="translate(10.438594 184.155928)rotate(-90)scale(0.09 -0.09)">
      <use xlink:href="#DejaVuSans-109"></use>
      <use x="97.412109" xlink:href="#DejaVuSans-101"></use>
      <use x="158.935547" xlink:href="#DejaVuSans-109"></use>
      <use x="256.347656" xlink:href="#DejaVuSans-98"></use>
      <use x="319.824219" xlink:href="#DejaVuSans-114"></use>
      <use x="360.9375" xlink:href="#DejaVuSans-97"></use>
      <use x="422.216797" xlink:href="#DejaVuSans-110"></use>
      <use x="485.595703" xlink:href="#DejaVuSans-101"></use>
      <use x="547.119141" xlink:href="#DejaVuSans-32"></use>
      <use x="578.90625" xlink:href="#DejaVuSans-112"></use>
      <use x="642.382812" xlink:href="#DejaVuSans-111"></use>
      <use x="703.564453" xlink:href="#DejaVuSans-116"></use>
      <use x="742.773438" xlink:href="#DejaVuSans-101"></use>
      <use x="804.296875" xlink:href="#DejaVuSans-110"></use>
      <use x="867.675781" xlink:href="#DejaVuSans-116"></use>
      <use x="906.884766" xlink:href="#DejaVuSans-105"></use>
      <use x="934.667969" xlink:href="#DejaVuSans-97"></use>
      <use x="995.947266" xlink:href="#DejaVuSans-108"></use>
      <use x="1023.730469" xlink:href="#DejaVuSans-32"></use>
      <use x="1055.517578" xlink:href="#DejaVuSans-47"></use>
      <use x="1089.208984" xlink:href="#DejaVuSans-32"></use>
      <use x="1120.996094" xlink:href="#DejaVuSans-76"></use>
      <use x="1176.708984" xlink:href="#DejaVuSans-83"></use>
      <use x="1240.185547" xlink:href="#DejaVuSans-66"></use>
     </g>
    </g>
   </g>
   <g id="line2d_37">
    <path clip-path="url(#pc485500548)" d="M 36.989063 185.01775 
L 37.210353 182.758083 
L 37.431644 182.193167 
L 37.652935 184.664678 
L 37.874226 182.193167 
L 38.316807 182.193167 
L 38.538098 183.252386 
L 38.759389 183.605457 
L 38.98068 182.193167 
L 39.20197 182.193167 
L 39.423261 181.663559 
L 39.644552 182.193167 
L 39.865843 182.193167 
L 40.087133 177.956291 
L 40.308424 179.721659 
L 40.529715 179.368583 
L 40.751006 181.628249 
L 40.972297 177.956292 
L 41.193587 178.132828 
L 41.414878 177.673828 
L 42.07875 174.602105 
L 42.521332 176.544002 
L 42.742623 175.13172 
L 42.963914 175.484781 
L 43.185204 174.566788 
L 43.406495 174.778628 
L 43.627786 174.425562 
L 43.849077 173.366351 
L 44.070368 171.459748 
L 44.291658 173.366342 
L 44.512949 170.89484 
L 44.73424 171.177289 
L 44.955531 172.307125 
L 45.176821 171.071374 
L 45.398112 170.894836 
L 45.619403 171.742208 
L 45.840694 170.894836 
L 46.061985 169.129474 
L 46.283275 170.894836 
L 46.725857 170.894836 
L 46.947148 170.365231 
L 47.168438 172.660198 
L 47.389729 170.894836 
L 47.61102 170.894836 
L 47.832311 170.541763 
L 48.053602 170.894836 
L 48.274892 168.352702 
L 48.496183 170.894834 
L 48.717474 167.187558 
L 48.938765 169.200081 
L 49.160055 170.188685 
L 49.381346 169.129475 
L 49.602637 167.187575 
L 49.823928 166.375512 
L 50.045219 166.481435 
L 50.266509 167.36411 
L 50.4878 165.24567 
L 50.930382 165.24567 
L 51.151673 167.011013 
L 51.372963 163.833379 
L 52.036836 163.833383 
L 52.258126 162.562316 
L 52.479417 165.245651 
L 52.921999 159.243431 
L 53.14329 160.020187 
L 53.36458 159.596505 
L 53.585871 159.949577 
L 53.807162 158.184214 
L 54.028453 157.478069 
L 54.249743 155.359629 
L 54.471034 155.712721 
L 54.692325 157.125014 
L 54.913616 153.947339 
L 55.134907 152.888119 
L 55.356197 148.8278 
L 55.577488 152.535048 
L 55.798779 153.947339 
L 56.02007 152.535048 
L 56.24136 152.535048 
L 56.462651 149.710465 
L 56.683942 150.769703 
L 56.905233 150.416625 
L 57.126524 149.710465 
L 57.569105 147.415493 
L 57.790396 147.592022 
L 58.011687 145.650168 
L 58.232978 146.320969 
L 58.454268 143.708202 
L 58.675559 145.826659 
L 58.89685 143.002086 
L 59.118141 142.931474 
L 59.339431 145.120484 
L 59.560722 142.649008 
L 59.782013 142.366536 
L 60.003304 142.649007 
L 60.224595 142.295948 
L 60.445885 141.236731 
L 60.667176 136.999843 
L 60.888467 139.824426 
L 61.331048 137.705986 
L 61.552339 139.118304 
L 61.77363 136.999843 
L 61.994921 136.646769 
L 62.437502 134.598947 
L 62.658793 136.293684 
L 62.880084 136.646742 
L 63.101375 131.35074 
L 63.322665 131.633123 
L 63.765247 131.174144 
L 63.986538 131.350677 
L 64.207829 131.350677 
L 64.429119 126.760715 
L 64.65041 126.760747 
L 64.871701 127.39626 
L 65.092992 127.466889 
L 65.314283 125.701483 
L 65.535573 125.701512 
L 65.756864 125.136605 
L 65.978155 123.406534 
L 66.199446 125.701512 
L 66.420736 121.28809 
L 66.642027 122.312036 
L 67.084609 117.227795 
L 67.3059 118.781284 
L 67.748481 115.991999 
L 67.969772 115.109303 
L 68.191063 113.273385 
L 68.412353 114.756258 
L 68.633644 112.461283 
L 68.854935 112.284711 
L 69.297517 108.047864 
L 69.518807 108.754015 
L 69.740098 107.341724 
L 69.961389 104.799623 
L 70.18268 106.28252 
L 70.40397 106.812155 
L 70.625261 104.51715 
L 70.846552 103.387302 
L 71.067843 104.517134 
L 71.289134 101.869089 
L 71.510424 100.562717 
L 71.731715 97.808787 
L 71.953006 100.280267 
L 72.174297 99.397585 
L 72.395588 97.455684 
L 72.616878 96.572987 
L 72.838169 97.455684 
L 73.280751 97.455684 
L 73.502041 95.337272 
L 73.723332 91.806518 
L 73.944623 93.21881 
L 74.165914 91.806518 
L 74.387205 91.983048 
L 74.608495 91.806437 
L 74.829786 92.088964 
L 75.051077 90.394227 
L 75.272368 91.100464 
L 75.493658 89.688103 
L 75.714949 87.004707 
L 75.93624 88.981936 
L 76.378822 86.157353 
L 76.600112 86.86351 
L 76.821403 86.863464 
L 77.042694 86.686963 
L 77.263985 86.157353 
L 77.485275 84.462553 
L 77.706566 85.451243 
L 77.927857 83.509337 
L 78.370439 85.733734 
L 78.591729 84.745026 
L 78.81302 80.684745 
L 79.034311 81.638042 
L 79.476893 79.448947 
L 79.698183 78.919318 
L 79.919474 77.683605 
L 80.140765 77.683605 
L 80.362056 78.389761 
L 81.46851 74.859022 
L 82.132382 74.859022 
L 82.353673 74.576589 
L 82.574963 74.859022 
L 82.796254 74.682517 
L 83.017545 73.44673 
L 83.238836 74.435306 
L 83.460127 74.152901 
L 83.681417 73.0937 
L 83.902708 72.740612 
L 84.123999 73.446721 
L 84.34529 73.446728 
L 84.56658 72.564057 
L 84.787871 70.622148 
L 85.009162 71.187026 
L 85.230453 72.740565 
L 85.451744 69.916157 
L 85.673034 74.859011 
L 86.115616 70.622188 
L 86.336907 69.562956 
L 86.558198 73.44673 
L 86.779488 73.44673 
L 87.000779 72.740649 
L 87.22207 73.44673 
L 87.443361 70.339717 
L 87.885942 74.859022 
L 88.107233 73.093648 
L 88.328524 74.011657 
L 88.549815 73.270256 
L 88.771105 70.975249 
L 88.992396 73.623261 
L 89.213687 70.904588 
L 89.434978 72.387531 
L 89.656268 74.858973 
L 90.09885 70.622175 
L 90.320141 72.034439 
L 90.541432 69.91599 
L 90.762722 72.034439 
L 90.984013 72.387491 
L 91.205304 72.034439 
L 91.426595 71.328299 
L 91.647885 71.328292 
L 91.869176 70.622211 
L 92.090467 73.799769 
L 92.311758 69.915969 
L 92.533049 71.187013 
L 92.754339 71.328296 
L 92.97563 72.034439 
L 93.196921 72.034439 
L 93.418212 71.752013 
L 93.639502 70.622119 
L 93.860793 70.975231 
L 94.082084 70.057166 
L 94.303375 69.915962 
L 94.745956 73.799853 
L 94.967247 70.339703 
L 95.188538 73.44673 
L 95.409829 70.622135 
L 95.63112 70.445693 
L 96.073701 69.209856 
L 96.294992 69.56282 
L 96.516283 69.033317 
L 96.737573 67.232614 
L 96.958864 70.445594 
L 97.180155 70.622132 
L 97.401446 69.068647 
L 97.622737 69.209856 
L 97.844027 69.209856 
L 98.065318 67.797565 
L 98.286609 67.23268 
L 98.5079 69.209856 
L 98.72919 69.56292 
L 98.950481 69.209856 
L 99.393063 66.385227 
L 99.614354 67.444543 
L 99.835644 65.326047 
L 100.056935 66.385274 
L 100.278226 64.61993 
L 100.499517 69.033347 
L 100.720808 69.209834 
L 100.942098 67.656345 
L 101.163389 67.797528 
L 101.38468 65.149515 
L 101.605971 66.385274 
L 101.827261 63.560691 
L 102.048552 65.679159 
L 102.269843 63.560691 
L 102.491134 63.560691 
L 102.712425 65.325987 
L 102.933715 65.679142 
L 103.155006 65.326093 
L 103.376297 64.40816 
L 103.597588 66.385274 
L 103.818878 66.032218 
L 104.040169 63.560691 
L 104.26146 66.102833 
L 104.482751 65.149545 
L 104.704042 64.972975 
L 104.925332 61.30092 
L 105.146623 63.560703 
L 105.367914 63.737253 
L 105.589205 64.266792 
L 105.810495 63.984387 
L 106.031786 62.854511 
L 106.253077 64.090296 
L 106.474368 64.266994 
L 106.695659 62.854527 
L 106.916949 63.560691 
L 107.13824 63.560691 
L 107.359531 64.266837 
L 107.580822 63.984371 
L 107.802113 61.795311 
L 108.023403 63.384091 
L 108.244694 63.560691 
L 108.465985 63.560691 
L 108.687276 62.148436 
L 108.908566 63.560691 
L 109.351148 63.560691 
L 109.572439 61.089147 
L 110.01502 63.560691 
L 110.236311 64.090326 
L 110.457602 62.854568 
L 110.678893 62.67808 
L 111.121474 64.090284 
L 111.342765 63.560691 
L 111.564056 66.032162 
L 111.785347 65.255442 
L 112.006637 68.150432 
L 112.227928 60.736271 
L 112.449219 64.831733 
L 112.67051 60.736241 
L 112.8918 63.207582 
L 113.113091 61.08915 
L 113.334382 63.560691 
L 113.555673 62.501427 
L 113.776964 62.501332 
L 113.998254 60.736065 
L 114.219545 62.148377 
L 114.440836 58.617678 
L 114.662127 58.970828 
L 114.883418 60.03011 
L 115.104708 59.888681 
L 115.325999 57.911525 
L 115.54729 59.14729 
L 115.768581 57.911602 
L 115.989871 58.052765 
L 116.211162 57.911525 
L 116.432453 60.736108 
L 116.875035 63.030939 
L 117.096325 60.736108 
L 117.317616 59.676989 
L 117.538907 61.583456 
L 117.760198 58.794272 
L 117.981488 60.736108 
L 118.202779 61.618793 
L 118.42407 61.301022 
L 118.645361 60.736108 
L 118.866652 57.911525 
L 119.087942 58.264489 
L 119.309233 60.171096 
L 119.530524 58.794326 
L 119.751815 60.73609 
L 120.194396 57.911525 
L 120.858269 57.911525 
L 121.079559 58.264626 
L 121.30085 56.852347 
L 121.522141 59.323679 
L 121.743432 56.499243 
L 121.964723 57.911525 
L 122.186013 57.381948 
L 122.407304 57.558436 
L 122.628595 55.93433 
L 122.849886 57.911525 
L 123.071176 55.440176 
L 123.292467 57.911468 
L 123.513758 52.544721 
L 123.735049 52.262421 
L 123.95634 56.322726 
L 124.17763 53.957061 
L 124.398921 54.910449 
L 124.620212 52.26236 
L 124.841503 54.204284 
L 125.062793 53.957096 
L 125.284084 53.321597 
L 125.505375 53.67473 
L 125.726666 53.321549 
L 125.947957 53.957075 
L 126.169247 52.615555 
L 126.390538 53.674702 
L 126.611829 52.615504 
L 126.83312 53.95705 
L 127.05441 53.498064 
L 127.275701 50.850263 
L 127.496992 50.00272 
L 127.718283 50.850218 
L 127.939574 54.557329 
L 128.160864 54.380891 
L 128.382155 52.26236 
L 128.603446 51.909349 
L 128.824737 53.497954 
L 129.267318 50.850064 
L 129.488609 53.674631 
L 129.7099 52.26236 
L 129.931191 54.380911 
L 130.152481 52.26236 
L 130.373772 52.615559 
L 130.595063 52.26236 
L 130.816354 52.26247 
L 131.037645 56.357994 
L 131.258935 52.26243 
L 131.480226 52.438942 
L 131.922808 53.498084 
L 132.144098 54.027706 
L 132.365389 53.321446 
L 132.58668 51.69743 
L 132.807971 51.909247 
L 133.029262 51.556248 
L 133.250552 52.26236 
L 133.471843 51.414996 
L 133.693134 52.26236 
L 134.135715 52.26236 
L 134.357006 50.850068 
L 134.578297 51.909333 
L 135.020879 49.72013 
L 135.242169 49.437777 
L 135.46346 47.143029 
L 135.684751 49.790876 
L 135.906042 47.884263 
L 136.127333 49.437777 
L 136.348623 47.495913 
L 136.569914 46.613194 
L 136.791205 46.613194 
L 137.233786 47.672382 
L 137.455077 46.613194 
L 137.897659 46.613194 
L 138.11895 47.496079 
L 138.34024 43.788627 
L 138.561531 45.059709 
L 138.782822 40.964044 
L 139.004113 41.317012 
L 139.225403 44.635899 
L 139.446694 45.907287 
L 139.667985 41.317158 
L 139.889276 43.788611 
L 140.331857 40.964029 
L 140.553148 42.376208 
L 140.774439 39.90493 
L 140.99573 40.964029 
L 141.21702 40.964029 
L 141.438311 40.257875 
L 141.659602 41.846553 
L 141.880893 38.704366 
L 142.102184 39.375133 
L 142.323474 39.551737 
L 142.544765 39.551737 
L 142.766056 36.727255 
L 142.987347 39.90478 
L 143.208638 41.317293 
L 143.429928 39.975447 
L 143.651219 39.551737 
L 144.093801 39.55176 
L 144.315091 38.845576 
L 144.536382 38.845512 
L 144.757673 39.198815 
L 144.978964 38.84551 
L 145.200255 38.139446 
L 145.421545 39.551737 
L 145.642836 39.551737 
L 145.864127 36.727226 
L 146.085418 35.738622 
L 146.306708 33.90265 
L 146.527999 38.139446 
L 146.74929 35.879775 
L 147.191872 34.961825 
L 147.413162 35.844451 
L 147.634453 34.467488 
L 148.077035 33.902607 
L 148.298325 34.785223 
L 148.519616 31.360399 
L 148.740907 31.254662 
L 148.962198 32.49028 
L 149.183489 32.13725 
L 149.404779 30.795562 
L 149.62607 32.49028 
L 149.847361 32.490196 
L 150.068652 32.348999 
L 150.289942 32.490372 
L 150.511233 32.313685 
L 150.732524 33.902531 
L 150.953815 31.501665 
L 151.175106 32.137212 
L 151.617687 30.371781 
L 151.838978 32.490324 
L 152.060269 29.665698 
L 152.28156 28.783017 
L 152.50285 31.784035 
L 152.724141 31.219238 
L 152.945432 28.606544 
L 153.166723 29.842183 
L 153.388013 29.665696 
L 153.830595 29.665672 
L 154.051886 29.489222 
L 154.273177 26.841115 
L 154.494467 26.841115 
L 154.715758 27.194227 
L 154.937049 26.664605 
L 155.15834 26.558716 
L 155.600921 24.72275 
L 155.822212 22.780647 
L 156.043503 22.886769 
L 156.264794 22.427789 
L 156.486084 22.251147 
L 156.707375 18.720577 
L 156.928666 19.214787 
L 157.149957 19.073273 
L 157.371247 21.191886 
L 157.592538 18.367366 
L 157.813829 18.367383 
L 158.03512 14.660006 
L 158.256411 18.367366 
L 158.477701 17.519974 
L 158.698992 20.485665 
L 158.920283 15.542784 
L 159.362865 146.886168 
L 159.805446 201.25881 
L 160.248028 221.313665 
L 160.690609 227.739643 
L 161.133191 229.928542 
L 161.354482 231.623243 
L 161.575772 227.386491 
L 161.797063 227.951377 
L 162.018354 232.859123 
L 162.239645 230.5643 
L 162.682226 231.90585 
L 162.903517 231.623366 
L 163.124808 228.798783 
L 163.346099 229.151761 
L 163.567389 231.623366 
L 163.78868 230.916971 
L 165.116425 210.580263 
L 165.337716 210.438936 
L 165.559006 204.789829 
L 165.780297 202.318313 
L 166.001588 201.965246 
L 166.222879 197.022184 
L 166.44417 195.257002 
L 166.886751 189.9608 
L 168.214496 176.3675 
L 168.878368 169.482515 
L 169.32095 167.505302 
L 169.54224 164.892454 
L 169.763531 164.186475 
L 170.648694 153.241269 
L 171.091276 151.122757 
L 171.976439 140.106912 
L 172.19773 140.707299 
L 172.640311 136.999843 
L 172.861602 129.938387 
L 173.082893 128.879071 
L 173.525475 125.701512 
L 173.746765 125.348386 
L 174.410638 120.052346 
L 174.853219 117.580948 
L 175.295801 111.578598 
L 175.517092 109.813226 
L 175.738382 112.461605 
L 175.959673 111.578179 
L 176.402255 104.517186 
L 176.623545 103.458243 
L 176.844836 103.10485 
L 177.066127 100.633302 
L 177.287418 100.280267 
L 177.508709 96.572886 
L 177.729999 95.478503 
L 177.95129 92.865804 
L 178.393872 90.747172 
L 178.836453 85.274585 
L 179.057744 85.450952 
L 179.279035 84.568513 
L 179.942907 77.683755 
L 180.385489 74.859096 
L 180.60678 77.330809 
L 180.82807 74.859022 
L 181.049361 70.481082 
L 181.270652 70.975347 
L 181.713233 69.209856 
L 181.934524 69.210189 
L 182.155815 64.973283 
L 182.377106 66.385274 
L 182.598397 64.619991 
L 182.819687 64.408 
L 183.040978 63.20752 
L 183.262269 63.207654 
L 183.48356 60.736108 
L 183.70485 60.736108 
L 184.147432 56.322627 
L 184.368723 55.086942 
L 184.590014 52.438787 
L 184.811304 55.086942 
L 185.032595 51.909531 
L 185.253886 52.544805 
L 185.475177 51.203255 
L 185.696467 52.26236 
L 186.802921 45.377541 
L 187.024212 45.483403 
L 187.245503 43.788611 
L 187.688085 43.788611 
L 187.909375 40.964055 
L 188.130666 40.964029 
L 188.351957 43.435652 
L 188.573248 39.410454 
L 188.794538 40.61092 
L 189.015829 40.964029 
L 189.23712 40.964029 
L 189.458411 38.139446 
L 189.679702 37.433565 
L 189.900992 37.4338 
L 190.122283 36.374109 
L 190.343574 38.139446 
L 190.564865 36.020728 
L 190.786155 35.138254 
L 191.007446 35.314829 
L 191.228737 35.314863 
L 191.450028 33.902572 
L 191.671319 35.138347 
L 191.892609 33.055323 
L 192.1139 32.843611 
L 192.335191 31.077653 
L 192.556482 32.313649 
L 192.777773 31.925272 
L 192.999063 30.195159 
L 193.220354 31.784039 
L 193.441645 34.255813 
L 193.662936 31.360478 
L 194.326808 29.665698 
L 194.548099 29.665698 
L 194.76939 32.313701 
L 194.99068 32.490135 
L 195.211971 29.806834 
L 195.433262 29.665698 
L 195.654553 27.194206 
L 195.875843 29.3125 
L 196.097134 29.665698 
L 196.318425 30.724971 
L 196.761007 26.841722 
L 196.982297 29.665698 
L 197.203588 29.665698 
L 197.424879 30.195193 
L 197.64617 29.665698 
L 197.86746 28.535997 
L 198.088751 28.606429 
L 198.310042 28.96005 
L 198.531333 28.253359 
L 198.752624 28.253406 
L 198.973914 26.841217 
L 199.195205 29.136421 
L 199.637787 27.194265 
L 199.859078 27.547569 
L 200.080368 26.487924 
L 200.301659 26.558695 
L 200.52295 26.488223 
L 200.965531 27.370731 
L 201.408113 28.606765 
L 201.629404 26.841115 
L 201.850695 28.429897 
L 202.293276 26.841115 
L 202.957148 26.840852 
L 203.178439 27.01757 
L 203.39973 28.606513 
L 203.842312 28.959842 
L 204.063602 28.782986 
L 204.284893 27.547347 
L 204.506184 28.959554 
L 204.727475 28.959459 
L 204.948765 29.136111 
L 205.170056 29.665698 
L 205.391347 29.665698 
L 205.833929 31.077989 
L 206.055219 29.666111 
L 206.27651 29.807003 
L 206.497801 29.665686 
L 206.719092 28.606734 
L 207.382964 33.196298 
L 207.604255 29.665698 
L 207.825546 32.49028 
L 208.046836 32.313743 
L 208.268127 31.784251 
L 208.489418 33.372865 
L 208.710709 32.207871 
L 208.932 33.902572 
L 209.15329 33.549338 
L 209.374581 34.961701 
L 209.595872 33.055188 
L 209.817163 32.49028 
L 210.038453 35.314971 
L 210.259744 35.032406 
L 210.481035 35.314822 
L 210.702326 35.314863 
L 210.923617 33.196314 
L 211.144907 35.314863 
L 211.366198 35.667656 
L 211.587489 35.314863 
L 211.80878 34.608713 
L 212.03007 35.314863 
L 212.472652 31.254728 
L 212.915234 35.03243 
L 213.136524 34.608455 
L 213.579106 32.490441 
L 213.800397 27.405681 
L 214.021687 31.077989 
L 214.464269 30.230832 
L 214.68556 28.4298 
L 214.906851 28.606559 
L 215.128141 28.429497 
L 215.349432 29.665698 
L 215.792014 29.665698 
L 216.013305 26.841115 
L 216.234595 28.536155 
L 216.677177 25.428512 
L 217.119758 28.253406 
L 217.56234 29.665308 
L 217.783631 24.581262 
L 218.004922 24.016651 
L 218.226212 26.487909 
L 218.447503 26.135262 
L 218.668794 23.451527 
L 219.111375 25.428823 
L 219.553957 24.016532 
L 219.775248 24.722623 
L 219.996539 24.369289 
L 220.217829 24.369478 
L 220.43912 23.169183 
L 220.660411 19.426263 
L 220.881702 18.720651 
L 221.102992 21.191925 
L 221.324283 18.508554 
L 221.545574 21.191312 
L 221.766865 18.720332 
L 221.988156 18.367366 
L 222.209446 28.076007 
L 222.652028 154.830034 
L 223.09461 206.377917 
L 223.3159 216.794501 
L 223.537191 221.737326 
L 223.758482 223.997038 
L 223.979773 228.798783 
L 224.201063 230.564109 
L 224.422354 227.562925 
L 224.643645 229.646297 
L 224.864936 232.859044 
L 225.086227 233.035499 
L 225.307517 232.752963 
L 225.528808 227.386827 
L 225.750099 227.739516 
L 225.97139 229.504745 
L 226.19268 230.211074 
L 226.413971 230.211074 
L 226.635262 233.035657 
L 226.856553 233.035657 
L 227.077844 232.329423 
L 227.299134 226.68031 
L 227.520425 226.503729 
L 227.741716 223.855498 
L 227.963007 222.866921 
L 228.405588 216.440968 
L 228.626879 216.087999 
L 228.84817 210.721515 
L 229.069461 210.439064 
L 229.290751 205.495399 
L 229.512042 204.789829 
L 229.733333 204.789829 
L 229.954624 202.31844 
L 230.175915 203.024281 
L 230.839787 192.785197 
L 231.061078 192.079207 
L 231.282368 190.101913 
L 231.503659 189.430831 
L 231.72495 190.666502 
L 231.946241 187.136237 
L 232.167532 185.582817 
L 232.388822 180.957291 
L 232.610113 180.780876 
L 232.831404 179.509859 
L 233.273985 174.248684 
L 233.495276 173.719419 
L 233.716567 170.894836 
L 233.937858 171.600681 
L 234.159149 169.482545 
L 234.380439 170.188637 
L 234.60173 167.364137 
L 234.823021 166.65771 
L 235.044312 165.24567 
L 235.265602 164.892703 
L 235.486893 161.997452 
L 235.929475 159.243516 
L 236.150766 159.596379 
L 236.593347 153.947339 
L 237.035929 150.557951 
L 237.25722 148.827528 
L 237.47851 146.179798 
L 237.699801 146.356127 
L 238.142383 144.414438 
L 238.363673 141.942945 
L 238.584964 141.766456 
L 238.806255 140.389393 
L 239.027546 137.882544 
L 239.248837 136.999843 
L 239.470127 137.882291 
L 239.912709 133.82233 
L 240.134 135.587127 
L 240.35529 131.774283 
L 240.576581 129.938402 
L 240.797872 130.115046 
L 241.019163 129.585402 
L 241.240454 126.972578 
L 241.461744 126.054645 
L 241.683035 126.407046 
L 242.125617 124.28922 
L 242.346907 124.995254 
L 242.568198 122.347219 
L 242.789489 122.170813 
L 243.01078 119.910941 
L 243.232071 120.052346 
L 243.674652 117.227656 
L 243.895943 114.544349 
L 244.338525 117.227763 
L 244.781106 114.049801 
L 245.002397 114.050168 
L 245.223688 110.872676 
L 245.444978 109.883755 
L 245.666269 106.812238 
L 245.88756 108.047877 
L 246.108851 107.871225 
L 246.330142 107.059196 
L 246.551432 106.988793 
L 246.772723 106.282461 
L 246.994014 106.105849 
L 247.215305 103.10485 
L 247.657886 107.341433 
L 248.100468 100.280267 
L 248.321759 97.808823 
L 248.543049 97.455684 
L 248.76434 100.421709 
L 248.985631 101.69268 
L 249.206922 98.515073 
L 249.428213 98.867465 
L 249.649503 96.749496 
L 249.870794 96.74956 
L 250.092085 96.043393 
L 250.313376 96.043393 
L 250.534666 95.619692 
L 250.755957 92.512516 
L 250.977248 92.336545 
L 251.198539 91.806588 
L 251.64112 97.455179 
L 251.862411 91.806518 
L 252.083702 91.52405 
L 252.304993 91.45332 
L 252.526283 91.100673 
L 252.747574 90.041085 
L 252.968865 91.806518 
L 253.190156 88.805974 
L 253.411447 89.687983 
L 253.632737 88.099236 
L 253.854028 87.852237 
L 254.075319 86.157353 
L 254.29661 89.335054 
L 254.5179 86.863219 
L 254.739191 86.722183 
L 254.960482 90.040935 
L 255.181773 86.157353 
L 255.403064 86.439993 
L 255.624354 88.981624 
L 255.845645 86.510311 
L 256.066936 86.157353 
L 256.952099 86.157353 
L 257.17339 86.863482 
L 257.837262 85.098054 
L 258.058553 87.710615 
L 258.279844 85.098151 
L 258.501135 86.157353 
L 258.722425 84.745175 
L 258.943716 86.157353 
L 259.607588 86.157353 
L 259.828879 89.864701 
L 260.05017 85.451383 
L 260.271461 86.157353 
L 260.492752 84.180179 
L 260.714042 84.568452 
L 260.935333 83.333331 
L 261.156624 83.33277 
L 261.377915 84.462613 
L 261.599205 84.215529 
L 261.820496 85.450934 
L 262.041787 80.861301 
L 262.263078 81.073057 
L 262.484369 84.568654 
L 262.705659 84.744809 
L 263.148241 80.508187 
L 263.369532 83.33277 
L 263.590823 82.626688 
L 263.812113 83.756505 
L 264.033404 83.68596 
L 264.254695 83.33277 
L 264.697276 85.451131 
L 264.918567 86.157353 
L 265.361149 84.391771 
L 265.58244 86.157353 
L 265.80373 85.804173 
L 266.025021 88.628881 
L 266.246312 86.157353 
L 266.467603 86.298475 
L 266.688893 86.157353 
L 266.910184 88.275546 
L 267.131475 86.157353 
L 267.352766 81.21386 
L 267.574057 85.804283 
L 267.795347 85.097908 
L 268.016638 86.157353 
L 268.237929 85.62781 
L 268.45922 86.157353 
L 268.68051 86.157353 
L 268.901801 87.851948 
L 269.123092 87.216599 
L 269.344383 86.157353 
L 269.565674 87.392997 
L 269.786964 86.722367 
L 270.008255 89.158434 
L 270.229546 84.745524 
L 270.450837 88.699585 
L 270.672127 88.981915 
L 270.893418 86.157353 
L 271.114709 86.157353 
L 271.336 87.145982 
L 271.557291 86.157353 
L 271.778581 84.392274 
L 271.999872 84.039127 
L 272.221163 84.038912 
L 272.442454 82.626704 
L 272.663745 82.450222 
L 272.885035 82.626588 
L 273.106326 83.897751 
L 273.327617 83.686237 
L 273.548908 85.804117 
L 274.21278 77.68404 
L 274.434071 80.508187 
L 274.655362 80.225673 
L 274.876652 80.508187 
L 275.097943 79.095896 
L 275.319234 79.625528 
L 275.540525 77.401316 
L 275.761815 79.095896 
L 275.983106 75.565208 
L 276.204397 75.91809 
L 276.425688 75.988839 
L 276.868269 73.799792 
L 277.08956 76.094904 
L 277.532142 69.563033 
L 277.753432 67.797756 
L 277.974723 68.079824 
L 278.196014 69.209764 
L 278.859886 68.221234 
L 279.081177 68.856847 
L 279.302468 65.502644 
L 279.523759 64.972975 
L 279.74505 65.679197 
L 279.96634 65.679117 
L 280.187631 65.502487 
L 280.408922 63.913872 
L 280.630213 64.408146 
L 280.851503 64.61995 
L 281.294085 60.736108 
L 281.736667 63.560598 
L 281.957957 60.383275 
L 282.179248 59.606258 
L 282.400539 60.912674 
L 282.84312 57.911525 
L 283.064411 59.888684 
L 283.285702 56.499234 
L 283.506993 57.911525 
L 283.728284 57.028859 
L 283.949574 57.06411 
L 284.392156 53.321815 
L 284.613447 53.498151 
L 284.834738 54.239776 
L 285.056028 52.26236 
L 285.277319 52.26236 
L 285.49861 52.544947 
L 285.719901 55.086575 
L 286.162482 49.790875 
L 286.383773 52.26236 
L 286.605064 50.850068 
L 286.826355 50.320497 
L 287.047645 50.850224 
L 287.490227 48.025282 
L 287.711518 49.967372 
L 287.932808 49.79072 
L 288.37539 46.613194 
L 288.596681 46.613194 
L 288.817972 48.025486 
L 289.039262 47.884172 
L 289.260553 48.02548 
L 289.481844 47.848831 
L 289.703135 46.330772 
L 289.924425 48.908351 
L 290.145716 48.378613 
L 290.588298 46.048338 
L 290.809589 46.613194 
L 291.25217 43.788611 
L 291.473461 44.918508 
L 291.694752 44.671337 
L 291.916043 40.964029 
L 292.358624 42.093859 
L 292.579915 41.140469 
L 292.801206 40.964029 
L 293.022496 39.692959 
L 293.243787 40.963964 
L 293.465078 40.61066 
L 293.90766 38.704321 
L 294.12895 36.021177 
L 294.350241 36.197674 
L 294.571532 38.139497 
L 295.014113 34.608854 
L 295.235404 35.667783 
L 295.456695 32.49028 
L 295.677986 32.49028 
L 295.899277 32.137067 
L 296.120567 31.077989 
L 296.341858 32.490134 
L 296.563149 29.524549 
L 296.78444 29.665873 
L 297.00573 29.665698 
L 297.227021 30.512869 
L 297.448312 29.665698 
L 297.669603 27.194152 
L 297.890894 26.841115 
L 298.112184 28.818295 
L 298.333475 27.900135 
L 298.554766 27.547244 
L 298.776057 25.9583 
L 298.997347 26.841115 
L 299.218638 26.664437 
L 299.439929 24.72254 
L 299.66122 27.194476 
L 299.882511 24.581599 
L 300.103801 24.546126 
L 300.325092 25.428944 
L 300.546383 27.82988 
L 300.767674 26.841115 
L 300.988965 27.194302 
L 301.210255 24.722366 
L 301.874128 25.07597 
L 302.095418 25.42903 
L 302.316709 26.135038 
L 302.538 26.135107 
L 302.759291 25.252403 
L 302.980582 23.663203 
L 303.201872 24.016532 
L 303.423163 22.957215 
L 303.644454 23.839881 
L 303.865745 24.016532 
L 304.087035 25.005239 
L 304.308326 24.016532 
L 304.529617 25.075876 
L 304.750908 22.039412 
L 304.972199 24.016532 
L 305.193489 24.016532 
L 305.636071 22.321898 
L 305.857362 23.133989 
L 306.078652 23.310312 
L 306.299943 23.133808 
L 306.521234 24.016532 
L 306.742525 24.016532 
L 306.963816 22.957335 
L 307.406397 26.276324 
L 307.848979 24.016563 
L 308.07027 24.016532 
L 308.29156 26.840757 
L 308.512851 21.897963 
L 308.734142 24.016532 
L 308.955433 24.016532 
L 309.398014 25.781858 
L 309.619305 25.428553 
L 310.283177 23.133779 
L 310.94705 27.194211 
L 311.16834 24.016532 
L 311.610922 24.016532 
L 311.832213 25.428763 
L 312.053504 24.016532 
L 312.274794 26.276284 
L 312.496085 26.488049 
L 312.717376 27.547036 
L 312.938667 26.841115 
L 313.602539 26.841115 
L 313.82383 25.958276 
L 314.045121 26.558384 
L 314.266411 26.135388 
L 314.708993 28.959402 
L 314.930284 25.711449 
L 315.151575 24.72223 
L 315.594156 28.112376 
L 315.815447 24.0168 
L 316.258028 27.547738 
L 316.479319 26.841115 
L 316.70061 27.194083 
L 316.921901 26.841115 
L 317.364482 28.959588 
L 317.807064 25.604801 
L 318.028355 26.841115 
L 318.470936 25.075914 
L 318.692227 27.723773 
L 318.913518 25.429003 
L 319.134809 29.383492 
L 319.356099 28.253345 
L 319.57739 24.3692 
L 319.798681 28.818037 
L 320.019972 28.076923 
L 320.241263 29.31285 
L 320.462553 28.606451 
L 320.905135 30.018443 
L 321.126426 28.959461 
L 321.347716 30.724783 
L 321.569007 29.665698 
L 321.790298 30.195502 
L 322.011589 30.371755 
L 322.23288 29.665698 
L 322.675461 32.49028 
L 323.339333 32.490282 
L 323.781915 34.608421 
L 324.003206 35.314863 
L 324.445787 32.666948 
L 324.888369 36.021335 
L 325.10966 36.727276 
L 325.33095 34.432085 
L 325.773532 36.303334 
L 325.994823 35.667863 
L 326.216114 36.021074 
L 326.658695 40.681678 
L 326.879986 38.139204 
L 327.101277 38.493084 
L 327.322567 37.574484 
L 327.543858 38.139446 
L 327.98644 36.373929 
L 328.207731 36.444588 
L 328.429021 35.844545 
L 328.650312 36.72745 
L 329.092894 35.314863 
L 329.314185 37.080478 
L 329.535475 35.314863 
L 329.978057 35.314863 
L 330.199348 37.786399 
L 330.420638 33.902331 
L 330.86322 36.726935 
L 331.084511 34.255118 
L 331.305802 35.314863 
L 331.527092 35.173636 
L 331.748383 34.255852 
L 331.969674 34.255738 
L 332.190965 34.608689 
L 332.412255 35.314863 
L 333.076128 35.314863 
L 333.297419 31.925037 
L 333.74 32.843567 
L 333.961291 35.314388 
L 334.182582 35.314863 
L 334.403872 33.902572 
L 334.625163 34.0793 
L 334.846454 33.055308 
L 335.067745 35.314863 
L 335.289036 35.314863 
L 335.510326 33.549659 
L 335.731617 36.727154 
L 335.952908 36.374047 
L 336.174199 35.314863 
L 336.39549 35.844587 
L 336.61678 37.292169 
L 336.838071 35.314863 
L 337.280653 37.78592 
L 337.501943 35.879888 
L 337.723234 35.668091 
L 337.944525 40.96305 
L 338.387107 35.314863 
L 338.608397 35.668379 
L 338.829688 38.845657 
L 339.49356 37.080009 
L 339.714851 38.139696 
L 339.936142 35.314863 
L 340.378724 37.080057 
L 340.600014 35.314863 
L 340.821305 37.150751 
L 341.042596 36.020895 
L 341.263887 36.903888 
L 341.485178 36.72699 
L 341.706468 37.998126 
L 341.927759 38.138238 
L 342.14905 35.668139 
L 342.370341 39.551737 
L 342.591631 35.668438 
L 342.812922 35.667933 
L 343.034213 37.256753 
L 343.255504 37.857222 
L 343.698085 35.314863 
L 343.919376 36.197587 
L 344.140667 35.879634 
L 344.361958 35.314863 
L 344.804539 37.081777 
L 345.02583 34.749874 
L 345.247121 35.314863 
L 345.468412 38.139681 
L 345.689702 35.597397 
L 345.910993 36.726719 
L 346.132284 35.314863 
L 346.574865 36.585493 
L 347.017447 34.255607 
L 347.460029 37.433237 
L 347.90261 32.843495 
L 348.123901 34.961607 
L 348.345192 34.467525 
L 348.566483 33.196493 
L 348.787773 33.902572 
L 349.009064 35.314678 
L 349.451646 31.078254 
L 349.672936 31.254536 
L 349.894227 32.772649 
L 350.115518 32.136887 
L 350.336809 33.902289 
L 350.5581 31.431264 
L 350.77939 31.360358 
L 351.221972 32.489786 
L 351.443263 30.548331 
L 351.664553 30.795384 
L 352.107135 29.666312 
L 352.328426 30.018435 
L 352.549717 31.360556 
L 352.771007 30.196082 
L 352.992298 35.314282 
L 353.65617 29.842274 
L 353.877461 32.137257 
L 354.098752 32.91412 
L 354.320043 31.784006 
L 354.541334 34.432109 
L 354.762624 31.78439 
L 354.983915 31.784007 
L 355.205206 33.19652 
L 355.647787 29.665698 
L 355.869078 30.51318 
L 356.090369 30.372091 
L 356.31166 32.313941 
L 356.532951 31.077989 
L 356.754241 32.348868 
L 356.975532 32.49028 
L 357.196823 35.138324 
L 357.418114 33.054874 
L 357.639405 32.49028 
L 358.081986 33.549115 
L 358.303277 32.490141 
L 358.524568 32.49028 
L 358.967149 33.902572 
L 359.18844 35.314863 
L 359.409731 34.432171 
L 359.631022 35.314863 
L 359.852312 39.02236 
L 360.073603 35.314863 
L 360.294894 34.431501 
L 360.516185 36.72699 
L 360.737475 37.857201 
L 360.958766 35.314863 
L 361.180057 35.668 
L 361.401348 35.314863 
L 361.843929 40.257863 
L 362.06522 37.609999 
L 362.286511 37.433295 
L 362.507802 38.139446 
L 362.729092 37.433156 
L 362.950383 37.96258 
L 363.392965 34.326385 
L 363.614256 36.727154 
L 363.835546 36.550725 
L 364.056837 35.314928 
L 364.278128 35.032841 
L 364.499419 35.314863 
L 364.72071 36.550706 
L 364.942 34.185217 
L 365.163291 35.314863 
L 365.605873 35.314863 
L 366.048454 32.49028 
L 366.269745 34.608693 
L 366.491036 34.961428 
L 366.712327 33.054911 
L 366.933617 34.432261 
L 367.154908 31.430903 
L 367.376199 32.137181 
L 367.81878 29.665698 
L 368.040071 32.490245 
L 368.261362 29.947797 
L 368.482653 29.666038 
L 368.703944 27.547027 
L 368.925234 29.665698 
L 369.146525 28.394614 
L 369.367816 30.01869 
L 369.589107 30.548221 
L 369.810398 28.253598 
L 370.031688 28.253372 
L 370.47427 26.135771 
L 370.695561 25.428669 
L 370.916851 26.700008 
L 371.138142 26.134593 
L 371.802015 29.101364 
L 372.023305 24.016557 
L 372.465887 27.405688 
L 372.687178 24.722562 
L 372.908468 26.135371 
L 373.129759 25.781819 
L 373.35105 26.27635 
L 373.572341 25.95862 
L 373.793632 24.016532 
L 374.014922 24.546051 
L 374.236213 26.841115 
L 374.457504 24.016532 
L 374.678795 24.016532 
L 374.900085 23.133915 
L 375.121376 24.016532 
L 375.342667 22.780731 
L 375.563958 22.604493 
L 375.785249 21.050498 
L 376.006539 21.191996 
L 376.22783 23.310981 
L 376.449121 23.310041 
L 376.670412 23.592752 
L 377.112993 19.426721 
L 377.334284 19.779943 
L 377.776866 17.661258 
L 377.998156 18.367366 
L 378.219447 18.367366 
L 378.662029 16.249515 
L 379.325901 172.306395 
L 379.547192 199.141051 
L 379.989773 218.347742 
L 380.211064 224.209074 
L 381.096227 233.035657 
L 381.317518 231.623052 
L 381.538809 231.976439 
L 381.7601 229.363705 
L 381.98139 229.50433 
L 382.202681 231.976461 
L 382.423972 232.859008 
L 382.645263 231.905696 
L 382.866554 233.035657 
L 383.087844 233.03609 
L 383.309135 235.577483 
L 383.530426 235.860132 
L 383.973007 228.445956 
L 384.194298 227.386491 
L 384.415589 223.856226 
L 384.63688 223.502735 
L 384.858171 218.912743 
L 385.079461 220.324711 
L 385.300752 216.794179 
L 385.522043 216.61774 
L 385.743334 214.322818 
L 385.964625 210.438995 
L 386.185915 212.557446 
L 386.407206 212.557102 
L 386.849788 205.072286 
L 387.292369 204.436324 
L 387.734951 199.493317 
L 387.956242 198.787479 
L 388.177532 197.375508 
L 389.062695 188.901732 
L 389.505277 187.312782 
L 389.726568 184.664729 
L 389.947859 184.310794 
L 390.169149 181.628362 
L 390.39044 176.897181 
L 390.611731 176.544616 
L 390.833022 179.085972 
L 391.054312 177.956167 
L 391.496894 173.01329 
L 391.718185 173.860805 
L 391.939476 170.541622 
L 392.160766 170.894836 
L 392.382057 167.364069 
L 392.603348 166.657904 
L 392.824639 166.658184 
L 393.26722 164.539388 
L 393.488511 162.844665 
L 393.709802 159.596505 
L 393.931093 159.596505 
L 394.152383 156.772291 
L 394.373674 158.184214 
L 394.594965 153.947895 
L 394.816256 158.007551 
L 395.037547 153.38243 
L 395.258837 154.300962 
L 395.701419 153.417717 
L 395.92271 152.252231 
L 396.144 151.829237 
L 396.365291 149.710447 
L 396.586582 151.122757 
L 396.807873 149.993254 
L 397.029164 147.238892 
L 397.250454 148.298174 
L 397.471745 145.473591 
L 397.693036 145.191116 
L 397.914327 144.23798 
L 398.135617 142.649788 
L 398.356908 142.931581 
L 398.578199 142.649207 
L 398.79949 140.001117 
L 399.020781 141.942732 
L 399.463362 138.059213 
L 399.684653 138.765121 
L 399.905944 136.999843 
L 400.127235 138.412221 
L 400.569816 135.058037 
L 400.791107 134.527856 
L 401.233688 130.291468 
L 401.67627 131.350677 
L 402.118852 125.702669 
L 402.340142 126.937231 
L 402.561433 129.091221 
L 403.004015 123.229932 
L 403.225305 122.876929 
L 403.889178 120.052346 
L 404.110469 120.052346 
L 404.331759 120.61717 
L 404.55305 118.992884 
L 404.774341 115.109585 
L 404.995632 115.991816 
L 405.216922 119.204704 
L 405.438213 115.815472 
L 405.880795 113.132103 
L 406.102086 114.402862 
L 406.323376 109.107217 
L 406.544667 111.578598 
L 406.765958 111.155107 
L 406.987249 109.460241 
L 407.20854 108.754015 
L 408.093703 103.634454 
L 408.314993 102.752021 
L 408.536284 99.432823 
L 408.978866 101.163613 
L 409.200157 97.455684 
L 409.421447 96.184785 
L 409.642738 97.455286 
L 410.08532 91.806518 
L 410.30661 91.806518 
L 410.749192 90.040819 
L 410.970483 87.852119 
L 411.191774 87.393162 
L 411.413064 85.451346 
L 411.634355 86.510195 
L 412.076937 82.979629 
L 412.298227 84.391769 
L 412.519518 82.9799 
L 412.9621 77.683605 
L 413.183391 77.683605 
L 413.404681 77.965888 
L 413.625972 74.859707 
L 413.847263 75.035533 
L 414.289845 70.057429 
L 414.511135 72.034439 
L 414.732426 70.975497 
L 414.953717 70.622186 
L 415.175008 70.622148 
L 415.396298 69.209856 
L 415.617589 65.855579 
L 415.83888 66.032354 
L 416.060171 65.537685 
L 416.281462 63.560691 
L 416.502752 64.796577 
L 416.724043 63.560527 
L 416.945334 62.996724 
L 417.166625 60.736108 
L 417.387915 59.853235 
L 417.609206 61.301669 
L 418.273079 55.263938 
L 418.494369 54.522545 
L 418.71566 55.616443 
L 418.936951 54.380942 
L 419.158242 55.086942 
L 419.379533 51.697391 
L 419.600823 52.792025 
L 419.822114 52.26236 
L 420.043405 52.085834 
L 420.264696 53.109477 
L 420.485986 51.909608 
L 420.707277 48.025497 
L 420.928568 50.708999 
L 421.149859 50.849655 
L 421.37115 46.789697 
L 421.59244 45.906636 
L 421.813731 47.178058 
L 422.035022 47.672469 
L 422.256313 47.672778 
L 422.477603 45.90712 
L 422.920185 45.906971 
L 423.141476 43.788611 
L 423.584057 46.613194 
L 423.805348 44.848042 
L 424.026639 41.317021 
L 424.24793 43.788348 
L 424.46922 41.246157 
L 424.690511 40.964047 
L 424.911802 40.964029 
L 425.133093 39.834329 
L 425.354384 40.964029 
L 425.575674 40.964029 
L 425.796965 38.845341 
L 426.018256 38.986763 
L 426.239547 40.434618 
L 426.460838 36.727239 
L 426.903419 38.703864 
L 427.12471 38.669202 
L 427.346001 38.845776 
L 427.567291 36.727154 
L 427.788582 36.444916 
L 428.009873 35.314863 
L 428.231164 35.314863 
L 428.452455 36.586158 
L 428.673745 35.31491 
L 428.895036 35.314863 
L 429.116327 34.961594 
L 429.558908 35.314863 
L 429.780199 33.902572 
L 430.222781 35.314723 
L 430.444072 32.49028 
L 430.665362 35.314863 
L 430.886653 34.255672 
L 431.107944 34.891082 
L 431.329235 33.196182 
L 431.550525 32.666867 
L 431.771816 32.490724 
L 431.993107 35.03259 
L 432.214398 31.078279 
L 432.656979 34.467304 
L 433.099561 33.903476 
L 433.320852 35.314863 
L 433.542143 35.032374 
L 433.984724 33.903102 
L 434.206015 36.19757 
L 434.427306 35.032445 
L 434.648596 33.019716 
L 435.091178 35.138239 
L 435.312469 34.750241 
L 435.53376 32.49028 
L 435.75505 32.490858 
L 436.197632 35.314794 
L 436.418923 34.431536 
L 436.861504 34.891136 
L 437.082795 36.728105 
L 437.525377 34.608641 
L 437.746667 35.314863 
L 438.853121 35.314863 
L 439.074412 35.668053 
L 439.295703 35.315488 
L 439.516994 35.314863 
L 439.738284 36.726828 
L 439.959575 35.49164 
L 440.180866 36.444602 
L 440.402157 35.667565 
L 440.623447 36.374489 
L 440.844738 38.492262 
L 441.066029 37.291983 
L 441.28732 37.962816 
L 441.508611 39.551526 
L 441.729901 38.669121 
L 442.172483 39.551737 
L 442.393774 40.964029 
L 442.615065 39.728452 
L 442.836355 40.964029 
L 443.057646 38.492577 
L 443.278937 40.964029 
L 443.500228 40.822703 
L 443.721518 39.551844 
L 444.385391 44.353594 
L 444.606682 42.376981 
L 444.827972 42.023069 
L 445.049263 42.376348 
L 445.270554 45.907097 
L 445.491845 44.494622 
L 445.713135 46.083548 
L 445.934426 44.494845 
L 446.155717 47.46031 
L 446.377008 46.613194 
L 446.598299 46.613194 
L 446.819589 49.43737 
L 447.04088 46.754475 
L 447.262171 46.613701 
L 447.483462 51.555614 
L 447.704752 51.697399 
L 448.147334 50.144013 
L 448.368625 49.967424 
L 448.589916 51.697603 
L 448.811206 51.379618 
L 449.032497 52.96849 
L 449.253788 52.26236 
L 449.475079 53.956556 
L 449.91766 52.615447 
L 450.138951 54.910137 
L 450.360242 55.369398 
L 450.581533 55.440254 
L 450.802823 55.087227 
L 451.024114 55.369554 
L 451.245405 57.911346 
L 451.466696 57.734809 
L 451.687987 57.911525 
L 451.909277 58.75869 
L 452.130568 57.911525 
L 452.351859 57.911525 
L 452.79444 59.323865 
L 453.237022 61.618663 
L 453.458313 61.795192 
L 453.679604 62.71343 
L 453.900894 62.148399 
L 454.343476 64.972588 
L 454.564767 64.831681 
L 454.786057 63.560691 
L 455.007348 64.796386 
L 455.228639 64.125506 
L 455.44993 61.089598 
L 455.892511 66.385274 
L 456.113802 65.255274 
L 456.335093 64.972982 
L 456.556384 66.385274 
L 456.777675 69.209856 
L 456.998965 67.797565 
L 457.220256 69.209856 
L 457.441547 68.856678 
L 457.662838 67.973885 
L 458.105419 72.034439 
L 458.32671 70.621954 
L 458.548001 71.751972 
L 458.769292 72.034942 
L 458.990582 71.857814 
L 459.654455 76.97749 
L 460.097036 75.565034 
L 460.539618 79.095804 
L 460.982199 78.036903 
L 461.424781 80.155039 
L 461.646072 78.036186 
L 461.867363 80.508187 
L 462.088653 80.508187 
L 462.309944 83.332324 
L 462.531235 80.684693 
L 462.752526 80.790523 
L 462.973816 81.038152 
L 463.195107 84.038858 
L 463.416398 85.098421 
L 463.637689 84.462625 
L 463.85898 86.157353 
L 464.08027 84.745393 
L 464.301561 85.627653 
L 464.522852 88.699596 
L 464.744143 86.157353 
L 465.186724 86.862996 
L 465.408015 88.41713 
L 465.629306 91.630257 
L 465.850597 91.806106 
L 466.071887 91.806518 
L 466.293178 90.39448 
L 466.514469 93.042275 
L 466.73576 90.747209 
L 466.95705 93.642616 
L 467.178341 93.571941 
L 467.399632 94.454906 
L 467.620923 96.749495 
L 467.842214 94.630724 
L 468.063504 96.749402 
L 468.284795 97.455684 
L 468.506086 98.867265 
L 468.727377 97.879459 
L 468.948667 98.162162 
L 469.391249 101.692575 
L 469.61254 101.692558 
L 469.833831 100.280399 
L 470.055121 102.751855 
L 470.497703 100.986524 
L 470.718994 103.10485 
L 470.940285 103.10485 
L 471.161575 104.234981 
L 471.382866 106.458957 
L 471.604157 105.22365 
L 471.825448 106.105061 
L 472.046738 106.211825 
L 472.268029 107.694732 
L 472.48932 105.576567 
L 472.710611 106.282435 
L 473.153192 111.225894 
L 473.374483 111.578585 
L 473.595774 109.177281 
L 473.817065 108.754339 
L 474.038355 112.46131 
L 474.480937 110.59004 
L 474.702228 113.6971 
L 474.923519 112.108003 
L 475.144809 113.697082 
L 475.3661 112.284722 
L 475.587391 115.109224 
L 475.808682 114.403181 
L 476.029973 114.403181 
L 476.251263 113.273356 
L 476.472554 113.343726 
L 476.693845 114.403181 
L 476.915136 114.403181 
L 477.136426 116.945674 
L 477.357717 115.815514 
L 477.579008 118.640055 
L 477.800299 117.792986 
L 478.02159 117.404319 
L 478.24288 118.640664 
L 478.464171 118.992954 
L 478.685462 117.792757 
L 478.906753 118.11062 
L 479.349334 119.169525 
L 479.349334 119.169525 
" style="fill:none;stroke:#1f77b4;stroke-linecap:square;stroke-width:1.5;"></path>
   </g>
   <g id="patch_3">
    <path d="M 36.989063 246.920138 
L 36.989063 3.6 
" style="fill:none;stroke:#808080;stroke-linecap:square;stroke-linejoin:miter;stroke-width:0.5;"></path>
   </g>
   <g id="patch_4">
    <path d="M 479.570625 246.920138 
L 479.570625 3.6 
" style="fill:none;stroke:#808080;stroke-linecap:square;stroke-linejoin:miter;stroke-width:0.5;"></path>
   </g>
   <g id="patch_5">
    <path d="M 36.989063 246.920138 
L 479.570625 246.920138 
" style="fill:none;stroke:#808080;stroke-linecap:square;stroke-linejoin:miter;stroke-width:0.5;"></path>
   </g>
   <g id="patch_6">
    <path d="M 36.989063 3.6 
L 479.570625 3.6 
" style="fill:none;stroke:#808080;stroke-linecap:square;stroke-linejoin:miter;stroke-width:0.5;"></path>
   </g>
  </g>
 </g>
 <defs>
  <clipPath id="pc485500548">
   <rect height="243.320138" width="442.581563" x="36.989063" y="3.6"></rect>
  </clipPath>
 </defs>
</svg>
