<svg height="311.76pt" version="1.1" viewBox="0 0 491.76 311.76" width="491.76pt" xmlns="http://www.w3.org/2000/svg" xmlns:xlink="http://www.w3.org/1999/xlink" style="width: 100%; height: 100%;">
 <defs>
  <style type="text/css">
*{stroke-linecap:butt;stroke-linejoin:round;}
  </style>
 </defs>
 <g id="figure_1">
  <g id="patch_1">
   <path d="M 0 311.76 
L 491.76 311.76 
L 491.76 0 
L 0 0 
z
" style="fill:none;"></path>
  </g>
  <g id="axes_1">
   <g id="patch_2">
    <path d="M 37.370156 138.559687 
L 479.570625 138.559687 
L 479.570625 3.6 
L 37.370156 3.6 
z
" style="fill:#ffffff;"></path>
   </g>
   <g id="matplotlib.axis_1">
    <g id="xtick_1">
     <g id="line2d_1">
      <path clip-path="url(#p1bba1567ee)" d="M 37.370156 138.559687 
L 37.370156 3.6 
" style="fill:none;stroke:#808080;stroke-dasharray:0.5,0.825;stroke-dashoffset:0;stroke-width:0.5;"></path>
     </g>
     <g id="line2d_2"></g>
    </g>
    <g id="xtick_2">
     <g id="line2d_3">
      <path clip-path="url(#p1bba1567ee)" d="M 92.645215 138.559687 
L 92.645215 3.6 
" style="fill:none;stroke:#808080;stroke-dasharray:0.5,0.825;stroke-dashoffset:0;stroke-width:0.5;"></path>
     </g>
     <g id="line2d_4"></g>
    </g>
    <g id="xtick_3">
     <g id="line2d_5">
      <path clip-path="url(#p1bba1567ee)" d="M 147.920273 138.559687 
L 147.920273 3.6 
" style="fill:none;stroke:#808080;stroke-dasharray:0.5,0.825;stroke-dashoffset:0;stroke-width:0.5;"></path>
     </g>
     <g id="line2d_6"></g>
    </g>
    <g id="xtick_4">
     <g id="line2d_7">
      <path clip-path="url(#p1bba1567ee)" d="M 203.195332 138.559687 
L 203.195332 3.6 
" style="fill:none;stroke:#808080;stroke-dasharray:0.5,0.825;stroke-dashoffset:0;stroke-width:0.5;"></path>
     </g>
     <g id="line2d_8"></g>
    </g>
    <g id="xtick_5">
     <g id="line2d_9">
      <path clip-path="url(#p1bba1567ee)" d="M 258.470391 138.559687 
L 258.470391 3.6 
" style="fill:none;stroke:#808080;stroke-dasharray:0.5,0.825;stroke-dashoffset:0;stroke-width:0.5;"></path>
     </g>
     <g id="line2d_10"></g>
    </g>
    <g id="xtick_6">
     <g id="line2d_11">
      <path clip-path="url(#p1bba1567ee)" d="M 313.745449 138.559687 
L 313.745449 3.6 
" style="fill:none;stroke:#808080;stroke-dasharray:0.5,0.825;stroke-dashoffset:0;stroke-width:0.5;"></path>
     </g>
     <g id="line2d_12"></g>
    </g>
    <g id="xtick_7">
     <g id="line2d_13">
      <path clip-path="url(#p1bba1567ee)" d="M 369.020508 138.559687 
L 369.020508 3.6 
" style="fill:none;stroke:#808080;stroke-dasharray:0.5,0.825;stroke-dashoffset:0;stroke-width:0.5;"></path>
     </g>
     <g id="line2d_14"></g>
    </g>
    <g id="xtick_8">
     <g id="line2d_15">
      <path clip-path="url(#p1bba1567ee)" d="M 424.295566 138.559687 
L 424.295566 3.6 
" style="fill:none;stroke:#808080;stroke-dasharray:0.5,0.825;stroke-dashoffset:0;stroke-width:0.5;"></path>
     </g>
     <g id="line2d_16"></g>
    </g>
    <g id="xtick_9">
     <g id="line2d_17">
      <path clip-path="url(#p1bba1567ee)" d="M 479.570625 138.559687 
L 479.570625 3.6 
" style="fill:none;stroke:#808080;stroke-dasharray:0.5,0.825;stroke-dashoffset:0;stroke-width:0.5;"></path>
     </g>
     <g id="line2d_18"></g>
    </g>
   </g>
   <g id="matplotlib.axis_2">
    <g id="ytick_1">
     <g id="line2d_19">
      <path clip-path="url(#p1bba1567ee)" d="M 37.370156 127.313047 
L 479.570625 127.313047 
" style="fill:none;stroke:#808080;stroke-dasharray:0.5,0.825;stroke-dashoffset:0;stroke-width:0.5;"></path>
     </g>
     <g id="line2d_20"></g>
     <g id="text_1">
      <!-- 0.0 -->
      <defs>
       <path d="M 31.78125 66.40625 
Q 24.171875 66.40625 20.328125 58.90625 
Q 16.5 51.421875 16.5 36.375 
Q 16.5 21.390625 20.328125 13.890625 
Q 24.171875 6.390625 31.78125 6.390625 
Q 39.453125 6.390625 43.28125 13.890625 
Q 47.125 21.390625 47.125 36.375 
Q 47.125 51.421875 43.28125 58.90625 
Q 39.453125 66.40625 31.78125 66.40625 
z
M 31.78125 74.21875 
Q 44.046875 74.21875 50.515625 64.515625 
Q 56.984375 54.828125 56.984375 36.375 
Q 56.984375 17.96875 50.515625 8.265625 
Q 44.046875 -1.421875 31.78125 -1.421875 
Q 19.53125 -1.421875 13.0625 8.265625 
Q 6.59375 17.96875 6.59375 36.375 
Q 6.59375 54.828125 13.0625 64.515625 
Q 19.53125 74.21875 31.78125 74.21875 
z
" id="DejaVuSans-48"></path>
       <path d="M 10.6875 12.40625 
L 21 12.40625 
L 21 0 
L 10.6875 0 
z
" id="DejaVuSans-46"></path>
      </defs>
      <g transform="translate(19.557344 130.732344)scale(0.09 -0.09)">
       <use xlink:href="#DejaVuSans-48"></use>
       <use x="63.623047" xlink:href="#DejaVuSans-46"></use>
       <use x="95.410156" xlink:href="#DejaVuSans-48"></use>
      </g>
     </g>
    </g>
    <g id="ytick_2">
     <g id="line2d_21">
      <path clip-path="url(#p1bba1567ee)" d="M 37.370156 104.819766 
L 479.570625 104.819766 
" style="fill:none;stroke:#808080;stroke-dasharray:0.5,0.825;stroke-dashoffset:0;stroke-width:0.5;"></path>
     </g>
     <g id="line2d_22"></g>
     <g id="text_2">
      <!-- 0.2 -->
      <defs>
       <path d="M 19.1875 8.296875 
L 53.609375 8.296875 
L 53.609375 0 
L 7.328125 0 
L 7.328125 8.296875 
Q 12.9375 14.109375 22.625 23.890625 
Q 32.328125 33.6875 34.8125 36.53125 
Q 39.546875 41.84375 41.421875 45.53125 
Q 43.3125 49.21875 43.3125 52.78125 
Q 43.3125 58.59375 39.234375 62.25 
Q 35.15625 65.921875 28.609375 65.921875 
Q 23.96875 65.921875 18.8125 64.3125 
Q 13.671875 62.703125 7.8125 59.421875 
L 7.8125 69.390625 
Q 13.765625 71.78125 18.9375 73 
Q 24.125 74.21875 28.421875 74.21875 
Q 39.75 74.21875 46.484375 68.546875 
Q 53.21875 62.890625 53.21875 53.421875 
Q 53.21875 48.921875 51.53125 44.890625 
Q 49.859375 40.875 45.40625 35.40625 
Q 44.1875 33.984375 37.640625 27.21875 
Q 31.109375 20.453125 19.1875 8.296875 
z
" id="DejaVuSans-50"></path>
      </defs>
      <g transform="translate(19.557344 108.239062)scale(0.09 -0.09)">
       <use xlink:href="#DejaVuSans-48"></use>
       <use x="63.623047" xlink:href="#DejaVuSans-46"></use>
       <use x="95.410156" xlink:href="#DejaVuSans-50"></use>
      </g>
     </g>
    </g>
    <g id="ytick_3">
     <g id="line2d_23">
      <path clip-path="url(#p1bba1567ee)" d="M 37.370156 82.326484 
L 479.570625 82.326484 
" style="fill:none;stroke:#808080;stroke-dasharray:0.5,0.825;stroke-dashoffset:0;stroke-width:0.5;"></path>
     </g>
     <g id="line2d_24"></g>
     <g id="text_3">
      <!-- 0.4 -->
      <defs>
       <path d="M 37.796875 64.3125 
L 12.890625 25.390625 
L 37.796875 25.390625 
z
M 35.203125 72.90625 
L 47.609375 72.90625 
L 47.609375 25.390625 
L 58.015625 25.390625 
L 58.015625 17.1875 
L 47.609375 17.1875 
L 47.609375 0 
L 37.796875 0 
L 37.796875 17.1875 
L 4.890625 17.1875 
L 4.890625 26.703125 
z
" id="DejaVuSans-52"></path>
      </defs>
      <g transform="translate(19.557344 85.745781)scale(0.09 -0.09)">
       <use xlink:href="#DejaVuSans-48"></use>
       <use x="63.623047" xlink:href="#DejaVuSans-46"></use>
       <use x="95.410156" xlink:href="#DejaVuSans-52"></use>
      </g>
     </g>
    </g>
    <g id="ytick_4">
     <g id="line2d_25">
      <path clip-path="url(#p1bba1567ee)" d="M 37.370156 59.833203 
L 479.570625 59.833203 
" style="fill:none;stroke:#808080;stroke-dasharray:0.5,0.825;stroke-dashoffset:0;stroke-width:0.5;"></path>
     </g>
     <g id="line2d_26"></g>
     <g id="text_4">
      <!-- 0.6 -->
      <defs>
       <path d="M 33.015625 40.375 
Q 26.375 40.375 22.484375 35.828125 
Q 18.609375 31.296875 18.609375 23.390625 
Q 18.609375 15.53125 22.484375 10.953125 
Q 26.375 6.390625 33.015625 6.390625 
Q 39.65625 6.390625 43.53125 10.953125 
Q 47.40625 15.53125 47.40625 23.390625 
Q 47.40625 31.296875 43.53125 35.828125 
Q 39.65625 40.375 33.015625 40.375 
z
M 52.59375 71.296875 
L 52.59375 62.3125 
Q 48.875 64.0625 45.09375 64.984375 
Q 41.3125 65.921875 37.59375 65.921875 
Q 27.828125 65.921875 22.671875 59.328125 
Q 17.53125 52.734375 16.796875 39.40625 
Q 19.671875 43.65625 24.015625 45.921875 
Q 28.375 48.1875 33.59375 48.1875 
Q 44.578125 48.1875 50.953125 41.515625 
Q 57.328125 34.859375 57.328125 23.390625 
Q 57.328125 12.15625 50.6875 5.359375 
Q 44.046875 -1.421875 33.015625 -1.421875 
Q 20.359375 -1.421875 13.671875 8.265625 
Q 6.984375 17.96875 6.984375 36.375 
Q 6.984375 53.65625 15.1875 63.9375 
Q 23.390625 74.21875 37.203125 74.21875 
Q 40.921875 74.21875 44.703125 73.484375 
Q 48.484375 72.75 52.59375 71.296875 
z
" id="DejaVuSans-54"></path>
      </defs>
      <g transform="translate(19.557344 63.2525)scale(0.09 -0.09)">
       <use xlink:href="#DejaVuSans-48"></use>
       <use x="63.623047" xlink:href="#DejaVuSans-46"></use>
       <use x="95.410156" xlink:href="#DejaVuSans-54"></use>
      </g>
     </g>
    </g>
    <g id="ytick_5">
     <g id="line2d_27">
      <path clip-path="url(#p1bba1567ee)" d="M 37.370156 37.339922 
L 479.570625 37.339922 
" style="fill:none;stroke:#808080;stroke-dasharray:0.5,0.825;stroke-dashoffset:0;stroke-width:0.5;"></path>
     </g>
     <g id="line2d_28"></g>
     <g id="text_5">
      <!-- 0.8 -->
      <defs>
       <path d="M 31.78125 34.625 
Q 24.75 34.625 20.71875 30.859375 
Q 16.703125 27.09375 16.703125 20.515625 
Q 16.703125 13.921875 20.71875 10.15625 
Q 24.75 6.390625 31.78125 6.390625 
Q 38.8125 6.390625 42.859375 10.171875 
Q 46.921875 13.96875 46.921875 20.515625 
Q 46.921875 27.09375 42.890625 30.859375 
Q 38.875 34.625 31.78125 34.625 
z
M 21.921875 38.8125 
Q 15.578125 40.375 12.03125 44.71875 
Q 8.5 49.078125 8.5 55.328125 
Q 8.5 64.0625 14.71875 69.140625 
Q 20.953125 74.21875 31.78125 74.21875 
Q 42.671875 74.21875 48.875 69.140625 
Q 55.078125 64.0625 55.078125 55.328125 
Q 55.078125 49.078125 51.53125 44.71875 
Q 48 40.375 41.703125 38.8125 
Q 48.828125 37.15625 52.796875 32.3125 
Q 56.78125 27.484375 56.78125 20.515625 
Q 56.78125 9.90625 50.3125 4.234375 
Q 43.84375 -1.421875 31.78125 -1.421875 
Q 19.734375 -1.421875 13.25 4.234375 
Q 6.78125 9.90625 6.78125 20.515625 
Q 6.78125 27.484375 10.78125 32.3125 
Q 14.796875 37.15625 21.921875 38.8125 
z
M 18.3125 54.390625 
Q 18.3125 48.734375 21.84375 45.5625 
Q 25.390625 42.390625 31.78125 42.390625 
Q 38.140625 42.390625 41.71875 45.5625 
Q 45.3125 48.734375 45.3125 54.390625 
Q 45.3125 60.0625 41.71875 63.234375 
Q 38.140625 66.40625 31.78125 66.40625 
Q 25.390625 66.40625 21.84375 63.234375 
Q 18.3125 60.0625 18.3125 54.390625 
z
" id="DejaVuSans-56"></path>
      </defs>
      <g transform="translate(19.557344 40.759219)scale(0.09 -0.09)">
       <use xlink:href="#DejaVuSans-48"></use>
       <use x="63.623047" xlink:href="#DejaVuSans-46"></use>
       <use x="95.410156" xlink:href="#DejaVuSans-56"></use>
      </g>
     </g>
    </g>
    <g id="ytick_6">
     <g id="line2d_29">
      <path clip-path="url(#p1bba1567ee)" d="M 37.370156 14.846641 
L 479.570625 14.846641 
" style="fill:none;stroke:#808080;stroke-dasharray:0.5,0.825;stroke-dashoffset:0;stroke-width:0.5;"></path>
     </g>
     <g id="line2d_30"></g>
     <g id="text_6">
      <!-- 1.0 -->
      <defs>
       <path d="M 12.40625 8.296875 
L 28.515625 8.296875 
L 28.515625 63.921875 
L 10.984375 60.40625 
L 10.984375 69.390625 
L 28.421875 72.90625 
L 38.28125 72.90625 
L 38.28125 8.296875 
L 54.390625 8.296875 
L 54.390625 0 
L 12.40625 0 
z
" id="DejaVuSans-49"></path>
      </defs>
      <g transform="translate(19.557344 18.265937)scale(0.09 -0.09)">
       <use xlink:href="#DejaVuSans-49"></use>
       <use x="63.623047" xlink:href="#DejaVuSans-46"></use>
       <use x="95.410156" xlink:href="#DejaVuSans-48"></use>
      </g>
     </g>
    </g>
    <g id="text_7">
     <!-- norm. membrane -->
     <defs>
      <path d="M 54.890625 33.015625 
L 54.890625 0 
L 45.90625 0 
L 45.90625 32.71875 
Q 45.90625 40.484375 42.875 44.328125 
Q 39.84375 48.1875 33.796875 48.1875 
Q 26.515625 48.1875 22.3125 43.546875 
Q 18.109375 38.921875 18.109375 30.90625 
L 18.109375 0 
L 9.078125 0 
L 9.078125 54.6875 
L 18.109375 54.6875 
L 18.109375 46.1875 
Q 21.34375 51.125 25.703125 53.5625 
Q 30.078125 56 35.796875 56 
Q 45.21875 56 50.046875 50.171875 
Q 54.890625 44.34375 54.890625 33.015625 
z
" id="DejaVuSans-110"></path>
      <path d="M 30.609375 48.390625 
Q 23.390625 48.390625 19.1875 42.75 
Q 14.984375 37.109375 14.984375 27.296875 
Q 14.984375 17.484375 19.15625 11.84375 
Q 23.34375 6.203125 30.609375 6.203125 
Q 37.796875 6.203125 41.984375 11.859375 
Q 46.1875 17.53125 46.1875 27.296875 
Q 46.1875 37.015625 41.984375 42.703125 
Q 37.796875 48.390625 30.609375 48.390625 
z
M 30.609375 56 
Q 42.328125 56 49.015625 48.375 
Q 55.71875 40.765625 55.71875 27.296875 
Q 55.71875 13.875 49.015625 6.21875 
Q 42.328125 -1.421875 30.609375 -1.421875 
Q 18.84375 -1.421875 12.171875 6.21875 
Q 5.515625 13.875 5.515625 27.296875 
Q 5.515625 40.765625 12.171875 48.375 
Q 18.84375 56 30.609375 56 
z
" id="DejaVuSans-111"></path>
      <path d="M 41.109375 46.296875 
Q 39.59375 47.171875 37.8125 47.578125 
Q 36.03125 48 33.890625 48 
Q 26.265625 48 22.1875 43.046875 
Q 18.109375 38.09375 18.109375 28.8125 
L 18.109375 0 
L 9.078125 0 
L 9.078125 54.6875 
L 18.109375 54.6875 
L 18.109375 46.1875 
Q 20.953125 51.171875 25.484375 53.578125 
Q 30.03125 56 36.53125 56 
Q 37.453125 56 38.578125 55.875 
Q 39.703125 55.765625 41.0625 55.515625 
z
" id="DejaVuSans-114"></path>
      <path d="M 52 44.1875 
Q 55.375 50.25 60.0625 53.125 
Q 64.75 56 71.09375 56 
Q 79.640625 56 84.28125 50.015625 
Q 88.921875 44.046875 88.921875 33.015625 
L 88.921875 0 
L 79.890625 0 
L 79.890625 32.71875 
Q 79.890625 40.578125 77.09375 44.375 
Q 74.3125 48.1875 68.609375 48.1875 
Q 61.625 48.1875 57.5625 43.546875 
Q 53.515625 38.921875 53.515625 30.90625 
L 53.515625 0 
L 44.484375 0 
L 44.484375 32.71875 
Q 44.484375 40.625 41.703125 44.40625 
Q 38.921875 48.1875 33.109375 48.1875 
Q 26.21875 48.1875 22.15625 43.53125 
Q 18.109375 38.875 18.109375 30.90625 
L 18.109375 0 
L 9.078125 0 
L 9.078125 54.6875 
L 18.109375 54.6875 
L 18.109375 46.1875 
Q 21.1875 51.21875 25.484375 53.609375 
Q 29.78125 56 35.6875 56 
Q 41.65625 56 45.828125 52.96875 
Q 50 49.953125 52 44.1875 
z
" id="DejaVuSans-109"></path>
      <path id="DejaVuSans-32"></path>
      <path d="M 56.203125 29.59375 
L 56.203125 25.203125 
L 14.890625 25.203125 
Q 15.484375 15.921875 20.484375 11.0625 
Q 25.484375 6.203125 34.421875 6.203125 
Q 39.59375 6.203125 44.453125 7.46875 
Q 49.3125 8.734375 54.109375 11.28125 
L 54.109375 2.78125 
Q 49.265625 0.734375 44.1875 -0.34375 
Q 39.109375 -1.421875 33.890625 -1.421875 
Q 20.796875 -1.421875 13.15625 6.1875 
Q 5.515625 13.8125 5.515625 26.8125 
Q 5.515625 40.234375 12.765625 48.109375 
Q 20.015625 56 32.328125 56 
Q 43.359375 56 49.78125 48.890625 
Q 56.203125 41.796875 56.203125 29.59375 
z
M 47.21875 32.234375 
Q 47.125 39.59375 43.09375 43.984375 
Q 39.0625 48.390625 32.421875 48.390625 
Q 24.90625 48.390625 20.390625 44.140625 
Q 15.875 39.890625 15.1875 32.171875 
z
" id="DejaVuSans-101"></path>
      <path d="M 48.6875 27.296875 
Q 48.6875 37.203125 44.609375 42.84375 
Q 40.53125 48.484375 33.40625 48.484375 
Q 26.265625 48.484375 22.1875 42.84375 
Q 18.109375 37.203125 18.109375 27.296875 
Q 18.109375 17.390625 22.1875 11.75 
Q 26.265625 6.109375 33.40625 6.109375 
Q 40.53125 6.109375 44.609375 11.75 
Q 48.6875 17.390625 48.6875 27.296875 
z
M 18.109375 46.390625 
Q 20.953125 51.265625 25.265625 53.625 
Q 29.59375 56 35.59375 56 
Q 45.5625 56 51.78125 48.09375 
Q 58.015625 40.1875 58.015625 27.296875 
Q 58.015625 14.40625 51.78125 6.484375 
Q 45.5625 -1.421875 35.59375 -1.421875 
Q 29.59375 -1.421875 25.265625 0.953125 
Q 20.953125 3.328125 18.109375 8.203125 
L 18.109375 0 
L 9.078125 0 
L 9.078125 75.984375 
L 18.109375 75.984375 
z
" id="DejaVuSans-98"></path>
      <path d="M 34.28125 27.484375 
Q 23.390625 27.484375 19.1875 25 
Q 14.984375 22.515625 14.984375 16.5 
Q 14.984375 11.71875 18.140625 8.90625 
Q 21.296875 6.109375 26.703125 6.109375 
Q 34.1875 6.109375 38.703125 11.40625 
Q 43.21875 16.703125 43.21875 25.484375 
L 43.21875 27.484375 
z
M 52.203125 31.203125 
L 52.203125 0 
L 43.21875 0 
L 43.21875 8.296875 
Q 40.140625 3.328125 35.546875 0.953125 
Q 30.953125 -1.421875 24.3125 -1.421875 
Q 15.921875 -1.421875 10.953125 3.296875 
Q 6 8.015625 6 15.921875 
Q 6 25.140625 12.171875 29.828125 
Q 18.359375 34.515625 30.609375 34.515625 
L 43.21875 34.515625 
L 43.21875 35.40625 
Q 43.21875 41.609375 39.140625 45 
Q 35.0625 48.390625 27.6875 48.390625 
Q 23 48.390625 18.546875 47.265625 
Q 14.109375 46.140625 10.015625 43.890625 
L 10.015625 52.203125 
Q 14.9375 54.109375 19.578125 55.046875 
Q 24.21875 56 28.609375 56 
Q 40.484375 56 46.34375 49.84375 
Q 52.203125 43.703125 52.203125 31.203125 
z
" id="DejaVuSans-97"></path>
     </defs>
     <g transform="translate(13.685625 110.398594)rotate(-90)scale(0.09 -0.09)">
      <use xlink:href="#DejaVuSans-110"></use>
      <use x="63.378906" xlink:href="#DejaVuSans-111"></use>
      <use x="124.560547" xlink:href="#DejaVuSans-114"></use>
      <use x="165.658203" xlink:href="#DejaVuSans-109"></use>
      <use x="263.070312" xlink:href="#DejaVuSans-46"></use>
      <use x="294.857422" xlink:href="#DejaVuSans-32"></use>
      <use x="326.644531" xlink:href="#DejaVuSans-109"></use>
      <use x="424.056641" xlink:href="#DejaVuSans-101"></use>
      <use x="485.580078" xlink:href="#DejaVuSans-109"></use>
      <use x="582.992188" xlink:href="#DejaVuSans-98"></use>
      <use x="646.46875" xlink:href="#DejaVuSans-114"></use>
      <use x="687.582031" xlink:href="#DejaVuSans-97"></use>
      <use x="748.861328" xlink:href="#DejaVuSans-110"></use>
      <use x="812.240234" xlink:href="#DejaVuSans-101"></use>
     </g>
    </g>
   </g>
   <g id="line2d_31">
    <path clip-path="url(#p1bba1567ee)" d="M 37.370156 101.462881 
L 37.591256 101.319269 
L 37.812357 100.026757 
L 38.033457 100.29603 
L 38.254557 102.03733 
L 38.475657 100.206273 
L 38.696758 100.565303 
L 38.917858 99.577969 
L 39.138958 99.739533 
L 39.360058 99.577969 
L 39.581159 98.590634 
L 39.802259 99.577968 
L 40.023359 98.016183 
L 40.244459 98.949668 
L 40.46556 97.513541 
L 40.90776 96.723674 
L 41.12886 95.808145 
L 41.34996 98.590631 
L 41.571061 97.082705 
L 41.792161 96.436449 
L 42.013261 95.000326 
L 42.234361 95.538871 
L 42.455462 94.210455 
L 42.676562 95.359359 
L 42.897662 94.282264 
L 43.560963 94.282264 
L 43.782063 93.115411 
L 44.003163 92.84614 
L 44.224264 92.84614 
L 44.445364 93.025654 
L 44.666464 91.589535 
L 44.887564 92.84614 
L 45.108664 92.774335 
L 45.329765 92.128077 
L 45.550865 90.961231 
L 45.771965 90.835566 
L 45.993065 91.410017 
L 46.435266 90.512441 
L 47.098567 90.691956 
L 47.319667 91.410017 
L 47.540767 90.835565 
L 47.761867 89.07632 
L 47.982968 89.794381 
L 48.204068 90.063651 
L 48.646268 91.050997 
L 48.867368 88.537772 
L 49.309569 89.973894 
L 49.530669 89.794377 
L 49.751769 90.153415 
L 49.97287 89.543053 
L 50.19397 90.153406 
L 50.63617 88.53777 
L 50.857271 89.255828 
L 51.299471 88.53777 
L 51.520571 88.53777 
L 51.962772 89.614861 
L 52.183872 88.717277 
L 52.404972 88.537774 
L 52.626072 90.117509 
L 52.847173 89.973894 
L 53.510473 92.038317 
L 53.731574 91.769048 
L 53.952674 91.858805 
L 54.837075 94.282264 
L 55.279275 96.436449 
L 55.500375 96.256934 
L 55.721476 97.154511 
L 55.942576 96.292858 
L 56.163676 98.411134 
L 56.384776 98.590627 
L 56.605877 99.739524 
L 56.826977 100.026757 
L 57.048077 100.026757 
L 57.269177 101.103857 
L 57.490278 101.534667 
L 57.711378 102.360462 
L 58.153578 101.821909 
L 58.816879 104.604394 
L 59.037979 105.412225 
L 59.259079 104.83777 
L 59.48018 104.694168 
L 59.70128 105.681484 
L 59.92238 105.771238 
L 60.14348 104.478736 
L 60.364581 105.771253 
L 60.585681 105.95076 
L 61.027881 108.2845 
L 61.248982 107.207374 
L 61.691182 107.207374 
L 62.133382 108.643498 
L 62.575583 108.643498 
L 63.459984 109.792406 
L 63.681084 109.271805 
L 63.902184 110.079626 
L 64.123285 108.930718 
L 64.344385 109.361564 
L 64.565485 111.515744 
L 64.786585 110.438668 
L 65.007686 110.079621 
L 65.228786 110.079621 
L 65.449886 110.61816 
L 65.670986 110.797668 
L 65.892086 111.156713 
L 66.113187 110.079633 
L 66.334287 111.066954 
L 66.776487 110.079621 
L 66.997588 109.720603 
L 67.218688 110.528425 
L 67.439788 108.643504 
L 67.660888 108.643498 
L 67.881989 107.92544 
L 68.103089 108.643498 
L 68.545289 107.386901 
L 68.76639 108.46398 
L 68.98749 108.374226 
L 69.20859 107.207374 
L 69.65079 107.925431 
L 69.871891 105.771251 
L 70.092991 105.771251 
L 70.314091 106.668821 
L 70.535191 105.232712 
L 70.756292 104.783937 
L 70.977392 104.909578 
L 71.198492 104.245372 
L 71.419592 102.89901 
L 71.640693 104.837779 
L 71.861793 102.899004 
L 72.082893 102.899004 
L 72.303993 102.719495 
L 72.525094 102.899004 
L 72.746194 101.642413 
L 72.967294 102.450208 
L 73.188394 101.462881 
L 73.409494 101.462856 
L 73.630595 101.821913 
L 73.851695 101.373133 
L 74.293895 100.026757 
L 74.736096 100.026757 
L 74.957196 98.590667 
L 75.399397 98.59066 
L 75.620497 99.398442 
L 75.841597 98.734251 
L 76.062697 99.218952 
L 76.504898 97.693087 
L 76.725998 98.0162 
L 76.947098 97.603292 
L 77.168198 97.513559 
L 77.389299 97.693057 
L 77.610399 97.154511 
L 77.831499 97.423792 
L 78.2737 96.974964 
L 78.4948 96.436449 
L 78.7159 97.154511 
L 78.937 96.436449 
L 79.379201 96.436427 
L 79.821401 94.282264 
L 80.042501 94.713094 
L 80.263602 94.282264 
L 80.484702 94.551525 
L 80.705802 94.282264 
L 80.926902 93.564204 
L 81.148003 93.923235 
L 81.369103 94.551522 
L 81.590203 93.205191 
L 81.811303 93.348789 
L 82.032404 94.102731 
L 82.253504 94.192506 
L 82.474604 92.846167 
L 82.695704 93.636015 
L 83.137905 93.47446 
L 83.580105 93.564202 
L 83.801205 94.102755 
L 84.022306 92.935844 
L 84.243406 92.84614 
L 84.685606 91.410017 
L 84.906707 91.948572 
L 85.127807 92.84614 
L 85.570007 91.589528 
L 85.791108 91.410017 
L 86.012208 90.83557 
L 86.233308 91.410017 
L 86.454408 91.410017 
L 86.896609 89.973922 
L 87.338809 92.128014 
L 87.78101 90.691955 
L 88.00211 91.769112 
L 88.22321 90.691953 
L 88.44431 91.769055 
L 88.665411 91.050993 
L 88.886511 91.410017 
L 89.107611 89.973894 
L 89.328711 90.548352 
L 89.770912 89.794369 
L 90.213112 87.101647 
L 90.434213 87.101656 
L 90.655313 87.460737 
L 90.876413 85.665523 
L 91.097513 85.665523 
L 91.318613 84.2294 
L 91.539714 84.049898 
L 91.760814 84.947462 
L 91.981914 83.78061 
L 92.203014 83.870417 
L 92.424115 82.793277 
L 92.645215 82.793277 
L 92.866315 82.344505 
L 93.308516 80.28001 
L 93.529616 80.495501 
L 93.750716 81.177658 
L 93.971816 81.357095 
L 94.192916 79.92103 
L 94.414017 79.92101 
L 94.856217 77.766893 
L 95.077317 77.264192 
L 95.298418 77.228303 
L 95.519518 77.94637 
L 95.740618 77.766851 
L 95.961718 77.407847 
L 96.182819 75.612616 
L 96.403919 75.971716 
L 96.625019 73.279015 
L 96.846119 75.038215 
L 97.06722 74.715098 
L 97.28832 74.176536 
L 97.50942 72.7404 
L 97.73052 72.740413 
L 97.95162 73.458474 
L 98.172721 71.30429 
L 98.393821 71.878745 
L 98.614921 70.675996 
L 98.836021 70.227168 
L 99.057122 70.406717 
L 99.278222 69.580923 
L 99.499322 69.868166 
L 99.720422 68.791085 
L 99.941523 68.701329 
L 100.162623 67.8576 
L 100.383723 67.893508 
L 100.825924 66.995919 
L 101.047024 65.559796 
L 101.268124 67.444726 
L 101.489224 64.841753 
L 101.710324 65.487991 
L 101.931425 64.123657 
L 102.152525 64.572489 
L 102.373625 64.123673 
L 102.594725 62.687549 
L 102.815826 62.687549 
L 103.036926 63.674901 
L 103.258026 62.328511 
L 103.479126 62.687549 
L 103.700227 62.687549 
L 104.142427 60.892412 
L 104.363527 60.82058 
L 104.584627 60.533318 
L 104.805728 61.071884 
L 105.026828 59.815306 
L 105.247928 59.958888 
L 105.469028 60.533368 
L 105.690129 60.712906 
L 105.911229 59.240844 
L 106.132329 60.443601 
L 106.353429 59.815303 
L 106.57453 60.712883 
L 106.79563 59.815303 
L 107.01673 60.712899 
L 107.23783 60.533433 
L 107.458931 59.815303 
L 107.680031 59.815303 
L 107.901131 60.623071 
L 108.122231 60.533395 
L 108.564432 61.82587 
L 108.785532 60.174494 
L 109.006632 59.81534 
L 109.227732 62.615745 
L 109.448833 60.533398 
L 109.669933 60.802597 
L 109.891033 61.78999 
L 110.112133 61.754063 
L 110.333234 62.149041 
L 110.775434 62.328507 
L 110.996534 61.969512 
L 111.217635 62.328538 
L 111.438735 62.418284 
L 111.659835 63.585171 
L 111.880935 60.676914 
L 112.102035 62.148996 
L 112.323136 62.507999 
L 112.544236 61.969521 
L 112.765336 62.041311 
L 113.207537 60.533364 
L 113.428637 61.107819 
L 113.649737 59.815303 
L 113.870837 59.815303 
L 114.091938 59.187106 
L 114.313038 57.804716 
L 114.534138 59.546001 
L 114.755238 59.097234 
L 114.976339 58.199706 
L 115.197439 57.80475 
L 115.418539 57.93042 
L 115.639639 57.840603 
L 115.860739 58.199674 
L 116.08184 55.650534 
L 116.30294 55.686453 
L 116.74514 56.799399 
L 116.966241 54.788843 
L 117.187341 54.429936 
L 117.408441 55.147903 
L 117.850642 54.070809 
L 118.071742 54.070809 
L 118.292842 53.352799 
L 118.513942 53.71176 
L 118.735042 52.634686 
L 118.956143 53.173245 
L 119.177243 52.275593 
L 119.398343 52.203846 
L 119.840544 51.198562 
L 120.061644 51.198571 
L 120.282744 51.054963 
L 120.503844 51.19855 
L 120.946045 48.326315 
L 121.167145 48.326315 
L 121.388245 48.864905 
L 121.609346 48.326315 
L 121.830446 48.326315 
L 122.051546 46.261834 
L 122.493746 47.428706 
L 122.714847 45.74128 
L 123.157047 46.351597 
L 123.378147 45.454069 
L 123.599248 45.454069 
L 123.820348 45.81324 
L 124.262548 44.089743 
L 124.483649 44.736004 
L 124.704749 42.761294 
L 124.925849 42.940927 
L 125.146949 42.079179 
L 125.58915 43.210112 
L 125.81025 42.222811 
L 126.03135 42.581822 
L 126.25245 42.581822 
L 126.473551 41.594518 
L 126.694651 41.145699 
L 126.915751 40.140395 
L 127.136851 39.709575 
L 127.357952 39.889142 
L 127.579052 42.581716 
L 127.800152 40.427637 
L 128.021252 41.145648 
L 128.242353 40.337878 
L 129.347854 38.560692 
L 129.568954 38.722221 
L 130.011154 38.542755 
L 130.232255 39.422354 
L 130.453355 38.542762 
L 130.674455 39.171007 
L 130.895555 38.273452 
L 131.116656 39.565967 
L 131.337756 39.081282 
L 132.001057 36.83745 
L 132.222157 38.093905 
L 132.443257 36.837328 
L 132.664357 36.406525 
L 132.885458 36.298765 
L 133.548758 33.606062 
L 133.769858 33.24704 
L 133.990959 32.080185 
L 134.212059 32.528958 
L 134.433159 32.528958 
L 134.654259 32.708583 
L 134.87536 31.092835 
L 135.09646 31.092809 
L 135.31756 31.667284 
L 135.53866 29.65667 
L 135.759761 29.656711 
L 135.980861 28.220588 
L 136.201961 28.1308 
L 136.423061 28.400086 
L 136.644161 26.784465 
L 136.865262 26.928013 
L 137.086362 27.322958 
L 137.528562 26.335668 
L 137.749663 24.917498 
L 137.970763 25.348341 
L 138.191863 25.168801 
L 138.412963 24.63028 
L 138.634064 24.486648 
L 138.855164 23.822487 
L 139.076264 25.348339 
L 139.297364 24.702071 
L 139.518465 25.348341 
L 139.739565 24.001945 
L 139.960665 24.271306 
L 140.181765 23.983985 
L 140.402865 24.989269 
L 140.623966 24.271264 
L 140.845066 24.271277 
L 141.066166 23.194156 
L 141.287266 23.912218 
L 141.508367 23.642968 
L 141.950567 24.127634 
L 142.171667 23.912218 
L 142.392768 25.168757 
L 142.834968 23.983994 
L 143.056068 25.348273 
L 143.719369 22.835064 
L 143.940469 24.27121 
L 144.161569 23.912218 
L 144.38267 24.343046 
L 144.60377 24.450787 
L 144.82487 23.912164 
L 145.04597 23.912218 
L 145.267071 24.343051 
L 145.709271 23.194104 
L 146.372572 25.617672 
L 146.593672 25.348341 
L 146.814772 25.348341 
L 147.035872 26.784401 
L 147.256973 26.784465 
L 147.478073 25.886835 
L 147.920273 27.323036 
L 148.141374 27.951281 
L 148.362474 28.220588 
L 148.583574 28.220588 
L 149.025775 30.015649 
L 149.246875 29.836191 
L 149.467975 31.38003 
L 149.689075 30.374773 
L 149.910176 31.092835 
L 150.131276 31.092792 
L 150.352376 30.949209 
L 150.573476 30.374889 
L 150.794576 32.977657 
L 151.015677 32.241712 
L 151.236777 32.708518 
L 151.457877 32.528958 
L 151.678977 33.695836 
L 151.900078 33.965082 
L 152.121178 34.503558 
L 152.342278 33.965082 
L 152.563378 34.234355 
L 152.784479 34.970368 
L 153.88998 32.349479 
L 154.11108 33.247001 
L 154.55328 29.656723 
L 154.774381 31.003105 
L 154.995481 29.836247 
L 155.216581 30.661985 
L 155.437681 28.759172 
L 155.658782 29.656711 
L 156.100982 28.220588 
L 156.322082 28.579658 
L 156.543183 27.412812 
L 156.764283 27.143516 
L 156.985383 26.353618 
L 157.206483 26.425398 
L 157.427584 25.617523 
L 157.648684 26.784439 
L 157.869784 25.99462 
L 158.090884 23.912235 
L 158.311984 24.181443 
L 158.533085 23.912218 
L 158.754185 24.001952 
L 158.975285 22.476095 
L 159.196385 22.476095 
L 159.417486 21.901641 
L 159.638586 21.758033 
L 160.301887 19.603848 
L 160.522987 19.603848 
L 160.965187 20.052576 
L 161.186287 19.460226 
L 161.407388 19.424277 
L 161.628488 18.885786 
L 161.849588 17.665087 
L 162.070688 18.167771 
L 162.291789 19.424335 
L 162.512889 19.783441 
L 162.733989 18.383159 
L 162.955089 18.706304 
L 163.17619 17.898426 
L 163.39729 19.244816 
L 163.61839 17.808691 
L 163.83949 18.16771 
L 164.060591 18.167724 
L 164.502791 19.388408 
L 164.944991 17.00089 
L 165.387192 16.587975 
L 165.608292 26.067264 
L 166.050493 88.394113 
L 166.492693 111.336284 
L 166.934894 119.845255 
L 167.155994 120.940268 
L 167.377094 123.004732 
L 167.819295 123.004732 
L 168.040395 125.338399 
L 168.261495 125.876978 
L 168.482595 124.261374 
L 168.703695 123.579097 
L 168.924796 123.273975 
L 169.145896 125.158887 
L 169.366996 125.589867 
L 169.588096 123.004803 
L 169.809197 123.004732 
L 170.030297 124.979389 
L 170.251397 125.374335 
L 170.472497 125.158917 
L 170.693598 123.004732 
L 171.135798 121.568585 
L 171.356898 119.414362 
L 171.577999 118.965629 
L 171.799099 116.90117 
L 172.020199 117.044808 
L 172.241299 114.387991 
L 172.462399 114.02909 
L 172.9046 111.515744 
L 173.789001 106.040427 
L 174.010101 106.130335 
L 174.231201 104.335128 
L 174.673402 102.899004 
L 174.894502 102.540004 
L 175.115602 100.026757 
L 175.336702 99.739516 
L 175.557803 98.949623 
L 175.778903 96.974991 
L 176.000003 97.154511 
L 176.221103 97.154511 
L 176.442204 96.974923 
L 176.663304 94.282287 
L 176.884404 94.282264 
L 177.326605 91.320269 
L 177.547705 91.230452 
L 177.989905 88.53777 
L 178.432106 87.819557 
L 178.653206 85.30645 
L 178.874306 84.947493 
L 179.316507 83.331758 
L 179.979807 79.561719 
L 180.200908 79.92103 
L 180.422008 77.192423 
L 180.643108 79.202893 
L 180.864208 77.228157 
L 181.306409 76.869257 
L 181.748609 74.176536 
L 181.96971 74.46376 
L 182.63301 71.842871 
L 182.85411 71.30429 
L 183.075211 71.483922 
L 183.517411 70.586228 
L 183.738511 70.729951 
L 183.959612 69.958006 
L 184.180712 68.432136 
L 184.401812 68.575706 
L 184.622912 68.432201 
L 184.844013 67.175324 
L 185.065113 68.970586 
L 185.286213 68.432043 
L 185.507313 68.790915 
L 185.728414 67.893555 
L 185.949514 67.713981 
L 186.170614 67.354938 
L 186.391714 66.63695 
L 186.612814 66.816409 
L 186.833915 66.816686 
L 187.055015 65.559796 
L 187.497215 64.931468 
L 187.718316 65.559862 
L 188.602717 62.687549 
L 189.044917 62.687549 
L 189.266017 61.520776 
L 189.487117 61.251426 
L 189.708218 60.712908 
L 190.150418 60.353976 
L 190.371518 59.815303 
L 190.813719 58.020006 
L 191.034819 57.03285 
L 191.255919 57.517496 
L 191.69812 56.225271 
L 192.14032 57.661111 
L 192.361421 56.943056 
L 192.582521 55.32746 
L 192.803621 55.506932 
L 193.245821 54.070809 
L 193.909122 54.070689 
L 194.130222 53.622069 
L 194.351323 53.532252 
L 194.572423 53.065459 
L 194.793523 53.532344 
L 195.014623 53.442527 
L 195.235724 52.634627 
L 195.456824 52.634686 
L 195.899024 51.198562 
L 196.120125 51.198562 
L 196.341225 50.121792 
L 196.562325 51.198562 
L 196.783425 51.198562 
L 197.004525 50.767704 
L 197.225626 51.198562 
L 197.446726 51.198562 
L 197.667826 50.30087 
L 197.888926 50.624054 
L 198.110027 50.301052 
L 199.215528 45.454224 
L 199.436628 46.100359 
L 199.657728 45.454069 
L 199.878829 45.454069 
L 200.099929 44.556413 
L 200.321029 42.581822 
L 200.542129 42.581822 
L 200.763229 43.030564 
L 201.20543 40.786648 
L 201.64763 41.414899 
L 201.868731 40.786596 
L 202.089831 40.714852 
L 202.310931 38.812038 
L 202.532031 39.619749 
L 202.753132 38.27347 
L 202.974232 37.698983 
L 203.195332 38.273251 
L 203.416432 38.094019 
L 203.637532 37.124568 
L 203.858633 38.632344 
L 204.079733 36.837328 
L 204.521933 36.837328 
L 204.743034 35.939873 
L 204.964134 36.119361 
L 205.185234 36.119267 
L 205.406334 35.401205 
L 205.627435 35.221849 
L 205.848535 34.50369 
L 206.069635 34.32396 
L 206.290735 35.688502 
L 206.511836 33.516452 
L 206.732936 33.965088 
L 206.954036 35.257496 
L 207.175136 33.965082 
L 207.396236 35.311474 
L 207.617337 34.503595 
L 207.838437 34.18047 
L 208.059537 35.042292 
L 208.280637 33.785566 
L 208.501738 33.965082 
L 208.722838 33.965103 
L 208.943938 32.529023 
L 209.165038 33.516266 
L 209.386139 32.888152 
L 209.607239 33.534161 
L 209.828339 33.246997 
L 210.27054 31.810897 
L 210.49164 32.026396 
L 210.71274 33.24702 
L 210.93384 33.336857 
L 211.15494 31.523583 
L 211.376041 31.72115 
L 211.818241 30.643985 
L 212.039341 29.082217 
L 212.260442 30.105485 
L 212.481542 28.938502 
L 212.702642 29.207957 
L 212.923742 28.93865 
L 213.144843 27.322928 
L 213.365943 27.861424 
L 213.587043 27.592292 
L 213.808143 28.07699 
L 214.029244 26.605086 
L 214.471444 25.491977 
L 215.134745 25.168839 
L 215.355845 22.476095 
L 215.798045 21.758033 
L 216.019146 21.758007 
L 216.240246 21.039971 
L 216.461346 21.398924 
L 216.682446 20.142433 
L 216.903547 20.142434 
L 217.124647 19.029338 
L 217.345747 20.680837 
L 217.566847 19.065287 
L 217.787947 19.603848 
L 218.009048 20.824722 
L 218.451248 18.437099 
L 218.672348 19.603848 
L 218.893449 19.603848 
L 219.114549 20.142393 
L 219.335649 18.706391 
L 219.556749 18.885786 
L 219.77785 17.270085 
L 219.99895 18.167724 
L 220.22005 18.077726 
L 220.44115 16.731601 
L 220.662251 16.64183 
L 220.883351 21.756507 
L 221.325551 88.250727 
L 221.767752 111.51542 
L 221.988852 117.260238 
L 222.209952 119.414431 
L 222.652153 121.748064 
L 223.094353 124.620387 
L 223.315453 124.082125 
L 223.536554 123.004732 
L 223.757654 124.081812 
L 223.978754 124.440683 
L 224.420955 125.697456 
L 224.642055 125.374317 
L 225.084255 123.5432 
L 225.305355 125.876962 
L 225.526456 125.733405 
L 226.189756 118.840004 
L 226.410857 118.516719 
L 226.631957 117.260238 
L 226.853057 114.477792 
L 227.074157 113.526182 
L 227.516358 110.438634 
L 227.737458 109.541156 
L 228.179659 106.309898 
L 228.400759 105.591744 
L 228.621859 103.527375 
L 228.842959 102.611874 
L 229.064059 99.847194 
L 229.28516 98.590704 
L 229.50626 98.016087 
L 229.72736 94.282354 
L 229.94846 94.641305 
L 230.169561 92.128325 
L 230.390661 92.630729 
L 231.275062 87.819774 
L 231.717262 87.012057 
L 231.938362 84.767894 
L 232.159463 84.2294 
L 232.601663 81.806126 
L 232.822763 81.357179 
L 233.928265 77.048783 
L 234.149365 76.510313 
L 234.591565 74.176536 
L 235.033766 73.099508 
L 235.254866 72.560908 
L 236.139267 67.175392 
L 236.360367 67.139521 
L 236.581467 66.726437 
L 237.023668 63.046755 
L 237.244768 64.123803 
L 237.465868 62.777264 
L 237.686969 62.149019 
L 237.908069 61.969488 
L 238.129169 59.815303 
L 238.350269 59.994851 
L 238.57137 58.379348 
L 238.79247 58.379168 
L 239.23467 56.673792 
L 240.119071 52.724407 
L 240.340171 52.634758 
L 240.561272 51.485949 
L 240.782372 51.198562 
L 241.003472 51.826803 
L 241.445673 48.954648 
L 241.666773 48.326315 
L 241.887873 48.326315 
L 242.108973 46.890192 
L 242.330074 47.069711 
L 242.993374 44.736007 
L 243.214474 44.915572 
L 243.435575 44.556533 
L 243.656675 43.838381 
L 243.877775 43.730722 
L 244.098875 43.748826 
L 244.319976 42.581822 
L 244.541076 42.438213 
L 244.762176 41.863779 
L 244.983276 41.773925 
L 245.204377 41.145699 
L 245.425477 41.720097 
L 245.867677 40.247996 
L 246.309878 38.991459 
L 246.530978 38.273452 
L 246.752078 38.542761 
L 246.973178 37.375807 
L 247.194279 37.842618 
L 247.415379 37.914284 
L 247.636479 38.722211 
L 247.857579 36.119385 
L 248.07868 36.837328 
L 248.29978 36.837328 
L 248.52088 36.657779 
L 248.74198 35.688538 
L 249.184181 35.042205 
L 249.405281 36.298695 
L 249.847481 34.054696 
L 250.068582 34.683166 
L 250.289682 35.850064 
L 250.510782 35.544716 
L 250.731882 35.849972 
L 250.952983 35.401205 
L 251.174083 35.849782 
L 251.395183 34.10873 
L 251.616283 36.119267 
L 251.837384 35.401077 
L 252.058484 34.108643 
L 252.279584 33.965103 
L 252.721785 35.042327 
L 252.942885 33.965082 
L 253.163985 34.503628 
L 253.385085 33.69575 
L 253.827286 34.683162 
L 254.048386 33.964977 
L 254.269486 34.234332 
L 254.490586 33.965082 
L 254.711687 33.462433 
L 255.153887 35.221578 
L 255.374987 34.683143 
L 255.596088 35.257632 
L 256.038288 33.965082 
L 256.259388 35.113946 
L 256.480489 33.965082 
L 256.701589 34.503444 
L 256.922689 34.503623 
L 257.143789 35.401205 
L 257.364889 35.401205 
L 257.58599 35.042139 
L 257.80709 35.401205 
L 258.02819 34.539546 
L 258.470391 34.324129 
L 258.691491 33.695556 
L 258.912591 33.965082 
L 259.133691 34.683143 
L 259.354792 33.9651 
L 259.575892 35.329341 
L 259.796992 35.400971 
L 260.018092 34.144569 
L 260.460293 34.826673 
L 260.681393 34.32402 
L 261.123593 34.683001 
L 261.344694 35.042313 
L 261.786894 36.29886 
L 262.007994 35.401205 
L 262.229095 36.621878 
L 262.450195 36.478311 
L 262.892395 35.401205 
L 263.113496 34.180552 
L 263.555696 36.657963 
L 263.776796 36.837328 
L 263.997896 35.580722 
L 264.218997 37.016904 
L 264.882297 36.388567 
L 265.103398 36.837328 
L 265.324498 36.837328 
L 265.545598 36.119267 
L 265.987799 37.196468 
L 266.208899 35.760218 
L 266.651099 38.183754 
L 266.8722 36.837328 
L 267.0933 37.55539 
L 267.3144 36.837328 
L 267.7566 39.171033 
L 267.977701 37.483692 
L 268.198801 38.453042 
L 268.419901 38.273452 
L 268.862102 39.350561 
L 269.083202 38.632549 
L 269.525402 40.248173 
L 269.746503 40.714912 
L 269.967603 39.53002 
L 270.188703 41.504807 
L 270.409803 41.145699 
L 270.630904 39.997016 
L 270.852004 41.145699 
L 271.073104 41.594349 
L 271.294204 42.581822 
L 271.515304 42.581822 
L 271.736405 43.299884 
L 271.957505 44.736007 
L 272.178605 44.448824 
L 272.399705 44.91556 
L 272.841906 46.35151 
L 273.063006 46.746498 
L 273.284106 45.992599 
L 273.505207 47.967418 
L 273.726307 48.77498 
L 273.947407 47.751879 
L 274.168507 48.326315 
L 274.389607 48.326537 
L 274.610708 47.895417 
L 274.831808 49.762435 
L 275.052908 50.211044 
L 275.274008 49.582971 
L 275.495109 49.977857 
L 275.716209 51.019018 
L 275.937309 50.300826 
L 276.37951 51.198562 
L 276.82171 51.826707 
L 277.04281 51.198562 
L 277.485011 51.198562 
L 277.706111 50.390716 
L 277.927211 51.198562 
L 278.148311 48.541645 
L 278.369412 50.480442 
L 278.590512 50.839531 
L 278.811612 48.757274 
L 279.032712 49.044377 
L 279.253813 48.326315 
L 279.474913 49.223839 
L 279.696013 48.900714 
L 279.917113 48.775169 
L 280.138214 48.326315 
L 280.359314 49.223999 
L 280.580414 49.618875 
L 280.801514 49.762439 
L 281.022615 48.326315 
L 281.464815 47.033854 
L 281.685915 45.543838 
L 282.128116 45.454069 
L 282.349216 45.454034 
L 282.570316 44.82578 
L 282.791416 44.915596 
L 283.012517 44.736007 
L 283.233617 43.479382 
L 283.454717 43.659081 
L 283.675817 44.736141 
L 283.896918 42.94083 
L 284.118018 43.658887 
L 284.560218 42.761378 
L 284.781319 44.233372 
L 285.002419 43.479506 
L 285.223519 43.838285 
L 285.444619 42.581849 
L 285.665719 42.653622 
L 285.88682 43.299884 
L 286.10792 43.210172 
L 286.32902 42.581822 
L 286.55012 43.83837 
L 286.771221 43.658758 
L 286.992321 42.312568 
L 287.213421 43.44346 
L 287.434521 42.581822 
L 287.655622 42.940698 
L 287.876722 43.030618 
L 288.097822 42.29463 
L 288.318922 42.581822 
L 288.761123 43.838497 
L 288.982223 42.869006 
L 289.203323 42.851268 
L 289.424423 42.581822 
L 289.645524 43.228033 
L 289.866624 44.73593 
L 290.308824 41.504785 
L 290.529925 42.581822 
L 291.193225 42.581822 
L 291.414326 41.504736 
L 292.077626 40.42748 
L 292.519827 38.991513 
L 292.740927 38.901804 
L 292.962027 38.273452 
L 293.183127 37.052839 
L 293.404228 38.273419 
L 293.625328 36.657663 
L 293.846428 36.837328 
L 294.067528 36.747587 
L 294.288629 37.914335 
L 294.509729 36.837328 
L 294.730829 36.837328 
L 295.39413 35.491079 
L 295.61523 36.5501 
L 295.83633 35.850031 
L 296.05743 36.657742 
L 296.499631 35.688409 
L 296.720731 36.65794 
L 296.941831 36.837239 
L 297.162932 34.180524 
L 297.384032 34.683206 
L 297.605132 35.490886 
L 297.826232 35.401205 
L 298.268433 35.939693 
L 298.489533 34.683143 
L 298.710633 35.760227 
L 299.152834 34.683142 
L 299.373934 34.772973 
L 299.595034 35.580825 
L 299.816134 35.185798 
L 300.037235 36.119042 
L 300.258335 36.478308 
L 300.479435 33.96518 
L 300.921636 35.401205 
L 301.142736 36.02948 
L 301.363836 35.401205 
L 301.584936 36.029571 
L 301.806037 36.119267 
L 302.027137 36.029342 
L 302.248237 36.837328 
L 302.469337 35.580791 
L 302.690437 35.760259 
L 302.911538 36.568075 
L 303.132638 36.837328 
L 303.353738 35.939769 
L 303.574838 37.914521 
L 303.795939 36.657696 
L 304.017039 36.262905 
L 304.238139 36.837328 
L 304.459239 36.837328 
L 304.68034 35.760092 
L 304.90144 36.83734 
L 305.12254 36.837328 
L 305.34364 37.196231 
L 305.564741 38.776109 
L 305.785841 38.093925 
L 306.006941 38.542796 
L 306.449141 38.632483 
L 306.670242 38.632598 
L 306.891342 37.645358 
L 307.112442 39.17104 
L 307.333542 38.77611 
L 307.554643 39.170964 
L 307.775743 39.260917 
L 307.996843 39.709575 
L 308.217943 40.858592 
L 308.660144 39.799316 
L 308.881244 40.571276 
L 309.102344 39.709575 
L 309.544545 39.709575 
L 309.765645 40.858432 
L 309.986745 40.337936 
L 310.650046 40.571254 
L 310.871146 41.145699 
L 311.092246 41.325226 
L 311.313347 40.966309 
L 311.534447 41.145699 
L 311.755547 39.978933 
L 311.976647 41.14576 
L 312.197748 41.145699 
L 312.418848 42.581773 
L 312.639948 42.40231 
L 312.861048 42.402249 
L 313.082149 41.576514 
L 313.524349 43.210052 
L 313.745449 42.581822 
L 314.18765 43.300339 
L 314.40875 41.415025 
L 315.072051 44.017945 
L 315.293151 44.466905 
L 315.514251 42.581822 
L 315.735351 44.017945 
L 315.956452 43.299838 
L 316.177552 44.017945 
L 316.398652 43.443593 
L 316.619752 45.274569 
L 316.840852 44.017945 
L 317.061953 44.736007 
L 317.283053 44.592511 
L 317.504153 45.005215 
L 317.725253 44.736007 
L 317.946354 43.83824 
L 318.167454 43.730858 
L 318.388554 45.454069 
L 318.609654 45.095205 
L 318.830755 44.197469 
L 319.051855 45.310383 
L 319.936256 45.454129 
L 320.157356 46.261861 
L 320.378456 46.17213 
L 320.599556 45.884917 
L 320.820657 47.2493 
L 321.041757 46.262138 
L 321.262857 47.249269 
L 321.483957 46.172118 
L 321.926158 47.069509 
L 322.147258 46.531117 
L 322.368358 47.823691 
L 322.589459 48.326315 
L 323.031659 48.326315 
L 323.252759 47.679984 
L 323.47386 48.326315 
L 323.69496 48.326315 
L 323.91606 47.895599 
L 324.35826 48.864961 
L 324.800461 48.900808 
L 325.021561 49.941758 
L 325.242661 48.685377 
L 325.463762 51.198562 
L 325.684862 49.762439 
L 325.905962 50.929205 
L 326.348163 50.480501 
L 326.569263 51.198562 
L 326.790363 51.198562 
L 327.011463 50.480562 
L 327.232564 51.126641 
L 327.453664 49.762468 
L 327.674764 51.108878 
L 328.116964 48.326315 
L 328.338065 49.223808 
L 328.559165 48.954805 
L 328.780265 48.326315 
L 329.001365 48.326315 
L 329.222466 48.68533 
L 329.664666 48.146871 
L 329.885766 48.110842 
L 330.327967 47.069694 
L 330.549067 46.890315 
L 330.770167 45.669369 
L 330.991267 45.454162 
L 331.212368 45.454069 
L 331.433468 44.305217 
L 331.654568 44.825707 
L 331.875668 43.120684 
L 332.096769 44.017945 
L 332.538969 43.120473 
L 332.760069 41.863606 
L 332.98117 42.581822 
L 333.20227 41.43292 
L 333.42337 41.325371 
L 333.64447 39.889099 
L 333.865571 39.260949 
L 334.086671 40.858608 
L 334.307771 40.337859 
L 334.528871 38.991621 
L 334.749971 39.063398 
L 334.971072 38.991513 
L 335.192172 38.452729 
L 335.413272 38.811954 
L 335.634372 38.273452 
L 335.855473 37.1966 
L 336.297673 36.478327 
L 336.518773 37.55539 
L 336.739874 37.196297 
L 336.960974 36.119267 
L 337.182074 36.298824 
L 337.403174 36.119267 
L 337.845375 34.593346 
L 338.066475 36.837196 
L 338.287575 34.036885 
L 338.508675 35.401205 
L 338.729776 33.426761 
L 338.950876 33.965082 
L 339.171976 32.797919 
L 339.614177 33.965082 
L 340.056377 33.695802 
L 340.277477 33.246932 
L 340.498578 33.516336 
L 340.719678 32.816221 
L 340.940778 32.528958 
L 341.161878 32.708445 
L 341.604079 32.241642 
L 341.825179 33.24702 
L 342.046279 31.810743 
L 342.267379 32.528958 
L 342.48848 31.092897 
L 342.70958 31.18272 
L 342.93068 31.092835 
L 343.15178 30.0875 
L 343.372881 30.374773 
L 343.593981 29.656711 
L 343.815081 29.656745 
L 344.257282 28.57956 
L 344.478382 28.220588 
L 344.699482 28.400136 
L 344.920582 27.789868 
L 345.141682 28.220588 
L 345.362783 26.784465 
L 345.583883 26.784177 
L 346.026083 23.912634 
L 346.247184 25.976579 
L 346.468284 25.06111 
L 346.689384 25.796702 
L 346.910484 24.989284 
L 347.131585 23.642935 
L 347.573785 23.014561 
L 347.794885 24.271258 
L 348.015986 24.001867 
L 348.458186 22.476095 
L 349.121487 22.476095 
L 349.342587 23.732562 
L 349.563687 23.911814 
L 349.784787 22.547932 
L 350.005888 22.475897 
L 350.226988 22.924638 
L 350.448088 21.578481 
L 350.669188 21.758033 
L 350.890289 22.117007 
L 351.111389 22.027331 
L 351.332489 21.398813 
L 351.99579 21.309193 
L 352.43799 20.537307 
L 352.65909 21.578515 
L 352.880191 21.758033 
L 353.101291 22.476095 
L 353.322391 22.332394 
L 353.543491 22.475945 
L 353.764592 21.039971 
L 354.206792 23.642655 
L 354.427892 22.117129 
L 354.648993 21.488796 
L 354.870093 22.045292 
L 355.091193 23.01472 
L 355.312293 22.117112 
L 355.533394 22.476095 
L 355.975594 23.912218 
L 356.196694 23.912218 
L 356.417794 25.258684 
L 356.638895 24.917375 
L 356.859995 25.348341 
L 357.081095 25.348164 
L 357.302195 25.922802 
L 357.523296 26.066403 
L 357.744396 25.97661 
L 357.965496 25.707352 
L 358.407697 28.04109 
L 358.628797 27.502526 
L 358.849897 27.50241 
L 359.070997 28.220588 
L 359.955398 28.220588 
L 360.176498 28.579715 
L 360.397599 29.746354 
L 360.618699 29.656711 
L 360.839799 29.800486 
L 361.282 31.092835 
L 361.5031 32.098332 
L 361.9453 32.528958 
L 362.166401 31.900407 
L 362.387501 33.534242 
L 362.608601 33.695815 
L 363.050801 35.849938 
L 363.271902 35.401205 
L 363.493002 35.311347 
L 363.935202 38.812107 
L 364.156303 37.124606 
L 364.377403 37.645018 
L 364.598503 37.555518 
L 364.819603 39.135041 
L 365.040704 38.991632 
L 365.261804 39.709575 
L 365.482904 41.145699 
L 365.704004 41.145699 
L 365.925105 41.684225 
L 366.146205 41.68411 
L 366.367305 42.222779 
L 366.588405 43.299884 
L 367.030606 44.017945 
L 367.251706 43.659076 
L 367.693906 41.504918 
L 367.915007 41.86376 
L 368.136107 39.709575 
L 368.357207 39.709575 
L 368.578307 38.991513 
L 368.799408 38.991513 
L 369.020508 39.709575 
L 369.241608 37.016853 
L 369.462708 36.837328 
L 369.683809 36.837328 
L 369.904909 36.550036 
L 370.126009 36.837328 
L 370.347109 35.401205 
L 370.568209 35.401205 
L 370.78931 33.534269 
L 371.01041 33.516319 
L 371.23151 33.965082 
L 371.45261 33.785583 
L 371.673711 32.528958 
L 371.894811 32.079917 
L 372.115911 33.247017 
L 372.337011 31.810897 
L 372.779212 32.977791 
L 373.000312 30.913422 
L 373.221412 30.661967 
L 373.442512 29.836201 
L 373.663613 30.554098 
L 373.884713 30.374841 
L 374.769114 27.682007 
L 375.211314 27.861779 
L 375.432415 27.951385 
L 375.874615 25.491782 
L 376.095715 26.784441 
L 376.316816 24.091582 
L 377.201216 22.476095 
L 377.422317 20.17836 
L 377.864517 19.603848 
L 378.085617 20.052697 
L 378.527818 16.731601 
L 378.748918 16.731601 
L 379.191119 16.301106 
L 379.633319 78.485399 
L 380.07552 109.361426 
L 380.51772 118.337125 
L 380.95992 122.825288 
L 381.181021 122.107253 
L 381.402121 122.64578 
L 381.623221 123.72286 
L 381.844321 124.081835 
L 382.065422 124.08152 
L 382.286522 123.543312 
L 382.507622 125.230586 
L 382.728722 123.004732 
L 382.949823 123.184293 
L 383.170923 125.158917 
L 383.392023 124.871889 
L 383.613123 123.004834 
L 383.834224 125.069281 
L 384.055324 125.302395 
L 384.276424 125.069205 
L 384.718624 120.132485 
L 384.939725 119.701642 
L 385.381925 116.183081 
L 385.603025 114.657249 
L 385.824126 114.387991 
L 386.045226 111.515744 
L 386.266326 111.336233 
L 386.708527 109.074489 
L 386.929627 108.463967 
L 387.150727 105.771441 
L 387.371827 105.125083 
L 387.592927 105.053189 
L 387.814028 103.078306 
L 388.035128 102.899004 
L 388.256228 100.88852 
L 388.477328 100.026757 
L 388.698429 99.757481 
L 389.361729 96.436349 
L 389.58283 95.718387 
L 389.80393 93.02563 
L 390.02503 93.421009 
L 390.24613 91.410017 
L 390.467231 91.410017 
L 390.688331 89.973737 
L 391.130531 89.973653 
L 391.351631 87.281412 
L 391.572732 86.096511 
L 391.793832 85.665523 
L 392.014932 86.742473 
L 392.457133 84.947462 
L 392.678233 82.793277 
L 392.899333 82.434302 
L 393.120433 82.344519 
L 393.562634 79.92103 
L 393.783734 80.279976 
L 394.225935 78.628479 
L 394.447035 79.023429 
L 394.668135 78.484624 
L 395.110335 76.330774 
L 395.331436 75.792455 
L 395.552536 73.458518 
L 395.773636 73.171221 
L 395.994736 74.176536 
L 396.215837 73.638075 
L 396.436937 73.458475 
L 396.879137 71.30429 
L 397.100238 71.573579 
L 397.763538 69.868166 
L 397.984639 68.432043 
L 398.426839 68.432043 
L 398.647939 66.996424 
L 398.869039 68.162533 
L 399.09014 67.42673 
L 399.31124 68.252803 
L 399.53234 66.457399 
L 399.75344 66.547153 
L 399.974541 66.995919 
L 400.416741 65.918837 
L 400.858942 63.836383 
L 401.080042 64.841734 
L 401.301142 65.200756 
L 401.522242 62.329054 
L 401.743342 63.262002 
L 402.406643 61.39512 
L 402.627743 61.251604 
L 402.848844 59.995006 
L 403.069944 60.353884 
L 403.291044 60.461404 
L 403.733245 59.545993 
L 404.175445 59.456282 
L 404.396545 58.020072 
L 404.617646 60.712756 
L 404.838746 59.276822 
L 405.059846 59.599915 
L 405.280946 59.097282 
L 405.502046 57.750994 
L 405.723147 58.379179 
L 405.944247 58.163657 
L 406.165347 56.225642 
L 406.386447 56.404575 
L 406.607548 56.943056 
L 406.828648 56.943056 
L 407.049748 57.481541 
L 407.270848 56.494243 
L 407.713049 58.917829 
L 407.934149 56.943056 
L 408.155249 57.481597 
L 408.37635 57.517387 
L 408.59745 58.379179 
L 408.81855 58.379179 
L 409.03965 58.110244 
L 409.26075 56.655764 
L 409.481851 56.314856 
L 409.702951 56.942854 
L 409.924051 56.943056 
L 410.145151 54.071061 
L 410.366252 55.327321 
L 410.587352 53.352756 
L 410.808452 53.711337 
L 411.029552 51.916603 
L 411.250653 53.083483 
L 411.471753 52.275725 
L 411.692853 50.839578 
L 411.913953 51.916624 
L 412.356154 50.480501 
L 412.577254 50.983138 
L 413.019454 49.762439 
L 413.240555 48.32638 
L 413.461655 49.762439 
L 413.682755 49.762207 
L 414.124956 47.4644 
L 414.346056 48.236495 
L 414.567156 47.96725 
L 414.788256 48.057113 
L 415.009357 47.895486 
L 415.230457 48.326315 
L 415.451557 47.608091 
L 415.672657 47.787682 
L 415.893757 47.464597 
L 416.114858 46.531032 
L 416.335958 48.326315 
L 416.557058 46.530895 
L 416.778158 47.751883 
L 416.999259 47.697869 
L 417.220359 48.326315 
L 417.441459 48.326315 
L 417.88366 47.069711 
L 418.10476 48.146844 
L 418.32586 47.823735 
L 418.54696 48.326315 
L 418.768061 47.877472 
L 418.989161 47.967309 
L 419.210261 48.326315 
L 419.431361 47.967218 
L 419.652461 48.326315 
L 419.873562 47.249037 
L 420.094662 48.326315 
L 420.536862 47.069544 
L 420.979063 48.326315 
L 421.200163 48.326315 
L 421.421263 49.582958 
L 421.642364 49.475409 
L 421.863464 49.58289 
L 422.084564 48.505802 
L 422.305664 48.326315 
L 422.526765 48.326315 
L 422.747865 49.31361 
L 422.968965 49.044456 
L 423.190065 49.134404 
L 423.411165 50.480501 
L 423.632266 51.108764 
L 423.853366 51.019155 
L 424.074466 51.198562 
L 424.295566 50.911231 
L 424.516667 51.377885 
L 424.737767 52.634686 
L 425.179967 54.070554 
L 425.401068 53.262992 
L 425.622168 53.891383 
L 425.843268 54.070809 
L 426.064368 53.891252 
L 426.285469 54.609153 
L 426.506569 55.865985 
L 426.948769 56.58408 
L 427.169869 56.224994 
L 427.39097 56.943056 
L 427.61207 56.943056 
L 427.83317 56.583287 
L 428.05427 57.1225 
L 428.275371 58.379075 
L 428.496471 58.88211 
L 428.717571 59.815279 
L 428.938671 59.097241 
L 429.601972 60.353924 
L 429.823072 59.815303 
L 430.044172 61.251426 
L 430.265273 60.173989 
L 431.149674 62.687549 
L 431.370774 62.687549 
L 431.591874 62.149054 
L 431.812974 62.974955 
L 432.034075 62.687549 
L 432.255175 62.687549 
L 432.476275 62.902649 
L 432.697375 64.841734 
L 432.918476 65.470087 
L 433.139576 65.380166 
L 433.360676 66.062451 
L 433.581776 65.559796 
L 433.802876 65.829131 
L 434.023977 65.918894 
L 434.245077 66.636959 
L 434.466177 66.636914 
L 434.687277 67.444796 
L 434.908378 67.713981 
L 435.129478 67.498527 
L 435.350578 67.534543 
L 435.571678 68.342275 
L 435.792779 68.431945 
L 436.013879 68.288549 
L 436.234979 69.868122 
L 436.456079 69.68887 
L 436.67718 68.288603 
L 436.89828 68.701216 
L 437.11938 70.586228 
L 437.34048 70.13744 
L 437.56158 69.29373 
L 438.003781 70.586123 
L 438.224881 70.586228 
L 438.445981 70.729784 
L 438.667082 71.30429 
L 438.888182 71.30429 
L 439.109282 70.676015 
L 439.330382 71.30429 
L 439.551483 70.855488 
L 439.993683 71.950447 
L 440.214783 72.740407 
L 440.435884 72.561086 
L 440.656984 73.458475 
L 440.878084 71.735191 
L 441.099184 72.740413 
L 441.320284 72.740413 
L 441.541385 73.817452 
L 441.762485 73.458475 
L 441.983585 73.817468 
L 442.204685 73.189244 
L 442.425786 72.919974 
L 442.646886 73.673966 
L 442.867986 73.099382 
L 443.089086 73.548247 
L 443.310187 73.458619 
L 443.531287 74.176536 
L 443.752387 72.740617 
L 443.973487 74.176536 
L 444.194587 73.602093 
L 444.415688 74.176536 
L 444.636788 75.253461 
L 444.857888 75.074204 
L 445.078988 76.330721 
L 445.300089 75.433206 
L 445.521189 75.61266 
L 445.742289 76.779491 
L 445.963389 76.043479 
L 446.18449 76.959197 
L 446.62669 77.048783 
L 446.84779 76.905221 
L 447.068891 77.138541 
L 447.511091 77.048783 
L 447.732191 77.048826 
L 447.953291 77.228018 
L 448.174392 77.946383 
L 448.395492 77.982259 
L 448.616592 78.664125 
L 448.837692 77.587269 
L 449.058793 79.562007 
L 449.279893 78.48476 
L 449.722093 79.831261 
L 449.943194 79.741507 
L 450.164294 78.915588 
L 450.385394 79.92103 
L 450.827595 79.92103 
L 451.048695 80.064671 
L 451.269795 81.356925 
L 451.490895 81.357153 
L 451.711995 80.208301 
L 451.933096 81.985583 
L 452.154196 81.357153 
L 452.375296 82.523969 
L 452.596396 82.36237 
L 452.817497 82.793277 
L 453.038597 82.434269 
L 453.259697 81.626491 
L 453.480797 81.931712 
L 453.701898 81.805953 
L 453.922998 82.434261 
L 454.144098 82.613518 
L 454.365198 82.506079 
L 454.586299 84.678051 
L 455.028499 81.644475 
L 455.249599 82.793435 
L 455.470699 85.306068 
L 455.6918 83.331846 
L 455.9129 84.804016 
L 456.134 85.306387 
L 456.3551 85.037367 
L 456.576201 85.66537 
L 457.239501 83.601245 
L 457.460602 83.511552 
L 457.902802 85.845016 
L 458.123902 85.665523 
L 458.566103 85.665523 
L 459.008303 86.832238 
L 459.229403 85.665523 
L 459.671604 86.024538 
L 459.892704 87.011925 
L 460.334905 87.101647 
L 460.556005 87.819662 
L 460.777105 86.652844 
L 460.998205 88.53777 
L 461.219306 87.999155 
L 461.440406 87.999263 
L 461.661506 88.53777 
L 461.882606 88.53777 
L 462.324807 87.101874 
L 462.545907 87.245287 
L 462.767007 87.81994 
L 462.988107 89.166014 
L 463.209208 88.53777 
L 463.430308 89.040492 
L 463.651408 88.53777 
L 463.872508 89.973894 
L 464.093609 88.53777 
L 464.314709 88.53777 
L 464.535809 89.255799 
L 464.756909 89.435407 
L 464.97801 89.255832 
L 465.19911 89.471246 
L 465.42021 90.332877 
L 465.64131 88.717006 
L 466.083511 91.266282 
L 466.304611 89.25596 
L 466.525711 90.602198 
L 466.746811 89.112018 
L 466.967912 88.807269 
L 467.631212 91.410017 
L 467.852313 91.410017 
L 468.073413 90.332855 
L 468.294513 90.96126 
L 468.515613 90.979148 
L 468.736714 91.948474 
L 468.957814 91.410017 
L 469.178914 91.410017 
L 469.400014 92.271698 
L 469.621114 90.781851 
L 469.842215 91.410152 
L 470.063315 93.348852 
L 470.284415 92.845854 
L 470.505515 91.410017 
L 470.726616 91.768985 
L 470.947716 92.91773 
L 471.168816 92.84614 
L 471.389916 91.140787 
L 471.832117 93.564202 
L 472.053217 93.205226 
L 472.274317 93.294913 
L 472.495417 91.948247 
L 472.716518 92.05637 
L 472.937618 92.486971 
L 473.158718 92.666813 
L 473.379818 92.128084 
L 473.600919 92.774236 
L 473.822019 94.282099 
L 474.043119 93.025646 
L 474.48532 93.923116 
L 474.70642 93.205138 
L 474.92752 94.282264 
L 475.14862 94.282264 
L 475.369721 93.564202 
L 475.590821 93.564202 
L 475.811921 94.192274 
L 476.033021 93.707805 
L 476.475222 94.282264 
L 476.696322 94.282264 
L 476.917422 94.138608 
L 477.138522 93.025438 
L 477.359623 94.282264 
L 477.580723 92.84614 
L 477.801823 94.282264 
L 478.022923 94.102728 
L 478.244024 93.74364 
L 478.686224 94.282264 
L 478.907324 94.731141 
L 479.128425 94.282264 
L 479.349525 95.000279 
L 479.349525 95.000279 
" style="fill:none;stroke:#1f77b4;stroke-linecap:square;stroke-width:1.5;"></path>
   </g>
   <g id="patch_3">
    <path d="M 37.370156 138.559687 
L 37.370156 3.6 
" style="fill:none;stroke:#808080;stroke-linecap:square;stroke-linejoin:miter;stroke-width:0.5;"></path>
   </g>
   <g id="patch_4">
    <path d="M 479.570625 138.559687 
L 479.570625 3.6 
" style="fill:none;stroke:#808080;stroke-linecap:square;stroke-linejoin:miter;stroke-width:0.5;"></path>
   </g>
   <g id="patch_5">
    <path d="M 37.370156 138.559687 
L 479.570625 138.559687 
" style="fill:none;stroke:#808080;stroke-linecap:square;stroke-linejoin:miter;stroke-width:0.5;"></path>
   </g>
   <g id="patch_6">
    <path d="M 37.370156 3.6 
L 479.570625 3.6 
" style="fill:none;stroke:#808080;stroke-linecap:square;stroke-linejoin:miter;stroke-width:0.5;"></path>
   </g>
   <g id="line2d_32">
    <path clip-path="url(#p1bba1567ee)" d="M 159.010661 138.559687 
L 159.010661 3.6 
" style="fill:none;stroke:#ffa500;stroke-linecap:square;stroke-width:1.5;"></path>
   </g>
   <g id="line2d_33">
    <path clip-path="url(#p1bba1567ee)" d="M 222.192259 138.559687 
L 222.192259 3.6 
" style="fill:none;stroke:#ffa500;stroke-linecap:square;stroke-width:1.5;"></path>
   </g>
   <g id="line2d_34">
    <path clip-path="url(#p1bba1567ee)" d="M 378.607426 138.559687 
L 378.607426 3.6 
" style="fill:none;stroke:#ffa500;stroke-linecap:square;stroke-width:1.5;"></path>
   </g>
  </g>
  <g id="axes_2">
   <g id="patch_7">
    <path d="M 37.370156 283.239375 
L 479.570625 283.239375 
L 479.570625 148.279687 
L 37.370156 148.279687 
z
" style="fill:#ffffff;"></path>
   </g>
   <g id="matplotlib.axis_3">
    <g id="xtick_10">
     <g id="line2d_35">
      <path clip-path="url(#p394351f1f1)" d="M 37.370156 283.239375 
L 37.370156 148.279687 
" style="fill:none;stroke:#808080;stroke-dasharray:0.5,0.825;stroke-dashoffset:0;stroke-width:0.5;"></path>
     </g>
     <g id="line2d_36"></g>
     <g id="text_8">
      <!-- 0 -->
      <g transform="translate(34.507031 293.577969)scale(0.09 -0.09)">
       <use xlink:href="#DejaVuSans-48"></use>
      </g>
     </g>
    </g>
    <g id="xtick_11">
     <g id="line2d_37">
      <path clip-path="url(#p394351f1f1)" d="M 92.645215 283.239375 
L 92.645215 148.279687 
" style="fill:none;stroke:#808080;stroke-dasharray:0.5,0.825;stroke-dashoffset:0;stroke-width:0.5;"></path>
     </g>
     <g id="line2d_38"></g>
     <g id="text_9">
      <!-- 25 -->
      <defs>
       <path d="M 10.796875 72.90625 
L 49.515625 72.90625 
L 49.515625 64.59375 
L 19.828125 64.59375 
L 19.828125 46.734375 
Q 21.96875 47.46875 24.109375 47.828125 
Q 26.265625 48.1875 28.421875 48.1875 
Q 40.625 48.1875 47.75 41.5 
Q 54.890625 34.8125 54.890625 23.390625 
Q 54.890625 11.625 47.5625 5.09375 
Q 40.234375 -1.421875 26.90625 -1.421875 
Q 22.3125 -1.421875 17.546875 -0.640625 
Q 12.796875 0.140625 7.71875 1.703125 
L 7.71875 11.625 
Q 12.109375 9.234375 16.796875 8.0625 
Q 21.484375 6.890625 26.703125 6.890625 
Q 35.15625 6.890625 40.078125 11.328125 
Q 45.015625 15.765625 45.015625 23.390625 
Q 45.015625 31 40.078125 35.4375 
Q 35.15625 39.890625 26.703125 39.890625 
Q 22.75 39.890625 18.8125 39.015625 
Q 14.890625 38.140625 10.796875 36.28125 
z
" id="DejaVuSans-53"></path>
      </defs>
      <g transform="translate(86.918965 293.577969)scale(0.09 -0.09)">
       <use xlink:href="#DejaVuSans-50"></use>
       <use x="63.623047" xlink:href="#DejaVuSans-53"></use>
      </g>
     </g>
    </g>
    <g id="xtick_12">
     <g id="line2d_39">
      <path clip-path="url(#p394351f1f1)" d="M 147.920273 283.239375 
L 147.920273 148.279687 
" style="fill:none;stroke:#808080;stroke-dasharray:0.5,0.825;stroke-dashoffset:0;stroke-width:0.5;"></path>
     </g>
     <g id="line2d_40"></g>
     <g id="text_10">
      <!-- 50 -->
      <g transform="translate(142.194023 293.577969)scale(0.09 -0.09)">
       <use xlink:href="#DejaVuSans-53"></use>
       <use x="63.623047" xlink:href="#DejaVuSans-48"></use>
      </g>
     </g>
    </g>
    <g id="xtick_13">
     <g id="line2d_41">
      <path clip-path="url(#p394351f1f1)" d="M 203.195332 283.239375 
L 203.195332 148.279687 
" style="fill:none;stroke:#808080;stroke-dasharray:0.5,0.825;stroke-dashoffset:0;stroke-width:0.5;"></path>
     </g>
     <g id="line2d_42"></g>
     <g id="text_11">
      <!-- 75 -->
      <defs>
       <path d="M 8.203125 72.90625 
L 55.078125 72.90625 
L 55.078125 68.703125 
L 28.609375 0 
L 18.3125 0 
L 43.21875 64.59375 
L 8.203125 64.59375 
z
" id="DejaVuSans-55"></path>
      </defs>
      <g transform="translate(197.469082 293.577969)scale(0.09 -0.09)">
       <use xlink:href="#DejaVuSans-55"></use>
       <use x="63.623047" xlink:href="#DejaVuSans-53"></use>
      </g>
     </g>
    </g>
    <g id="xtick_14">
     <g id="line2d_43">
      <path clip-path="url(#p394351f1f1)" d="M 258.470391 283.239375 
L 258.470391 148.279687 
" style="fill:none;stroke:#808080;stroke-dasharray:0.5,0.825;stroke-dashoffset:0;stroke-width:0.5;"></path>
     </g>
     <g id="line2d_44"></g>
     <g id="text_12">
      <!-- 100 -->
      <g transform="translate(249.881016 293.577969)scale(0.09 -0.09)">
       <use xlink:href="#DejaVuSans-49"></use>
       <use x="63.623047" xlink:href="#DejaVuSans-48"></use>
       <use x="127.246094" xlink:href="#DejaVuSans-48"></use>
      </g>
     </g>
    </g>
    <g id="xtick_15">
     <g id="line2d_45">
      <path clip-path="url(#p394351f1f1)" d="M 313.745449 283.239375 
L 313.745449 148.279687 
" style="fill:none;stroke:#808080;stroke-dasharray:0.5,0.825;stroke-dashoffset:0;stroke-width:0.5;"></path>
     </g>
     <g id="line2d_46"></g>
     <g id="text_13">
      <!-- 125 -->
      <g transform="translate(305.156074 293.577969)scale(0.09 -0.09)">
       <use xlink:href="#DejaVuSans-49"></use>
       <use x="63.623047" xlink:href="#DejaVuSans-50"></use>
       <use x="127.246094" xlink:href="#DejaVuSans-53"></use>
      </g>
     </g>
    </g>
    <g id="xtick_16">
     <g id="line2d_47">
      <path clip-path="url(#p394351f1f1)" d="M 369.020508 283.239375 
L 369.020508 148.279687 
" style="fill:none;stroke:#808080;stroke-dasharray:0.5,0.825;stroke-dashoffset:0;stroke-width:0.5;"></path>
     </g>
     <g id="line2d_48"></g>
     <g id="text_14">
      <!-- 150 -->
      <g transform="translate(360.431133 293.577969)scale(0.09 -0.09)">
       <use xlink:href="#DejaVuSans-49"></use>
       <use x="63.623047" xlink:href="#DejaVuSans-53"></use>
       <use x="127.246094" xlink:href="#DejaVuSans-48"></use>
      </g>
     </g>
    </g>
    <g id="xtick_17">
     <g id="line2d_49">
      <path clip-path="url(#p394351f1f1)" d="M 424.295566 283.239375 
L 424.295566 148.279687 
" style="fill:none;stroke:#808080;stroke-dasharray:0.5,0.825;stroke-dashoffset:0;stroke-width:0.5;"></path>
     </g>
     <g id="line2d_50"></g>
     <g id="text_15">
      <!-- 175 -->
      <g transform="translate(415.706191 293.577969)scale(0.09 -0.09)">
       <use xlink:href="#DejaVuSans-49"></use>
       <use x="63.623047" xlink:href="#DejaVuSans-55"></use>
       <use x="127.246094" xlink:href="#DejaVuSans-53"></use>
      </g>
     </g>
    </g>
    <g id="xtick_18">
     <g id="line2d_51">
      <path clip-path="url(#p394351f1f1)" d="M 479.570625 283.239375 
L 479.570625 148.279687 
" style="fill:none;stroke:#808080;stroke-dasharray:0.5,0.825;stroke-dashoffset:0;stroke-width:0.5;"></path>
     </g>
     <g id="line2d_52"></g>
     <g id="text_16">
      <!-- 200 -->
      <g transform="translate(470.98125 293.577969)scale(0.09 -0.09)">
       <use xlink:href="#DejaVuSans-50"></use>
       <use x="63.623047" xlink:href="#DejaVuSans-48"></use>
       <use x="127.246094" xlink:href="#DejaVuSans-48"></use>
      </g>
     </g>
    </g>
    <g id="text_17">
     <!-- time / s -->
     <defs>
      <path d="M 18.3125 70.21875 
L 18.3125 54.6875 
L 36.8125 54.6875 
L 36.8125 47.703125 
L 18.3125 47.703125 
L 18.3125 18.015625 
Q 18.3125 11.328125 20.140625 9.421875 
Q 21.96875 7.515625 27.59375 7.515625 
L 36.8125 7.515625 
L 36.8125 0 
L 27.59375 0 
Q 17.1875 0 13.234375 3.875 
Q 9.28125 7.765625 9.28125 18.015625 
L 9.28125 47.703125 
L 2.6875 47.703125 
L 2.6875 54.6875 
L 9.28125 54.6875 
L 9.28125 70.21875 
z
" id="DejaVuSans-116"></path>
      <path d="M 9.421875 54.6875 
L 18.40625 54.6875 
L 18.40625 0 
L 9.421875 0 
z
M 9.421875 75.984375 
L 18.40625 75.984375 
L 18.40625 64.59375 
L 9.421875 64.59375 
z
" id="DejaVuSans-105"></path>
      <path d="M 25.390625 72.90625 
L 33.6875 72.90625 
L 8.296875 -9.28125 
L 0 -9.28125 
z
" id="DejaVuSans-47"></path>
      <path d="M 8.5 -20.796875 
L 8.5 54.6875 
L 17.484375 54.6875 
L 17.484375 20.703125 
Q 17.484375 13.625 20.84375 10 
Q 24.21875 6.390625 30.8125 6.390625 
Q 38.03125 6.390625 41.671875 10.484375 
Q 45.3125 14.59375 45.3125 22.796875 
L 45.3125 54.6875 
L 54.296875 54.6875 
L 54.296875 12.59375 
Q 54.296875 9.671875 55.140625 8.28125 
Q 56 6.890625 57.8125 6.890625 
Q 58.25 6.890625 59.03125 7.15625 
Q 59.8125 7.421875 61.1875 8.015625 
L 61.1875 0.78125 
Q 59.1875 -0.34375 57.390625 -0.875 
Q 55.609375 -1.421875 53.90625 -1.421875 
Q 50.53125 -1.421875 48.53125 0.484375 
Q 46.53125 2.390625 45.796875 6.296875 
Q 43.359375 2.4375 39.8125 0.5 
Q 36.28125 -1.421875 31.5 -1.421875 
Q 26.515625 -1.421875 23.015625 0.484375 
Q 19.53125 2.390625 17.484375 6.203125 
L 17.484375 -20.796875 
z
" id="DejaVuSans-956"></path>
      <path d="M 44.28125 53.078125 
L 44.28125 44.578125 
Q 40.484375 46.53125 36.375 47.5 
Q 32.28125 48.484375 27.875 48.484375 
Q 21.1875 48.484375 17.84375 46.4375 
Q 14.5 44.390625 14.5 40.28125 
Q 14.5 37.15625 16.890625 35.375 
Q 19.28125 33.59375 26.515625 31.984375 
L 29.59375 31.296875 
Q 39.15625 29.25 43.1875 25.515625 
Q 47.21875 21.78125 47.21875 15.09375 
Q 47.21875 7.46875 41.1875 3.015625 
Q 35.15625 -1.421875 24.609375 -1.421875 
Q 20.21875 -1.421875 15.453125 -0.5625 
Q 10.6875 0.296875 5.421875 2 
L 5.421875 11.28125 
Q 10.40625 8.6875 15.234375 7.390625 
Q 20.0625 6.109375 24.8125 6.109375 
Q 31.15625 6.109375 34.5625 8.28125 
Q 37.984375 10.453125 37.984375 14.40625 
Q 37.984375 18.0625 35.515625 20.015625 
Q 33.0625 21.96875 24.703125 23.78125 
L 21.578125 24.515625 
Q 13.234375 26.265625 9.515625 29.90625 
Q 5.8125 33.546875 5.8125 39.890625 
Q 5.8125 47.609375 11.28125 51.796875 
Q 16.75 56 26.8125 56 
Q 31.78125 56 36.171875 55.265625 
Q 40.578125 54.546875 44.28125 53.078125 
z
" id="DejaVuSans-115"></path>
     </defs>
     <g transform="translate(238.720313 306.288281)scale(0.09 -0.09)">
      <use xlink:href="#DejaVuSans-116"></use>
      <use x="39.208984" xlink:href="#DejaVuSans-105"></use>
      <use x="66.992188" xlink:href="#DejaVuSans-109"></use>
      <use x="164.404297" xlink:href="#DejaVuSans-101"></use>
      <use x="225.927734" xlink:href="#DejaVuSans-32"></use>
      <use x="257.714844" xlink:href="#DejaVuSans-47"></use>
      <use x="291.40625" xlink:href="#DejaVuSans-32"></use>
      <use x="323.193359" xlink:href="#DejaVuSans-956"></use>
      <use x="386.816406" xlink:href="#DejaVuSans-115"></use>
     </g>
    </g>
   </g>
   <g id="matplotlib.axis_4">
    <g id="ytick_7">
     <g id="line2d_53">
      <path clip-path="url(#p394351f1f1)" d="M 37.370156 269.743406 
L 479.570625 269.743406 
" style="fill:none;stroke:#808080;stroke-dasharray:0.5,0.825;stroke-dashoffset:0;stroke-width:0.5;"></path>
     </g>
     <g id="line2d_54"></g>
     <g id="text_18">
      <!-- -0.4 -->
      <defs>
       <path d="M 4.890625 31.390625 
L 31.203125 31.390625 
L 31.203125 23.390625 
L 4.890625 23.390625 
z
" id="DejaVuSans-45"></path>
      </defs>
      <g transform="translate(16.310313 273.162703)scale(0.09 -0.09)">
       <use xlink:href="#DejaVuSans-45"></use>
       <use x="36.083984" xlink:href="#DejaVuSans-48"></use>
       <use x="99.707031" xlink:href="#DejaVuSans-46"></use>
       <use x="131.494141" xlink:href="#DejaVuSans-52"></use>
      </g>
     </g>
    </g>
    <g id="ytick_8">
     <g id="line2d_55">
      <path clip-path="url(#p394351f1f1)" d="M 37.370156 242.751469 
L 479.570625 242.751469 
" style="fill:none;stroke:#808080;stroke-dasharray:0.5,0.825;stroke-dashoffset:0;stroke-width:0.5;"></path>
     </g>
     <g id="line2d_56"></g>
     <g id="text_19">
      <!-- -0.2 -->
      <g transform="translate(16.310313 246.170766)scale(0.09 -0.09)">
       <use xlink:href="#DejaVuSans-45"></use>
       <use x="36.083984" xlink:href="#DejaVuSans-48"></use>
       <use x="99.707031" xlink:href="#DejaVuSans-46"></use>
       <use x="131.494141" xlink:href="#DejaVuSans-50"></use>
      </g>
     </g>
    </g>
    <g id="ytick_9">
     <g id="line2d_57">
      <path clip-path="url(#p394351f1f1)" d="M 37.370156 215.759531 
L 479.570625 215.759531 
" style="fill:none;stroke:#808080;stroke-dasharray:0.5,0.825;stroke-dashoffset:0;stroke-width:0.5;"></path>
     </g>
     <g id="line2d_58"></g>
     <g id="text_20">
      <!-- 0.0 -->
      <g transform="translate(19.557344 219.178828)scale(0.09 -0.09)">
       <use xlink:href="#DejaVuSans-48"></use>
       <use x="63.623047" xlink:href="#DejaVuSans-46"></use>
       <use x="95.410156" xlink:href="#DejaVuSans-48"></use>
      </g>
     </g>
    </g>
    <g id="ytick_10">
     <g id="line2d_59">
      <path clip-path="url(#p394351f1f1)" d="M 37.370156 188.767594 
L 479.570625 188.767594 
" style="fill:none;stroke:#808080;stroke-dasharray:0.5,0.825;stroke-dashoffset:0;stroke-width:0.5;"></path>
     </g>
     <g id="line2d_60"></g>
     <g id="text_21">
      <!-- 0.2 -->
      <g transform="translate(19.557344 192.186891)scale(0.09 -0.09)">
       <use xlink:href="#DejaVuSans-48"></use>
       <use x="63.623047" xlink:href="#DejaVuSans-46"></use>
       <use x="95.410156" xlink:href="#DejaVuSans-50"></use>
      </g>
     </g>
    </g>
    <g id="ytick_11">
     <g id="line2d_61">
      <path clip-path="url(#p394351f1f1)" d="M 37.370156 161.775656 
L 479.570625 161.775656 
" style="fill:none;stroke:#808080;stroke-dasharray:0.5,0.825;stroke-dashoffset:0;stroke-width:0.5;"></path>
     </g>
     <g id="line2d_62"></g>
     <g id="text_22">
      <!-- 0.4 -->
      <g transform="translate(19.557344 165.194953)scale(0.09 -0.09)">
       <use xlink:href="#DejaVuSans-48"></use>
       <use x="63.623047" xlink:href="#DejaVuSans-46"></use>
       <use x="95.410156" xlink:href="#DejaVuSans-52"></use>
      </g>
     </g>
    </g>
    <g id="text_23">
     <!-- error trace -->
     <defs>
      <path d="M 48.78125 52.59375 
L 48.78125 44.1875 
Q 44.96875 46.296875 41.140625 47.34375 
Q 37.3125 48.390625 33.40625 48.390625 
Q 24.65625 48.390625 19.8125 42.84375 
Q 14.984375 37.3125 14.984375 27.296875 
Q 14.984375 17.28125 19.8125 11.734375 
Q 24.65625 6.203125 33.40625 6.203125 
Q 37.3125 6.203125 41.140625 7.25 
Q 44.96875 8.296875 48.78125 10.40625 
L 48.78125 2.09375 
Q 45.015625 0.34375 40.984375 -0.53125 
Q 36.96875 -1.421875 32.421875 -1.421875 
Q 20.0625 -1.421875 12.78125 6.34375 
Q 5.515625 14.109375 5.515625 27.296875 
Q 5.515625 40.671875 12.859375 48.328125 
Q 20.21875 56 33.015625 56 
Q 37.15625 56 41.109375 55.140625 
Q 45.0625 54.296875 48.78125 52.59375 
z
" id="DejaVuSans-99"></path>
     </defs>
     <g transform="translate(10.438594 239.874609)rotate(-90)scale(0.09 -0.09)">
      <use xlink:href="#DejaVuSans-101"></use>
      <use x="61.523438" xlink:href="#DejaVuSans-114"></use>
      <use x="102.621094" xlink:href="#DejaVuSans-114"></use>
      <use x="143.703125" xlink:href="#DejaVuSans-111"></use>
      <use x="204.884766" xlink:href="#DejaVuSans-114"></use>
      <use x="245.998047" xlink:href="#DejaVuSans-32"></use>
      <use x="277.785156" xlink:href="#DejaVuSans-116"></use>
      <use x="316.994141" xlink:href="#DejaVuSans-114"></use>
      <use x="358.107422" xlink:href="#DejaVuSans-97"></use>
      <use x="419.386719" xlink:href="#DejaVuSans-99"></use>
      <use x="474.367188" xlink:href="#DejaVuSans-101"></use>
     </g>
    </g>
   </g>
   <g id="line2d_63">
    <path clip-path="url(#p394351f1f1)" d="M 37.370156 215.759531 
L 159.196385 215.759531 
L 160.522987 223.161273 
L 161.849588 229.294986 
L 163.17619 234.329159 
L 164.502791 238.411768 
L 165.387192 240.669672 
L 166.934894 235.337755 
L 168.482595 230.842869 
L 170.030297 227.066166 
L 171.577999 223.904968 
L 173.1257 221.270609 
L 174.673402 219.086563 
L 176.221103 217.286826 
L 177.768805 215.814497 
L 179.316507 214.620566 
L 181.085309 213.543125 
L 182.85411 212.720776 
L 184.844013 212.044705 
L 187.055015 211.540926 
L 189.487117 211.21971 
L 192.361421 211.072891 
L 195.899024 211.130328 
L 200.542129 211.444816 
L 208.722838 212.265123 
L 220.662251 213.443985 
L 221.988852 206.155704 
L 222.209952 205.068688 
L 223.978754 207.117924 
L 225.747556 208.828146 
L 227.516358 210.252248 
L 229.50626 211.567945 
L 231.496162 212.63175 
L 233.707164 213.57221 
L 236.139267 214.370405 
L 239.01357 215.064802 
L 242.330074 215.615001 
L 246.088777 216.00714 
L 250.952983 216.274295 
L 257.364889 216.38664 
L 267.977701 216.317208 
L 269.525402 216.296863 
L 269.746503 215.39065 
L 275.716209 215.51921 
L 275.937309 216.426137 
L 295.61523 216.066349 
L 319.715156 215.867831 
L 330.991267 215.82519 
L 331.212368 216.72777 
L 332.538969 216.671771 
L 332.760069 215.759531 
L 378.748918 215.759531 
L 379.191119 218.378995 
L 381.844321 217.552055 
L 384.718624 216.887945 
L 388.035128 216.34596 
L 392.014932 215.92219 
L 397.100238 215.61795 
L 403.954345 215.450949 
L 415.009357 215.43792 
L 479.349525 215.731336 
L 479.349525 215.731336 
" style="fill:none;stroke:#1f77b4;stroke-linecap:square;stroke-width:1.5;"></path>
   </g>
   <g id="patch_8">
    <path d="M 37.370156 283.239375 
L 37.370156 148.279687 
" style="fill:none;stroke:#808080;stroke-linecap:square;stroke-linejoin:miter;stroke-width:0.5;"></path>
   </g>
   <g id="patch_9">
    <path d="M 479.570625 283.239375 
L 479.570625 148.279687 
" style="fill:none;stroke:#808080;stroke-linecap:square;stroke-linejoin:miter;stroke-width:0.5;"></path>
   </g>
   <g id="patch_10">
    <path d="M 37.370156 283.239375 
L 479.570625 283.239375 
" style="fill:none;stroke:#808080;stroke-linecap:square;stroke-linejoin:miter;stroke-width:0.5;"></path>
   </g>
   <g id="patch_11">
    <path d="M 37.370156 148.279687 
L 479.570625 148.279687 
" style="fill:none;stroke:#808080;stroke-linecap:square;stroke-linejoin:miter;stroke-width:0.5;"></path>
   </g>
  </g>
 </g>
 <defs>
  <clipPath id="p1bba1567ee">
   <rect height="134.959687" width="442.200469" x="37.370156" y="3.6"></rect>
  </clipPath>
  <clipPath id="p394351f1f1">
   <rect height="134.959688" width="442.200469" x="37.370156" y="148.279687"></rect>
  </clipPath>
 </defs>
</svg>
