<svg height="311.76pt" version="1.1" viewBox="0 0 491.76 311.76" width="491.76pt" xmlns="http://www.w3.org/2000/svg" xmlns:xlink="http://www.w3.org/1999/xlink" style="width: 100%; height: 100%;">
 <defs>
  <style type="text/css">
*{stroke-linecap:butt;stroke-linejoin:round;}
  </style>
 </defs>
 <g id="figure_1">
  <g id="patch_1">
   <path d="M 0 311.76 
L 491.76 311.76 
L 491.76 0 
L 0 0 
z
" style="fill:none;"></path>
  </g>
  <g id="axes_1">
   <g id="patch_2">
    <path d="M 34.123125 283.239375 
L 488.16 283.239375 
L 488.16 3.6 
L 34.123125 3.6 
z
" style="fill:#ffffff;"></path>
   </g>
   <g id="matplotlib.axis_1">
    <g id="xtick_1">
     <g id="line2d_1">
      <path clip-path="url(#p46f0fc2ef0)" d="M 54.761165 283.239375 
L 54.761165 3.6 
" style="fill:none;stroke:#808080;stroke-dasharray:0.5,0.825;stroke-dashoffset:0;stroke-width:0.5;"></path>
     </g>
     <g id="line2d_2"></g>
     <g id="text_1">
      <!-- 0.0 -->
      <defs>
       <path d="M 31.78125 66.40625 
Q 24.171875 66.40625 20.328125 58.90625 
Q 16.5 51.421875 16.5 36.375 
Q 16.5 21.390625 20.328125 13.890625 
Q 24.171875 6.390625 31.78125 6.390625 
Q 39.453125 6.390625 43.28125 13.890625 
Q 47.125 21.390625 47.125 36.375 
Q 47.125 51.421875 43.28125 58.90625 
Q 39.453125 66.40625 31.78125 66.40625 
z
M 31.78125 74.21875 
Q 44.046875 74.21875 50.515625 64.515625 
Q 56.984375 54.828125 56.984375 36.375 
Q 56.984375 17.96875 50.515625 8.265625 
Q 44.046875 -1.421875 31.78125 -1.421875 
Q 19.53125 -1.421875 13.0625 8.265625 
Q 6.59375 17.96875 6.59375 36.375 
Q 6.59375 54.828125 13.0625 64.515625 
Q 19.53125 74.21875 31.78125 74.21875 
z
" id="DejaVuSans-48"></path>
       <path d="M 10.6875 12.40625 
L 21 12.40625 
L 21 0 
L 10.6875 0 
z
" id="DejaVuSans-46"></path>
      </defs>
      <g transform="translate(47.604759 293.577969)scale(0.09 -0.09)">
       <use xlink:href="#DejaVuSans-48"></use>
       <use x="63.623047" xlink:href="#DejaVuSans-46"></use>
       <use x="95.410156" xlink:href="#DejaVuSans-48"></use>
      </g>
     </g>
    </g>
    <g id="xtick_2">
     <g id="line2d_3">
      <path clip-path="url(#p46f0fc2ef0)" d="M 137.313324 283.239375 
L 137.313324 3.6 
" style="fill:none;stroke:#808080;stroke-dasharray:0.5,0.825;stroke-dashoffset:0;stroke-width:0.5;"></path>
     </g>
     <g id="line2d_4"></g>
     <g id="text_2">
      <!-- 0.2 -->
      <defs>
       <path d="M 19.1875 8.296875 
L 53.609375 8.296875 
L 53.609375 0 
L 7.328125 0 
L 7.328125 8.296875 
Q 12.9375 14.109375 22.625 23.890625 
Q 32.328125 33.6875 34.8125 36.53125 
Q 39.546875 41.84375 41.421875 45.53125 
Q 43.3125 49.21875 43.3125 52.78125 
Q 43.3125 58.59375 39.234375 62.25 
Q 35.15625 65.921875 28.609375 65.921875 
Q 23.96875 65.921875 18.8125 64.3125 
Q 13.671875 62.703125 7.8125 59.421875 
L 7.8125 69.390625 
Q 13.765625 71.78125 18.9375 73 
Q 24.125 74.21875 28.421875 74.21875 
Q 39.75 74.21875 46.484375 68.546875 
Q 53.21875 62.890625 53.21875 53.421875 
Q 53.21875 48.921875 51.53125 44.890625 
Q 49.859375 40.875 45.40625 35.40625 
Q 44.1875 33.984375 37.640625 27.21875 
Q 31.109375 20.453125 19.1875 8.296875 
z
" id="DejaVuSans-50"></path>
      </defs>
      <g transform="translate(130.156918 293.577969)scale(0.09 -0.09)">
       <use xlink:href="#DejaVuSans-48"></use>
       <use x="63.623047" xlink:href="#DejaVuSans-46"></use>
       <use x="95.410156" xlink:href="#DejaVuSans-50"></use>
      </g>
     </g>
    </g>
    <g id="xtick_3">
     <g id="line2d_5">
      <path clip-path="url(#p46f0fc2ef0)" d="M 219.865483 283.239375 
L 219.865483 3.6 
" style="fill:none;stroke:#808080;stroke-dasharray:0.5,0.825;stroke-dashoffset:0;stroke-width:0.5;"></path>
     </g>
     <g id="line2d_6"></g>
     <g id="text_3">
      <!-- 0.4 -->
      <defs>
       <path d="M 37.796875 64.3125 
L 12.890625 25.390625 
L 37.796875 25.390625 
z
M 35.203125 72.90625 
L 47.609375 72.90625 
L 47.609375 25.390625 
L 58.015625 25.390625 
L 58.015625 17.1875 
L 47.609375 17.1875 
L 47.609375 0 
L 37.796875 0 
L 37.796875 17.1875 
L 4.890625 17.1875 
L 4.890625 26.703125 
z
" id="DejaVuSans-52"></path>
      </defs>
      <g transform="translate(212.709077 293.577969)scale(0.09 -0.09)">
       <use xlink:href="#DejaVuSans-48"></use>
       <use x="63.623047" xlink:href="#DejaVuSans-46"></use>
       <use x="95.410156" xlink:href="#DejaVuSans-52"></use>
      </g>
     </g>
    </g>
    <g id="xtick_4">
     <g id="line2d_7">
      <path clip-path="url(#p46f0fc2ef0)" d="M 302.417642 283.239375 
L 302.417642 3.6 
" style="fill:none;stroke:#808080;stroke-dasharray:0.5,0.825;stroke-dashoffset:0;stroke-width:0.5;"></path>
     </g>
     <g id="line2d_8"></g>
     <g id="text_4">
      <!-- 0.6 -->
      <defs>
       <path d="M 33.015625 40.375 
Q 26.375 40.375 22.484375 35.828125 
Q 18.609375 31.296875 18.609375 23.390625 
Q 18.609375 15.53125 22.484375 10.953125 
Q 26.375 6.390625 33.015625 6.390625 
Q 39.65625 6.390625 43.53125 10.953125 
Q 47.40625 15.53125 47.40625 23.390625 
Q 47.40625 31.296875 43.53125 35.828125 
Q 39.65625 40.375 33.015625 40.375 
z
M 52.59375 71.296875 
L 52.59375 62.3125 
Q 48.875 64.0625 45.09375 64.984375 
Q 41.3125 65.921875 37.59375 65.921875 
Q 27.828125 65.921875 22.671875 59.328125 
Q 17.53125 52.734375 16.796875 39.40625 
Q 19.671875 43.65625 24.015625 45.921875 
Q 28.375 48.1875 33.59375 48.1875 
Q 44.578125 48.1875 50.953125 41.515625 
Q 57.328125 34.859375 57.328125 23.390625 
Q 57.328125 12.15625 50.6875 5.359375 
Q 44.046875 -1.421875 33.015625 -1.421875 
Q 20.359375 -1.421875 13.671875 8.265625 
Q 6.984375 17.96875 6.984375 36.375 
Q 6.984375 53.65625 15.1875 63.9375 
Q 23.390625 74.21875 37.203125 74.21875 
Q 40.921875 74.21875 44.703125 73.484375 
Q 48.484375 72.75 52.59375 71.296875 
z
" id="DejaVuSans-54"></path>
      </defs>
      <g transform="translate(295.261236 293.577969)scale(0.09 -0.09)">
       <use xlink:href="#DejaVuSans-48"></use>
       <use x="63.623047" xlink:href="#DejaVuSans-46"></use>
       <use x="95.410156" xlink:href="#DejaVuSans-54"></use>
      </g>
     </g>
    </g>
    <g id="xtick_5">
     <g id="line2d_9">
      <path clip-path="url(#p46f0fc2ef0)" d="M 384.969801 283.239375 
L 384.969801 3.6 
" style="fill:none;stroke:#808080;stroke-dasharray:0.5,0.825;stroke-dashoffset:0;stroke-width:0.5;"></path>
     </g>
     <g id="line2d_10"></g>
     <g id="text_5">
      <!-- 0.8 -->
      <defs>
       <path d="M 31.78125 34.625 
Q 24.75 34.625 20.71875 30.859375 
Q 16.703125 27.09375 16.703125 20.515625 
Q 16.703125 13.921875 20.71875 10.15625 
Q 24.75 6.390625 31.78125 6.390625 
Q 38.8125 6.390625 42.859375 10.171875 
Q 46.921875 13.96875 46.921875 20.515625 
Q 46.921875 27.09375 42.890625 30.859375 
Q 38.875 34.625 31.78125 34.625 
z
M 21.921875 38.8125 
Q 15.578125 40.375 12.03125 44.71875 
Q 8.5 49.078125 8.5 55.328125 
Q 8.5 64.0625 14.71875 69.140625 
Q 20.953125 74.21875 31.78125 74.21875 
Q 42.671875 74.21875 48.875 69.140625 
Q 55.078125 64.0625 55.078125 55.328125 
Q 55.078125 49.078125 51.53125 44.71875 
Q 48 40.375 41.703125 38.8125 
Q 48.828125 37.15625 52.796875 32.3125 
Q 56.78125 27.484375 56.78125 20.515625 
Q 56.78125 9.90625 50.3125 4.234375 
Q 43.84375 -1.421875 31.78125 -1.421875 
Q 19.734375 -1.421875 13.25 4.234375 
Q 6.78125 9.90625 6.78125 20.515625 
Q 6.78125 27.484375 10.78125 32.3125 
Q 14.796875 37.15625 21.921875 38.8125 
z
M 18.3125 54.390625 
Q 18.3125 48.734375 21.84375 45.5625 
Q 25.390625 42.390625 31.78125 42.390625 
Q 38.140625 42.390625 41.71875 45.5625 
Q 45.3125 48.734375 45.3125 54.390625 
Q 45.3125 60.0625 41.71875 63.234375 
Q 38.140625 66.40625 31.78125 66.40625 
Q 25.390625 66.40625 21.84375 63.234375 
Q 18.3125 60.0625 18.3125 54.390625 
z
" id="DejaVuSans-56"></path>
      </defs>
      <g transform="translate(377.813395 293.577969)scale(0.09 -0.09)">
       <use xlink:href="#DejaVuSans-48"></use>
       <use x="63.623047" xlink:href="#DejaVuSans-46"></use>
       <use x="95.410156" xlink:href="#DejaVuSans-56"></use>
      </g>
     </g>
    </g>
    <g id="xtick_6">
     <g id="line2d_11">
      <path clip-path="url(#p46f0fc2ef0)" d="M 467.52196 283.239375 
L 467.52196 3.6 
" style="fill:none;stroke:#808080;stroke-dasharray:0.5,0.825;stroke-dashoffset:0;stroke-width:0.5;"></path>
     </g>
     <g id="line2d_12"></g>
     <g id="text_6">
      <!-- 1.0 -->
      <defs>
       <path d="M 12.40625 8.296875 
L 28.515625 8.296875 
L 28.515625 63.921875 
L 10.984375 60.40625 
L 10.984375 69.390625 
L 28.421875 72.90625 
L 38.28125 72.90625 
L 38.28125 8.296875 
L 54.390625 8.296875 
L 54.390625 0 
L 12.40625 0 
z
" id="DejaVuSans-49"></path>
      </defs>
      <g transform="translate(460.365554 293.577969)scale(0.09 -0.09)">
       <use xlink:href="#DejaVuSans-49"></use>
       <use x="63.623047" xlink:href="#DejaVuSans-46"></use>
       <use x="95.410156" xlink:href="#DejaVuSans-48"></use>
      </g>
     </g>
    </g>
    <g id="text_7">
     <!-- normalized membrane potential -->
     <defs>
      <path d="M 54.890625 33.015625 
L 54.890625 0 
L 45.90625 0 
L 45.90625 32.71875 
Q 45.90625 40.484375 42.875 44.328125 
Q 39.84375 48.1875 33.796875 48.1875 
Q 26.515625 48.1875 22.3125 43.546875 
Q 18.109375 38.921875 18.109375 30.90625 
L 18.109375 0 
L 9.078125 0 
L 9.078125 54.6875 
L 18.109375 54.6875 
L 18.109375 46.1875 
Q 21.34375 51.125 25.703125 53.5625 
Q 30.078125 56 35.796875 56 
Q 45.21875 56 50.046875 50.171875 
Q 54.890625 44.34375 54.890625 33.015625 
z
" id="DejaVuSans-110"></path>
      <path d="M 30.609375 48.390625 
Q 23.390625 48.390625 19.1875 42.75 
Q 14.984375 37.109375 14.984375 27.296875 
Q 14.984375 17.484375 19.15625 11.84375 
Q 23.34375 6.203125 30.609375 6.203125 
Q 37.796875 6.203125 41.984375 11.859375 
Q 46.1875 17.53125 46.1875 27.296875 
Q 46.1875 37.015625 41.984375 42.703125 
Q 37.796875 48.390625 30.609375 48.390625 
z
M 30.609375 56 
Q 42.328125 56 49.015625 48.375 
Q 55.71875 40.765625 55.71875 27.296875 
Q 55.71875 13.875 49.015625 6.21875 
Q 42.328125 -1.421875 30.609375 -1.421875 
Q 18.84375 -1.421875 12.171875 6.21875 
Q 5.515625 13.875 5.515625 27.296875 
Q 5.515625 40.765625 12.171875 48.375 
Q 18.84375 56 30.609375 56 
z
" id="DejaVuSans-111"></path>
      <path d="M 41.109375 46.296875 
Q 39.59375 47.171875 37.8125 47.578125 
Q 36.03125 48 33.890625 48 
Q 26.265625 48 22.1875 43.046875 
Q 18.109375 38.09375 18.109375 28.8125 
L 18.109375 0 
L 9.078125 0 
L 9.078125 54.6875 
L 18.109375 54.6875 
L 18.109375 46.1875 
Q 20.953125 51.171875 25.484375 53.578125 
Q 30.03125 56 36.53125 56 
Q 37.453125 56 38.578125 55.875 
Q 39.703125 55.765625 41.0625 55.515625 
z
" id="DejaVuSans-114"></path>
      <path d="M 52 44.1875 
Q 55.375 50.25 60.0625 53.125 
Q 64.75 56 71.09375 56 
Q 79.640625 56 84.28125 50.015625 
Q 88.921875 44.046875 88.921875 33.015625 
L 88.921875 0 
L 79.890625 0 
L 79.890625 32.71875 
Q 79.890625 40.578125 77.09375 44.375 
Q 74.3125 48.1875 68.609375 48.1875 
Q 61.625 48.1875 57.5625 43.546875 
Q 53.515625 38.921875 53.515625 30.90625 
L 53.515625 0 
L 44.484375 0 
L 44.484375 32.71875 
Q 44.484375 40.625 41.703125 44.40625 
Q 38.921875 48.1875 33.109375 48.1875 
Q 26.21875 48.1875 22.15625 43.53125 
Q 18.109375 38.875 18.109375 30.90625 
L 18.109375 0 
L 9.078125 0 
L 9.078125 54.6875 
L 18.109375 54.6875 
L 18.109375 46.1875 
Q 21.1875 51.21875 25.484375 53.609375 
Q 29.78125 56 35.6875 56 
Q 41.65625 56 45.828125 52.96875 
Q 50 49.953125 52 44.1875 
z
" id="DejaVuSans-109"></path>
      <path d="M 34.28125 27.484375 
Q 23.390625 27.484375 19.1875 25 
Q 14.984375 22.515625 14.984375 16.5 
Q 14.984375 11.71875 18.140625 8.90625 
Q 21.296875 6.109375 26.703125 6.109375 
Q 34.1875 6.109375 38.703125 11.40625 
Q 43.21875 16.703125 43.21875 25.484375 
L 43.21875 27.484375 
z
M 52.203125 31.203125 
L 52.203125 0 
L 43.21875 0 
L 43.21875 8.296875 
Q 40.140625 3.328125 35.546875 0.953125 
Q 30.953125 -1.421875 24.3125 -1.421875 
Q 15.921875 -1.421875 10.953125 3.296875 
Q 6 8.015625 6 15.921875 
Q 6 25.140625 12.171875 29.828125 
Q 18.359375 34.515625 30.609375 34.515625 
L 43.21875 34.515625 
L 43.21875 35.40625 
Q 43.21875 41.609375 39.140625 45 
Q 35.0625 48.390625 27.6875 48.390625 
Q 23 48.390625 18.546875 47.265625 
Q 14.109375 46.140625 10.015625 43.890625 
L 10.015625 52.203125 
Q 14.9375 54.109375 19.578125 55.046875 
Q 24.21875 56 28.609375 56 
Q 40.484375 56 46.34375 49.84375 
Q 52.203125 43.703125 52.203125 31.203125 
z
" id="DejaVuSans-97"></path>
      <path d="M 9.421875 75.984375 
L 18.40625 75.984375 
L 18.40625 0 
L 9.421875 0 
z
" id="DejaVuSans-108"></path>
      <path d="M 9.421875 54.6875 
L 18.40625 54.6875 
L 18.40625 0 
L 9.421875 0 
z
M 9.421875 75.984375 
L 18.40625 75.984375 
L 18.40625 64.59375 
L 9.421875 64.59375 
z
" id="DejaVuSans-105"></path>
      <path d="M 5.515625 54.6875 
L 48.1875 54.6875 
L 48.1875 46.484375 
L 14.40625 7.171875 
L 48.1875 7.171875 
L 48.1875 0 
L 4.296875 0 
L 4.296875 8.203125 
L 38.09375 47.515625 
L 5.515625 47.515625 
z
" id="DejaVuSans-122"></path>
      <path d="M 56.203125 29.59375 
L 56.203125 25.203125 
L 14.890625 25.203125 
Q 15.484375 15.921875 20.484375 11.0625 
Q 25.484375 6.203125 34.421875 6.203125 
Q 39.59375 6.203125 44.453125 7.46875 
Q 49.3125 8.734375 54.109375 11.28125 
L 54.109375 2.78125 
Q 49.265625 0.734375 44.1875 -0.34375 
Q 39.109375 -1.421875 33.890625 -1.421875 
Q 20.796875 -1.421875 13.15625 6.1875 
Q 5.515625 13.8125 5.515625 26.8125 
Q 5.515625 40.234375 12.765625 48.109375 
Q 20.015625 56 32.328125 56 
Q 43.359375 56 49.78125 48.890625 
Q 56.203125 41.796875 56.203125 29.59375 
z
M 47.21875 32.234375 
Q 47.125 39.59375 43.09375 43.984375 
Q 39.0625 48.390625 32.421875 48.390625 
Q 24.90625 48.390625 20.390625 44.140625 
Q 15.875 39.890625 15.1875 32.171875 
z
" id="DejaVuSans-101"></path>
      <path d="M 45.40625 46.390625 
L 45.40625 75.984375 
L 54.390625 75.984375 
L 54.390625 0 
L 45.40625 0 
L 45.40625 8.203125 
Q 42.578125 3.328125 38.25 0.953125 
Q 33.9375 -1.421875 27.875 -1.421875 
Q 17.96875 -1.421875 11.734375 6.484375 
Q 5.515625 14.40625 5.515625 27.296875 
Q 5.515625 40.1875 11.734375 48.09375 
Q 17.96875 56 27.875 56 
Q 33.9375 56 38.25 53.625 
Q 42.578125 51.265625 45.40625 46.390625 
z
M 14.796875 27.296875 
Q 14.796875 17.390625 18.875 11.75 
Q 22.953125 6.109375 30.078125 6.109375 
Q 37.203125 6.109375 41.296875 11.75 
Q 45.40625 17.390625 45.40625 27.296875 
Q 45.40625 37.203125 41.296875 42.84375 
Q 37.203125 48.484375 30.078125 48.484375 
Q 22.953125 48.484375 18.875 42.84375 
Q 14.796875 37.203125 14.796875 27.296875 
z
" id="DejaVuSans-100"></path>
      <path id="DejaVuSans-32"></path>
      <path d="M 48.6875 27.296875 
Q 48.6875 37.203125 44.609375 42.84375 
Q 40.53125 48.484375 33.40625 48.484375 
Q 26.265625 48.484375 22.1875 42.84375 
Q 18.109375 37.203125 18.109375 27.296875 
Q 18.109375 17.390625 22.1875 11.75 
Q 26.265625 6.109375 33.40625 6.109375 
Q 40.53125 6.109375 44.609375 11.75 
Q 48.6875 17.390625 48.6875 27.296875 
z
M 18.109375 46.390625 
Q 20.953125 51.265625 25.265625 53.625 
Q 29.59375 56 35.59375 56 
Q 45.5625 56 51.78125 48.09375 
Q 58.015625 40.1875 58.015625 27.296875 
Q 58.015625 14.40625 51.78125 6.484375 
Q 45.5625 -1.421875 35.59375 -1.421875 
Q 29.59375 -1.421875 25.265625 0.953125 
Q 20.953125 3.328125 18.109375 8.203125 
L 18.109375 0 
L 9.078125 0 
L 9.078125 75.984375 
L 18.109375 75.984375 
z
" id="DejaVuSans-98"></path>
      <path d="M 18.109375 8.203125 
L 18.109375 -20.796875 
L 9.078125 -20.796875 
L 9.078125 54.6875 
L 18.109375 54.6875 
L 18.109375 46.390625 
Q 20.953125 51.265625 25.265625 53.625 
Q 29.59375 56 35.59375 56 
Q 45.5625 56 51.78125 48.09375 
Q 58.015625 40.1875 58.015625 27.296875 
Q 58.015625 14.40625 51.78125 6.484375 
Q 45.5625 -1.421875 35.59375 -1.421875 
Q 29.59375 -1.421875 25.265625 0.953125 
Q 20.953125 3.328125 18.109375 8.203125 
z
M 48.6875 27.296875 
Q 48.6875 37.203125 44.609375 42.84375 
Q 40.53125 48.484375 33.40625 48.484375 
Q 26.265625 48.484375 22.1875 42.84375 
Q 18.109375 37.203125 18.109375 27.296875 
Q 18.109375 17.390625 22.1875 11.75 
Q 26.265625 6.109375 33.40625 6.109375 
Q 40.53125 6.109375 44.609375 11.75 
Q 48.6875 17.390625 48.6875 27.296875 
z
" id="DejaVuSans-112"></path>
      <path d="M 18.3125 70.21875 
L 18.3125 54.6875 
L 36.8125 54.6875 
L 36.8125 47.703125 
L 18.3125 47.703125 
L 18.3125 18.015625 
Q 18.3125 11.328125 20.140625 9.421875 
Q 21.96875 7.515625 27.59375 7.515625 
L 36.8125 7.515625 
L 36.8125 0 
L 27.59375 0 
Q 17.1875 0 13.234375 3.875 
Q 9.28125 7.765625 9.28125 18.015625 
L 9.28125 47.703125 
L 2.6875 47.703125 
L 2.6875 54.6875 
L 9.28125 54.6875 
L 9.28125 70.21875 
z
" id="DejaVuSans-116"></path>
     </defs>
     <g transform="translate(188.560078 306.288281)scale(0.09 -0.09)">
      <use xlink:href="#DejaVuSans-110"></use>
      <use x="63.378906" xlink:href="#DejaVuSans-111"></use>
      <use x="124.560547" xlink:href="#DejaVuSans-114"></use>
      <use x="165.658203" xlink:href="#DejaVuSans-109"></use>
      <use x="263.070312" xlink:href="#DejaVuSans-97"></use>
      <use x="324.349609" xlink:href="#DejaVuSans-108"></use>
      <use x="352.132812" xlink:href="#DejaVuSans-105"></use>
      <use x="379.916016" xlink:href="#DejaVuSans-122"></use>
      <use x="432.40625" xlink:href="#DejaVuSans-101"></use>
      <use x="493.929688" xlink:href="#DejaVuSans-100"></use>
      <use x="557.40625" xlink:href="#DejaVuSans-32"></use>
      <use x="589.193359" xlink:href="#DejaVuSans-109"></use>
      <use x="686.605469" xlink:href="#DejaVuSans-101"></use>
      <use x="748.128906" xlink:href="#DejaVuSans-109"></use>
      <use x="845.541016" xlink:href="#DejaVuSans-98"></use>
      <use x="909.017578" xlink:href="#DejaVuSans-114"></use>
      <use x="950.130859" xlink:href="#DejaVuSans-97"></use>
      <use x="1011.410156" xlink:href="#DejaVuSans-110"></use>
      <use x="1074.789062" xlink:href="#DejaVuSans-101"></use>
      <use x="1136.3125" xlink:href="#DejaVuSans-32"></use>
      <use x="1168.099609" xlink:href="#DejaVuSans-112"></use>
      <use x="1231.576172" xlink:href="#DejaVuSans-111"></use>
      <use x="1292.757812" xlink:href="#DejaVuSans-116"></use>
      <use x="1331.966797" xlink:href="#DejaVuSans-101"></use>
      <use x="1393.490234" xlink:href="#DejaVuSans-110"></use>
      <use x="1456.869141" xlink:href="#DejaVuSans-116"></use>
      <use x="1496.078125" xlink:href="#DejaVuSans-105"></use>
      <use x="1523.861328" xlink:href="#DejaVuSans-97"></use>
      <use x="1585.140625" xlink:href="#DejaVuSans-108"></use>
     </g>
    </g>
   </g>
   <g id="matplotlib.axis_2">
    <g id="ytick_1">
     <g id="line2d_13">
      <path clip-path="url(#p46f0fc2ef0)" d="M 34.123125 272.646974 
L 488.16 272.646974 
" style="fill:none;stroke:#808080;stroke-dasharray:0.5,0.825;stroke-dashoffset:0;stroke-width:0.5;"></path>
     </g>
     <g id="line2d_14"></g>
     <g id="text_8">
      <!-- 0.0 -->
      <g transform="translate(16.310313 276.066271)scale(0.09 -0.09)">
       <use xlink:href="#DejaVuSans-48"></use>
       <use x="63.623047" xlink:href="#DejaVuSans-46"></use>
       <use x="95.410156" xlink:href="#DejaVuSans-48"></use>
      </g>
     </g>
    </g>
    <g id="ytick_2">
     <g id="line2d_15">
      <path clip-path="url(#p46f0fc2ef0)" d="M 34.123125 221.379756 
L 488.16 221.379756 
" style="fill:none;stroke:#808080;stroke-dasharray:0.5,0.825;stroke-dashoffset:0;stroke-width:0.5;"></path>
     </g>
     <g id="line2d_16"></g>
     <g id="text_9">
      <!-- 0.2 -->
      <g transform="translate(16.310313 224.799053)scale(0.09 -0.09)">
       <use xlink:href="#DejaVuSans-48"></use>
       <use x="63.623047" xlink:href="#DejaVuSans-46"></use>
       <use x="95.410156" xlink:href="#DejaVuSans-50"></use>
      </g>
     </g>
    </g>
    <g id="ytick_3">
     <g id="line2d_17">
      <path clip-path="url(#p46f0fc2ef0)" d="M 34.123125 170.112537 
L 488.16 170.112537 
" style="fill:none;stroke:#808080;stroke-dasharray:0.5,0.825;stroke-dashoffset:0;stroke-width:0.5;"></path>
     </g>
     <g id="line2d_18"></g>
     <g id="text_10">
      <!-- 0.4 -->
      <g transform="translate(16.310313 173.531834)scale(0.09 -0.09)">
       <use xlink:href="#DejaVuSans-48"></use>
       <use x="63.623047" xlink:href="#DejaVuSans-46"></use>
       <use x="95.410156" xlink:href="#DejaVuSans-52"></use>
      </g>
     </g>
    </g>
    <g id="ytick_4">
     <g id="line2d_19">
      <path clip-path="url(#p46f0fc2ef0)" d="M 34.123125 118.845318 
L 488.16 118.845318 
" style="fill:none;stroke:#808080;stroke-dasharray:0.5,0.825;stroke-dashoffset:0;stroke-width:0.5;"></path>
     </g>
     <g id="line2d_20"></g>
     <g id="text_11">
      <!-- 0.6 -->
      <g transform="translate(16.310313 122.264615)scale(0.09 -0.09)">
       <use xlink:href="#DejaVuSans-48"></use>
       <use x="63.623047" xlink:href="#DejaVuSans-46"></use>
       <use x="95.410156" xlink:href="#DejaVuSans-54"></use>
      </g>
     </g>
    </g>
    <g id="ytick_5">
     <g id="line2d_21">
      <path clip-path="url(#p46f0fc2ef0)" d="M 34.123125 67.578099 
L 488.16 67.578099 
" style="fill:none;stroke:#808080;stroke-dasharray:0.5,0.825;stroke-dashoffset:0;stroke-width:0.5;"></path>
     </g>
     <g id="line2d_22"></g>
     <g id="text_12">
      <!-- 0.8 -->
      <g transform="translate(16.310313 70.997396)scale(0.09 -0.09)">
       <use xlink:href="#DejaVuSans-48"></use>
       <use x="63.623047" xlink:href="#DejaVuSans-46"></use>
       <use x="95.410156" xlink:href="#DejaVuSans-56"></use>
      </g>
     </g>
    </g>
    <g id="ytick_6">
     <g id="line2d_23">
      <path clip-path="url(#p46f0fc2ef0)" d="M 34.123125 16.310881 
L 488.16 16.310881 
" style="fill:none;stroke:#808080;stroke-dasharray:0.5,0.825;stroke-dashoffset:0;stroke-width:0.5;"></path>
     </g>
     <g id="line2d_24"></g>
     <g id="text_13">
      <!-- 1.0 -->
      <g transform="translate(16.310313 19.730178)scale(0.09 -0.09)">
       <use xlink:href="#DejaVuSans-49"></use>
       <use x="63.623047" xlink:href="#DejaVuSans-46"></use>
       <use x="95.410156" xlink:href="#DejaVuSans-48"></use>
      </g>
     </g>
    </g>
    <g id="text_14">
     <!-- surrogate gradient -->
     <defs>
      <path d="M 44.28125 53.078125 
L 44.28125 44.578125 
Q 40.484375 46.53125 36.375 47.5 
Q 32.28125 48.484375 27.875 48.484375 
Q 21.1875 48.484375 17.84375 46.4375 
Q 14.5 44.390625 14.5 40.28125 
Q 14.5 37.15625 16.890625 35.375 
Q 19.28125 33.59375 26.515625 31.984375 
L 29.59375 31.296875 
Q 39.15625 29.25 43.1875 25.515625 
Q 47.21875 21.78125 47.21875 15.09375 
Q 47.21875 7.46875 41.1875 3.015625 
Q 35.15625 -1.421875 24.609375 -1.421875 
Q 20.21875 -1.421875 15.453125 -0.5625 
Q 10.6875 0.296875 5.421875 2 
L 5.421875 11.28125 
Q 10.40625 8.6875 15.234375 7.390625 
Q 20.0625 6.109375 24.8125 6.109375 
Q 31.15625 6.109375 34.5625 8.28125 
Q 37.984375 10.453125 37.984375 14.40625 
Q 37.984375 18.0625 35.515625 20.015625 
Q 33.0625 21.96875 24.703125 23.78125 
L 21.578125 24.515625 
Q 13.234375 26.265625 9.515625 29.90625 
Q 5.8125 33.546875 5.8125 39.890625 
Q 5.8125 47.609375 11.28125 51.796875 
Q 16.75 56 26.8125 56 
Q 31.78125 56 36.171875 55.265625 
Q 40.578125 54.546875 44.28125 53.078125 
z
" id="DejaVuSans-115"></path>
      <path d="M 8.5 21.578125 
L 8.5 54.6875 
L 17.484375 54.6875 
L 17.484375 21.921875 
Q 17.484375 14.15625 20.5 10.265625 
Q 23.53125 6.390625 29.59375 6.390625 
Q 36.859375 6.390625 41.078125 11.03125 
Q 45.3125 15.671875 45.3125 23.6875 
L 45.3125 54.6875 
L 54.296875 54.6875 
L 54.296875 0 
L 45.3125 0 
L 45.3125 8.40625 
Q 42.046875 3.421875 37.71875 1 
Q 33.40625 -1.421875 27.6875 -1.421875 
Q 18.265625 -1.421875 13.375 4.4375 
Q 8.5 10.296875 8.5 21.578125 
z
M 31.109375 56 
z
" id="DejaVuSans-117"></path>
      <path d="M 45.40625 27.984375 
Q 45.40625 37.75 41.375 43.109375 
Q 37.359375 48.484375 30.078125 48.484375 
Q 22.859375 48.484375 18.828125 43.109375 
Q 14.796875 37.75 14.796875 27.984375 
Q 14.796875 18.265625 18.828125 12.890625 
Q 22.859375 7.515625 30.078125 7.515625 
Q 37.359375 7.515625 41.375 12.890625 
Q 45.40625 18.265625 45.40625 27.984375 
z
M 54.390625 6.78125 
Q 54.390625 -7.171875 48.1875 -13.984375 
Q 42 -20.796875 29.203125 -20.796875 
Q 24.46875 -20.796875 20.265625 -20.09375 
Q 16.0625 -19.390625 12.109375 -17.921875 
L 12.109375 -9.1875 
Q 16.0625 -11.328125 19.921875 -12.34375 
Q 23.78125 -13.375 27.78125 -13.375 
Q 36.625 -13.375 41.015625 -8.765625 
Q 45.40625 -4.15625 45.40625 5.171875 
L 45.40625 9.625 
Q 42.625 4.78125 38.28125 2.390625 
Q 33.9375 0 27.875 0 
Q 17.828125 0 11.671875 7.65625 
Q 5.515625 15.328125 5.515625 27.984375 
Q 5.515625 40.671875 11.671875 48.328125 
Q 17.828125 56 27.875 56 
Q 33.9375 56 38.28125 53.609375 
Q 42.625 51.21875 45.40625 46.390625 
L 45.40625 54.6875 
L 54.390625 54.6875 
z
" id="DejaVuSans-103"></path>
     </defs>
     <g transform="translate(10.438594 185.600859)rotate(-90)scale(0.09 -0.09)">
      <use xlink:href="#DejaVuSans-115"></use>
      <use x="52.099609" xlink:href="#DejaVuSans-117"></use>
      <use x="115.478516" xlink:href="#DejaVuSans-114"></use>
      <use x="156.576172" xlink:href="#DejaVuSans-114"></use>
      <use x="197.658203" xlink:href="#DejaVuSans-111"></use>
      <use x="258.839844" xlink:href="#DejaVuSans-103"></use>
      <use x="322.316406" xlink:href="#DejaVuSans-97"></use>
      <use x="383.595703" xlink:href="#DejaVuSans-116"></use>
      <use x="422.804688" xlink:href="#DejaVuSans-101"></use>
      <use x="484.328125" xlink:href="#DejaVuSans-32"></use>
      <use x="516.115234" xlink:href="#DejaVuSans-103"></use>
      <use x="579.591797" xlink:href="#DejaVuSans-114"></use>
      <use x="620.705078" xlink:href="#DejaVuSans-97"></use>
      <use x="681.984375" xlink:href="#DejaVuSans-100"></use>
      <use x="745.460938" xlink:href="#DejaVuSans-105"></use>
      <use x="773.244141" xlink:href="#DejaVuSans-101"></use>
      <use x="834.767578" xlink:href="#DejaVuSans-110"></use>
      <use x="898.146484" xlink:href="#DejaVuSans-116"></use>
     </g>
    </g>
   </g>
   <g id="line2d_25">
    <path clip-path="url(#p46f0fc2ef0)" d="M 54.761165 208.562951 
L 58.930466 207.910701 
L 63.099767 207.248441 
L 67.269068 206.575967 
L 71.438369 205.893067 
L 75.60767 205.199525 
L 79.776971 204.495117 
L 83.946272 203.779617 
L 88.115572 203.05279 
L 92.284873 202.314395 
L 96.454174 201.564187 
L 100.623475 200.80191 
L 104.792776 200.027306 
L 108.962077 199.240107 
L 113.131378 198.440038 
L 117.300679 197.626817 
L 121.46998 196.800155 
L 125.639281 195.959753 
L 129.808582 195.105306 
L 133.977883 194.236499 
L 138.147184 193.353007 
L 142.316485 192.454499 
L 146.485786 191.540632 
L 150.655087 190.611054 
L 154.824388 189.665403 
L 158.993689 188.703306 
L 163.16299 187.724379 
L 167.332291 186.728228 
L 171.501592 185.714447 
L 175.670893 184.682616 
L 179.840194 183.632304 
L 184.009495 182.563068 
L 188.178796 181.474451 
L 192.348097 180.365981 
L 196.517398 179.237172 
L 200.686699 178.087523 
L 204.855999 176.91652 
L 209.0253 175.723628 
L 213.194601 174.5083 
L 217.363902 173.26997 
L 221.533203 172.008052 
L 225.702504 170.721945 
L 229.871805 169.411025 
L 234.041106 168.074652 
L 238.210407 166.71216 
L 242.379708 165.322866 
L 246.549009 163.906061 
L 250.71831 162.461015 
L 254.887611 160.986972 
L 259.056912 159.483151 
L 263.226213 157.948743 
L 267.395514 156.382915 
L 271.564815 154.784803 
L 275.734116 153.153512 
L 279.903417 151.488118 
L 284.072718 149.787663 
L 288.242019 148.051157 
L 292.41132 146.277574 
L 296.580621 144.465849 
L 300.749922 142.614882 
L 304.919223 140.723531 
L 309.088524 138.790613 
L 313.257825 136.8149 
L 317.427126 134.79512 
L 321.596426 132.729952 
L 325.765727 130.618027 
L 329.935028 128.457922 
L 334.104329 126.24816 
L 338.27363 123.987208 
L 342.442931 121.673472 
L 346.612232 119.305296 
L 350.781533 116.880959 
L 354.950834 114.398672 
L 359.120135 111.856571 
L 363.289436 109.25272 
L 367.458737 106.585103 
L 371.628038 103.85162 
L 375.797339 101.050085 
L 379.96664 98.178221 
L 384.135941 95.233652 
L 388.305242 92.213905 
L 392.474543 89.116398 
L 396.643844 85.938439 
L 400.813145 82.677216 
L 404.982446 79.329796 
L 409.151747 75.893113 
L 413.321048 72.363966 
L 417.490349 68.739008 
L 421.65965 65.014738 
L 425.828951 61.187497 
L 429.998252 57.253451 
L 434.167553 53.208591 
L 438.336853 49.048714 
L 442.506154 44.769418 
L 446.675455 40.366089 
L 450.844756 35.833886 
L 455.014057 31.16773 
L 459.183358 26.362291 
L 463.352659 21.411969 
L 467.52196 16.310881 
" style="fill:none;stroke:#1f77b4;stroke-linecap:square;stroke-width:1.5;"></path>
   </g>
   <g id="line2d_26">
    <path clip-path="url(#p46f0fc2ef0)" d="M 54.761165 246.885739 
L 58.930466 246.526581 
L 63.099767 246.159859 
L 67.269068 245.78536 
L 71.438369 245.402862 
L 75.60767 245.012135 
L 79.776971 244.612942 
L 83.946272 244.205036 
L 88.115572 243.788163 
L 92.284873 243.362057 
L 96.454174 242.926443 
L 100.623475 242.481036 
L 104.792776 242.025542 
L 108.962077 241.559652 
L 113.131378 241.083049 
L 117.300679 240.595401 
L 121.46998 240.096364 
L 125.639281 239.58558 
L 129.808582 239.062679 
L 133.977883 238.527274 
L 138.147184 237.978962 
L 142.316485 237.417327 
L 146.485786 236.841931 
L 150.655087 236.252324 
L 154.824388 235.648031 
L 158.993689 235.028563 
L 163.16299 234.393405 
L 167.332291 233.742025 
L 171.501592 233.073864 
L 175.670893 232.388342 
L 179.840194 231.684851 
L 184.009495 230.962758 
L 188.178796 230.221402 
L 192.348097 229.46009 
L 196.517398 228.678102 
L 200.686699 227.87468 
L 204.855999 227.049034 
L 209.0253 226.200337 
L 213.194601 225.327724 
L 217.363902 224.430285 
L 221.533203 223.507073 
L 225.702504 222.557088 
L 229.871805 221.579287 
L 234.041106 220.572573 
L 238.210407 219.535794 
L 242.379708 218.467741 
L 246.549009 217.367143 
L 250.71831 216.232666 
L 254.887611 215.062904 
L 259.056912 213.856377 
L 263.226213 212.611531 
L 267.395514 211.326723 
L 271.564815 210.000226 
L 275.734116 208.630216 
L 279.903417 207.214769 
L 284.072718 205.751853 
L 288.242019 204.239321 
L 292.41132 202.674905 
L 296.580621 201.056204 
L 300.749922 199.380677 
L 304.919223 197.645632 
L 309.088524 195.848218 
L 313.257825 193.985407 
L 317.427126 192.05399 
L 321.596426 190.050555 
L 325.765727 187.971476 
L 329.935028 185.812898 
L 334.104329 183.570714 
L 338.27363 181.240551 
L 342.442931 178.817745 
L 346.612232 176.297319 
L 350.781533 173.673956 
L 354.950834 170.941975 
L 359.120135 168.095296 
L 363.289436 165.127406 
L 367.458737 162.031325 
L 371.628038 158.799564 
L 375.797339 155.424076 
L 379.96664 151.896211 
L 384.135941 148.206658 
L 388.305242 144.345382 
L 392.474543 140.30156 
L 396.643844 136.063501 
L 400.813145 131.618563 
L 404.982446 126.953058 
L 409.151747 122.052148 
L 413.321048 116.899726 
L 417.490349 111.478282 
L 421.65965 105.768757 
L 425.828951 99.750374 
L 429.998252 93.400446 
L 434.167553 86.694166 
L 438.336853 79.604362 
L 442.506154 72.101223 
L 446.675455 64.151984 
L 450.844756 55.720566 
L 455.014057 46.767169 
L 459.183358 37.247801 
L 463.352659 27.113733 
L 467.52196 16.310881 
" style="fill:none;stroke:#ff7f0e;stroke-linecap:square;stroke-width:1.5;"></path>
   </g>
   <g id="line2d_27">
    <path clip-path="url(#p46f0fc2ef0)" d="M 54.761165 264.593062 
L 58.930466 264.45751 
L 63.099767 264.318506 
L 67.269068 264.175933 
L 71.438369 264.029668 
L 75.60767 263.879581 
L 79.776971 263.725539 
L 83.946272 263.567401 
L 88.115572 263.405021 
L 92.284873 263.238246 
L 96.454174 263.066915 
L 100.623475 262.890861 
L 104.792776 262.70991 
L 108.962077 262.523877 
L 113.131378 262.33257 
L 117.300679 262.135789 
L 121.46998 261.933323 
L 125.639281 261.724949 
L 129.808582 261.510437 
L 133.977883 261.289543 
L 138.147184 261.06201 
L 142.316485 260.827572 
L 146.485786 260.585944 
L 150.655087 260.33683 
L 154.824388 260.079917 
L 158.993689 259.814878 
L 163.16299 259.541364 
L 167.332291 259.259012 
L 171.501592 258.967435 
L 175.670893 258.666229 
L 179.840194 258.354963 
L 184.009495 258.033186 
L 188.178796 257.700418 
L 192.348097 257.356153 
L 196.517398 256.999856 
L 200.686699 256.630959 
L 204.855999 256.24886 
L 209.0253 255.852923 
L 213.194601 255.44247 
L 217.363902 255.016785 
L 221.533203 254.575102 
L 225.702504 254.116612 
L 229.871805 253.640449 
L 234.041106 253.145695 
L 238.210407 252.631367 
L 242.379708 252.096421 
L 246.549009 251.539738 
L 250.71831 250.960126 
L 254.887611 250.356308 
L 259.056912 249.726916 
L 263.226213 249.070486 
L 267.395514 248.385446 
L 271.564815 247.67011 
L 275.734116 246.922664 
L 279.903417 246.141158 
L 284.072718 245.32349 
L 288.242019 244.467394 
L 292.41132 243.570424 
L 296.580621 242.629936 
L 300.749922 241.643068 
L 304.919223 240.60672 
L 309.088524 239.517528 
L 313.257825 238.371838 
L 317.427126 237.165672 
L 321.596426 235.8947 
L 325.765727 234.554192 
L 329.935028 233.138984 
L 334.104329 231.64342 
L 338.27363 230.061298 
L 342.442931 228.385809 
L 346.612232 226.609459 
L 350.781533 224.723986 
L 354.950834 222.720266 
L 359.120135 220.588201 
L 363.289436 218.31659 
L 367.458737 215.892985 
L 371.628038 213.303518 
L 375.797339 210.532699 
L 379.96664 207.563192 
L 384.135941 204.375536 
L 388.305242 200.947827 
L 392.474543 197.255343 
L 396.643844 193.270094 
L 400.813145 188.960292 
L 404.982446 184.289714 
L 409.151747 179.216941 
L 413.321048 173.694432 
L 417.490349 167.66741 
L 421.65965 161.072495 
L 425.828951 153.836035 
L 429.998252 145.872038 
L 434.167553 137.079606 
L 438.336853 127.339722 
L 442.506154 116.511206 
L 446.675455 104.425562 
L 450.844756 90.880392 
L 455.014057 75.63086 
L 459.183358 58.378555 
L 463.352659 38.756774 
L 467.52196 16.310881 
" style="fill:none;stroke:#2ca02c;stroke-linecap:square;stroke-width:1.5;"></path>
   </g>
   <g id="line2d_28">
    <path clip-path="url(#p46f0fc2ef0)" d="M 54.761165 270.528494 
L 58.930466 270.489045 
L 63.099767 270.448483 
L 67.269068 270.406767 
L 71.438369 270.363852 
L 75.60767 270.319692 
L 79.776971 270.274239 
L 83.946272 270.22744 
L 88.115572 270.179243 
L 92.284873 270.129592 
L 96.454174 270.078427 
L 100.623475 270.025686 
L 104.792776 269.971304 
L 108.962077 269.915212 
L 113.131378 269.857337 
L 117.300679 269.797604 
L 121.46998 269.735931 
L 125.639281 269.672234 
L 129.808582 269.606423 
L 133.977883 269.538404 
L 138.147184 269.468076 
L 142.316485 269.395335 
L 146.485786 269.320068 
L 150.655087 269.242157 
L 154.824388 269.161477 
L 158.993689 269.077895 
L 163.16299 268.99127 
L 167.332291 268.901452 
L 171.501592 268.808284 
L 175.670893 268.711595 
L 179.840194 268.611207 
L 184.009495 268.506928 
L 188.178796 268.398554 
L 192.348097 268.285869 
L 196.517398 268.16864 
L 200.686699 268.04662 
L 204.855999 267.919545 
L 209.0253 267.78713 
L 213.194601 267.649073 
L 217.363902 267.505049 
L 221.533203 267.354708 
L 225.702504 267.197676 
L 229.871805 267.03355 
L 234.041106 266.861895 
L 238.210407 266.682245 
L 242.379708 266.494095 
L 246.549009 266.296899 
L 250.71831 266.09007 
L 254.887611 265.872969 
L 259.056912 265.644903 
L 263.226213 265.405124 
L 267.395514 265.152813 
L 271.564815 264.887083 
L 275.734116 264.606965 
L 279.903417 264.311401 
L 284.072718 263.999234 
L 288.242019 263.669198 
L 292.41132 263.3199 
L 296.580621 262.949814 
L 300.749922 262.557256 
L 304.919223 262.140369 
L 309.088524 261.6971 
L 313.257825 261.225177 
L 317.427126 260.722073 
L 321.596426 260.184982 
L 325.765727 259.610772 
L 329.935028 258.99594 
L 334.104329 258.336563 
L 338.27363 257.628233 
L 342.442931 256.86598 
L 346.612232 256.044189 
L 350.781533 255.156494 
L 354.950834 254.195655 
L 359.120135 253.15341 
L 363.289436 252.020296 
L 367.458737 250.785434 
L 371.628038 249.436268 
L 375.797339 247.958242 
L 379.96664 246.334409 
L 384.135941 244.544939 
L 388.305242 242.566515 
L 392.474543 240.371566 
L 396.643844 237.927304 
L 400.813145 235.194491 
L 404.982446 232.125853 
L 409.151747 228.664025 
L 413.321048 224.738848 
L 417.490349 220.263787 
L 421.65965 215.13112 
L 425.828951 209.205393 
L 429.998252 202.314395 
L 434.167553 194.236499 
L 438.336853 184.682616 
L 442.506154 173.26997 
L 446.675455 159.483151 
L 450.844756 142.614882 
L 455.014057 121.673472 
L 459.183358 95.233652 
L 463.352659 61.187497 
L 467.52196 16.310881 
" style="fill:none;stroke:#d62728;stroke-linecap:square;stroke-width:1.5;"></path>
   </g>
   <g id="patch_3">
    <path d="M 34.123125 283.239375 
L 34.123125 3.6 
" style="fill:none;stroke:#808080;stroke-linecap:square;stroke-linejoin:miter;stroke-width:0.5;"></path>
   </g>
   <g id="patch_4">
    <path d="M 488.16 283.239375 
L 488.16 3.6 
" style="fill:none;stroke:#808080;stroke-linecap:square;stroke-linejoin:miter;stroke-width:0.5;"></path>
   </g>
   <g id="patch_5">
    <path d="M 34.123125 283.239375 
L 488.16 283.239375 
" style="fill:none;stroke:#808080;stroke-linecap:square;stroke-linejoin:miter;stroke-width:0.5;"></path>
   </g>
   <g id="patch_6">
    <path d="M 34.123125 3.6 
L 488.16 3.6 
" style="fill:none;stroke:#808080;stroke-linecap:square;stroke-linejoin:miter;stroke-width:0.5;"></path>
   </g>
   <g id="legend_1">
    <g id="patch_7">
     <path d="M 38.623125 63.64125 
L 124.619531 63.64125 
L 124.619531 8.1 
L 38.623125 8.1 
z
" style="fill:#ffffff;opacity:0.8;stroke:#808080;stroke-linejoin:miter;stroke-width:0.5;"></path>
    </g>
    <g id="line2d_29">
     <path d="M 42.223125 15.388594 
L 60.223125 15.388594 
" style="fill:none;stroke:#1f77b4;stroke-linecap:square;stroke-width:1.5;"></path>
    </g>
    <g id="line2d_30"></g>
    <g id="text_15">
     <!-- beta = 1.0 -->
     <defs>
      <path d="M 10.59375 45.40625 
L 73.1875 45.40625 
L 73.1875 37.203125 
L 10.59375 37.203125 
z
M 10.59375 25.484375 
L 73.1875 25.484375 
L 73.1875 17.1875 
L 10.59375 17.1875 
z
" id="DejaVuSans-61"></path>
     </defs>
     <g transform="translate(67.423125 18.538594)scale(0.09 -0.09)">
      <use xlink:href="#DejaVuSans-98"></use>
      <use x="63.476562" xlink:href="#DejaVuSans-101"></use>
      <use x="125" xlink:href="#DejaVuSans-116"></use>
      <use x="164.208984" xlink:href="#DejaVuSans-97"></use>
      <use x="225.488281" xlink:href="#DejaVuSans-32"></use>
      <use x="257.275391" xlink:href="#DejaVuSans-61"></use>
      <use x="341.064453" xlink:href="#DejaVuSans-32"></use>
      <use x="372.851562" xlink:href="#DejaVuSans-49"></use>
      <use x="436.474609" xlink:href="#DejaVuSans-46"></use>
      <use x="468.261719" xlink:href="#DejaVuSans-48"></use>
     </g>
    </g>
    <g id="line2d_31">
     <path d="M 42.223125 28.598906 
L 60.223125 28.598906 
" style="fill:none;stroke:#ff7f0e;stroke-linecap:square;stroke-width:1.5;"></path>
    </g>
    <g id="line2d_32"></g>
    <g id="text_16">
     <!-- beta = 2.2 -->
     <g transform="translate(67.423125 31.748906)scale(0.09 -0.09)">
      <use xlink:href="#DejaVuSans-98"></use>
      <use x="63.476562" xlink:href="#DejaVuSans-101"></use>
      <use x="125" xlink:href="#DejaVuSans-116"></use>
      <use x="164.208984" xlink:href="#DejaVuSans-97"></use>
      <use x="225.488281" xlink:href="#DejaVuSans-32"></use>
      <use x="257.275391" xlink:href="#DejaVuSans-61"></use>
      <use x="341.064453" xlink:href="#DejaVuSans-32"></use>
      <use x="372.851562" xlink:href="#DejaVuSans-50"></use>
      <use x="436.474609" xlink:href="#DejaVuSans-46"></use>
      <use x="468.261719" xlink:href="#DejaVuSans-50"></use>
     </g>
    </g>
    <g id="line2d_33">
     <path d="M 42.223125 41.809219 
L 60.223125 41.809219 
" style="fill:none;stroke:#2ca02c;stroke-linecap:square;stroke-width:1.5;"></path>
    </g>
    <g id="line2d_34"></g>
    <g id="text_17">
     <!-- beta = 4.6 -->
     <g transform="translate(67.423125 44.959219)scale(0.09 -0.09)">
      <use xlink:href="#DejaVuSans-98"></use>
      <use x="63.476562" xlink:href="#DejaVuSans-101"></use>
      <use x="125" xlink:href="#DejaVuSans-116"></use>
      <use x="164.208984" xlink:href="#DejaVuSans-97"></use>
      <use x="225.488281" xlink:href="#DejaVuSans-32"></use>
      <use x="257.275391" xlink:href="#DejaVuSans-61"></use>
      <use x="341.064453" xlink:href="#DejaVuSans-32"></use>
      <use x="372.851562" xlink:href="#DejaVuSans-52"></use>
      <use x="436.474609" xlink:href="#DejaVuSans-46"></use>
      <use x="468.261719" xlink:href="#DejaVuSans-54"></use>
     </g>
    </g>
    <g id="line2d_35">
     <path d="M 42.223125 55.019531 
L 60.223125 55.019531 
" style="fill:none;stroke:#d62728;stroke-linecap:square;stroke-width:1.5;"></path>
    </g>
    <g id="line2d_36"></g>
    <g id="text_18">
     <!-- beta = 10.0 -->
     <g transform="translate(67.423125 58.169531)scale(0.09 -0.09)">
      <use xlink:href="#DejaVuSans-98"></use>
      <use x="63.476562" xlink:href="#DejaVuSans-101"></use>
      <use x="125" xlink:href="#DejaVuSans-116"></use>
      <use x="164.208984" xlink:href="#DejaVuSans-97"></use>
      <use x="225.488281" xlink:href="#DejaVuSans-32"></use>
      <use x="257.275391" xlink:href="#DejaVuSans-61"></use>
      <use x="341.064453" xlink:href="#DejaVuSans-32"></use>
      <use x="372.851562" xlink:href="#DejaVuSans-49"></use>
      <use x="436.474609" xlink:href="#DejaVuSans-48"></use>
      <use x="500.097656" xlink:href="#DejaVuSans-46"></use>
      <use x="531.884766" xlink:href="#DejaVuSans-48"></use>
     </g>
    </g>
   </g>
  </g>
 </g>
 <defs>
  <clipPath id="p46f0fc2ef0">
   <rect height="279.639375" width="454.036875" x="34.123125" y="3.6"></rect>
  </clipPath>
 </defs>
</svg>
